<svg width="178" height="180" viewBox="0 0 178 180" fill="none" xmlns="http://www.w3.org/2000/svg">
<g clip-path="url(#clip0_458_972)">
<rect width="178" height="180" fill="white"/>
<g clip-path="url(#clip1_458_972)">
<path d="M122.635 93.4256C122.4 94.5267 121.579 95.2388 120.758 95.9948C118.969 97.6318 116.843 98.8576 114.68 99.9514C99.5335 107.608 80.9705 109.061 65.5013 102.08C62.84 100.876 60.2593 99.4155 58.0672 97.4629C57.2021 96.6922 55.0027 94.9158 54.7828 93.6973C54.5115 92.2658 57.532 92.5962 58.5145 92.3613C58.6244 92.3319 58.7417 92.3099 58.8517 92.2805C60.5672 91.8841 62.3268 91.6419 64.079 91.4804C75.8605 90.3647 87.8766 92.6329 99.5115 90.4381C105.157 89.3737 110.743 87.2523 116.462 87.7734C118.009 87.9129 119.585 88.2653 120.831 89.1902C120.926 89.2636 121.014 89.3296 121.102 89.4177C122.202 90.3867 122.928 92.0163 122.627 93.4183L122.635 93.4256Z" fill="#3291D9"/>
<g style="mix-blend-mode:multiply" opacity="0.5">
<path d="M122.635 93.4254C122.4 94.5265 121.579 95.2385 120.758 95.9946C118.969 97.6315 116.843 98.8574 114.68 99.9511C99.5335 107.607 80.9705 109.061 65.5013 102.08C62.84 100.876 60.2593 99.4153 58.0672 97.4627C57.2021 96.6919 55.0027 94.9155 54.7828 93.697C54.5115 92.2656 57.532 92.5959 58.5145 92.361C58.6244 92.3317 58.7417 92.3097 58.8517 92.2803C59.4016 92.3757 59.9514 92.4638 60.4719 92.5225C63.1552 92.8382 65.8312 93.1391 68.5071 93.4254C71.5203 93.7484 74.5335 94.0494 77.554 94.3136C92.1655 95.5909 107.517 95.9212 120.751 89.5863C120.868 89.5349 120.985 89.4762 121.11 89.4102C122.209 90.3791 122.935 92.0087 122.635 93.4107V93.4254Z" fill="#3291D9"/>
</g>
<path d="M122.679 93.0659L121.454 110.397L117.715 163.197C117.51 166.119 115.545 168.615 112.767 169.532C92.0188 176.41 73.9469 172.52 64.5481 169.349C61.7989 168.416 59.8854 165.928 59.6874 163.036L55.2299 100.061L54.7754 93.7045C56.4323 93.8954 58.0965 94.3285 59.7387 94.5047C62.8326 94.8203 65.9484 94.9671 69.0349 95.2167C74.856 95.6865 80.6552 96.4132 86.4836 96.6628C97.1947 97.1179 108.053 96.6187 118.529 94.1523C119.922 93.822 121.3 93.4623 122.671 93.0659H122.679Z" fill="#68CEFF"/>
<g style="mix-blend-mode:multiply" opacity="0.5">
<path d="M121.454 110.397L117.715 163.197C117.51 166.119 115.545 168.615 112.766 169.532C92.0183 176.41 73.9465 172.52 64.5477 169.349C61.7984 168.416 59.8849 165.928 59.687 163.036L55.2295 100.062C57.143 107.527 58.6679 115.095 59.7823 122.722C60.684 128.88 61.3365 135.09 62.9421 141.102C64.555 147.107 67.2016 152.987 71.5785 157.406C75.948 161.825 82.231 164.614 88.3893 163.799C93.1547 163.168 97.4656 160.467 100.787 156.987C104.108 153.508 106.549 149.287 108.741 145.008C114.364 134.048 118.639 122.399 121.454 110.404V110.397Z" fill="#68CEFF"/>
</g>
<g style="mix-blend-mode:screen" opacity="0.5">
<path d="M94.2108 98.9163C86.4981 98.9604 78.8075 98.2337 71.1462 97.3308C68.5069 97.0225 65.8237 96.6848 63.2064 97.1546C61.938 97.3822 60.633 97.8373 59.7899 98.8136C58.9102 99.8266 58.6536 101.265 58.8295 102.594C59.0128 103.923 59.5847 105.163 60.2225 106.345C62.8105 111.153 66.6154 115.447 71.5348 117.818C75.4131 119.69 79.7753 120.285 84.0788 120.505C87.8031 120.688 91.6081 120.593 95.1638 119.477C99.548 118.097 103.316 115.227 106.681 112.085C110.047 108.943 113.096 105.471 116.623 102.513C117.591 101.706 118.61 100.913 119.262 99.8339C119.768 99.0118 120.523 96.127 118.83 96.127C117.913 96.127 116.857 96.538 115.956 96.7215C114.981 96.9124 113.998 97.0959 113.016 97.2647C109.013 97.9474 104.981 98.4245 100.934 98.6888C98.6976 98.8356 96.4615 98.909 94.2181 98.9237L94.2108 98.9163Z" fill="#9CF1FF"/>
</g>
<g style="mix-blend-mode:screen" opacity="0.5">
<path d="M73.2871 98.9676C70.9923 98.7106 68.6023 98.4464 66.4176 99.1951C65.8531 99.3933 65.2299 99.7603 65.1859 100.355C65.1419 100.972 65.7358 101.434 66.2709 101.742C70.5305 104.216 75.4352 105.449 80.3472 105.765C85.2592 106.081 90.2006 105.501 95.0246 104.524C97.5979 104.003 100.193 103.35 102.503 102.073C103.082 101.75 104.365 101.008 103.316 100.443C102.451 99.9806 101.242 100.179 100.318 100.237C94.5187 100.597 88.705 100.384 82.9205 99.9218C79.702 99.6649 76.4909 99.3273 73.2871 98.9602V98.9676Z" fill="#9CF1FF"/>
</g>
<g style="mix-blend-mode:screen" opacity="0.5">
<path d="M106.982 99.9001C106.667 100.032 106.352 100.194 106.132 100.458C105.912 100.722 105.809 101.111 105.97 101.412C106.176 101.794 106.681 101.882 107.114 101.904C107.737 101.933 108.368 101.933 108.998 101.897C110.061 101.831 111.124 101.662 112.121 101.295C112.708 101.082 114.247 100.531 114.394 99.812C114.629 98.6008 111.374 98.8944 110.772 98.9678C109.482 99.1293 108.184 99.3936 106.982 99.9074V99.9001Z" fill="#9CF1FF"/>
</g>
<path opacity="0.19" d="M88.5002 54.3008C67.9577 54.3008 51.3008 57.9784 51.3008 62.5148C51.3008 62.5956 51.3008 62.6763 51.3154 62.7497L58.1849 166.794L58.5808 172.703C58.5808 172.703 58.9547 176.374 60.7143 177.504C60.8242 177.585 60.9489 177.644 61.0735 177.695C62.1805 178.143 77.0412 179.912 88.5075 179.684C99.9738 179.912 114.842 178.143 115.942 177.695C116.242 177.577 116.506 177.387 116.741 177.144C118.126 175.742 118.442 172.696 118.442 172.696L118.801 167.249L125.685 62.7497C125.7 62.669 125.7 62.5882 125.7 62.5148C125.707 57.9784 109.05 54.3008 88.5002 54.3008Z" fill="#D7FFFF"/>
<path opacity="0.33" d="M125.641 63.5059L118.874 166.016L118.793 167.257L118.434 172.704C118.434 172.704 118.434 172.718 118.434 172.74C118.434 172.755 118.434 172.77 118.434 172.784C118.434 172.806 118.434 172.821 118.434 172.85C118.434 172.872 118.434 172.902 118.42 172.938C118.42 172.96 118.42 172.99 118.405 173.019C118.405 173.063 118.39 173.1 118.383 173.151C118.383 173.181 118.368 173.217 118.368 173.254C118.368 173.305 118.354 173.364 118.339 173.423C118.339 173.46 118.324 173.496 118.324 173.533C118.31 173.599 118.302 173.658 118.28 173.731C118.28 173.753 118.266 173.783 118.266 173.812C118.236 173.959 118.192 174.113 118.156 174.274C118.156 174.318 118.141 174.362 118.126 174.406C118.112 174.48 118.082 174.546 118.06 174.627C118.06 174.649 118.046 174.678 118.038 174.707C118.038 174.737 118.024 174.766 118.016 174.796C117.994 174.869 117.972 174.935 117.943 175.016C117.921 175.074 117.899 175.133 117.877 175.199C117.855 175.273 117.826 175.339 117.796 175.405C117.767 175.471 117.745 175.537 117.716 175.61C117.694 175.676 117.664 175.742 117.635 175.809L117.525 176.021C117.496 176.08 117.474 176.132 117.444 176.198C117.378 176.322 117.305 176.44 117.232 176.557C117.217 176.579 117.203 176.601 117.188 176.623C117.122 176.719 117.049 176.814 116.983 176.895C116.953 176.932 116.924 176.968 116.895 176.998C116.843 177.049 116.807 177.108 116.755 177.152V177.137C116.521 177.372 116.264 177.578 115.956 177.695C114.856 178.143 99.9884 179.912 88.5222 179.684C77.0559 179.912 62.1952 178.143 61.0881 177.695C60.7436 177.556 60.443 177.313 60.1864 177.02C60.1717 177.005 60.1424 176.976 60.1277 176.961C60.0617 176.88 60.0031 176.792 59.9371 176.711C59.9151 176.675 59.8931 176.645 59.8711 176.616C59.8125 176.535 59.7612 176.44 59.7025 176.352C59.6878 176.308 59.6585 176.271 59.6365 176.242C59.5925 176.154 59.5412 176.058 59.4972 175.97C59.4826 175.926 59.4606 175.889 59.4386 175.845C59.3946 175.75 59.3579 175.654 59.3213 175.559C59.3066 175.515 59.2846 175.478 59.27 175.434C59.2333 175.339 59.1966 175.243 59.16 175.148C59.1453 175.104 59.1307 175.06 59.116 175.016C59.0793 174.92 59.05 174.825 59.028 174.737C59.0134 174.693 58.9987 174.649 58.984 174.605C58.9694 174.561 58.962 174.517 58.9474 174.473C58.9327 174.421 58.9181 174.37 58.9107 174.333C58.8961 174.296 58.8887 174.252 58.8741 174.216C58.8594 174.128 58.8301 174.039 58.8154 173.959C58.8154 173.922 58.8008 173.885 58.7934 173.849C58.7788 173.768 58.7568 173.687 58.7494 173.614C58.7348 173.577 58.7348 173.548 58.7274 173.518C58.7128 173.445 58.7054 173.379 58.6908 173.313C58.6908 173.283 58.6761 173.261 58.6761 173.232C58.6615 173.173 58.6541 173.115 58.6468 173.063C58.6468 173.034 58.6468 173.019 58.6321 172.99C58.6321 172.946 58.6175 172.902 58.6175 172.865C58.6175 172.843 58.6175 172.828 58.6175 172.806C58.6175 172.792 58.6175 172.762 58.6175 172.748C58.6175 172.718 58.6175 172.704 58.6175 172.704L58.2216 166.794L58.1483 165.701L51.3301 63.0288C51.44 63.3738 51.6013 63.7041 51.8213 63.9978C51.8433 64.0198 51.8653 64.0491 51.8946 64.0785L51.9093 64.0932C52.0999 64.2987 52.2978 64.4896 52.4884 64.6951C52.4884 64.6951 52.4884 64.6951 52.5031 64.7098C52.5031 64.7098 52.5178 64.7098 52.5178 64.7245C52.5324 64.7245 52.6204 64.7832 52.7304 64.8566L59.6805 163.036C59.8858 165.928 61.7993 168.417 64.5412 169.349C73.94 172.52 92.0119 176.41 112.76 169.532C115.538 168.615 117.496 166.119 117.708 163.198L124.725 64.218C124.996 64.0638 125.26 63.8876 125.48 63.6528C125.531 63.6087 125.59 63.5573 125.641 63.5133V63.5059Z" fill="#A7FFFF"/>
<path opacity="0.33" d="M83.9398 176.455C82.95 177.108 81.711 177.196 80.5307 177.247C75.7946 177.438 71.0439 177.284 66.3298 176.792C64.189 176.565 61.9969 176.256 60.0981 175.236C59.6876 175.016 59.299 174.759 58.9251 174.48C58.9104 174.429 58.8958 174.377 58.8884 174.34C58.8738 174.304 58.8664 174.26 58.8518 174.223C58.8371 174.135 58.8078 174.047 58.7931 173.966C58.7931 173.929 58.7785 173.893 58.7711 173.856C58.7565 173.775 58.7345 173.695 58.7271 173.621C58.7125 173.584 58.7125 173.555 58.7052 173.526C58.6905 173.452 58.6832 173.386 58.6685 173.32C58.6685 173.291 58.6538 173.269 58.6538 173.239C58.6392 173.181 58.6318 173.122 58.6245 173.071C58.6245 173.041 58.6245 173.027 58.6098 172.997C58.6098 172.953 58.5952 172.909 58.5952 172.872C58.5952 172.85 58.5952 172.836 58.5952 172.814C58.5952 172.799 58.5952 172.77 58.5952 172.755C58.5952 172.726 58.5952 172.711 58.5952 172.711L58.1993 166.802L58.126 165.708C58.3826 166.009 58.6465 166.295 58.9324 166.574C61.4691 169.099 64.7389 170.81 68.104 171.955C72.9134 173.599 78.0087 174.23 82.9354 175.486C83.4412 175.618 84.0644 175.948 83.9471 176.455H83.9398Z" fill="#A7FFFF"/>
<path opacity="0.33" d="M118.874 166.016L118.793 167.257L118.434 172.703C118.434 172.703 118.434 172.718 118.434 172.74C118.434 172.755 118.434 172.769 118.434 172.784C118.434 172.806 118.434 172.821 118.434 172.85C118.434 172.872 118.434 172.902 118.419 172.938C118.419 172.96 118.419 172.99 118.405 173.019C118.405 173.063 118.39 173.1 118.383 173.151C118.383 173.18 118.368 173.217 118.368 173.254C118.368 173.305 118.353 173.364 118.339 173.423C118.339 173.459 118.324 173.496 118.324 173.533C118.309 173.599 118.302 173.658 118.28 173.731C118.28 173.753 118.265 173.782 118.265 173.812C118.236 173.959 118.192 174.113 118.155 174.274C118.155 174.318 118.141 174.362 118.126 174.406C118.111 174.48 118.082 174.546 118.06 174.627C118.06 174.649 118.045 174.678 118.038 174.707C117.767 174.898 117.488 175.074 117.195 175.228C115.296 176.256 113.104 176.564 110.963 176.785C106.249 177.269 101.499 177.431 96.7551 177.24C95.5748 177.196 94.3358 177.1 93.346 176.447C93.2214 175.94 93.8519 175.61 94.3578 175.478C99.2845 174.223 104.38 173.592 109.189 171.947C112.547 170.795 115.817 169.092 118.361 166.567C118.537 166.39 118.72 166.207 118.889 166.016H118.874Z" fill="#A7FFFF"/>
<path d="M125.707 62.5148C125.707 62.5956 125.707 62.6763 125.692 62.7497C125.128 67.1761 108.698 70.7362 88.5075 70.7362C68.3169 70.7362 51.88 67.1834 51.3154 62.7497C51.3008 62.669 51.3008 62.5882 51.3008 62.5148C51.3008 57.9784 67.9577 54.3008 88.5002 54.3008C109.043 54.3008 125.7 57.9784 125.7 62.5148H125.707Z" stroke="white" stroke-width="0.81" stroke-miterlimit="10"/>
<path d="M88.5002 54.3008C67.9577 54.3008 51.3008 57.9784 51.3008 62.5148C51.3008 62.5956 51.3008 62.6763 51.3154 62.7497L58.1849 166.794L58.5808 172.703C58.5808 172.703 58.9547 176.374 60.7143 177.504C60.8242 177.585 60.9489 177.644 61.0735 177.695C62.1805 178.143 77.0412 179.912 88.5075 179.684C99.9738 179.912 114.842 178.143 115.942 177.695C116.242 177.577 116.506 177.387 116.741 177.144C118.126 175.742 118.442 172.696 118.442 172.696L118.801 167.249L125.685 62.7497C125.7 62.669 125.7 62.5882 125.7 62.5148C125.707 57.9784 109.05 54.3008 88.5002 54.3008Z" stroke="white" stroke-width="0.81" stroke-miterlimit="10"/>
<path opacity="0.19" d="M122.129 66.0308L116.55 166.633C115.67 167.969 114.35 169.004 112.767 169.525C110.017 170.435 107.305 171.162 104.658 171.72L109.387 69.312C120.12 68.967 122.129 66.0234 122.129 66.0234V66.0308Z" fill="#D7FFFF"/>
<path opacity="0.19" d="M72.2681 171.485C70.2373 171.03 68.3898 170.538 66.7403 170.039C65.9705 169.804 65.2373 169.576 64.5555 169.341C64.2549 169.239 63.9763 169.121 63.6977 168.982L56.2197 66.6035L60.098 67.5504L66.8356 69.2021L72.2681 171.492V171.485Z" fill="#D7FFFF"/>
<path opacity="0.19" d="M66.7403 170.039C65.9705 169.804 65.2373 169.576 64.5555 169.341C64.2549 169.239 63.9763 169.121 63.6977 168.982L56.2197 66.6035L60.098 67.5504C60.4573 71.4189 65.1347 144.237 66.7403 170.039Z" fill="#D7FFFF"/>
<g clip-path="url(#clip2_458_972)">
<path d="M85.1198 -44.0912C85.1295 -43.9507 85.1446 -43.8107 85.1567 -43.6731C85.3018 -42.0221 85.3633 -40.3894 85.384 -38.7306C85.4284 -34.8797 85.7187 -31.0467 85.9851 -27.2084C86.2501 -23.3318 86.5259 -19.4565 86.8101 -15.5792C87.0902 -11.7397 87.4415 -7.8968 87.6487 -4.05224C87.7613 -1.99478 87.8004 0.0623263 87.7827 2.12273C87.7806 2.20464 87.7816 2.28895 87.7795 2.37086C87.5857 3.25187 87.3752 4.1292 87.1503 4.99989C86.4127 7.86098 85.5317 10.6801 84.6847 13.512C83.9261 16.0513 83.5291 18.6611 83.4196 21.3112C83.3058 24.0217 83.4402 26.7358 83.5734 29.4392C83.7184 32.3781 83.9095 35.315 84.2112 38.2427C84.5072 41.1167 84.9162 43.9786 85.4695 46.8144C85.9551 49.3006 86.527 51.7777 87.3467 54.1795C88.9298 58.8147 91.5472 63.0897 95.692 65.8438C96.2172 66.1938 96.7628 66.5062 97.3223 66.7954C97.3713 66.8201 97.4311 66.8192 97.4784 66.8033C97.4903 66.813 97.5047 66.8196 97.519 66.8262C98.2545 67.2329 99.0483 67.5734 99.858 67.8088C101.32 68.2363 102.785 68.1108 104.219 67.6401C105.787 67.1252 107.262 66.3342 108.76 65.6552C109.677 65.2393 110.597 64.8313 111.527 64.4412C112.381 64.0783 113.238 63.7859 114.116 63.4966C115.255 63.1226 116.493 62.4249 116.722 61.1398C116.897 60.1655 116.372 59.211 115.734 58.5136C115.055 57.7742 114.238 57.2673 113.349 56.9586C113.691 56.8216 114.022 56.5822 114.25 56.4219C114.973 55.9041 115.634 55.2867 116.254 54.6517C117.013 53.8769 117.433 52.9474 117.702 51.9304C118.202 51.8773 118.725 51.6449 119.175 51.4474C119.729 51.2061 120.267 50.9176 120.773 50.5888C121.753 49.9538 122.673 49.1864 123.432 48.2945C124.266 47.3155 124.689 46.157 124.86 44.9381C125.685 44.6844 126.406 44.1259 127.09 43.6204C127.811 43.0864 128.432 42.525 128.77 41.6722C129.379 40.1236 129.318 38.3929 128.91 36.8051C128.685 35.9304 128.362 35.0744 128.003 34.2439C127.6 33.3091 127.076 32.5178 126.405 31.7504C125.712 30.9553 124.989 30.1852 124.207 29.4758C123.739 29.0489 123.19 28.4973 122.519 28.4432C121.964 28.3986 121.558 28.695 121.274 29.1444C121.231 28.9965 121.185 28.8516 121.138 28.7151C120.714 27.483 120.238 26.2728 119.853 25.0284C119.086 22.5366 118.612 19.9566 118.031 17.4179C117.479 14.9959 116.883 12.5731 115.864 10.2959C114.996 8.35136 113.803 6.52836 112.432 4.90121C112.426 4.8964 112.42 4.89159 112.416 4.8838C112.283 4.04842 112.138 3.21418 112.08 2.3708C111.957 0.521371 112.014 -1.35528 112.084 -3.20615C112.155 -5.12518 112.289 -7.0427 112.36 -8.96173C112.433 -10.8401 112.481 -12.7186 112.535 -14.5976C112.634 -18.4012 112.739 -22.2054 113.025 -26.0015C113.319 -29.8938 113.685 -33.7774 113.9 -37.6749C114.116 -41.5616 114.271 -45.4529 114.476 -49.3438C114.543 -50.6171 114.693 -51.8828 114.732 -53.1586C114.739 -53.3744 114.74 -53.5897 114.744 -53.8079C114.744 -53.8079 114.747 -53.8055 114.75 -53.8031C114.749 -53.882 114.75 -53.9556 114.749 -54.0345C114.386 -54.1702 114.001 -54.2546 113.658 -54.3299C112.509 -54.5837 111.344 -54.7568 110.17 -54.8092C107.772 -54.9197 105.362 -54.6422 103.017 -54.1646C100.682 -53.6881 98.2998 -53.1031 96.1003 -52.1835C93.8331 -51.235 91.7341 -49.9394 89.6672 -48.6228C88.4438 -47.8449 87.2984 -46.9745 86.2143 -46.0154C85.8388 -45.6842 85.4231 -45.346 85.0295 -44.9802C85.0619 -44.6787 85.1238 -44.383 85.118 -44.0829L85.1198 -44.0912ZM98.0477 49.839C99.1235 50.9774 100.188 52.1361 101.33 53.2102C102.411 54.2201 103.469 55.295 104.693 56.1345C105.448 56.6507 106.464 57.308 107.455 57.3799C106.342 57.8683 105.33 58.5366 104.295 59.2155C103.407 59.7972 102.454 60.3013 101.442 60.4632C100.867 60.3635 100.382 59.8785 99.9981 59.4509C99.5119 58.9062 99.0911 58.2865 98.7775 57.6254C97.6941 55.3551 97.0917 52.8976 96.4473 50.4799C96.2607 49.7836 96.0638 49.0938 95.8694 48.401C95.776 48.0651 95.685 47.7263 95.6048 47.3862C95.5836 47.2905 95.5654 47.1971 95.5496 47.1008C96.3485 48.0452 97.2002 48.9487 98.0459 49.8474L98.0477 49.839Z" fill="#D09670"/>
<path d="M123.625 47.427C122.956 48.5 121.928 49.396 120.905 50.1199C120.391 50.4821 119.85 50.8119 119.286 51.0949C118.999 51.237 118.708 51.3659 118.41 51.4793C118.203 51.5584 117.981 51.6147 117.765 51.6866C117.792 51.5803 117.818 51.4686 117.839 51.3575C117.989 50.6527 118.094 49.9362 118.25 49.2308C118.432 48.3946 118.645 47.5633 118.844 46.7308C119.041 45.8875 119.248 45.046 119.496 44.2137C119.67 43.6316 119.876 43.0406 119.902 42.4279C119.95 41.4044 119.307 40.5169 118.293 40.3086C118.04 40.2566 117.782 40.2403 117.525 40.254C117.88 39.5275 117.809 38.6201 117.766 37.8378C117.706 36.7277 117.75 35.6175 117.953 34.5231C118.147 33.4842 118.549 32.1128 119.629 31.6714C120.054 31.4983 120.43 31.5211 120.761 31.6656C120.963 31.7204 121.142 31.8403 121.251 32.0112C121.253 32.0083 121.255 32.0053 121.263 32.0017C121.708 32.4147 122.028 33.0369 122.23 33.5737C123.075 35.8231 123.846 38.1565 124.275 40.5234C124.682 42.7539 124.875 45.4127 123.626 47.4186L123.625 47.427Z" fill="#FFE3CB"/>
<g style="mix-blend-mode:screen">
<path d="M124.502 44.1375C124.434 44.1419 124.423 44.0396 124.491 44.0352C124.517 44.0323 124.544 44.0295 124.571 44.0266C124.626 42.8418 124.474 41.6326 124.273 40.5266C124.166 39.9335 124.034 39.3457 123.889 38.7566C124.018 40.0064 124.045 41.2669 123.993 42.5224C123.966 43.1895 123.916 43.8566 123.846 44.5229C123.772 45.206 123.673 45.8782 123.432 46.5246C122.94 47.843 121.994 48.9236 120.903 49.7936C120.031 50.4907 119.066 51.0642 118.076 51.5831C118.186 51.5496 118.3 51.5131 118.407 51.4717C118.705 51.3584 118.999 51.2319 119.283 51.0874C119.846 50.8043 120.388 50.4745 120.902 50.1123C121.927 49.3909 122.956 48.4948 123.621 47.4194C124.234 46.4341 124.498 45.2951 124.563 44.1228C124.541 44.1251 124.523 44.1298 124.501 44.1321L124.502 44.1375Z" fill="#FFE3CB"/>
</g>
<g style="mix-blend-mode:multiply">
<path d="M117.948 34.524C117.744 35.6184 117.701 36.7285 117.76 37.8386C117.804 38.6209 117.874 39.5283 117.519 40.2549C117.777 40.2412 118.031 40.255 118.288 40.3095C118.578 40.3713 118.838 40.488 119.06 40.6469C119.134 40.2006 119.214 39.7592 119.314 39.3184C119.448 38.7133 119.603 38.1114 119.815 37.5252C119.977 37.0752 120.171 36.6079 120.482 36.2346C120.69 35.9839 120.991 35.7695 121.334 35.8501C121.521 35.8929 121.683 36.0037 121.82 36.1335C122.025 36.3241 122.187 36.5575 122.335 36.795C122.547 37.1428 122.72 37.5138 122.886 37.8883C123.088 38.3515 123.277 38.8189 123.454 39.2957C123.837 40.3278 124.156 41.3859 124.399 42.4574C124.466 42.7526 124.525 43.0458 124.581 43.3421C124.568 42.3823 124.437 41.4214 124.273 40.5321C123.839 38.1657 123.073 35.8317 122.228 33.5823C122.026 33.0456 121.703 32.4209 121.261 32.0104C121.259 32.0134 121.256 32.0163 121.249 32.0199C121.14 31.8489 120.961 31.7291 120.759 31.6743C120.428 31.5297 120.052 31.507 119.627 31.6801C118.547 32.1214 118.145 33.4929 117.952 34.5317L117.948 34.524Z" fill="#FFE3CB"/>
</g>
<path d="M122.605 28.7882C122.916 28.8615 123.185 29.0888 123.424 29.2867C123.736 29.5477 124.035 29.8237 124.33 30.1055C125.016 30.7678 125.662 31.4754 126.289 32.193C127.386 33.4517 128.038 35.1034 128.487 36.6949C128.899 38.138 128.992 39.6584 128.568 41.1111C128.283 42.0861 127.73 42.7412 126.939 43.3561C126.285 43.8612 125.623 44.3398 124.884 44.7123C125.011 43.6151 124.943 42.4787 124.799 41.3885C124.442 38.7361 123.564 36.1445 122.648 33.6359C122.359 32.847 121.959 32.018 121.261 31.5775C121.227 31.2897 121.234 30.995 121.267 30.7028C121.269 30.64 121.273 30.5742 121.277 30.5139C121.316 30.1122 121.441 29.6823 121.68 29.3493C121.886 28.9897 122.186 28.691 122.602 28.7858L122.605 28.7882Z" fill="#FFE3CB"/>
<g style="mix-blend-mode:screen">
<path d="M128.312 36.4055C128.46 37.4789 128.486 38.5763 128.282 39.6408C128.183 40.1659 128.029 40.6806 127.812 41.1692C127.606 41.6322 127.336 42.0638 127.025 42.4617C126.692 42.8864 126.307 43.2785 125.867 43.5921C125.583 43.791 125.269 43.9604 124.934 44.0587C124.925 44.2775 124.907 44.4944 124.881 44.7095C125.618 44.3401 126.283 43.8638 126.936 43.3534C127.727 42.7384 128.281 42.0888 128.565 41.1083C128.989 39.6556 128.896 38.1352 128.484 36.6922C128.401 36.3988 128.312 36.1059 128.213 35.8143C128.247 36.0094 128.282 36.2045 128.309 36.4031L128.312 36.4055Z" fill="#FFE3CB"/>
</g>
<g style="mix-blend-mode:multiply">
<path d="M128.317 36.1247C128.429 36.4858 128.528 36.851 128.622 37.2168C128.581 37.0414 128.538 36.869 128.487 36.6947C128.427 36.4887 128.366 36.2828 128.301 36.0773C128.305 36.0959 128.312 36.1115 128.314 36.1276L128.317 36.1247Z" fill="#FFE3CB"/>
</g>
<g style="mix-blend-mode:multiply">
<path d="M121.681 29.349C121.441 29.682 121.316 30.1119 121.278 30.5135C121.271 30.5769 121.269 30.6397 121.268 30.7024C121.231 30.9923 121.228 31.2894 121.261 31.5772C121.962 32.0148 122.362 32.8437 122.649 33.6355C123.567 36.1412 124.44 38.7334 124.799 41.3882C124.944 42.4784 125.012 43.6148 124.885 44.712C124.932 44.6907 124.975 44.667 125.022 44.6403C125.037 44.5053 125.052 44.3648 125.067 44.2297C125.21 42.7033 125.21 41.1594 125.095 39.6305C125.065 39.2579 125.034 38.8882 124.994 38.5167C124.952 38.1589 124.9 37.8023 124.857 37.4475C124.798 36.9772 124.693 36.5091 124.613 36.0411C124.516 35.496 124.432 34.9412 124.445 34.387C124.457 33.9338 124.53 33.4277 124.838 33.0765C124.959 32.9384 125.117 32.8345 125.282 32.7462C125.395 32.6852 125.515 32.6397 125.641 32.6128C125.867 32.5643 126.102 32.5966 126.313 32.6885C126.817 32.9128 127.163 33.4234 127.42 33.8916C127.104 33.2826 126.737 32.7061 126.29 32.1981C125.663 31.4805 125.018 30.7729 124.331 30.1106C124.036 29.8287 123.737 29.5528 123.425 29.2918C123.189 29.0909 122.914 28.8641 122.607 28.7932C122.191 28.6985 121.89 28.9918 121.684 29.3567L121.681 29.349Z" fill="#FFE3CB"/>
</g>
<path d="M86.2884 -45.4788C87.2135 -46.3203 88.1876 -47.1126 89.22 -47.8185C91.1606 -49.1435 93.2099 -50.3957 95.3319 -51.4023C97.4048 -52.3847 99.6308 -53.0076 101.856 -53.5378C104.102 -54.0756 106.411 -54.4541 108.723 -54.5115C110.005 -54.5441 111.292 -54.4738 112.563 -54.2845C113.13 -54.2004 113.7 -54.0948 114.257 -53.9551C114.282 -53.9496 114.31 -53.9417 114.335 -53.9362C114.336 -53.9308 114.334 -53.9225 114.334 -53.9171C114.348 -52.6823 114.205 -51.4554 114.116 -50.2289C113.853 -46.5768 113.752 -42.9119 113.555 -39.2559C113.354 -35.4606 113.089 -31.6721 112.737 -27.8853C112.392 -24.2109 112.248 -20.5223 112.138 -16.8348C112.029 -13.1227 111.957 -9.41468 111.76 -5.70424C111.66 -3.8338 111.578 -1.96265 111.597 -0.0886167C111.606 0.803552 111.603 1.70523 111.695 2.59123C111.759 3.1835 111.861 3.77177 111.97 4.35649C110.808 3.05026 109.345 1.73239 107.644 1.31384C108.202 1.61136 108.73 1.96375 109.229 2.35188C109.693 2.71113 110.132 3.10016 110.555 3.50465C110.989 3.89963 111.4 4.32439 111.788 4.77057C111.878 4.87266 111.965 4.97235 112.05 5.07501C112.062 5.08464 112.069 5.10022 112.079 5.11282C112.094 5.13024 112.11 5.14766 112.123 5.16805C112.123 5.16805 112.123 5.16805 112.126 5.17045C112.287 5.37933 112.433 5.59531 112.564 5.82376C112.558 5.77531 112.551 5.72982 112.546 5.68136C113.671 7.10042 114.655 8.65692 115.399 10.2989C117.482 14.9001 117.917 20.0248 119.366 24.8268C119.784 26.2065 120.323 27.5462 120.817 28.8987C120.901 29.124 120.978 29.3581 121.056 29.5977C120.839 30.1599 120.758 30.8274 120.798 31.3705C120.696 31.3377 120.593 31.3133 120.482 31.2978C119.529 31.1484 118.685 31.7063 118.215 32.5023C117.48 33.7429 117.349 35.3334 117.322 36.7468C117.299 37.8493 117.712 39.3139 117.08 40.3177C116.5 40.4201 115.931 40.6493 115.422 40.9075C114.322 41.4653 113.456 42.3006 112.759 43.3113C111.791 44.7182 111.156 46.3104 110.741 47.9611C110.325 49.6117 110.012 51.2623 109.105 52.7281C109.082 52.7633 109.088 52.7926 109.109 52.8149C109.22 52.7269 109.329 52.6336 109.43 52.533C109.546 52.42 109.656 52.3021 109.76 52.1795C110.266 51.2163 110.564 50.1636 110.831 49.106C111.162 47.7802 111.522 46.4976 112.111 45.2615C113.102 43.185 114.722 41.1343 117.099 40.6479C117.172 40.6674 117.256 40.6612 117.305 40.6124C118.223 40.4878 119.184 40.7861 119.466 41.7854C119.621 42.3435 119.483 42.9599 119.329 43.5044C119.147 44.1583 118.95 44.8108 118.778 45.4689C118.413 46.8801 118.036 48.3061 117.751 49.7385C117.491 51.0623 117.321 52.469 116.6 53.6428C116.132 54.4005 115.389 55.0348 114.721 55.6121C114.345 55.9379 113.949 56.2577 113.523 56.5235C113.372 56.6184 113.124 56.7864 112.897 56.8349C111.571 56.4828 110.118 56.5444 108.754 56.9233C108.534 56.9821 108.321 57.051 108.111 57.1277C106.869 57.1233 105.797 56.4992 104.815 55.7757C103.708 54.9618 102.732 53.9871 101.727 53.0536C100.647 52.0491 99.6528 50.962 98.639 49.8933C97.6186 48.8143 96.5983 47.7354 95.6319 46.6018C95.1702 46.0572 94.6983 45.5191 94.2317 44.9805C93.7563 44.4346 93.2599 43.8719 92.9134 43.2334C92.8926 43.192 92.7825 43.2064 92.802 43.2615C93.2812 44.4741 94.1681 45.4011 94.971 46.4078C95.0085 46.4528 95.0461 46.4978 95.0836 46.5429C95.0685 47.1108 95.2949 47.7458 95.4384 48.2697C95.6198 48.942 95.8149 49.6157 95.9963 50.2881C96.3549 51.6196 96.6949 52.9559 97.1061 54.271C97.7191 56.2454 98.4286 58.3566 99.932 59.8499C100.17 60.0861 100.516 60.3652 100.885 60.5303C100.481 60.5432 100.07 60.497 99.6539 60.3777C99.4968 60.3345 99.3903 60.5092 99.5635 60.5752C102.328 61.5915 104.517 59.3062 106.758 58.1154C109.079 56.8807 112.155 56.2847 114.456 57.9003C115.248 58.4561 115.997 59.2425 116.245 60.2046C116.53 61.3044 115.896 62.243 114.972 62.7958C114.266 63.2192 113.443 63.3964 112.679 63.679C111.817 64.0019 110.973 64.3774 110.131 64.7499C108.575 65.4323 107.046 66.18 105.481 66.8444C103.992 67.4762 102.345 68.0212 100.709 67.7238C99.7924 67.5542 98.894 67.203 98.0579 66.7989C97.4691 66.5156 96.8696 66.2089 96.296 65.864C94.5563 64.7062 92.9968 63.3251 91.6961 61.666C90.2065 59.771 89.0869 57.6189 88.2242 55.3742C87.32 53.0222 86.6888 50.5759 86.1732 48.1147C85.588 45.3368 85.1387 42.5308 84.8103 39.7093C84.4732 36.8071 84.2575 33.8946 84.0987 30.9789C83.9476 28.2366 83.796 25.489 83.8298 22.7434C83.8602 20.118 84.1024 17.4865 84.748 14.9347C85.4616 12.1033 86.4328 9.33728 87.2025 6.52178C87.3878 5.84045 87.5654 5.16266 87.734 4.47766C87.7267 4.6881 87.7248 4.89797 87.7175 5.1084C87.7462 4.94471 87.7748 4.78101 87.7981 4.61789C87.9063 3.9284 87.9864 3.231 88.045 2.53589C88.108 1.7804 88.1434 1.0224 88.1789 0.264384C88.1814 0.212374 88.184 0.16037 88.1836 0.105952C88.1753 -0.805345 88.1557 -1.72089 88.1229 -2.6323C87.9809 -6.47834 87.6051 -10.3213 87.328 -14.1585C87.0468 -18.0333 86.771 -21.9087 86.5059 -25.7852C86.2431 -29.6157 85.9146 -33.4501 85.8444 -37.2874C85.8096 -39.2034 85.8274 -41.1113 85.6568 -43.0238C85.6055 -43.6011 85.5512 -44.1807 85.5131 -44.7621C85.7681 -44.9988 86.0351 -45.2259 86.2877 -45.4597L86.2884 -45.4788Z" fill="#FFE3CB"/>
<g style="mix-blend-mode:screen">
<path d="M114.759 62.1076C114.043 62.5376 113.282 62.8879 112.514 63.2118C111.944 63.4547 111.357 63.6695 110.797 63.9358C109.655 64.4845 108.519 65.0379 107.355 65.5345C106.181 66.0322 104.979 66.4783 103.732 66.7604C103.147 66.8932 102.555 66.986 101.954 67.0171C101.274 67.0538 100.592 67.0146 99.9201 66.9198C99.223 66.8195 98.5375 66.6499 97.8731 66.4236C97.2309 66.2004 96.6241 65.9027 96.0163 65.5941C95.9154 65.5422 95.8115 65.4879 95.7076 65.4335C95.9021 65.5708 96.0996 65.7105 96.299 65.8419C96.8696 66.1843 97.4691 66.491 98.0609 66.7767C98.897 67.1809 99.7954 67.5321 100.712 67.7016C102.348 67.9991 103.995 67.4541 105.484 66.8222C107.049 66.1578 108.576 65.4131 110.134 64.7278C110.976 64.3606 111.82 63.9797 112.682 63.6569C113.443 63.3718 114.266 63.1947 114.975 62.7736C115.722 62.3294 116.276 61.6308 116.315 60.8016C115.925 61.3522 115.329 61.7613 114.764 62.1017L114.759 62.1076Z" fill="#FFE3CB"/>
</g>
<g style="mix-blend-mode:screen">
<path d="M118.86 42.4814C118.782 42.9444 118.659 43.4013 118.531 43.8533C118.381 44.3811 118.225 44.9041 118.049 45.4211C117.761 46.2658 117.448 47.0995 117.186 47.9497C117.057 48.3718 116.928 48.7993 116.853 49.2348C116.787 49.6094 116.749 49.9919 116.716 50.3684C116.651 51.1269 116.6 51.8974 116.357 52.6257C116.131 53.3086 115.735 53.898 115.222 54.399C114.273 55.3247 113.098 55.945 111.984 56.6486C112.293 56.6866 112.596 56.7443 112.893 56.8217C113.119 56.7732 113.368 56.6052 113.519 56.5103C113.942 56.2475 114.338 55.9277 114.717 55.5989C115.385 55.0216 116.128 54.3873 116.596 53.6296C117.32 52.4582 117.487 51.0545 117.747 49.7254C118.029 48.2959 118.406 46.8699 118.774 45.4557C118.946 44.7977 119.142 44.1451 119.325 43.4912C119.479 42.9467 119.614 42.3333 119.461 41.7722C119.349 41.3621 119.116 41.071 118.823 40.8788C119.034 41.3438 118.931 42.0572 118.862 42.4785L118.86 42.4814Z" fill="#FFE3CB"/>
</g>
<g style="mix-blend-mode:multiply">
<path d="M83.8327 22.7212C83.7989 25.4668 83.9505 28.2145 84.1015 30.9567C84.1495 31.8067 84.1999 32.6536 84.2586 33.5023C84.5436 34.3026 84.8496 35.0952 85.1663 35.8866C85.3413 36.3228 85.5217 36.7583 85.699 37.1915C85.7681 37.2768 85.8324 37.368 85.8985 37.4508C86.8658 38.6688 87.8564 39.8761 88.6774 41.2022C89.4288 42.4131 90.0938 43.6822 90.6804 44.9814C91.2664 46.2753 91.7637 47.6057 92.1772 48.9669C92.5937 50.3304 92.8982 51.7168 93.1603 53.113C93.3794 54.2879 93.4508 55.4811 93.6562 56.6547C93.7576 57.243 93.895 57.8356 94.1103 58.3927C94.1945 58.5934 94.2836 58.7882 94.3912 58.9783C94.8948 59.886 95.6117 60.6759 96.4145 61.3286C97.1155 61.8941 97.8855 62.3678 98.7682 62.5737C100.361 62.9493 102 62.5113 103.522 62.0338C105 61.5693 106.459 61.0605 108.006 60.8773C109.509 60.6988 111.08 60.6927 112.525 60.2018C113.129 59.9961 113.735 59.6786 114.101 59.1386C114.357 58.7602 114.452 58.3254 114.451 57.8817C114.451 57.8817 114.451 57.8817 114.448 57.8793C112.15 56.2661 109.074 56.8621 106.75 58.0943C104.507 59.2882 102.32 61.5705 99.5556 60.5541C99.38 60.4911 99.4888 60.3134 99.646 60.3567C100.065 60.4783 100.476 60.5246 100.877 60.5092C100.506 60.3472 100.165 60.0674 99.9241 59.8289C98.4207 58.3356 97.7112 56.2244 97.0982 54.25C96.6893 52.9319 96.3469 51.5986 95.9884 50.267C95.807 49.5946 95.6119 48.921 95.4305 48.2486C95.2899 47.7271 95.066 47.0892 95.0757 46.5218C95.0382 46.4768 95.0006 46.4318 94.9631 46.3867C94.1602 45.38 93.2733 44.4531 92.7941 43.2405C92.7721 43.1884 92.8822 43.174 92.9054 43.2123C93.252 43.8508 93.7508 44.4106 94.2238 44.9594C94.6933 45.5005 95.1623 46.0361 95.624 46.5807C96.5874 47.712 97.6053 48.7939 98.6311 49.8722C99.6449 50.9409 100.644 52.0275 101.719 53.0326C102.719 53.9667 103.701 54.9408 104.807 55.7546C105.541 56.2976 106.325 56.778 107.195 56.9933C107.676 56.8062 108.136 56.5531 108.56 56.2849C108.962 56.0298 109.374 55.752 109.707 55.4116C110.076 55.0403 110.404 54.6269 110.692 54.1907C111.864 52.3972 112.325 50.2625 112.983 48.2512C113.282 47.3373 113.623 46.4325 114.079 45.5863C114.37 45.0489 114.736 44.5527 115.139 44.096C115.576 43.6031 116.064 43.151 116.612 42.777C117.094 42.4481 117.633 42.1704 118.21 42.0602C118.655 41.9775 119.112 42.0162 119.517 42.2101C119.509 42.0612 119.49 41.9134 119.45 41.7733C119.174 40.7734 118.208 40.4756 117.29 40.6003C117.241 40.6491 117.157 40.6552 117.084 40.6358C114.707 41.1221 113.087 43.1729 112.096 45.2494C111.505 46.4884 111.147 47.7681 110.816 49.0938C110.549 50.1515 110.251 51.2042 109.745 52.1674C109.644 52.2924 109.534 52.4103 109.415 52.5209C109.311 52.6191 109.204 52.7148 109.094 52.8028C109.073 52.7805 109.069 52.7482 109.09 52.716C109.999 51.2472 110.312 49.5966 110.725 47.9489C111.141 46.2983 111.776 44.7061 112.744 43.2991C113.441 42.2885 114.307 41.4532 115.407 40.8954C115.916 40.6372 116.485 40.408 117.065 40.3056C117.698 39.3072 117.284 37.8372 117.306 36.7347C117.334 35.3213 117.465 33.7308 118.2 32.4901C118.239 32.4234 118.284 32.356 118.331 32.2911C117.425 30.9604 116.761 29.4707 116.256 27.9422C115.632 26.0479 115.239 24.0883 114.9 22.1284C114.552 20.1122 114.265 18.0814 113.882 16.0717C113.513 14.1313 113.056 12.1948 112.319 10.3561C111.614 8.59286 110.632 6.92995 109.283 5.58094C107.778 4.0769 105.866 2.90749 103.72 2.68587C101.385 2.44358 99.0221 3.16263 96.9794 4.24801C95.9643 4.78595 95.0069 5.4294 94.1246 6.16292C92.8722 7.20255 91.6846 8.33877 90.5371 9.49253C88.2858 11.7518 86.211 14.183 84.3373 16.7617C83.9849 18.7242 83.8406 20.7218 83.8183 22.7146L83.8327 22.7212Z" fill="#FFE3CB"/>
</g>
<g style="mix-blend-mode:multiply">
<path d="M106.708 17.8733C106.728 19.1237 106.887 20.373 107.173 21.5924C107.317 22.1899 107.489 22.7815 107.696 23.3613C107.918 23.9777 108.216 24.5669 108.574 25.117C109.274 26.2027 110.173 27.1393 111.045 28.0841C111.067 28.1064 111.088 28.1286 111.107 28.1538C111.055 28.0423 110.999 27.9338 110.946 27.8224C110.433 26.7196 110.023 25.5678 109.677 24.4037C109.32 23.2108 109.028 21.9974 108.758 20.7816C108.487 19.5743 108.242 18.364 107.976 17.1561C107.74 16.081 107.486 15.0107 107.181 13.9538C107.156 14.0464 107.13 14.1335 107.107 14.2285C106.808 15.4175 106.688 16.6529 106.708 17.8787L106.708 17.8733Z" fill="#FFE3CB"/>
</g>
<g style="mix-blend-mode:multiply">
<path d="M98.0089 5.4323C97.5464 5.30984 97.0675 5.23813 96.5812 5.22437C94.3594 5.15245 92.3053 6.23359 90.8219 7.83415C90.7955 7.8669 90.7315 7.85463 90.7293 7.80858C90.7104 7.38036 90.719 6.95467 90.7467 6.52968C90.8812 4.61753 91.4055 2.75933 91.681 0.867616C91.8286 -0.139184 91.8631 -1.1585 91.8929 -2.17186C91.9291 -3.3275 91.9354 -4.48268 91.9255 -5.63615C91.9055 -7.84503 91.8178 -10.0495 91.7355 -12.2545C91.6468 -14.4942 91.588 -16.7343 91.4586 -18.9725C91.1967 -23.4511 90.7459 -27.9151 90.3596 -32.386C90.1696 -34.5796 90.0527 -36.7782 89.8088 -38.9661C89.5865 -40.9792 89.2757 -42.9802 88.9702 -44.9818C88.8485 -45.7831 88.7292 -46.5873 88.6129 -47.3891C87.8028 -46.794 87.0278 -46.1508 86.2808 -45.4752C86.0252 -45.2439 85.7613 -45.0144 85.5063 -44.7777C85.5444 -44.1963 85.5987 -43.6166 85.6499 -43.0393C85.8205 -41.1269 85.8027 -39.219 85.8375 -37.303C85.9077 -33.4657 86.2363 -29.6313 86.4991 -25.8008C86.7641 -21.9243 87.0399 -18.0489 87.3211 -14.174C87.6013 -10.3345 87.9741 -6.49389 88.116 -2.64786C88.1488 -1.73644 88.1709 -0.823876 88.1767 0.0903989C88.1742 0.142407 88.1746 0.196823 88.172 0.248832C88.1366 1.00684 88.1011 1.76485 88.0381 2.52033C87.9796 3.21545 87.8995 3.91285 87.7913 4.60234C87.768 4.76546 87.7393 4.92915 87.7107 5.09284C87.7179 4.8824 87.7198 4.67254 87.7271 4.4621C87.5609 5.14413 87.381 5.82489 87.1957 6.50623C86.4259 9.32172 85.4577 12.0902 84.7412 14.9191C84.409 16.2341 84.1825 17.5706 84.0416 18.9171C84.7118 17.4273 85.5741 16.0533 86.4927 14.6951C87.3126 13.4835 88.227 12.3137 89.3076 11.3222C90.3162 10.3956 91.5476 9.56516 92.9382 9.40398C94.8081 9.19194 96.2714 10.3627 97.0237 11.9874C97.981 14.0479 98.1116 16.4737 98.1315 18.7071C98.1523 21.2509 97.9355 23.7898 97.6602 26.316C97.4651 28.1202 97.197 29.9294 97.1036 31.7419C96.9944 33.94 96.7508 36.1278 96.7104 38.3322C96.6684 40.6975 96.6912 43.3118 97.6539 45.5241C98.038 46.4091 98.6375 47.2468 99.5465 47.6459C100.672 48.1364 101.824 47.8018 102.946 47.503C103.423 47.3762 103.92 47.2363 104.418 47.2842C104.913 47.3297 105.349 47.583 105.744 47.8677C106.548 48.4523 107.248 49.1595 108.062 49.7375C108.661 50.1668 109.286 50.5579 109.926 50.9175C110.259 49.9564 110.475 48.9559 110.726 47.9544C111.142 46.3038 111.777 44.7116 112.745 43.3046C113.442 42.294 114.31 41.4557 115.408 40.9009C115.917 40.6427 116.486 40.4135 117.066 40.3111C117.699 39.3126 117.285 37.8427 117.307 36.7402C117.327 35.8368 117.386 34.8612 117.62 33.9487C116.841 35.1396 116.112 36.366 115.195 37.4599C114.286 38.5448 113.18 39.4818 112.051 40.3259C110.982 41.1254 109.843 41.829 108.712 42.529C107.924 43.0184 107.103 43.4921 106.216 43.7796C105.543 43.9981 104.8 44.1068 104.12 43.8631C103.35 43.5909 102.823 42.9198 102.463 42.2118C101.619 40.5424 101.314 38.5163 101.197 36.6717C100.952 32.861 101.677 29.0701 102.312 25.3349C102.948 21.5997 103.593 17.7599 103.065 13.9712C102.635 10.8855 101.049 6.70532 97.9981 5.43345L98.0089 5.4323Z" fill="#FFE3CB"/>
</g>
<g style="mix-blend-mode:multiply">
<path d="M116.984 40.6628C114.671 41.1914 113.085 43.2058 112.112 45.2478C111.521 46.4868 111.164 47.7664 110.833 49.0922C110.665 49.7635 110.481 50.431 110.243 51.0745C110.506 51.2181 110.769 51.3563 111.039 51.491C110.74 50.2021 111.168 48.768 111.591 47.5604C112.025 46.3081 112.587 45.0803 113.283 43.95C113.718 43.2394 114.27 42.6227 114.932 42.1195C115.597 41.6187 116.419 41.2891 116.984 40.6628Z" fill="#FFE3CB"/>
</g>
<g style="mix-blend-mode:multiply">
<path d="M99.5644 60.5616C99.3888 60.4986 99.4977 60.3209 99.6548 60.3641C100.074 60.4858 100.484 60.5321 100.886 60.5167C100.514 60.3546 100.174 60.0749 99.933 59.8363C98.4295 58.3431 97.7201 56.2318 97.107 54.2574C96.8668 53.4933 96.6529 52.7209 96.4443 51.9479C96.2534 52.1479 96.0715 52.3551 95.8955 52.5671C95.8595 52.6117 95.7767 52.6777 95.7747 52.7351C95.7728 52.7925 95.8048 52.8626 95.8136 52.9189C95.8377 53.0416 95.8594 53.1672 95.8811 53.2929C95.9227 53.5526 95.9511 53.8164 95.9742 54.0808C96.0704 55.1516 96.0674 56.2357 96.239 57.2985C96.3176 57.7748 96.3937 58.2541 96.4884 58.7288C96.5643 59.1046 96.6653 59.486 96.8597 59.8248C97.0613 60.1792 97.3529 60.4587 97.6901 60.6815C98.0887 60.9442 98.536 61.1527 98.9896 61.2925C99.8428 61.5532 100.75 61.5331 101.617 61.3622C102.617 61.1662 103.583 60.7996 104.518 60.409C105.563 59.974 106.59 59.4894 107.656 59.1012C108.356 58.8445 109.072 58.6459 109.788 58.4366C110.479 58.2325 111.183 58.0135 111.812 57.6609C112.074 57.5133 112.365 57.3108 112.539 57.0527C110.614 56.6253 108.48 57.1894 106.756 58.1048C104.513 59.2986 102.327 61.5809 99.562 60.5646L99.5644 60.5616Z" fill="#FFE3CB"/>
</g>
<path d="M103.331 47.3859C103.955 47.1563 104.558 46.8173 105.15 46.5176C105.181 46.5034 105.209 46.4868 105.24 46.4726C105.962 47.3354 106.811 48.1139 107.711 48.7863C108.132 49.101 108.573 49.4028 109.045 49.6413C109.287 49.7627 109.921 50.1556 110.196 49.9848C110.209 49.9753 110.213 49.9639 110.211 49.9478C110.195 49.7916 109.976 49.7577 109.853 49.7027C109.652 49.6096 109.454 49.5135 109.26 49.4062C108.776 49.1335 108.32 48.8197 107.879 48.4744C107.04 47.8119 106.301 47.0435 105.505 46.3328C105.972 46.0846 106.431 45.8208 106.887 45.5599C108.093 44.871 109.272 44.136 110.399 43.3248C112.553 41.7783 114.566 39.8575 115.768 37.4645C115.837 37.3237 115.557 37.2799 115.488 37.3907C114.006 39.7208 112.059 41.5857 109.814 43.1718C108.736 43.9342 107.612 44.6253 106.478 45.3038C105.918 45.6383 105.363 45.9231 104.813 46.2756C104.303 46.602 103.727 46.9435 103.269 47.3353C103.226 47.3698 103.308 47.4019 103.337 47.3907L103.331 47.3859Z" fill="#D09670"/>
<path d="M107.284 14.1499C107.349 16.3757 107.808 18.6388 108.372 20.79C108.963 23.0417 109.782 25.2557 110.795 27.3511C111.072 27.9235 111.366 28.4858 111.705 29.0244C112.033 29.545 112.439 30.0248 112.594 30.6319C112.618 30.7246 112.818 30.7089 112.793 30.6053C112.685 30.1348 112.431 29.7234 112.178 29.3173C111.871 28.8243 111.606 28.3106 111.351 27.7903C110.818 26.706 110.38 25.5762 109.959 24.4446C109.174 22.3414 108.617 20.1759 108.221 17.9687C107.991 16.697 107.847 15.4053 107.599 14.1383C107.574 14.0102 107.28 14.0087 107.284 14.1499Z" fill="#D09670"/>
<g style="mix-blend-mode:screen">
<path d="M113.354 -42.5892C112.983 -38.6751 112.607 -34.7605 112.286 -30.8408C111.965 -26.9402 111.699 -23.0346 111.549 -19.1248C111.474 -17.1837 111.394 -15.2473 111.268 -13.3089C111.138 -11.3782 110.998 -9.44631 110.909 -7.51181C110.835 -5.80208 110.846 -4.10149 110.846 -2.39139C110.846 -0.921061 110.829 0.668175 110.213 2.02964C110.198 2.06125 110.163 2.06766 110.134 2.04898C109.332 1.535 108.425 1.23098 107.486 1.08285C107.605 1.17911 107.725 1.27536 107.841 1.36921C109.457 1.83758 110.849 3.10308 111.968 4.35947C111.855 3.77234 111.754 3.18406 111.693 2.5942C111.6 1.70819 111.601 0.804123 111.595 -0.0856383C111.576 -1.95967 111.66 -3.82841 111.758 -5.70127C111.955 -9.40632 112.027 -13.1198 112.136 -16.8318C112.245 -20.5194 112.39 -24.2079 112.735 -27.8824C113.09 -31.6667 113.352 -35.4576 113.553 -39.2529C113.75 -42.9089 113.851 -46.5738 114.114 -50.2259C114.202 -51.4524 114.345 -52.6847 114.332 -53.9141C114.331 -53.9195 114.333 -53.9278 114.333 -53.9332C114.308 -53.9387 114.28 -53.9467 114.254 -53.9522C114.204 -53.9632 114.154 -53.9742 114.101 -53.9876C113.961 -50.177 113.711 -46.3819 113.355 -42.5838L113.354 -42.5892Z" fill="#FFE3CB"/>
</g>
<g style="mix-blend-mode:screen">
<path d="M109.228 2.34668C108.851 2.05184 108.457 1.78322 108.046 1.53545C108.769 2.1477 109.457 2.80164 110.106 3.49246C110.967 4.40855 111.762 5.3889 112.476 6.42684C113.167 7.43178 113.757 8.48287 114.299 9.57439C115.4 11.7802 115.979 14.1993 116.482 16.5965C117.003 19.0817 117.426 21.6155 118.302 24.0086C119.024 25.9823 120.026 27.8283 121.025 29.6719C121.036 29.6408 121.044 29.6128 121.057 29.5841C120.977 29.3476 120.9 29.1134 120.818 28.8852C120.324 27.5326 119.782 26.1959 119.366 24.8132C117.918 20.0113 117.483 14.892 115.4 10.2854C114.656 8.64336 113.669 7.08984 112.546 5.66781C112.554 5.71329 112.559 5.76175 112.565 5.81021C112.434 5.58175 112.288 5.36577 112.127 5.1569C112.127 5.1569 112.127 5.1569 112.124 5.15449C112.108 5.13707 112.093 5.11965 112.079 5.09926C112.068 5.08963 112.06 5.07405 112.051 5.06145C111.966 4.95879 111.876 4.85669 111.789 4.75701C111.401 4.31083 110.99 3.88607 110.555 3.49108C110.133 3.0866 109.694 2.69757 109.23 2.33832L109.228 2.34668Z" fill="#FFE3CB"/>
</g>
<path d="M68.7335 98.2671C65.8747 104.722 66.2198 110.934 67.2851 114.301C68.0988 116.875 69.8744 118.012 70.9671 118.575C72.0965 119.073 74.0879 119.736 76.6016 118.75C79.8862 117.462 84.9301 113.823 88.1424 107.54C90.4683 102.991 92.1085 96.6009 88.8539 92.0232C87.8365 90.5927 87.2352 88.7014 88.6199 86.2346C89.9155 83.9269 112.486 41.4941 112.52 41.4333C114.05 38.6161 115.948 34.2432 112.154 32.1951C108.269 30.4372 105.971 34.7573 104.748 37.7189C104.722 37.7816 86.0024 81.9841 85.0227 84.4434C83.9796 87.0728 82.0881 87.8426 80.3406 87.9518C74.7408 88.301 70.8063 93.5925 68.7359 98.2642L68.7335 98.2671Z" fill="#82BBEF"/>
<path d="M112.211 32.0639C113.312 32.6577 114.023 33.4864 114.333 34.5235C115.002 36.7643 113.69 39.5801 112.644 41.4991C112.637 41.5081 112.441 41.8856 112.083 42.5553C103.807 58.11 89.7673 84.4764 88.7437 86.3005C87.622 88.301 87.6953 90.1448 88.9723 91.9372C90.4719 94.0517 91.0646 96.6981 90.7347 99.8045C90.4006 102.922 89.2091 105.766 88.271 107.6C85.0972 113.81 80.0267 117.556 76.6535 118.881C74.7435 119.631 72.8661 119.571 70.9071 118.703C68.9958 117.722 67.7666 116.297 67.1476 114.343C66.0509 110.887 65.7755 104.588 68.6017 98.2104C69.4389 96.3244 70.898 93.6128 73.1096 91.3904C75.3141 89.1769 77.7418 87.9744 80.3281 87.8143C82.5058 87.6785 84.0403 86.5273 84.8891 84.395C85.6625 82.4478 97.3044 54.9335 104.176 38.7082C104.456 38.044 104.613 37.6789 104.617 37.6675C105.948 34.4494 107.401 32.5635 109.064 31.905C110.055 31.514 111.114 31.5676 112.214 32.0663L112.211 32.0639ZM71.0294 118.448C72.9083 119.281 74.7145 119.337 76.5461 118.617C79.8755 117.316 84.8772 113.613 88.0178 107.475C88.9445 105.661 90.1233 102.851 90.4513 99.7774C90.778 96.7421 90.2005 94.1622 88.7426 92.1058C87.3978 90.2145 87.3164 88.2708 88.4977 86.1659C89.5189 84.3448 103.556 57.9814 111.832 42.4267C112.192 41.7486 112.391 41.3735 112.396 41.3676C113.417 39.4921 114.698 36.7502 114.062 34.6095C113.776 33.646 113.112 32.875 112.086 32.3222C111.067 31.864 110.081 31.8107 109.166 32.1691C107.581 32.7976 106.177 34.6293 104.876 37.7734C104.871 37.7794 104.718 38.147 104.433 38.8171C97.5612 55.0424 85.9242 82.5507 85.1508 84.498C84.2597 86.7436 82.6442 87.9525 80.3445 88.093C77.8288 88.2511 75.4634 89.4251 73.3105 91.5869C71.1283 93.7789 69.6879 96.4614 68.8615 98.3217C66.0684 104.628 66.3381 110.848 67.4188 114.257C68.016 116.135 69.1957 117.505 71.0294 118.448Z" fill="#006DA3"/>
<path style="mix-blend-mode:multiply" d="M72.664 118.601C72.664 118.601 75.567 119.41 79.0922 116.816C82.6175 114.223 85.8635 111.237 88.3157 105.635C90.7678 100.032 90.4693 95.6174 87.8335 92.3846C85.1976 89.1517 79.7783 87.6111 76.3699 89.9496C72.967 92.2875 70.4977 95.1772 68.7784 99.67C67.0645 104.162 64.7436 116.395 72.664 118.601Z" fill="url(#paint0_linear_458_972)"/>
<g opacity="0.65">
<g style="mix-blend-mode:screen">
<path d="M76.0475 90.6293C79.4504 88.2913 84.8751 89.8314 87.511 93.0643C90.1468 96.2971 90.4454 100.712 87.9932 106.315C87.9209 106.477 87.8485 106.64 87.7732 106.801C87.9587 106.424 88.1377 106.038 88.3149 105.635C90.7671 100.032 90.4685 95.6176 87.8327 92.3848C85.1968 89.1519 79.7775 87.6113 76.3692 89.9498C73.3415 92.0301 71.0553 94.5463 69.3776 98.2369C71.0212 94.9121 73.2069 92.5753 76.0445 90.6269L76.0475 90.6293Z" fill="#4CA0F4"/>
</g>
</g>
<path opacity="0.63" d="M87.3984 87.6628L112.251 40.0456C112.251 40.0456 114.019 37.3475 113.347 34.666C113.347 34.666 112.944 32.8762 110.64 32.753C110.64 32.753 109.153 32.6686 108.411 33.4961C107.67 34.3236 111.143 34.0339 109.047 38.5912C106.951 43.1486 87.3066 85.9516 86.3621 86.335C85.4145 86.716 84.6979 86.0297 84.1271 86.7982C83.5532 87.5643 82.7531 88.2265 84.3897 88.7308C86.0287 89.2322 87.3396 91.5927 87.3492 90.6959C87.3588 89.799 86.7033 89.275 87.3984 87.6628Z" fill="#3A8DF3"/>
<path style="mix-blend-mode:multiply" d="M85.6211 84.3853L105.486 37.3111C105.486 37.3111 106.746 34.37 107.936 33.6147C107.936 33.6147 105.88 37.3591 105.299 39.1661C104.717 40.9732 86.0213 84.7131 85.4451 85.4822C84.8713 86.2484 85.1121 85.602 85.6181 84.3829L85.6211 84.3853Z" fill="url(#paint1_linear_458_972)"/>
<path opacity="0.46" d="M88.2765 85.6583L111.825 40.3171C111.825 40.3171 113.286 37.4692 113.105 36.0697C113.105 36.0697 111.537 40.0454 110.519 41.6429C109.498 43.2434 87.7726 85.5566 87.5464 86.4901C87.3201 87.4235 87.6667 86.8231 88.2789 85.6554L88.2765 85.6583Z" fill="white"/>
<g style="mix-blend-mode:soft-light">
<path d="M122.903 93L121.679 110.331L117.94 163.131C117.735 166.053 115.77 168.549 112.991 169.466C92.2434 176.344 74.1716 172.454 64.7727 169.283C62.0235 168.35 60.11 165.862 59.912 162.97L55.4545 99.9955L55 93.6386C56.6569 93.8295 58.3211 94.2626 59.9633 94.4387C63.0572 94.7544 66.173 94.9012 69.2595 95.1508C75.0806 95.6206 80.8798 96.3473 86.7082 96.5969C97.4194 97.052 108.277 96.5528 118.754 94.0864C120.147 93.7561 121.525 93.3964 122.896 93L122.903 93Z" fill="#68CEFF"/>
</g>
<path d="M99.7653 13.1426C100.304 14.5313 100.474 16.1035 100.024 17.5399C100.016 17.568 99.9842 17.5768 99.9634 17.5599C99.8351 17.4565 99.7189 17.3381 99.605 17.2168C99.1635 16.7327 98.8257 16.1504 98.2983 15.7544C97.6903 15.2933 96.8664 15.2038 96.1223 15.1983C95.3184 15.1938 94.5177 15.3196 93.7454 15.5322C92.9886 15.7378 92.2543 16.0254 91.5658 16.4089C90.2528 17.1391 89.16 18.1944 88.2856 19.4063C87.8379 20.0284 87.4487 20.6878 87.097 21.3677C86.7821 21.9838 86.4827 22.6174 86.2078 23.251C85.9191 23.9079 85.6674 24.58 85.4808 25.2751C85.3021 25.9421 85.1861 26.6351 85.2281 27.3277C85.2291 27.363 85.1794 27.3819 85.1622 27.3483C84.6836 26.4951 84.3421 25.5756 84.136 24.6227C83.9358 23.6991 83.8582 22.7516 83.8871 21.8064C83.5431 23.5937 83.4532 25.4385 83.578 27.255C83.7525 29.7852 84.3016 32.2783 85.1656 34.6617C86.0071 36.9877 87.1199 39.2031 88.2628 41.3936C90.5211 45.723 93.0202 50.114 93.7813 55.0053C94.1414 57.3115 94.208 59.7006 95.0392 61.9051C95.4809 63.0727 96.3451 64.8761 97.8911 64.565C99.0954 64.3174 99.94 63.0814 100.521 62.0995C101.161 61.0132 101.74 59.7891 102.006 58.5491C102.55 55.9836 101.749 53.4791 101.091 51.0165C100.363 48.3001 99.6016 45.5028 99.4125 42.6856C99.0649 37.587 100.768 32.742 101.592 27.7777C102.174 24.2743 102.322 20.5445 101.535 17.0582C101.165 15.4121 100.553 13.7833 99.4973 12.4495C99.4598 12.4044 99.4223 12.3594 99.3847 12.3144C99.5256 12.5853 99.6509 12.8634 99.7629 13.1456L99.7653 13.1426Z" fill="#D09670"/>
<path d="M86.0383 16.7231C86.4753 15.9252 86.9463 15.14 87.4883 14.4072C87.9726 13.7459 88.5214 13.1267 89.1143 12.5628C89.4131 12.2779 89.7293 12.002 90.0656 11.7621C90.9061 11.0439 91.8716 10.4758 92.9604 10.2432C94.6615 9.88024 96.556 10.3763 97.9305 11.4312C99.2245 12.4212 100.072 13.867 100.619 15.3801C101.82 18.7135 101.809 22.4859 101.421 25.9633C100.927 30.3779 99.408 34.6044 99.0114 39.0386C98.9014 40.2674 98.8715 41.5068 98.9582 42.7419C99.0518 44.0907 99.3069 45.4224 99.5907 46.7428C99.8822 48.1088 100.224 49.4612 100.59 50.8084C100.928 52.0549 101.309 53.2915 101.555 54.5616C101.912 56.4134 101.935 58.2952 101.213 60.0573C100.715 61.2729 100.019 62.5012 99.0994 63.4456C98.7363 63.8163 98.2852 64.2046 97.7514 64.2803C97.1829 64.3624 96.7063 63.9828 96.3673 63.5667C95.7025 62.755 95.3317 61.6889 95.0659 60.6878C94.7718 59.5754 94.6165 58.4374 94.4721 57.2982C94.3334 56.1883 94.2128 55.0684 93.991 53.9701C93.7622 52.8317 93.44 51.7114 93.0603 50.6135C92.2873 48.3674 91.2502 46.2229 90.1651 44.1134C87.9807 39.8633 85.5689 35.6509 84.565 30.9324C83.7854 27.2602 83.6793 23.2661 84.8273 19.6644C84.8703 19.5073 84.9109 19.3533 84.9623 19.198C85.0959 18.77 85.2523 18.3504 85.4289 17.9423C85.6128 17.5252 85.8199 17.122 86.0383 16.7231Z" fill="#FFE3CB"/>
<path d="M86.0383 16.7231C86.4753 15.9252 86.9463 15.14 87.4883 14.4072C87.9726 13.7459 88.5214 13.1267 89.1143 12.5628C89.4131 12.2779 89.7293 12.002 90.0656 11.7621C90.9061 11.0439 91.8716 10.4758 92.9604 10.2432C94.6615 9.88024 96.556 10.3763 97.9305 11.4312C99.2245 12.4212 100.072 13.867 100.619 15.3801C101.82 18.7135 101.809 22.4859 101.421 25.9633C100.927 30.3779 99.408 34.6044 99.0114 39.0386C98.9014 40.2674 98.8715 41.5068 98.9582 42.7419C99.0518 44.0907 99.3069 45.4224 99.5907 46.7428C99.8822 48.1088 100.224 49.4612 100.59 50.8084C100.928 52.0549 101.309 53.2915 101.555 54.5616C101.912 56.4134 101.935 58.2952 101.213 60.0573C100.715 61.2729 100.019 62.5012 99.0994 63.4456C98.7363 63.8163 98.2852 64.2046 97.7514 64.2803C97.1829 64.3624 96.7063 63.9828 96.3673 63.5667C95.7025 62.755 95.3317 61.6889 95.0659 60.6878C94.7718 59.5754 94.6165 58.4374 94.4721 57.2982C94.3334 56.1883 94.2128 55.0684 93.991 53.9701C93.7622 52.8317 93.44 51.7114 93.0603 50.6135C92.2873 48.3674 91.2502 46.2229 90.1651 44.1134C87.9807 39.8633 85.5689 35.6509 84.565 30.9324C83.7854 27.2602 83.6793 23.2661 84.8273 19.6644C84.8703 19.5073 84.9109 19.3533 84.9623 19.198C85.0959 18.77 85.2523 18.3504 85.4289 17.9423C85.6128 17.5252 85.8199 17.122 86.0383 16.7231Z" fill="#FFE3CB"/>
<g style="mix-blend-mode:screen">
<path d="M100.309 28.8369C99.7705 30.8655 99.189 32.8741 98.8099 34.9429C98.384 37.259 98.1673 39.621 98.3011 41.9757C98.3706 43.1773 98.5268 44.3751 98.7842 45.5514C99.0216 46.6426 99.3703 47.7056 99.6951 48.7739C100.292 50.7256 100.88 52.6945 101.19 54.7146C101.482 56.6169 101.509 58.5855 100.957 60.4411C100.889 60.6662 100.812 60.8895 100.729 61.1079C100.907 60.7596 101.068 60.4076 101.215 60.0543C101.943 58.2916 101.917 56.4074 101.557 54.5586C101.312 53.2886 100.925 52.0525 100.592 50.8054C100.229 49.4606 99.8846 48.1058 99.5931 46.7399C99.3093 45.4194 99.0542 44.0877 98.9606 42.7389C98.8739 41.5038 98.9014 40.2674 99.0138 39.0356C99.408 34.6044 100.93 30.3749 101.424 25.9603C101.567 24.6898 101.658 23.3814 101.658 22.0689C101.398 24.3566 100.904 26.6227 100.315 28.8364L100.309 28.8369Z" fill="#FFE3CB"/>
</g>
<g style="mix-blend-mode:multiply">
<path d="M97.0631 64.1574C97.7669 63.8894 98.3827 63.2604 98.7394 62.6534C99.4144 61.5117 99.617 60.1315 99.6836 58.8283C99.8087 56.3481 99.239 53.9415 98.4005 51.618C97.5649 49.2969 96.5048 47.065 95.6741 44.7379C95.2492 43.5495 94.9237 42.3478 94.7587 41.0937C94.5954 39.8558 94.5667 38.6036 94.6504 37.3585C94.733 36.1271 94.9201 34.9065 95.1688 33.7011C95.4237 32.4514 95.7849 31.2286 96.0511 29.9832C96.5738 27.5289 96.6327 24.9658 96.2379 22.489C96.034 21.2281 95.7092 19.9828 95.2437 18.796C94.8309 17.7452 94.3243 16.6826 93.5759 15.828C93.0295 15.2053 92.3434 14.7008 91.5439 14.4589C90.8233 14.2413 90.0612 14.2459 89.3333 14.4158C88.3211 14.6512 87.3904 15.1638 86.5664 15.8067C86.3865 16.109 86.2096 16.4137 86.0417 16.7256C85.8232 17.1245 85.6131 17.5253 85.4323 17.9447C85.2532 18.3558 85.0969 18.7754 84.9657 19.2005C84.9197 19.3551 84.8737 19.5098 84.8307 19.6668C83.6827 23.2685 83.7888 27.2627 84.5683 30.9349C85.5722 35.6534 87.9841 39.8657 90.1685 44.1159C91.2535 46.2253 92.2877 48.3675 93.0636 50.6159C93.4433 51.7138 93.7655 52.8342 93.9944 53.9726C94.2162 55.0709 94.3338 56.1884 94.4754 57.3007C94.6169 58.4374 94.7728 59.5809 95.0693 60.6903C95.3321 61.6889 95.7083 62.7545 96.3707 63.5692C96.5619 63.8021 96.7956 64.0251 97.0691 64.1622L97.0631 64.1574Z" fill="#FFE3CB"/>
</g>
</g>
</g>
</g>
<defs>
<linearGradient id="paint0_linear_458_972" x1="81.1959" y1="113.561" x2="74.7291" y2="90.8047" gradientUnits="userSpaceOnUse">
<stop offset="0.04" stop-color="#7C8F97"/>
<stop offset="1" stop-color="white"/>
</linearGradient>
<linearGradient id="paint1_linear_458_972" x1="112.177" y1="116.325" x2="87.9665" y2="28.2277" gradientUnits="userSpaceOnUse">
<stop offset="0.04" stop-color="#7C8F97"/>
<stop offset="1" stop-color="white"/>
</linearGradient>
<clipPath id="clip0_458_972">
<rect width="178" height="180" fill="white"/>
</clipPath>
<clipPath id="clip1_458_972">
<rect width="179" height="180" fill="white" transform="translate(-1)"/>
</clipPath>
<clipPath id="clip2_458_972">
<rect width="171.351" height="218.402" fill="white" transform="translate(97.3936 212.572) rotate(-141.103)"/>
</clipPath>
</defs>
</svg>
