<svg width="874" height="115" viewBox="0 0 874 115" fill="none" xmlns="http://www.w3.org/2000/svg">
<path d="M6.63541 0.978997H24.6534V38.212H27.9924V51.19H22.8264V43H6.13141V51.19H0.965409V38.212C2.51941 37.414 3.73741 36.322 4.61941 34.936C5.96341 32.836 6.63541 28.972 6.63541 23.344V0.978997ZM11.9274 5.767V21.454C11.9274 26.956 11.5914 30.82 10.9194 33.046C10.2894 35.104 9.17641 36.826 7.58041 38.212H18.9834V5.767H11.9274ZM36.2681 43H30.5981V0.978997H36.2681V43ZM59.1597 35.755V41.614C57.6057 42.958 55.5897 43.63 53.1117 43.63C50.2977 43.63 47.9247 42.748 45.9927 40.984C42.4647 37.708 40.7007 30.925 40.7007 20.635C40.7007 12.067 42.2967 6.25 45.4887 3.184C47.3787 1.336 49.8777 0.411996 52.9857 0.411996C55.4217 0.411996 57.4797 1.063 59.1597 2.365V8.224C57.6057 6.502 55.8837 5.641 53.9937 5.641C52.3557 5.641 50.9907 6.208 49.8987 7.342C47.8407 9.442 46.8117 13.222 46.8117 18.682H56.5137V23.47H46.7487C46.7487 25.78 47.0007 28.258 47.5047 30.904C48.0507 33.508 48.9117 35.377 50.0877 36.511C51.1797 37.561 52.5447 38.086 54.1827 38.086C56.3667 38.086 58.0257 37.309 59.1597 35.755ZM79.9261 5.956H73.5001V43H67.9561V5.956H61.5301V0.978997H79.9261V5.956ZM81.7585 43V0.978997H87.3025V18.178C87.3025 23.05 86.9035 27.985 86.1055 32.983C86.5675 31.471 87.1555 29.434 87.8695 26.872C88.5835 24.268 89.2345 22.084 89.8225 20.32L96.1225 0.978997H101.162V43H95.6185V24.289C95.6185 21.601 95.9965 17.044 96.7525 10.618C94.6945 18.01 93.6235 21.811 93.5395 22.021L86.7985 43H81.7585ZM125.427 0.978997V43H119.757V22.903C118.371 23.239 116.859 23.407 115.221 23.407C112.533 23.407 110.496 22.903 109.11 21.895C107.85 21.013 107.01 19.837 106.59 18.367C106.17 16.897 105.96 15.028 105.96 12.76V0.978997H111.693V12.949C111.693 15.091 112.113 16.54 112.953 17.296C113.625 17.926 114.78 18.241 116.418 18.241C117.468 18.241 118.581 18.094 119.757 17.8V0.978997H125.427ZM150.267 43H144.597V22.21H136.281V43H130.611V0.978997H136.281V17.422H144.597V0.978997H150.267V43ZM174.84 43H169.233L167.658 34.81H159.342L157.767 43H152.286L161.421 0.978997H165.894L174.84 43ZM160.161 30.463H166.839C165.159 21.097 164.067 13.999 163.563 9.169C163.143 13.495 162.009 20.593 160.161 30.463ZM193.032 0.978997H211.05V38.212H214.389V51.19H209.223V43H192.528V51.19H187.362V38.212C188.916 37.414 190.134 36.322 191.016 34.936C192.36 32.836 193.032 28.972 193.032 23.344V0.978997ZM198.324 5.767V21.454C198.324 26.956 197.988 30.82 197.316 33.046C196.686 35.104 195.573 36.826 193.977 38.212H205.38V5.767H198.324ZM238.036 22.021C238.036 24.793 237.973 27.145 237.847 29.077C237.721 30.967 237.322 33.13 236.65 35.566C236.02 37.96 235.096 39.766 233.878 40.984C232.156 42.706 229.909 43.567 227.137 43.567C224.323 43.567 222.055 42.706 220.333 40.984C217.561 38.17 216.175 31.891 216.175 22.147C216.175 20.089 216.196 18.346 216.238 16.918C216.322 15.448 216.49 13.747 216.742 11.815C216.994 9.883 217.414 8.182 218.002 6.712C218.632 5.2 219.409 3.982 220.333 3.058C222.055 1.336 224.323 0.474999 227.137 0.474999C229.909 0.474999 232.156 1.336 233.878 3.058C235.6 4.78 236.713 7.279 237.217 10.555C237.763 13.831 238.036 17.653 238.036 22.021ZM222.097 23.029C222.097 31.009 222.874 35.776 224.428 37.33C225.1 38.002 226.003 38.338 227.137 38.338C228.229 38.338 229.111 38.002 229.783 37.33C231.337 35.776 232.114 31.009 232.114 23.029V19.879C232.114 12.487 231.337 8.056 229.783 6.586C229.111 5.914 228.229 5.578 227.137 5.578C226.003 5.578 225.1 5.914 224.428 6.586C222.874 8.056 222.097 12.487 222.097 19.879V23.029ZM242.374 0.978997H257.809V5.767H248.044V18.997H248.989C252.685 18.997 255.436 19.921 257.242 21.769C259.132 23.701 260.077 26.872 260.077 31.282C260.077 35.608 259.153 38.695 257.305 40.543C255.667 42.181 253.294 43 250.186 43H242.374V0.978997ZM248.044 23.785V38.212H248.422C250.438 38.212 251.866 37.813 252.706 37.015C253.714 36.049 254.218 34.117 254.218 31.219C254.218 28.153 253.651 26.095 252.517 25.045C251.551 24.205 250.165 23.785 248.359 23.785H248.044ZM283.466 43H277.859L276.284 34.81H267.968L266.393 43H260.912L270.047 0.978997H274.52L283.466 43ZM268.787 30.463H275.465C273.785 21.097 272.693 13.999 272.189 9.169C271.769 13.495 270.635 20.593 268.787 30.463ZM285.504 0.978997H293.19C299.196 0.978997 302.199 4.717 302.199 12.193C302.199 15.175 301.674 17.464 300.624 19.06C299.91 20.194 298.671 21.055 296.907 21.643C298.629 22.273 299.868 23.008 300.624 23.848C302.094 25.402 302.829 27.943 302.829 31.471C302.829 39.157 299.532 43 292.938 43H285.504V0.978997ZM290.859 19.501H291.237C293.463 19.501 294.933 18.892 295.647 17.674C296.361 16.414 296.718 14.587 296.718 12.193C296.718 7.783 295.08 5.578 291.804 5.578H290.859V19.501ZM290.859 23.974V38.149C292.497 38.149 293.673 37.981 294.387 37.645C296.109 36.847 296.97 34.726 296.97 31.282C296.97 28.762 296.55 26.914 295.71 25.738C294.912 24.562 293.295 23.974 290.859 23.974ZM327.101 43H320.738L312.863 22.399V43H307.193V0.978997H312.863V20.257L320.738 0.978997H326.471L317.966 21.328L327.101 43ZM350.131 43H344.524L342.949 34.81H334.633L333.058 43H327.577L336.712 0.978997H341.185L350.131 43ZM335.452 30.463H342.13C340.45 21.097 339.358 13.999 338.854 9.169C338.434 13.495 337.3 20.593 335.452 30.463ZM358.832 40.039C358.832 41.005 358.496 41.824 357.824 42.496C357.194 43.126 356.396 43.441 355.43 43.441C354.506 43.441 353.708 43.105 353.036 42.433C352.406 41.761 352.091 40.963 352.091 40.039C352.091 39.115 352.406 38.338 353.036 37.708C353.708 37.036 354.506 36.7 355.43 36.7C356.354 36.7 357.152 37.036 357.824 37.708C358.496 38.338 358.832 39.115 358.832 40.039ZM396.375 43H390.705V22.21H382.389V43H376.719V0.978997H382.389V17.422H390.705V0.978997H396.375V43ZM416.602 43H401.545V0.978997H416.602V5.767H407.215V19.123H415.531V23.911H407.215V38.212H416.602V43ZM451.61 35.755V41.614C450.056 42.958 448.04 43.63 445.562 43.63C442.748 43.63 440.375 42.748 438.443 40.984C434.915 37.708 433.151 30.925 433.151 20.635C433.151 12.067 434.747 6.25 437.939 3.184C439.829 1.336 442.328 0.411996 445.436 0.411996C447.872 0.411996 449.93 1.063 451.61 2.365V8.224C450.056 6.502 448.334 5.641 446.444 5.641C444.806 5.641 443.441 6.208 442.349 7.342C440.291 9.442 439.262 13.222 439.262 18.682H448.964V23.47H439.199C439.199 25.78 439.451 28.258 439.955 30.904C440.501 33.508 441.362 35.377 442.538 36.511C443.63 37.561 444.995 38.086 446.633 38.086C448.817 38.086 450.476 37.309 451.61 35.755ZM472.497 0.978997H490.641V43H484.971V5.767H477.852V27.187C477.852 31.051 477.726 33.697 477.474 35.125C476.97 38.023 476.109 40.102 474.891 41.362C473.547 42.748 471.804 43.441 469.662 43.441C468.402 43.441 467.331 43.252 466.449 42.874V37.141C467.037 37.771 467.814 38.086 468.78 38.086C469.62 38.086 470.313 37.813 470.859 37.267C471.573 36.553 472.014 35.461 472.182 33.991C472.392 32.521 472.497 30.442 472.497 27.754V0.978997ZM501.506 43H495.836V0.978997H501.506V43ZM526.665 43H520.302L512.427 22.399V43H506.757V0.978997H512.427V20.257L520.302 0.978997H526.035L517.53 21.328L526.665 43ZM549.695 43H544.088L542.513 34.81H534.197L532.622 43H527.141L536.276 0.978997H540.749L549.695 43ZM535.016 30.463H541.694C540.014 21.097 538.922 13.999 538.418 9.169C537.998 13.495 536.864 20.593 535.016 30.463ZM551.734 0.978997H559.168C561.814 0.978997 563.872 1.42 565.342 2.302C568.114 3.982 569.5 7.447 569.5 12.697C569.5 17.317 568.282 20.572 565.846 22.462C564.208 23.722 561.394 24.352 557.404 24.352V43H551.734V0.978997ZM557.404 19.501H557.908C560.092 19.501 561.583 18.955 562.381 17.863C563.179 16.771 563.578 15.091 563.578 12.823C563.578 8.119 561.772 5.767 558.16 5.767H557.404V19.501ZM589.066 37.204V42.37C587.722 43.168 586.189 43.567 584.467 43.567C575.983 43.567 571.741 36.616 571.741 22.714C571.741 7.846 575.941 0.411996 584.341 0.411996C585.979 0.411996 587.554 0.831997 589.066 1.672V6.775C587.764 6.061 586.546 5.704 585.412 5.704C584.194 5.704 583.123 5.977 582.199 6.523C581.275 7.069 580.54 7.867 579.994 8.917C579.49 9.967 579.07 10.996 578.734 12.004C578.398 13.012 578.167 14.272 578.041 15.784C577.915 17.254 577.831 18.409 577.789 19.249C577.747 20.089 577.726 21.139 577.726 22.399C577.726 32.815 580.393 38.023 585.727 38.023C586.861 38.023 587.974 37.75 589.066 37.204ZM592.526 0.978997H598.196V18.934H599.015C602.879 18.934 605.714 19.858 607.52 21.706C609.452 23.68 610.418 26.851 610.418 31.219C610.418 35.587 609.494 38.695 607.646 40.543C606.008 42.181 603.635 43 600.527 43H592.526V0.978997ZM598.196 23.722V38.212H598.448C600.59 38.212 602.081 37.813 602.921 37.015C603.971 36.007 604.496 34.054 604.496 31.156C604.496 28.132 603.908 26.074 602.732 24.982C601.808 24.142 600.359 23.722 598.385 23.722H598.196ZM634.307 43H627.944L620.069 22.399V43H614.399V0.978997H620.069V20.257L627.944 0.978997H633.677L625.172 21.328L634.307 43ZM636.579 43V0.978997H642.123V18.178C642.123 23.05 641.724 27.985 640.926 32.983C641.388 31.471 641.976 29.434 642.69 26.872C643.404 24.268 644.055 22.084 644.643 20.32L650.943 0.978997H655.983V43H650.439V24.289C650.439 21.601 650.817 17.044 651.573 10.618C649.515 18.01 648.444 21.811 648.36 22.021L641.619 43H636.579ZM688.312 43H682.831C682.201 33.424 681.844 27.607 681.76 25.549C681.76 24.919 681.718 23.995 681.634 22.777C681.55 21.517 681.508 20.572 681.508 19.942C681.466 19.228 681.445 18.577 681.445 17.989C681.487 17.401 681.487 16.75 681.445 16.036C681.445 15.322 681.403 14.671 681.319 14.083C680.941 16.561 679.156 26.2 675.964 43H672.184C671.932 41.74 671.428 39.43 670.672 36.07C669.958 32.668 669.412 30.106 669.034 28.384C668.698 26.62 668.278 24.373 667.774 21.643C667.312 18.871 666.934 16.351 666.64 14.083L665.002 43H659.71L663.175 0.978997H668.026L671.68 18.115C671.722 18.451 671.827 18.955 671.995 19.627C672.205 20.299 672.331 20.803 672.373 21.139C672.919 24.163 673.444 27.565 673.948 31.345C673.948 31.261 674.263 29.287 674.893 25.423C674.977 24.919 675.082 24.163 675.208 23.155C675.376 22.105 675.502 21.328 675.586 20.824C675.67 20.488 675.775 20.005 675.901 19.375C676.069 18.703 676.174 18.199 676.216 17.863L679.492 0.978997H684.406L688.312 43ZM707.924 18.871H708.554C710.696 18.871 712.313 18.388 713.405 17.422C714.581 16.414 715.169 14.776 715.169 12.508C715.169 10.156 714.644 8.392 713.594 7.216C712.67 6.208 711.431 5.704 709.877 5.704C707.819 5.704 706.034 6.649 704.522 8.539V2.68C706.37 1.21 708.533 0.474999 711.011 0.474999C713.867 0.474999 716.114 1.252 717.752 2.806C719.81 4.78 720.839 7.762 720.839 11.752C720.839 14.986 720.083 17.401 718.571 18.997C717.689 19.921 716.702 20.509 715.61 20.761C716.954 20.971 718.193 21.58 719.327 22.588C721.175 24.352 722.099 27.04 722.099 30.652C722.099 35.062 720.881 38.443 718.445 40.795C716.555 42.643 714.035 43.567 710.885 43.567C708.197 43.567 705.992 42.832 704.27 41.362V35.44C706.034 37.246 708.008 38.149 710.192 38.149C711.872 38.149 713.237 37.666 714.287 36.7C715.589 35.482 716.24 33.508 716.24 30.778C716.24 28.132 715.61 26.242 714.35 25.108C713.3 24.142 711.599 23.659 709.247 23.659H707.924V18.871ZM745.628 43H740.021L738.446 34.81H730.13L728.555 43H723.074L732.209 0.978997H736.682L745.628 43ZM730.949 30.463H737.627C735.947 21.097 734.855 13.999 734.351 9.169C733.931 13.495 732.797 20.593 730.949 30.463ZM762.818 37.204V42.37C761.474 43.168 759.941 43.567 758.219 43.567C749.735 43.567 745.493 36.616 745.493 22.714C745.493 7.846 749.693 0.411996 758.093 0.411996C759.731 0.411996 761.306 0.831997 762.818 1.672V6.775C761.516 6.061 760.298 5.704 759.164 5.704C757.946 5.704 756.875 5.977 755.951 6.523C755.027 7.069 754.292 7.867 753.746 8.917C753.242 9.967 752.822 10.996 752.486 12.004C752.15 13.012 751.919 14.272 751.793 15.784C751.667 17.254 751.583 18.409 751.541 19.249C751.499 20.089 751.478 21.139 751.478 22.399C751.478 32.815 754.145 38.023 759.479 38.023C760.613 38.023 761.726 37.75 762.818 37.204ZM786.09 22.021C786.09 24.793 786.027 27.145 785.901 29.077C785.775 30.967 785.376 33.13 784.704 35.566C784.074 37.96 783.15 39.766 781.932 40.984C780.21 42.706 777.963 43.567 775.191 43.567C772.377 43.567 770.109 42.706 768.387 40.984C765.615 38.17 764.229 31.891 764.229 22.147C764.229 20.089 764.25 18.346 764.292 16.918C764.376 15.448 764.544 13.747 764.796 11.815C765.048 9.883 765.468 8.182 766.056 6.712C766.686 5.2 767.463 3.982 768.387 3.058C770.109 1.336 772.377 0.474999 775.191 0.474999C777.963 0.474999 780.21 1.336 781.932 3.058C783.654 4.78 784.767 7.279 785.271 10.555C785.817 13.831 786.09 17.653 786.09 22.021ZM770.151 23.029C770.151 31.009 770.928 35.776 772.482 37.33C773.154 38.002 774.057 38.338 775.191 38.338C776.283 38.338 777.165 38.002 777.837 37.33C779.391 35.776 780.168 31.009 780.168 23.029V19.879C780.168 12.487 779.391 8.056 777.837 6.586C777.165 5.914 776.283 5.578 775.191 5.578C774.057 5.578 773.154 5.914 772.482 6.586C770.928 8.056 770.151 12.487 770.151 19.879V23.029ZM790.427 0.978997H805.862V5.767H796.097V18.997H797.042C800.738 18.997 803.489 19.921 805.295 21.769C807.185 23.701 808.13 26.872 808.13 31.282C808.13 35.608 807.206 38.695 805.358 40.543C803.72 42.181 801.347 43 798.239 43H790.427V0.978997ZM796.097 23.785V38.212H796.475C798.491 38.212 799.919 37.813 800.759 37.015C801.767 36.049 802.271 34.117 802.271 31.219C802.271 28.153 801.704 26.095 800.57 25.045C799.604 24.205 798.218 23.785 796.412 23.785H796.097ZM832.481 22.021C832.481 24.793 832.418 27.145 832.292 29.077C832.166 30.967 831.767 33.13 831.095 35.566C830.465 37.96 829.541 39.766 828.323 40.984C826.601 42.706 824.354 43.567 821.582 43.567C818.768 43.567 816.5 42.706 814.778 40.984C812.006 38.17 810.62 31.891 810.62 22.147C810.62 20.089 810.641 18.346 810.683 16.918C810.767 15.448 810.935 13.747 811.187 11.815C811.439 9.883 811.859 8.182 812.447 6.712C813.077 5.2 813.854 3.982 814.778 3.058C816.5 1.336 818.768 0.474999 821.582 0.474999C824.354 0.474999 826.601 1.336 828.323 3.058C830.045 4.78 831.158 7.279 831.662 10.555C832.208 13.831 832.481 17.653 832.481 22.021ZM816.542 23.029C816.542 31.009 817.319 35.776 818.873 37.33C819.545 38.002 820.448 38.338 821.582 38.338C822.674 38.338 823.556 38.002 824.228 37.33C825.782 35.776 826.559 31.009 826.559 23.029V19.879C826.559 12.487 825.782 8.056 824.228 6.586C823.556 5.914 822.674 5.578 821.582 5.578C820.448 5.578 819.545 5.914 818.873 6.586C817.319 8.056 816.542 12.487 816.542 19.879V23.029ZM863.971 43H858.49C857.86 33.424 857.503 27.607 857.419 25.549C857.419 24.919 857.377 23.995 857.293 22.777C857.209 21.517 857.167 20.572 857.167 19.942C857.125 19.228 857.104 18.577 857.104 17.989C857.146 17.401 857.146 16.75 857.104 16.036C857.104 15.322 857.062 14.671 856.978 14.083C856.6 16.561 854.815 26.2 851.623 43H847.843C847.591 41.74 847.087 39.43 846.331 36.07C845.617 32.668 845.071 30.106 844.693 28.384C844.357 26.62 843.937 24.373 843.433 21.643C842.971 18.871 842.593 16.351 842.299 14.083L840.661 43H835.369L838.834 0.978997H843.685L847.339 18.115C847.381 18.451 847.486 18.955 847.654 19.627C847.864 20.299 847.99 20.803 848.032 21.139C848.578 24.163 849.103 27.565 849.607 31.345C849.607 31.261 849.922 29.287 850.552 25.423C850.636 24.919 850.741 24.163 850.867 23.155C851.035 22.105 851.161 21.328 851.245 20.824C851.329 20.488 851.434 20.005 851.56 19.375C851.728 18.703 851.833 18.199 851.875 17.863L855.151 0.978997H860.065L863.971 43ZM873.353 40.039C873.353 41.005 873.017 41.824 872.345 42.496C871.715 43.126 870.917 43.441 869.951 43.441C869.027 43.441 868.229 43.105 867.557 42.433C866.927 41.761 866.612 40.963 866.612 40.039C866.612 39.115 866.927 38.338 867.557 37.708C868.229 37.036 869.027 36.7 869.951 36.7C870.875 36.7 871.673 37.036 872.345 37.708C873.017 38.338 873.353 39.115 873.353 40.039ZM73.5591 106H67.8891V85.21H59.5731V106H53.9031V63.979H59.5731V80.422H67.8891V63.979H73.5591V106ZM93.7861 106H78.7291V63.979H93.7861V68.767H84.3991V82.123H92.7151V86.911H84.3991V101.212H93.7861V106ZM128.794 98.755V104.614C127.24 105.958 125.224 106.63 122.746 106.63C119.932 106.63 117.559 105.748 115.627 103.984C112.099 100.708 110.335 93.925 110.335 83.635C110.335 75.067 111.931 69.25 115.123 66.184C117.013 64.336 119.512 63.412 122.62 63.412C125.056 63.412 127.114 64.063 128.794 65.365V71.224C127.24 69.502 125.518 68.641 123.628 68.641C121.99 68.641 120.625 69.208 119.533 70.342C117.475 72.442 116.446 76.222 116.446 81.682H126.148V86.47H116.383C116.383 88.78 116.635 91.258 117.139 93.904C117.685 96.508 118.546 98.377 119.722 99.511C120.814 100.561 122.179 101.086 123.817 101.086C126.001 101.086 127.66 100.309 128.794 98.755ZM149.429 81.871H150.059C152.201 81.871 153.818 81.388 154.91 80.422C156.086 79.414 156.674 77.776 156.674 75.508C156.674 73.156 156.149 71.392 155.099 70.216C154.175 69.208 152.936 68.704 151.382 68.704C149.324 68.704 147.539 69.649 146.027 71.539V65.68C147.875 64.21 150.038 63.475 152.516 63.475C155.372 63.475 157.619 64.252 159.257 65.806C161.315 67.78 162.344 70.762 162.344 74.752C162.344 77.986 161.588 80.401 160.076 81.997C159.194 82.921 158.207 83.509 157.115 83.761C158.459 83.971 159.698 84.58 160.832 85.588C162.68 87.352 163.604 90.04 163.604 93.652C163.604 98.062 162.386 101.443 159.95 103.795C158.06 105.643 155.54 106.567 152.39 106.567C149.702 106.567 147.497 105.832 145.775 104.362V98.44C147.539 100.246 149.513 101.149 151.697 101.149C153.377 101.149 154.742 100.666 155.792 99.7C157.094 98.482 157.745 96.508 157.745 93.778C157.745 91.132 157.115 89.242 155.855 88.108C154.805 87.142 153.104 86.659 150.752 86.659H149.429V81.871ZM187.133 106H181.526L179.951 97.81H171.635L170.06 106H164.579L173.714 63.979H178.187L187.133 106ZM172.454 93.463H179.132C177.452 84.097 176.36 76.999 175.856 72.169C175.436 76.495 174.302 83.593 172.454 93.463ZM216.324 106H210.843C210.213 96.424 209.856 90.607 209.772 88.549C209.772 87.919 209.73 86.995 209.646 85.777C209.562 84.517 209.52 83.572 209.52 82.942C209.478 82.228 209.457 81.577 209.457 80.989C209.499 80.401 209.499 79.75 209.457 79.036C209.457 78.322 209.415 77.671 209.331 77.083C208.953 79.561 207.168 89.2 203.976 106H200.196C199.944 104.74 199.44 102.43 198.684 99.07C197.97 95.668 197.424 93.106 197.046 91.384C196.71 89.62 196.29 87.373 195.786 84.643C195.324 81.871 194.946 79.351 194.652 77.083L193.014 106H187.722L191.187 63.979H196.038L199.692 81.115C199.734 81.451 199.839 81.955 200.007 82.627C200.217 83.299 200.343 83.803 200.385 84.139C200.931 87.163 201.456 90.565 201.96 94.345C201.96 94.261 202.275 92.287 202.905 88.423C202.989 87.919 203.094 87.163 203.22 86.155C203.388 85.105 203.514 84.328 203.598 83.824C203.682 83.488 203.787 83.005 203.913 82.375C204.081 81.703 204.186 81.199 204.228 80.863L207.504 63.979H212.418L216.324 106ZM225.327 106H219.657V63.979H225.327V106ZM250.235 106H244.565V85.21H236.249V106H230.579V63.979H236.249V80.422H244.565V63.979H250.235V106ZM276.447 85.021C276.447 87.793 276.384 90.145 276.258 92.077C276.132 93.967 275.733 96.13 275.061 98.566C274.431 100.96 273.507 102.766 272.289 103.984C270.567 105.706 268.32 106.567 265.548 106.567C262.734 106.567 260.466 105.706 258.744 103.984C255.972 101.17 254.586 94.891 254.586 85.147C254.586 83.089 254.607 81.346 254.649 79.918C254.733 78.448 254.901 76.747 255.153 74.815C255.405 72.883 255.825 71.182 256.413 69.712C257.043 68.2 257.82 66.982 258.744 66.058C260.466 64.336 262.734 63.475 265.548 63.475C268.32 63.475 270.567 64.336 272.289 66.058C274.011 67.78 275.124 70.279 275.628 73.555C276.174 76.831 276.447 80.653 276.447 85.021ZM260.508 86.029C260.508 94.009 261.285 98.776 262.839 100.33C263.511 101.002 264.414 101.338 265.548 101.338C266.64 101.338 267.522 101.002 268.194 100.33C269.748 98.776 270.525 94.009 270.525 86.029V82.879C270.525 75.487 269.748 71.056 268.194 69.586C267.522 68.914 266.64 68.578 265.548 68.578C264.414 68.578 263.511 68.914 262.839 69.586C261.285 71.056 260.508 75.487 260.508 82.879V86.029ZM312.788 85.021C312.788 87.793 312.725 90.145 312.599 92.077C312.473 93.967 312.074 96.13 311.402 98.566C310.772 100.96 309.848 102.766 308.63 103.984C306.908 105.706 304.661 106.567 301.889 106.567C299.075 106.567 296.807 105.706 295.085 103.984C293.489 102.388 292.418 100.12 291.872 97.18C291.326 94.198 291.053 90.46 291.053 85.966V85.525H286.454V106H280.784V63.979H286.454V80.737H291.116C291.116 73.597 292.439 68.704 295.085 66.058C296.807 64.336 299.075 63.475 301.889 63.475C304.661 63.475 306.908 64.336 308.63 66.058C310.352 67.78 311.465 70.279 311.969 73.555C312.515 76.831 312.788 80.653 312.788 85.021ZM296.849 86.029C296.849 94.009 297.626 98.776 299.18 100.33C299.852 101.002 300.755 101.338 301.889 101.338C302.981 101.338 303.863 101.002 304.535 100.33C306.089 98.776 306.866 94.009 306.866 86.029V82.879C306.866 75.487 306.089 71.056 304.535 69.586C303.863 68.914 302.981 68.578 301.889 68.578C300.755 68.578 299.852 68.914 299.18 69.586C297.626 71.056 296.849 75.487 296.849 82.879V86.029ZM349.585 106H343.915V68.767H336.229V106H330.559V63.979H349.585V106ZM375.812 85.021C375.812 87.793 375.749 90.145 375.623 92.077C375.497 93.967 375.098 96.13 374.426 98.566C373.796 100.96 372.872 102.766 371.654 103.984C369.932 105.706 367.685 106.567 364.913 106.567C362.099 106.567 359.831 105.706 358.109 103.984C355.337 101.17 353.951 94.891 353.951 85.147C353.951 83.089 353.972 81.346 354.014 79.918C354.098 78.448 354.266 76.747 354.518 74.815C354.77 72.883 355.19 71.182 355.778 69.712C356.408 68.2 357.185 66.982 358.109 66.058C359.831 64.336 362.099 63.475 364.913 63.475C367.685 63.475 369.932 64.336 371.654 66.058C373.376 67.78 374.489 70.279 374.993 73.555C375.539 76.831 375.812 80.653 375.812 85.021ZM359.873 86.029C359.873 94.009 360.65 98.776 362.204 100.33C362.876 101.002 363.779 101.338 364.913 101.338C366.005 101.338 366.887 101.002 367.559 100.33C369.113 98.776 369.89 94.009 369.89 86.029V82.879C369.89 75.487 369.113 71.056 367.559 69.586C366.887 68.914 366.005 68.578 364.913 68.578C363.779 68.578 362.876 68.914 362.204 69.586C360.65 71.056 359.873 75.487 359.873 82.879V86.029ZM380.15 63.979H387.836C393.842 63.979 396.845 67.717 396.845 75.193C396.845 78.175 396.32 80.464 395.27 82.06C394.556 83.194 393.317 84.055 391.553 84.643C393.275 85.273 394.514 86.008 395.27 86.848C396.74 88.402 397.475 90.943 397.475 94.471C397.475 102.157 394.178 106 387.584 106H380.15V63.979ZM385.505 82.501H385.883C388.109 82.501 389.579 81.892 390.293 80.674C391.007 79.414 391.364 77.587 391.364 75.193C391.364 70.783 389.726 68.578 386.45 68.578H385.505V82.501ZM385.505 86.974V101.149C387.143 101.149 388.319 100.981 389.033 100.645C390.755 99.847 391.616 97.726 391.616 94.282C391.616 91.762 391.196 89.914 390.356 88.738C389.558 87.562 387.941 86.974 385.505 86.974ZM421.494 106H415.824V85.21H407.508V106H401.838V63.979H407.508V80.422H415.824V63.979H421.494V106ZM447.706 85.021C447.706 87.793 447.643 90.145 447.517 92.077C447.391 93.967 446.992 96.13 446.32 98.566C445.69 100.96 444.766 102.766 443.548 103.984C441.826 105.706 439.579 106.567 436.807 106.567C433.993 106.567 431.725 105.706 430.003 103.984C427.231 101.17 425.845 94.891 425.845 85.147C425.845 83.089 425.866 81.346 425.908 79.918C425.992 78.448 426.16 76.747 426.412 74.815C426.664 72.883 427.084 71.182 427.672 69.712C428.302 68.2 429.079 66.982 430.003 66.058C431.725 64.336 433.993 63.475 436.807 63.475C439.579 63.475 441.826 64.336 443.548 66.058C445.27 67.78 446.383 70.279 446.887 73.555C447.433 76.831 447.706 80.653 447.706 85.021ZM431.767 86.029C431.767 94.009 432.544 98.776 434.098 100.33C434.77 101.002 435.673 101.338 436.807 101.338C437.899 101.338 438.781 101.002 439.453 100.33C441.007 98.776 441.784 94.009 441.784 86.029V82.879C441.784 75.487 441.007 71.056 439.453 69.586C438.781 68.914 437.899 68.578 436.807 68.578C435.673 68.578 434.77 68.914 434.098 69.586C432.544 71.056 431.767 75.487 431.767 82.879V86.029ZM452.043 63.979H457.713V101.212H465.777V63.979H471.447V101.212H475.164V114.19H469.746V106H452.043V63.979ZM483.647 106H477.977V63.979H483.647V106ZM508.554 106H502.884V85.21H494.568V106H488.898V63.979H494.568V80.422H502.884V63.979H508.554V106ZM533.38 106H527.71V85.21H519.394V106H513.724V63.979H519.394V80.422H527.71V63.979H533.38V106ZM559.592 85.021C559.592 87.793 559.529 90.145 559.403 92.077C559.277 93.967 558.878 96.13 558.206 98.566C557.576 100.96 556.652 102.766 555.434 103.984C553.712 105.706 551.465 106.567 548.693 106.567C545.879 106.567 543.611 105.706 541.889 103.984C539.117 101.17 537.731 94.891 537.731 85.147C537.731 83.089 537.752 81.346 537.794 79.918C537.878 78.448 538.046 76.747 538.298 74.815C538.55 72.883 538.97 71.182 539.558 69.712C540.188 68.2 540.965 66.982 541.889 66.058C543.611 64.336 545.879 63.475 548.693 63.475C551.465 63.475 553.712 64.336 555.434 66.058C557.156 67.78 558.269 70.279 558.773 73.555C559.319 76.831 559.592 80.653 559.592 85.021ZM543.653 86.029C543.653 94.009 544.43 98.776 545.984 100.33C546.656 101.002 547.559 101.338 548.693 101.338C549.785 101.338 550.667 101.002 551.339 100.33C552.893 98.776 553.67 94.009 553.67 86.029V82.879C553.67 75.487 552.893 71.056 551.339 69.586C550.667 68.914 549.785 68.578 548.693 68.578C547.559 68.578 546.656 68.914 545.984 69.586C544.43 71.056 543.653 75.487 543.653 82.879V86.029ZM579.05 68.767H569.6V106H563.93V63.979H579.05V68.767ZM600.569 85.021C600.569 87.793 600.506 90.145 600.38 92.077C600.254 93.967 599.855 96.13 599.183 98.566C598.553 100.96 597.629 102.766 596.411 103.984C594.689 105.706 592.442 106.567 589.67 106.567C586.856 106.567 584.588 105.706 582.866 103.984C580.094 101.17 578.708 94.891 578.708 85.147C578.708 83.089 578.729 81.346 578.771 79.918C578.855 78.448 579.023 76.747 579.275 74.815C579.527 72.883 579.947 71.182 580.535 69.712C581.165 68.2 581.942 66.982 582.866 66.058C584.588 64.336 586.856 63.475 589.67 63.475C592.442 63.475 594.689 64.336 596.411 66.058C598.133 67.78 599.246 70.279 599.75 73.555C600.296 76.831 600.569 80.653 600.569 85.021ZM584.63 86.029C584.63 94.009 585.407 98.776 586.961 100.33C587.633 101.002 588.536 101.338 589.67 101.338C590.762 101.338 591.644 101.002 592.316 100.33C593.87 98.776 594.647 94.009 594.647 86.029V82.879C594.647 75.487 593.87 71.056 592.316 69.586C591.644 68.914 590.762 68.578 589.67 68.578C588.536 68.578 587.633 68.914 586.961 69.586C585.407 71.056 584.63 75.487 584.63 82.879V86.029ZM636.18 106H630.51C630.216 105.16 629.754 103.9 629.124 102.22C628.536 100.54 628.053 99.196 627.675 98.188C627.339 97.138 626.961 95.878 626.541 94.408C626.163 92.938 625.848 91.573 625.596 90.313C625.47 91.573 624.903 93.736 623.895 96.802C622.845 100.246 621.879 103.312 620.997 106H615.012L623.013 84.643L615.516 63.979H620.997C621.207 64.525 621.627 65.68 622.257 67.444C622.929 69.166 623.454 70.573 623.832 71.665C624.252 72.757 624.672 74.038 625.092 75.508C625.554 76.978 625.848 78.196 625.974 79.162C626.31 77.608 626.709 76.054 627.171 74.5C627.633 72.904 628.242 70.93 628.998 68.578C629.796 66.226 630.3 64.693 630.51 63.979H636.18L628.431 84.643L636.18 106ZM658.767 106H653.16L651.585 97.81H643.269L641.694 106H636.213L645.348 63.979H649.821L658.767 106ZM644.088 93.463H650.766C649.086 84.097 647.994 76.999 647.49 72.169C647.07 76.495 645.936 83.593 644.088 93.463ZM660.805 63.979H668.239C670.885 63.979 672.943 64.42 674.413 65.302C677.185 66.982 678.571 70.447 678.571 75.697C678.571 80.317 677.353 83.572 674.917 85.462C673.279 86.722 670.465 87.352 666.475 87.352V106H660.805V63.979ZM666.475 82.501H666.979C669.163 82.501 670.654 81.955 671.452 80.863C672.25 79.771 672.649 78.091 672.649 75.823C672.649 71.119 670.843 68.767 667.231 68.767H666.475V82.501ZM700.721 63.979V106H695.051V85.903C693.665 86.239 692.153 86.407 690.515 86.407C687.827 86.407 685.79 85.903 684.404 84.895C683.144 84.013 682.304 82.837 681.884 81.367C681.464 79.897 681.254 78.028 681.254 75.76V63.979H686.987V75.949C686.987 78.091 687.407 79.54 688.247 80.296C688.919 80.926 690.074 81.241 691.712 81.241C692.762 81.241 693.875 81.094 695.051 80.8V63.979H700.721ZM703.195 63.979H709.117L711.7 73.87C712.918 78.7 713.758 82.375 714.22 84.895C715.018 80.611 715.816 76.894 716.614 73.744L719.134 63.979H724.804L713.275 106H707.731L711.574 92.581L703.195 63.979ZM727.285 63.979H734.971C740.977 63.979 743.98 67.717 743.98 75.193C743.98 78.175 743.455 80.464 742.405 82.06C741.691 83.194 740.452 84.055 738.688 84.643C740.41 85.273 741.649 86.008 742.405 86.848C743.875 88.402 744.61 90.943 744.61 94.471C744.61 102.157 741.313 106 734.719 106H727.285V63.979ZM732.64 82.501H733.018C735.244 82.501 736.714 81.892 737.428 80.674C738.142 79.414 738.499 77.587 738.499 75.193C738.499 70.783 736.861 68.578 733.585 68.578H732.64V82.501ZM732.64 86.974V101.149C734.278 101.149 735.454 100.981 736.168 100.645C737.89 99.847 738.751 97.726 738.751 94.282C738.751 91.762 738.331 89.914 737.491 88.738C736.693 87.562 735.076 86.974 732.64 86.974ZM768.377 106H762.77L761.195 97.81H752.879L751.304 106H745.823L754.958 63.979H759.431L768.377 106ZM753.698 93.463H760.376C758.696 84.097 757.604 76.999 757.1 72.169C756.68 76.495 755.546 83.593 753.698 93.463ZM790.071 106H784.401V85.21H776.085V106H770.415V63.979H776.085V80.422H784.401V63.979H790.071V106ZM814.897 106H809.227V85.21H800.911V106H795.241V63.979H800.911V80.422H809.227V63.979H814.897V106ZM818.114 106L824.981 86.533C823.343 86.281 821.957 85.588 820.823 84.454C819.059 82.732 818.177 79.897 818.177 75.949C818.177 71.287 819.269 67.969 821.453 65.995C822.125 65.365 822.923 64.903 823.847 64.609C824.771 64.273 825.527 64.084 826.115 64.042C826.703 64 827.522 63.979 828.572 63.979H836.069V106H830.399V86.848L823.91 106H818.114ZM830.399 68.641H828.887C827.417 68.641 826.283 68.977 825.485 69.649C824.267 70.741 823.658 72.799 823.658 75.823C823.658 78.847 824.309 80.821 825.611 81.745C826.451 82.417 827.753 82.753 829.517 82.753H830.399V68.641Z" fill="white"/>
</svg>
