<svg width="327" height="67" viewBox="0 0 327 67" fill="none" xmlns="http://www.w3.org/2000/svg">
<path d="M13.3056 0.323998H21.3136V16.872H22.7976V22.64H20.5016V19H13.0816V22.64H10.7856V16.872C11.4763 16.5173 12.0176 16.032 12.4096 15.416C13.0069 14.4827 13.3056 12.7653 13.3056 10.264V0.323998ZM15.6576 2.452V9.424C15.6576 11.8693 15.5083 13.5867 15.2096 14.576C14.9296 15.4907 14.4349 16.256 13.7256 16.872H18.7936V2.452H15.6576ZM26.4757 19H23.9557V0.323998H26.4757V19ZM36.6497 15.78V18.384C35.9591 18.9813 35.0631 19.28 33.9617 19.28C32.7111 19.28 31.6564 18.888 30.7977 18.104C29.2297 16.648 28.4457 13.6333 28.4457 9.06C28.4457 5.252 29.1551 2.66667 30.5737 1.304C31.4137 0.482665 32.5244 0.0719984 33.9057 0.0719984C34.9884 0.0719984 35.9031 0.361332 36.6497 0.939999V3.544C35.9591 2.77867 35.1937 2.396 34.3537 2.396C33.6257 2.396 33.0191 2.648 32.5337 3.152C31.6191 4.08533 31.1617 5.76533 31.1617 8.192H35.4737V10.32H31.1337C31.1337 11.3467 31.2457 12.448 31.4697 13.624C31.7124 14.7813 32.0951 15.612 32.6177 16.116C33.1031 16.5827 33.7097 16.816 34.4377 16.816C35.4084 16.816 36.1457 16.4707 36.6497 15.78ZM45.8792 2.536H43.0232V19H40.5592V2.536H37.7032V0.323998H45.8792V2.536ZM46.6936 19V0.323998H49.1576V7.968C49.1576 10.1333 48.9803 12.3267 48.6256 14.548C48.831 13.876 49.0923 12.9707 49.4096 11.832C49.727 10.6747 50.0163 9.704 50.2776 8.92L53.0776 0.323998H55.3176V19H52.8536V10.684C52.8536 9.48933 53.0216 7.464 53.3576 4.608C52.443 7.89333 51.967 9.58267 51.9296 9.676L48.9336 19H46.6936ZM66.102 0.323998V19H63.582V10.068C62.966 10.2173 62.294 10.292 61.566 10.292C60.3713 10.292 59.466 10.068 58.85 9.62C58.29 9.228 57.9167 8.70533 57.73 8.052C57.5433 7.39867 57.45 6.568 57.45 5.56V0.323998H59.998V5.644C59.998 6.596 60.1847 7.24 60.558 7.576C60.8567 7.856 61.37 7.996 62.098 7.996C62.5647 7.996 63.0593 7.93067 63.582 7.8V0.323998H66.102ZM77.1417 19H74.6217V9.76H70.9257V19H68.4057V0.323998H70.9257V7.632H74.6217V0.323998H77.1417V19ZM88.0634 19H85.5714L84.8714 15.36H81.1754L80.4754 19H78.0394L82.0994 0.323998H84.0874L88.0634 19ZM81.5394 13.428H84.5074C83.7607 9.26533 83.2754 6.11067 83.0514 3.964C82.8647 5.88667 82.3607 9.04133 81.5394 13.428ZM96.1484 0.323998H104.156V16.872H105.64V22.64H103.344V19H95.9244V22.64H93.6284V16.872C94.3191 16.5173 94.8604 16.032 95.2524 15.416C95.8497 14.4827 96.1484 12.7653 96.1484 10.264V0.323998ZM98.5004 2.452V9.424C98.5004 11.8693 98.3511 13.5867 98.0524 14.576C97.7724 15.4907 97.2777 16.256 96.5684 16.872H101.636V2.452H98.5004ZM116.15 9.676C116.15 10.908 116.122 11.9533 116.066 12.812C116.01 13.652 115.833 14.6133 115.534 15.696C115.254 16.76 114.844 17.5627 114.302 18.104C113.537 18.8693 112.538 19.252 111.306 19.252C110.056 19.252 109.048 18.8693 108.282 18.104C107.05 16.8533 106.434 14.0627 106.434 9.732C106.434 8.81733 106.444 8.04267 106.462 7.408C106.5 6.75467 106.574 5.99867 106.686 5.14C106.798 4.28133 106.985 3.52533 107.246 2.872C107.526 2.2 107.872 1.65867 108.282 1.248C109.048 0.482666 110.056 0.0999997 111.306 0.0999997C112.538 0.0999997 113.537 0.482666 114.302 1.248C115.068 2.01333 115.562 3.124 115.786 4.58C116.029 6.036 116.15 7.73467 116.15 9.676ZM109.066 10.124C109.066 13.6707 109.412 15.7893 110.102 16.48C110.401 16.7787 110.802 16.928 111.306 16.928C111.792 16.928 112.184 16.7787 112.482 16.48C113.173 15.7893 113.518 13.6707 113.518 10.124V8.724C113.518 5.43867 113.173 3.46933 112.482 2.816C112.184 2.51733 111.792 2.368 111.306 2.368C110.802 2.368 110.401 2.51733 110.102 2.816C109.412 3.46933 109.066 5.43867 109.066 8.724V10.124ZM118.078 0.323998H124.938V2.452H120.598V8.332H121.018C122.661 8.332 123.884 8.74267 124.686 9.564C125.526 10.4227 125.946 11.832 125.946 13.792C125.946 15.7147 125.536 17.0867 124.714 17.908C123.986 18.636 122.932 19 121.55 19H118.078V0.323998ZM120.598 10.46V16.872H120.766C121.662 16.872 122.297 16.6947 122.67 16.34C123.118 15.9107 123.342 15.052 123.342 13.764C123.342 12.4013 123.09 11.4867 122.586 11.02C122.157 10.6467 121.541 10.46 120.738 10.46H120.598ZM136.342 19H133.85L133.15 15.36H129.454L128.754 19H126.318L130.378 0.323998H132.366L136.342 19ZM129.818 13.428H132.786C132.039 9.26533 131.554 6.11067 131.33 3.964C131.143 5.88667 130.639 9.04133 129.818 13.428ZM137.247 0.323998H140.663C143.333 0.323998 144.667 1.98533 144.667 5.308C144.667 6.63333 144.434 7.65067 143.967 8.36C143.65 8.864 143.099 9.24667 142.315 9.508C143.081 9.788 143.631 10.1147 143.967 10.488C144.621 11.1787 144.947 12.308 144.947 13.876C144.947 17.292 143.482 19 140.551 19H137.247V0.323998ZM139.627 8.556H139.795C140.785 8.556 141.438 8.28533 141.755 7.744C142.073 7.184 142.231 6.372 142.231 5.308C142.231 3.348 141.503 2.368 140.047 2.368H139.627V8.556ZM139.627 10.544V16.844C140.355 16.844 140.878 16.7693 141.195 16.62C141.961 16.2653 142.343 15.3227 142.343 13.792C142.343 12.672 142.157 11.8507 141.783 11.328C141.429 10.8053 140.71 10.544 139.627 10.544ZM155.735 19H152.907L149.407 9.844V19H146.887V0.323998H149.407V8.892L152.907 0.323998H155.455L151.675 9.368L155.735 19ZM165.97 19H163.478L162.778 15.36H159.082L158.382 19H155.946L160.006 0.323998H161.994L165.97 19ZM159.446 13.428H162.414C161.667 9.26533 161.182 6.11067 160.958 3.964C160.771 5.88667 160.267 9.04133 159.446 13.428ZM169.837 17.684C169.837 18.1133 169.688 18.4773 169.389 18.776C169.109 19.056 168.755 19.196 168.325 19.196C167.915 19.196 167.56 19.0467 167.261 18.748C166.981 18.4493 166.841 18.0947 166.841 17.684C166.841 17.2733 166.981 16.928 167.261 16.648C167.56 16.3493 167.915 16.2 168.325 16.2C168.736 16.2 169.091 16.3493 169.389 16.648C169.688 16.928 169.837 17.2733 169.837 17.684ZM186.523 19H184.003V9.76H180.307V19H177.787V0.323998H180.307V7.632H184.003V0.323998H186.523V19ZM195.513 19H188.821V0.323998H195.513V2.452H191.341V8.388H195.037V10.516H191.341V16.872H195.513V19ZM211.072 15.78V18.384C210.382 18.9813 209.486 19.28 208.384 19.28C207.134 19.28 206.079 18.888 205.22 18.104C203.652 16.648 202.868 13.6333 202.868 9.06C202.868 5.252 203.578 2.66667 204.996 1.304C205.836 0.482665 206.947 0.0719984 208.328 0.0719984C209.411 0.0719984 210.326 0.361332 211.072 0.939999V3.544C210.382 2.77867 209.616 2.396 208.776 2.396C208.048 2.396 207.442 2.648 206.956 3.152C206.042 4.08533 205.584 5.76533 205.584 8.192H209.896V10.32H205.556C205.556 11.3467 205.668 12.448 205.892 13.624C206.135 14.7813 206.518 15.612 207.04 16.116C207.526 16.5827 208.132 16.816 208.86 16.816C209.831 16.816 210.568 16.4707 211.072 15.78ZM220.355 0.323998H228.419V19H225.899V2.452H222.735V11.972C222.735 13.6893 222.679 14.8653 222.567 15.5C222.343 16.788 221.961 17.712 221.419 18.272C220.822 18.888 220.047 19.196 219.095 19.196C218.535 19.196 218.059 19.112 217.667 18.944V16.396C217.929 16.676 218.274 16.816 218.703 16.816C219.077 16.816 219.385 16.6947 219.627 16.452C219.945 16.1347 220.141 15.6493 220.215 14.996C220.309 14.3427 220.355 13.4187 220.355 12.224V0.323998ZM233.248 19H230.728V0.323998H233.248V19ZM244.43 19H241.602L238.102 9.844V19H235.582V0.323998H238.102V8.892L241.602 0.323998H244.15L240.37 9.368L244.43 19ZM254.666 19H252.174L251.474 15.36H247.778L247.078 19H244.642L248.702 0.323998H250.69L254.666 19ZM248.142 13.428H251.11C250.363 9.26533 249.878 6.11067 249.654 3.964C249.467 5.88667 248.963 9.04133 248.142 13.428ZM255.571 0.323998H258.875C260.051 0.323998 260.966 0.519999 261.619 0.911999C262.851 1.65867 263.467 3.19867 263.467 5.532C263.467 7.58533 262.926 9.032 261.843 9.872C261.115 10.432 259.865 10.712 258.091 10.712V19H255.571V0.323998ZM258.091 8.556H258.315C259.286 8.556 259.949 8.31333 260.303 7.828C260.658 7.34267 260.835 6.596 260.835 5.588C260.835 3.49733 260.033 2.452 258.427 2.452H258.091V8.556ZM272.164 16.424V18.72C271.567 19.0747 270.885 19.252 270.12 19.252C266.349 19.252 264.464 16.1627 264.464 9.984C264.464 3.376 266.331 0.0719984 270.064 0.0719984C270.792 0.0719984 271.492 0.258665 272.164 0.631999V2.9C271.585 2.58267 271.044 2.424 270.54 2.424C269.999 2.424 269.523 2.54533 269.112 2.788C268.701 3.03067 268.375 3.38533 268.132 3.852C267.908 4.31867 267.721 4.776 267.572 5.224C267.423 5.672 267.32 6.232 267.264 6.904C267.208 7.55733 267.171 8.07067 267.152 8.444C267.133 8.81733 267.124 9.284 267.124 9.844C267.124 14.4733 268.309 16.788 270.68 16.788C271.184 16.788 271.679 16.6667 272.164 16.424ZM273.701 0.323998H276.221V8.304H276.585C278.303 8.304 279.563 8.71467 280.365 9.536C281.224 10.4133 281.653 11.8227 281.653 13.764C281.653 15.7053 281.243 17.0867 280.421 17.908C279.693 18.636 278.639 19 277.257 19H273.701V0.323998ZM276.221 10.432V16.872H276.333C277.285 16.872 277.948 16.6947 278.321 16.34C278.788 15.892 279.021 15.024 279.021 13.736C279.021 12.392 278.76 11.4773 278.237 10.992C277.827 10.6187 277.183 10.432 276.305 10.432H276.221ZM292.271 19H289.443L285.943 9.844V19H283.423V0.323998H285.943V8.892L289.443 0.323998H291.991L288.211 9.368L292.271 19ZM293.281 19V0.323998H295.745V7.968C295.745 10.1333 295.567 12.3267 295.213 14.548C295.418 13.876 295.679 12.9707 295.997 11.832C296.314 10.6747 296.603 9.704 296.865 8.92L299.665 0.323998H301.905V19H299.441V10.684C299.441 9.48933 299.609 7.464 299.945 4.608C299.03 7.89333 298.554 9.58267 298.517 9.676L295.521 19H293.281ZM316.273 19H313.837C313.557 14.744 313.398 12.1587 313.361 11.244C313.361 10.964 313.342 10.5533 313.305 10.012C313.268 9.452 313.249 9.032 313.249 8.752C313.23 8.43467 313.221 8.14533 313.221 7.884C313.24 7.62267 313.24 7.33333 313.221 7.016C313.221 6.69867 313.202 6.40933 313.165 6.148C312.997 7.24933 312.204 11.5333 310.785 19H309.105C308.993 18.44 308.769 17.4133 308.433 15.92C308.116 14.408 307.873 13.2693 307.705 12.504C307.556 11.72 307.369 10.7213 307.145 9.508C306.94 8.276 306.772 7.156 306.641 6.148L305.913 19H303.561L305.101 0.323998H307.257L308.881 7.94C308.9 8.08933 308.946 8.31333 309.021 8.612C309.114 8.91067 309.17 9.13467 309.189 9.284C309.432 10.628 309.665 12.14 309.889 13.82C309.889 13.7827 310.029 12.9053 310.309 11.188C310.346 10.964 310.393 10.628 310.449 10.18C310.524 9.71333 310.58 9.368 310.617 9.144C310.654 8.99467 310.701 8.78 310.757 8.5C310.832 8.20133 310.878 7.97733 310.897 7.828L312.353 0.323998H314.537L316.273 19ZM2.37597 32.276H2.65597C3.60797 32.276 4.32664 32.0613 4.81197 31.632C5.33464 31.184 5.59597 30.456 5.59597 29.448C5.59597 28.4027 5.36264 27.6187 4.89597 27.096C4.48531 26.648 3.93464 26.424 3.24397 26.424C2.32931 26.424 1.53597 26.844 0.863973 27.684V25.08C1.68531 24.4267 2.64664 24.1 3.74797 24.1C5.01731 24.1 6.01597 24.4453 6.74397 25.136C7.65864 26.0133 8.11597 27.3387 8.11597 29.112C8.11597 30.5493 7.77997 31.6227 7.10797 32.332C6.71597 32.7427 6.27731 33.004 5.79197 33.116C6.38931 33.2093 6.93997 33.48 7.44397 33.928C8.26531 34.712 8.67597 35.9067 8.67597 37.512C8.67597 39.472 8.13464 40.9747 7.05197 42.02C6.21197 42.8413 5.09197 43.252 3.69197 43.252C2.49731 43.252 1.51731 42.9253 0.751973 42.272V39.64C1.53597 40.4427 2.41331 40.844 3.38397 40.844C4.13064 40.844 4.73731 40.6293 5.20397 40.2C5.78264 39.6587 6.07197 38.7813 6.07197 37.568C6.07197 36.392 5.79197 35.552 5.23197 35.048C4.76531 34.6187 4.00931 34.404 2.96397 34.404H2.37597V32.276ZM19.1331 43H16.6411L15.9411 39.36H12.2451L11.5451 43H9.1091L13.1691 24.324H15.1571L19.1331 43ZM12.6091 37.428H15.5771C14.8304 33.2653 14.3451 30.1107 14.1211 27.964C13.9344 29.8867 13.4304 33.0413 12.6091 37.428ZM26.7734 40.424V42.72C26.176 43.0747 25.4947 43.252 24.7294 43.252C20.9587 43.252 19.0734 40.1627 19.0734 33.984C19.0734 27.376 20.94 24.072 24.6734 24.072C25.4014 24.072 26.1014 24.2587 26.7734 24.632V26.9C26.1947 26.5827 25.6534 26.424 25.1494 26.424C24.608 26.424 24.132 26.5453 23.7214 26.788C23.3107 27.0307 22.984 27.3853 22.7414 27.852C22.5174 28.3187 22.3307 28.776 22.1814 29.224C22.032 29.672 21.9294 30.232 21.8734 30.904C21.8174 31.5573 21.78 32.0707 21.7614 32.444C21.7427 32.8173 21.7334 33.284 21.7334 33.844C21.7334 38.4733 22.9187 40.788 25.2894 40.788C25.7934 40.788 26.288 40.6667 26.7734 40.424ZM37.1161 33.676C37.1161 34.908 37.0881 35.9533 37.0321 36.812C36.9761 37.652 36.7988 38.6133 36.5001 39.696C36.2201 40.76 35.8094 41.5627 35.2681 42.104C34.5028 42.8693 33.5041 43.252 32.2721 43.252C31.0214 43.252 30.0134 42.8693 29.2481 42.104C28.0161 40.8533 27.4001 38.0627 27.4001 33.732C27.4001 32.8173 27.4094 32.0427 27.4281 31.408C27.4654 30.7547 27.5401 29.9987 27.6521 29.14C27.7641 28.2813 27.9508 27.5253 28.2121 26.872C28.4921 26.2 28.8374 25.6587 29.2481 25.248C30.0134 24.4827 31.0214 24.1 32.2721 24.1C33.5041 24.1 34.5028 24.4827 35.2681 25.248C36.0334 26.0133 36.5281 27.124 36.7521 28.58C36.9948 30.036 37.1161 31.7347 37.1161 33.676ZM30.0321 34.124C30.0321 37.6707 30.3774 39.7893 31.0681 40.48C31.3668 40.7787 31.7681 40.928 32.2721 40.928C32.7574 40.928 33.1494 40.7787 33.4481 40.48C34.1388 39.7893 34.4841 37.6707 34.4841 34.124V32.724C34.4841 29.4387 34.1388 27.4693 33.4481 26.816C33.1494 26.5173 32.7574 26.368 32.2721 26.368C31.7681 26.368 31.3668 26.5173 31.0681 26.816C30.3774 27.4693 30.0321 29.4387 30.0321 32.724V34.124ZM39.0439 24.324H45.9039V26.452H41.5639V32.332H41.9839C43.6266 32.332 44.8493 32.7427 45.6519 33.564C46.4919 34.4227 46.9119 35.832 46.9119 37.792C46.9119 39.7147 46.5013 41.0867 45.6799 41.908C44.9519 42.636 43.8973 43 42.5159 43H39.0439V24.324ZM41.5639 34.46V40.872H41.7319C42.6279 40.872 43.2626 40.6947 43.6359 40.34C44.0839 39.9107 44.3079 39.052 44.3079 37.764C44.3079 36.4013 44.0559 35.4867 43.5519 35.02C43.1226 34.6467 42.5066 34.46 41.7039 34.46H41.5639ZM57.7344 33.676C57.7344 34.908 57.7064 35.9533 57.6504 36.812C57.5944 37.652 57.417 38.6133 57.1184 39.696C56.8384 40.76 56.4277 41.5627 55.8864 42.104C55.121 42.8693 54.1224 43.252 52.8904 43.252C51.6397 43.252 50.6317 42.8693 49.8664 42.104C48.6344 40.8533 48.0184 38.0627 48.0184 33.732C48.0184 32.8173 48.0277 32.0427 48.0464 31.408C48.0837 30.7547 48.1584 29.9987 48.2704 29.14C48.3824 28.2813 48.569 27.5253 48.8304 26.872C49.1104 26.2 49.4557 25.6587 49.8664 25.248C50.6317 24.4827 51.6397 24.1 52.8904 24.1C54.1224 24.1 55.121 24.4827 55.8864 25.248C56.6517 26.0133 57.1464 27.124 57.3704 28.58C57.613 30.036 57.7344 31.7347 57.7344 33.676ZM50.6504 34.124C50.6504 37.6707 50.9957 39.7893 51.6864 40.48C51.985 40.7787 52.3864 40.928 52.8904 40.928C53.3757 40.928 53.7677 40.7787 54.0664 40.48C54.757 39.7893 55.1024 37.6707 55.1024 34.124V32.724C55.1024 29.4387 54.757 27.4693 54.0664 26.816C53.7677 26.5173 53.3757 26.368 52.8904 26.368C52.3864 26.368 51.985 26.5173 51.6864 26.816C50.9957 27.4693 50.6504 29.4387 50.6504 32.724V34.124ZM71.7302 43H69.2942C69.0142 38.744 68.8556 36.1587 68.8182 35.244C68.8182 34.964 68.7996 34.5533 68.7622 34.012C68.7249 33.452 68.7062 33.032 68.7062 32.752C68.6876 32.4347 68.6782 32.1453 68.6782 31.884C68.6969 31.6227 68.6969 31.3333 68.6782 31.016C68.6782 30.6987 68.6596 30.4093 68.6222 30.148C68.4542 31.2493 67.6609 35.5333 66.2422 43H64.5622C64.4502 42.44 64.2262 41.4133 63.8902 39.92C63.5729 38.408 63.3302 37.2693 63.1622 36.504C63.0129 35.72 62.8262 34.7213 62.6022 33.508C62.3969 32.276 62.2289 31.156 62.0982 30.148L61.3702 43H59.0182L60.5582 24.324H62.7142L64.3382 31.94C64.3569 32.0893 64.4036 32.3133 64.4782 32.612C64.5716 32.9107 64.6276 33.1347 64.6462 33.284C64.8889 34.628 65.1222 36.14 65.3462 37.82C65.3462 37.7827 65.4862 36.9053 65.7662 35.188C65.8036 34.964 65.8502 34.628 65.9062 34.18C65.9809 33.7133 66.0369 33.368 66.0742 33.144C66.1116 32.9947 66.1582 32.78 66.2142 32.5C66.2889 32.2013 66.3356 31.9773 66.3542 31.828L67.8102 24.324H69.9942L71.7302 43ZM75.8996 41.684C75.8996 42.1133 75.7503 42.4773 75.4516 42.776C75.1716 43.056 74.8169 43.196 74.3876 43.196C73.9769 43.196 73.6223 43.0467 73.3236 42.748C73.0436 42.4493 72.9036 42.0947 72.9036 41.684C72.9036 41.2733 73.0436 40.928 73.3236 40.648C73.6223 40.3493 73.9769 40.2 74.3876 40.2C74.7983 40.2 75.1529 40.3493 75.4516 40.648C75.7503 40.928 75.8996 41.2733 75.8996 41.684ZM92.5854 43H90.0654V33.76H86.3694V43H83.8494V24.324H86.3694V31.632H90.0654V24.324H92.5854V43ZM101.575 43H94.8832V24.324H101.575V26.452H97.4032V32.388H101.099V34.516H97.4032V40.872H101.575V43ZM117.134 39.78V42.384C116.444 42.9813 115.548 43.28 114.446 43.28C113.196 43.28 112.141 42.888 111.282 42.104C109.714 40.648 108.93 37.6333 108.93 33.06C108.93 29.252 109.64 26.6667 111.058 25.304C111.898 24.4827 113.009 24.072 114.39 24.072C115.473 24.072 116.388 24.3613 117.134 24.94V27.544C116.444 26.7787 115.678 26.396 114.838 26.396C114.11 26.396 113.504 26.648 113.018 27.152C112.104 28.0853 111.646 29.7653 111.646 32.192H115.958V34.32H111.618C111.618 35.3467 111.73 36.448 111.954 37.624C112.197 38.7813 112.58 39.612 113.102 40.116C113.588 40.5827 114.194 40.816 114.922 40.816C115.893 40.816 116.63 40.4707 117.134 39.78ZM126.306 32.276H126.586C127.538 32.276 128.256 32.0613 128.742 31.632C129.264 31.184 129.526 30.456 129.526 29.448C129.526 28.4027 129.292 27.6187 128.826 27.096C128.415 26.648 127.864 26.424 127.174 26.424C126.259 26.424 125.466 26.844 124.794 27.684V25.08C125.615 24.4267 126.576 24.1 127.678 24.1C128.947 24.1 129.946 24.4453 130.674 25.136C131.588 26.0133 132.046 27.3387 132.046 29.112C132.046 30.5493 131.71 31.6227 131.038 32.332C130.646 32.7427 130.207 33.004 129.722 33.116C130.319 33.2093 130.87 33.48 131.374 33.928C132.195 34.712 132.606 35.9067 132.606 37.512C132.606 39.472 132.064 40.9747 130.982 42.02C130.142 42.8413 129.022 43.252 127.622 43.252C126.427 43.252 125.447 42.9253 124.682 42.272V39.64C125.466 40.4427 126.343 40.844 127.314 40.844C128.06 40.844 128.667 40.6293 129.134 40.2C129.712 39.6587 130.002 38.7813 130.002 37.568C130.002 36.392 129.722 35.552 129.162 35.048C128.695 34.6187 127.939 34.404 126.894 34.404H126.306V32.276ZM143.063 43H140.571L139.871 39.36H136.175L135.475 43H133.039L137.099 24.324H139.087L143.063 43ZM136.539 37.428H139.507C138.76 33.2653 138.275 30.1107 138.051 27.964C137.864 29.8867 137.36 33.0413 136.539 37.428ZM156.036 43H153.6C153.32 38.744 153.162 36.1587 153.124 35.244C153.124 34.964 153.106 34.5533 153.068 34.012C153.031 33.452 153.012 33.032 153.012 32.752C152.994 32.4347 152.984 32.1453 152.984 31.884C153.003 31.6227 153.003 31.3333 152.984 31.016C152.984 30.6987 152.966 30.4093 152.928 30.148C152.76 31.2493 151.967 35.5333 150.548 43H148.868C148.756 42.44 148.532 41.4133 148.196 39.92C147.879 38.408 147.636 37.2693 147.468 36.504C147.319 35.72 147.132 34.7213 146.908 33.508C146.703 32.276 146.535 31.156 146.404 30.148L145.676 43H143.324L144.864 24.324H147.02L148.644 31.94C148.663 32.0893 148.71 32.3133 148.784 32.612C148.878 32.9107 148.934 33.1347 148.952 33.284C149.195 34.628 149.428 36.14 149.652 37.82C149.652 37.7827 149.792 36.9053 150.072 35.188C150.11 34.964 150.156 34.628 150.212 34.18C150.287 33.7133 150.343 33.368 150.38 33.144C150.418 32.9947 150.464 32.78 150.52 32.5C150.595 32.2013 150.642 31.9773 150.66 31.828L152.116 24.324H154.3L156.036 43ZM160.038 43H157.518V24.324H160.038V43ZM171.108 43H168.588V33.76H164.892V43H162.372V24.324H164.892V31.632H168.588V24.324H171.108V43ZM182.758 33.676C182.758 34.908 182.73 35.9533 182.674 36.812C182.618 37.652 182.44 38.6133 182.142 39.696C181.862 40.76 181.451 41.5627 180.91 42.104C180.144 42.8693 179.146 43.252 177.914 43.252C176.663 43.252 175.655 42.8693 174.89 42.104C173.658 40.8533 173.042 38.0627 173.042 33.732C173.042 32.8173 173.051 32.0427 173.07 31.408C173.107 30.7547 173.182 29.9987 173.294 29.14C173.406 28.2813 173.592 27.5253 173.854 26.872C174.134 26.2 174.479 25.6587 174.89 25.248C175.655 24.4827 176.663 24.1 177.914 24.1C179.146 24.1 180.144 24.4827 180.91 25.248C181.675 26.0133 182.17 27.124 182.394 28.58C182.636 30.036 182.758 31.7347 182.758 33.676ZM175.674 34.124C175.674 37.6707 176.019 39.7893 176.71 40.48C177.008 40.7787 177.41 40.928 177.914 40.928C178.399 40.928 178.791 40.7787 179.09 40.48C179.78 39.7893 180.126 37.6707 180.126 34.124V32.724C180.126 29.4387 179.78 27.4693 179.09 26.816C178.791 26.5173 178.399 26.368 177.914 26.368C177.41 26.368 177.008 26.5173 176.71 26.816C176.019 27.4693 175.674 29.4387 175.674 32.724V34.124ZM198.91 33.676C198.91 34.908 198.882 35.9533 198.826 36.812C198.77 37.652 198.592 38.6133 198.294 39.696C198.014 40.76 197.603 41.5627 197.062 42.104C196.296 42.8693 195.298 43.252 194.066 43.252C192.815 43.252 191.807 42.8693 191.042 42.104C190.332 41.3947 189.856 40.3867 189.614 39.08C189.371 37.7547 189.25 36.0933 189.25 34.096V33.9H187.206V43H184.686V24.324H187.206V31.772H189.278C189.278 28.5987 189.866 26.424 191.042 25.248C191.807 24.4827 192.815 24.1 194.066 24.1C195.298 24.1 196.296 24.4827 197.062 25.248C197.827 26.0133 198.322 27.124 198.546 28.58C198.788 30.036 198.91 31.7347 198.91 33.676ZM191.826 34.124C191.826 37.6707 192.171 39.7893 192.862 40.48C193.16 40.7787 193.562 40.928 194.066 40.928C194.551 40.928 194.943 40.7787 195.242 40.48C195.932 39.7893 196.278 37.6707 196.278 34.124V32.724C196.278 29.4387 195.932 27.4693 195.242 26.816C194.943 26.5173 194.551 26.368 194.066 26.368C193.562 26.368 193.16 26.5173 192.862 26.816C192.171 27.4693 191.826 29.4387 191.826 32.724V34.124ZM215.264 43H212.744V26.452H209.328V43H206.808V24.324H215.264V43ZM226.92 33.676C226.92 34.908 226.892 35.9533 226.836 36.812C226.78 37.652 226.603 38.6133 226.304 39.696C226.024 40.76 225.613 41.5627 225.072 42.104C224.307 42.8693 223.308 43.252 222.076 43.252C220.825 43.252 219.817 42.8693 219.052 42.104C217.82 40.8533 217.204 38.0627 217.204 33.732C217.204 32.8173 217.213 32.0427 217.232 31.408C217.269 30.7547 217.344 29.9987 217.456 29.14C217.568 28.2813 217.755 27.5253 218.016 26.872C218.296 26.2 218.641 25.6587 219.052 25.248C219.817 24.4827 220.825 24.1 222.076 24.1C223.308 24.1 224.307 24.4827 225.072 25.248C225.837 26.0133 226.332 27.124 226.556 28.58C226.799 30.036 226.92 31.7347 226.92 33.676ZM219.836 34.124C219.836 37.6707 220.181 39.7893 220.872 40.48C221.171 40.7787 221.572 40.928 222.076 40.928C222.561 40.928 222.953 40.7787 223.252 40.48C223.943 39.7893 224.288 37.6707 224.288 34.124V32.724C224.288 29.4387 223.943 27.4693 223.252 26.816C222.953 26.5173 222.561 26.368 222.076 26.368C221.572 26.368 221.171 26.5173 220.872 26.816C220.181 27.4693 219.836 29.4387 219.836 32.724V34.124ZM228.848 24.324H232.264C234.933 24.324 236.268 25.9853 236.268 29.308C236.268 30.6333 236.035 31.6507 235.568 32.36C235.251 32.864 234.7 33.2467 233.916 33.508C234.681 33.788 235.232 34.1147 235.568 34.488C236.221 35.1787 236.548 36.308 236.548 37.876C236.548 41.292 235.083 43 232.152 43H228.848V24.324ZM231.228 32.556H231.396C232.385 32.556 233.039 32.2853 233.356 31.744C233.673 31.184 233.832 30.372 233.832 29.308C233.832 27.348 233.104 26.368 231.648 26.368H231.228V32.556ZM231.228 34.544V40.844C231.956 40.844 232.479 40.7693 232.796 40.62C233.561 40.2653 233.944 39.3227 233.944 37.792C233.944 36.672 233.757 35.8507 233.384 35.328C233.029 34.8053 232.311 34.544 231.228 34.544ZM247.223 43H244.703V33.76H241.007V43H238.487V24.324H241.007V31.632H244.703V24.324H247.223V43ZM258.873 33.676C258.873 34.908 258.845 35.9533 258.789 36.812C258.733 37.652 258.556 38.6133 258.257 39.696C257.977 40.76 257.566 41.5627 257.025 42.104C256.26 42.8693 255.261 43.252 254.029 43.252C252.778 43.252 251.77 42.8693 251.005 42.104C249.773 40.8533 249.157 38.0627 249.157 33.732C249.157 32.8173 249.166 32.0427 249.185 31.408C249.222 30.7547 249.297 29.9987 249.409 29.14C249.521 28.2813 249.708 27.5253 249.969 26.872C250.249 26.2 250.594 25.6587 251.005 25.248C251.77 24.4827 252.778 24.1 254.029 24.1C255.261 24.1 256.26 24.4827 257.025 25.248C257.79 26.0133 258.285 27.124 258.509 28.58C258.752 30.036 258.873 31.7347 258.873 33.676ZM251.789 34.124C251.789 37.6707 252.134 39.7893 252.825 40.48C253.124 40.7787 253.525 40.928 254.029 40.928C254.514 40.928 254.906 40.7787 255.205 40.48C255.896 39.7893 256.241 37.6707 256.241 34.124V32.724C256.241 29.4387 255.896 27.4693 255.205 26.816C254.906 26.5173 254.514 26.368 254.029 26.368C253.525 26.368 253.124 26.5173 252.825 26.816C252.134 27.4693 251.789 29.4387 251.789 32.724V34.124ZM260.801 24.324H263.321V40.872H266.905V24.324H269.425V40.872H271.077V46.64H268.669V43H260.801V24.324ZM274.847 43H272.327V24.324H274.847V43ZM285.917 43H283.397V33.76H279.701V43H277.181V24.324H279.701V31.632H283.397V24.324H285.917V43ZM296.95 43H294.43V33.76H290.734V43H288.214V24.324H290.734V31.632H294.43V24.324H296.95V43ZM308.6 33.676C308.6 34.908 308.572 35.9533 308.516 36.812C308.46 37.652 308.283 38.6133 307.984 39.696C307.704 40.76 307.294 41.5627 306.752 42.104C305.987 42.8693 304.988 43.252 303.756 43.252C302.506 43.252 301.498 42.8693 300.732 42.104C299.5 40.8533 298.884 38.0627 298.884 33.732C298.884 32.8173 298.894 32.0427 298.912 31.408C298.95 30.7547 299.024 29.9987 299.136 29.14C299.248 28.2813 299.435 27.5253 299.696 26.872C299.976 26.2 300.322 25.6587 300.732 25.248C301.498 24.4827 302.506 24.1 303.756 24.1C304.988 24.1 305.987 24.4827 306.752 25.248C307.518 26.0133 308.012 27.124 308.236 28.58C308.479 30.036 308.6 31.7347 308.6 33.676ZM301.516 34.124C301.516 37.6707 301.862 39.7893 302.552 40.48C302.851 40.7787 303.252 40.928 303.756 40.928C304.242 40.928 304.634 40.7787 304.932 40.48C305.623 39.7893 305.968 37.6707 305.968 34.124V32.724C305.968 29.4387 305.623 27.4693 304.932 26.816C304.634 26.5173 304.242 26.368 303.756 26.368C303.252 26.368 302.851 26.5173 302.552 26.816C301.862 27.4693 301.516 29.4387 301.516 32.724V34.124ZM317.248 26.452H313.048V43H310.528V24.324H317.248V26.452ZM326.812 33.676C326.812 34.908 326.784 35.9533 326.728 36.812C326.672 37.652 326.495 38.6133 326.196 39.696C325.916 40.76 325.505 41.5627 324.964 42.104C324.199 42.8693 323.2 43.252 321.968 43.252C320.717 43.252 319.709 42.8693 318.944 42.104C317.712 40.8533 317.096 38.0627 317.096 33.732C317.096 32.8173 317.105 32.0427 317.124 31.408C317.161 30.7547 317.236 29.9987 317.348 29.14C317.46 28.2813 317.647 27.5253 317.908 26.872C318.188 26.2 318.533 25.6587 318.944 25.248C319.709 24.4827 320.717 24.1 321.968 24.1C323.2 24.1 324.199 24.4827 324.964 25.248C325.729 26.0133 326.224 27.124 326.448 28.58C326.691 30.036 326.812 31.7347 326.812 33.676ZM319.728 34.124C319.728 37.6707 320.073 39.7893 320.764 40.48C321.063 40.7787 321.464 40.928 321.968 40.928C322.453 40.928 322.845 40.7787 323.144 40.48C323.835 39.7893 324.18 37.6707 324.18 34.124V32.724C324.18 29.4387 323.835 27.4693 323.144 26.816C322.845 26.5173 322.453 26.368 321.968 26.368C321.464 26.368 321.063 26.5173 320.764 26.816C320.073 27.4693 319.728 29.4387 319.728 32.724V34.124ZM123.036 67H120.516C120.385 66.6267 120.18 66.0667 119.9 65.32C119.639 64.5733 119.424 63.976 119.256 63.528C119.107 63.0613 118.939 62.5013 118.752 61.848C118.584 61.1947 118.444 60.588 118.332 60.028C118.276 60.588 118.024 61.5493 117.576 62.912C117.109 64.4427 116.68 65.8053 116.288 67H113.628L117.184 57.508L113.852 48.324H116.288C116.381 48.5667 116.568 49.08 116.848 49.864C117.147 50.6293 117.38 51.2547 117.548 51.74C117.735 52.2253 117.921 52.7947 118.108 53.448C118.313 54.1013 118.444 54.6427 118.5 55.072C118.649 54.3813 118.827 53.6907 119.032 53C119.237 52.2907 119.508 51.4133 119.844 50.368C120.199 49.3227 120.423 48.6413 120.516 48.324H123.036L119.592 57.508L123.036 67ZM133.075 67H130.583L129.883 63.36H126.187L125.487 67H123.051L127.111 48.324H129.099L133.075 67ZM126.551 61.428H129.519C128.772 57.2653 128.287 54.1107 128.063 51.964C127.876 53.8867 127.372 57.0413 126.551 61.428ZM133.98 48.324H137.284C138.46 48.324 139.375 48.52 140.028 48.912C141.26 49.6587 141.876 51.1987 141.876 53.532C141.876 55.5853 141.335 57.032 140.252 57.872C139.524 58.432 138.274 58.712 136.5 58.712V67H133.98V48.324ZM136.5 56.556H136.724C137.695 56.556 138.358 56.3133 138.712 55.828C139.067 55.3427 139.244 54.596 139.244 53.588C139.244 51.4973 138.442 50.452 136.836 50.452H136.5V56.556ZM151.721 48.324V67H149.201V58.068C148.585 58.2173 147.913 58.292 147.185 58.292C145.99 58.292 145.085 58.068 144.469 57.62C143.909 57.228 143.535 56.7053 143.349 56.052C143.162 55.3987 143.069 54.568 143.069 53.56V48.324H145.617V53.644C145.617 54.596 145.803 55.24 146.177 55.576C146.475 55.856 146.989 55.996 147.717 55.996C148.183 55.996 148.678 55.9307 149.201 55.8V48.324H151.721ZM152.82 48.324H155.452L156.6 52.72C157.142 54.8667 157.515 56.5 157.72 57.62C158.075 55.716 158.43 54.064 158.784 52.664L159.904 48.324H162.424L157.3 67H154.836L156.544 61.036L152.82 48.324ZM163.527 48.324H166.943C169.612 48.324 170.947 49.9853 170.947 53.308C170.947 54.6333 170.714 55.6507 170.247 56.36C169.93 56.864 169.379 57.2467 168.595 57.508C169.36 57.788 169.911 58.1147 170.247 58.488C170.9 59.1787 171.227 60.308 171.227 61.876C171.227 65.292 169.762 67 166.831 67H163.527V48.324ZM165.907 56.556H166.075C167.064 56.556 167.718 56.2853 168.035 55.744C168.352 55.184 168.511 54.372 168.511 53.308C168.511 51.348 167.783 50.368 166.327 50.368H165.907V56.556ZM165.907 58.544V64.844C166.635 64.844 167.158 64.7693 167.475 64.62C168.24 64.2653 168.623 63.3227 168.623 61.792C168.623 60.672 168.436 59.8507 168.063 59.328C167.708 58.8053 166.99 58.544 165.907 58.544ZM181.79 67H179.298L178.598 63.36H174.902L174.202 67H171.766L175.826 48.324H177.814L181.79 67ZM175.266 61.428H178.234C177.487 57.2653 177.002 54.1107 176.778 51.964C176.591 53.8867 176.087 57.0413 175.266 61.428ZM191.432 67H188.912V57.76H185.216V67H182.696V48.324H185.216V55.632H188.912V48.324H191.432V67ZM202.466 67H199.946V57.76H196.25V67H193.73V48.324H196.25V55.632H199.946V48.324H202.466V67ZM203.895 67L206.947 58.348C206.219 58.236 205.603 57.928 205.099 57.424C204.315 56.6587 203.923 55.3987 203.923 53.644C203.923 51.572 204.409 50.0973 205.379 49.22C205.678 48.94 206.033 48.7347 206.443 48.604C206.854 48.4547 207.19 48.3707 207.451 48.352C207.713 48.3333 208.077 48.324 208.543 48.324H211.875V67H209.355V58.488L206.471 67H203.895ZM209.355 50.396H208.683C208.03 50.396 207.526 50.5453 207.171 50.844C206.63 51.3293 206.359 52.244 206.359 53.588C206.359 54.932 206.649 55.8093 207.227 56.22C207.601 56.5187 208.179 56.668 208.963 56.668H209.355V50.396Z" fill="white"/>
</svg>
