<svg width="178" height="180" viewBox="0 0 178 180" fill="none" xmlns="http://www.w3.org/2000/svg">
<rect width="178" height="180" fill="white"/>
<path d="M78.2207 27.8313C79.1903 25.7694 81.7158 24.9777 83.689 26.1169L151.776 65.427C153.749 66.5663 154.326 69.1493 153.026 71.0199L101.01 145.824C98.6996 149.145 94.23 150.144 90.7261 148.121L42.599 120.335C39.0951 118.312 37.725 113.942 39.4469 110.28L78.2207 27.8313Z" fill="#E8F1FF"/>
<path fill-rule="evenodd" clip-rule="evenodd" d="M56.2804 82.8506C58.1359 78.7391 64.1242 79.2256 65.2917 83.5828C65.9778 86.1433 68.6097 87.6629 71.1703 86.9768L75.3461 85.8578C80.2129 84.5538 85.2154 87.442 86.5195 92.3088C87.8236 97.1756 92.8261 100.064 97.6929 98.7598C102.56 97.4557 107.562 100.344 108.866 105.211L110.546 111.478C110.922 112.884 112.367 113.718 113.772 113.341C116.149 112.704 118.023 115.385 116.61 117.399L100.239 140.727C97.9982 143.917 93.6928 144.868 90.3166 142.919L48.552 118.806C44.7247 116.597 43.1946 111.847 45.0122 107.819L56.2804 82.8506Z" fill="#8CBCFF"/>
<g style="mix-blend-mode:soft-light">
<path d="M141.096 69.8144L118.95 101.722" stroke="white" stroke-width="6.81142" stroke-linecap="round"/>
</g>
<g style="mix-blend-mode:soft-light">
<path d="M105.065 120.397L95.0667 134.489" stroke="white" stroke-width="6.81142" stroke-linecap="round"/>
</g>
<rect x="57.2295" y="42.9678" width="19.8619" height="33.4517" rx="9.93096" transform="rotate(-49.4293 57.2295 42.9678)" fill="#FFBA67"/>
<rect x="45.8984" y="59.415" width="19.8619" height="33.4517" rx="9.93096" transform="rotate(-49.4293 45.8984 59.415)" fill="#FFBA67"/>
<rect x="34.5684" y="75.8613" width="19.8619" height="33.4517" rx="9.93096" transform="rotate(-49.4293 34.5684 75.8613)" fill="#FFBA67"/>
<rect x="23.2393" y="92.3086" width="19.8619" height="33.4517" rx="9.93096" transform="rotate(-49.4293 23.2393 92.3086)" fill="#FFBA67"/>
<path fill-rule="evenodd" clip-rule="evenodd" d="M117.594 71.8805C120.316 68.3965 125.177 67.5922 128.844 69.8691C129.35 70.1245 129.838 70.434 130.301 70.7989L140.531 78.8684C140.697 78.9649 140.86 79.0758 141.019 79.2017C141.242 79.3771 141.487 79.5935 141.751 79.8487C142.132 80.1857 142.476 80.55 142.784 80.9365C149.71 88.7704 164.432 115.266 147.911 136.415C133.408 154.981 109.611 150.778 99.5261 146.356L131.355 100.932L127.471 90.4764L125.878 89.2195L118.879 98.1782C115.955 101.922 110.561 102.571 106.831 99.6295C103.102 96.6876 102.449 91.2681 105.373 87.5246L117.594 71.8805Z" fill="#FFBA67"/>
<path d="M131 101L101.5 143.5L99.5 146.5C112.5 151 120.5 150 120.5 150C120.5 150 138.5 119.4 140.5 113C142.5 106.6 141.333 101.333 140.5 99.5L127.5 90.5L131 101Z" fill="url(#paint0_linear_8_89)"/>
<defs>
<linearGradient id="paint0_linear_8_89" x1="123.5" y1="133" x2="100" y2="123" gradientUnits="userSpaceOnUse">
<stop stop-color="#FFBA67"/>
<stop offset="1" stop-color="#FF7436"/>
</linearGradient>
</defs>
</svg>
