<svg width="178" height="180" viewBox="0 0 178 180" fill="none" xmlns="http://www.w3.org/2000/svg">
<g clip-path="url(#clip0_8_57)">
<rect width="178" height="180" fill="white"/>
<path d="M100.121 91.7784C99.9297 89.508 101.721 87.5596 103.999 87.5596H174.35C176.628 87.5596 178.419 89.508 178.228 91.7784L171.4 172.869C171.06 176.901 167.689 180 163.643 180H114.707C110.661 180 107.289 176.901 106.95 172.869L100.121 91.7784Z" fill="#E8F1FF"/>
<path fill-rule="evenodd" clip-rule="evenodd" d="M107.788 144.429C107.382 140.367 112.295 138.039 115.182 140.925C116.879 142.622 119.629 142.622 121.326 140.925L124.092 138.159C127.317 134.934 132.545 134.934 135.769 138.159C138.993 141.383 144.221 141.383 147.446 138.159C150.67 134.934 155.898 134.934 159.122 138.159L163.275 142.311C164.206 143.242 165.716 143.242 166.647 142.311C168.221 140.737 170.903 141.989 170.707 144.207L168.432 169.9C168.119 173.414 165.176 176.108 161.647 176.108H118.001C114.001 176.108 110.653 173.078 110.255 169.098L107.788 144.429Z" fill="#8CBCFF"/>
<g style="mix-blend-mode:soft-light">
<path d="M168.366 95.8306L165.447 130.861" stroke="white" stroke-width="6.81142" stroke-linecap="round"/>
</g>
<g style="mix-blend-mode:soft-light">
<path d="M163.015 151.782L161.556 167.351" stroke="white" stroke-width="6.81142" stroke-linecap="round"/>
</g>
<path d="M92.6542 24.9044L85.5326 12.5694C84.5357 10.8427 86.1813 8.79193 88.083 9.39114L97.6979 12.4208C98.8143 12.7726 99.4556 13.9412 99.1526 15.0718L96.6593 24.3771C96.1552 26.2585 93.6281 26.5912 92.6542 24.9044Z" fill="#F2A346"/>
<path d="M105.225 46.6778L98.1029 34.3428C97.106 32.6161 98.7516 30.5654 100.653 31.1646L110.268 34.1942C111.385 34.546 112.026 35.7146 111.723 36.8452L109.23 46.1505C108.725 48.0319 106.198 48.3646 105.225 46.6778Z" fill="#F2A346"/>
<path d="M117.248 67.5045L110.126 55.1695C109.129 53.4428 110.775 51.392 112.677 51.9912L122.292 55.0209C123.408 55.3727 124.049 56.5413 123.746 57.6719L121.253 66.9772C120.749 68.8586 118.222 69.1913 117.248 67.5045Z" fill="#F2A346"/>
<path fill-rule="evenodd" clip-rule="evenodd" d="M86.0354 5.78915L93.0143 1.75988C94.7394 0.76392 96.7889 2.40555 96.1938 4.30646L93.3859 13.2741C92.8126 15.1052 93.9268 17.0352 95.7992 17.4542L105.801 19.6925C108.298 20.2512 109.784 22.8245 109.019 25.266L105.957 35.0473C105.383 36.8784 106.498 38.8084 108.37 39.2274L118.372 41.4658C120.869 42.0244 122.355 44.5978 121.59 47.0392L118.527 56.8206C117.954 58.6516 119.068 60.5816 120.941 61.0006L130.111 63.0528C132.055 63.4878 132.452 66.0836 130.727 67.0795L123.748 71.1088L122.328 71.9286L119.488 73.5683L43.8699 117.226C40.1466 119.376 35.3857 118.1 33.2361 114.377L3.30822 62.5405C1.1586 58.8172 2.43427 54.0563 6.15754 51.9066L81.7754 8.24864L84.6154 6.60898L86.0354 5.78915Z" fill="url(#paint0_linear_8_57)"/>
<g style="mix-blend-mode:soft-light">
<path d="M86.7676 17.9883L47.4811 40.6703" stroke="url(#paint1_linear_8_57)" stroke-width="5.46555" stroke-linecap="round"/>
</g>
<path d="M96.0494 66.4809L99.215 71.964L89.1123 77.7969L87.9579 75.7975L96.1674 71.0578L95.2579 69.4825L91.0775 71.8961C90.5423 72.2051 90.0943 72.4436 89.7335 72.6115C89.3785 72.7895 88.9279 72.9419 88.3818 73.0687C87.8516 73.1998 87.3845 73.2069 86.9805 73.0902C86.3694 72.9179 85.8773 72.5086 85.5042 71.8624C85.3293 71.5594 85.1861 71.218 85.0745 70.8382L87.1041 69.6664C87.0444 69.8893 87.0786 70.1119 87.2069 70.3341C87.3468 70.5764 87.5282 70.7275 87.7512 70.7872C88.1335 70.8896 88.8093 70.661 89.7787 70.1013L96.0494 66.4809Z" fill="#FF7436"/>
<path d="M93.4281 63.9354C93.0377 65.2648 91.8782 66.4863 89.9496 67.5998C88.0209 68.7133 86.3833 69.1067 85.0369 68.7801C83.993 68.5345 83.2117 67.9624 82.6928 67.0637C82.174 66.165 82.0692 65.2023 82.3784 64.1755C82.7688 62.8461 83.9283 61.6247 85.857 60.5112C87.7856 59.3977 89.4232 59.0042 90.7696 59.3309C91.8135 59.5764 92.5948 60.1485 93.1137 61.0472C93.6325 61.9459 93.7374 62.9087 93.4281 63.9354ZM91.3675 63.0248C91.4672 62.6845 91.4384 62.378 91.2809 62.1054C91.1235 61.8327 90.8725 61.6545 90.528 61.5707C89.7953 61.3744 88.6615 61.7193 87.1267 62.6055C85.5918 63.4916 84.7262 64.301 84.5299 65.0337C84.4302 65.374 84.459 65.6805 84.6164 65.9531C84.7739 66.2258 85.0249 66.404 85.3694 66.4878C86.1021 66.6841 87.2359 66.3392 88.7707 65.453C90.3056 64.5669 91.1712 63.7575 91.3675 63.0248Z" fill="#FF7436"/>
<path d="M88.9204 58.4018L88.0197 56.8417L79.7648 61.6076L78.6104 59.6083L86.8653 54.8423L85.9646 53.2822L87.8125 52.2153L90.7683 57.3349L88.9204 58.4018Z" fill="#FF7436"/>
<path d="M79.7094 56.1942L77.6191 57.4009C77.1855 57.1397 76.8143 56.7414 76.5053 56.2063C75.9339 55.2167 75.7763 54.2441 76.0324 53.2884C76.4165 51.8549 77.5173 50.6135 79.3349 49.5641C81.2232 48.4739 82.9369 48.1307 84.4761 48.5346C85.5432 48.8206 86.3479 49.4331 86.8901 50.3722C87.1349 50.7963 87.2809 51.2707 87.3281 51.7955L85.2682 52.9848C85.3744 52.4926 85.3081 52.0395 85.069 51.6255C84.8184 51.1913 84.4541 50.9102 83.9763 50.7821C83.1002 50.5474 81.9756 50.8265 80.6023 51.6193C79.3603 52.3364 78.6137 53.0838 78.3627 53.8616C78.2028 54.3309 78.2598 54.8028 78.5338 55.2774C78.7903 55.7217 79.1822 56.0273 79.7094 56.1942Z" fill="#FF7436"/>
<path d="M73.8348 51.3385L72.6804 49.3392L82.7832 43.5063L83.9375 45.5057L73.8348 51.3385Z" fill="#FF7436"/>
<path d="M76.6617 38.8831L78.7368 37.6851C79.5192 38.0142 80.1261 38.5524 80.5576 39.2997C81.0648 40.1782 81.2037 41.0135 80.9744 41.8056C80.7594 42.5759 80.243 43.1972 79.4251 43.6695C78.8495 44.0018 78.3028 44.1626 77.785 44.1519C77.2672 44.1411 76.821 43.9746 76.4465 43.6524C76.576 44.1565 76.5558 44.6462 76.3858 45.1213C76.1657 45.7196 75.7326 46.2053 75.0863 46.5784C74.0866 47.1555 73.1111 47.3081 72.1597 47.0361C71.3357 46.7983 70.6614 46.2249 70.1367 45.3161C69.6703 44.5083 69.4918 43.7093 69.601 42.9192L71.661 41.7299C71.5267 42.1036 71.4668 42.4546 71.4813 42.7829C71.4872 43.1429 71.5835 43.4845 71.77 43.8077C72.0091 44.2217 72.3038 44.4756 72.6542 44.5695C73.0263 44.6778 73.4144 44.6153 73.8183 44.3821C74.2222 44.1489 74.469 43.8651 74.5586 43.5306C74.6552 43.1382 74.5373 42.6543 74.205 42.0787L74.0476 41.8061L75.8349 40.7742L75.9573 40.9862C76.2547 41.5012 76.5663 41.8194 76.8923 41.9409C77.224 42.0725 77.5969 42.0188 78.0109 41.7797C78.3441 41.5873 78.5577 41.3159 78.6516 40.9655C78.7195 40.6167 78.6572 40.2757 78.4648 39.9424C78.2783 39.6193 78.0125 39.3688 77.6675 39.191C77.3442 39.0276 77.009 38.925 76.6617 38.8831Z" fill="#FF7436"/>
<path d="M68.5934 42.2593L66.2586 38.2152L76.3613 32.3823L78.6787 36.3962L76.8005 37.4805L75.6375 35.466L73.4564 36.7253L74.4795 38.4975L72.571 39.5993L71.5479 37.8272L69.2759 39.1389L70.4565 41.1837L68.5934 42.2593Z" fill="#FF7436"/>
<path d="M72.7354 26.103L74.1345 28.5265C74.5601 29.2636 74.7755 29.8932 74.7807 30.4153C74.7848 31.0053 74.6115 31.5564 74.2609 32.0685C73.9162 32.5907 73.4661 33.0121 72.9107 33.3327C71.8808 33.9274 70.9217 34.0502 70.0336 33.7013C69.1556 33.3466 68.4568 32.6258 67.9371 31.5391L63.7869 33.9352L62.6326 31.9359L72.7354 26.103ZM69.6183 30.5684L69.6883 30.6896C69.9623 31.1642 70.2594 31.4572 70.5795 31.5686C70.9155 31.6842 71.3158 31.608 71.7803 31.3398C72.6891 30.8151 72.919 30.164 72.4701 29.3865L72.269 29.0381L69.6183 30.5684Z" fill="#FF7436"/>
<path d="M82.301 81.7405L80.0492 77.8402L59.4119 89.7551L56.5261 84.7568L77.1633 72.8419L74.9115 68.9416L79.5312 66.2744L86.9207 79.0733L82.301 81.7405Z" fill="white"/>
<path d="M75.8647 64.9084C74.8888 68.2318 71.99 71.2855 67.1683 74.0693C62.3467 76.8531 58.2528 77.8366 54.8866 77.02C52.277 76.4062 50.3237 74.9759 49.0265 72.7291C47.7294 70.4824 47.4674 68.0755 48.2405 65.5086C49.2164 62.1852 52.1152 59.1315 56.9368 56.3478C61.7585 53.564 65.8524 52.5804 69.2185 53.397C71.8281 54.0108 73.7815 55.4412 75.0786 57.6879C76.3758 59.9346 76.6378 62.3415 75.8647 64.9084ZM70.7131 62.6318C70.9624 61.781 70.8903 61.0148 70.4968 60.3332C70.1033 59.6516 69.4758 59.2061 68.6144 58.9966C66.7827 58.5058 63.9483 59.3681 60.1111 61.5835C56.274 63.7988 54.11 65.8224 53.6192 67.654C53.3699 68.5048 53.442 69.271 53.8356 69.9526C54.2291 70.6342 54.8566 71.0797 55.718 71.2892C57.5497 71.78 60.3841 70.9177 64.2212 68.7024C68.0584 66.487 70.2223 64.4635 70.7131 62.6318Z" fill="white"/>
<path d="M44.8606 64.5503L41.5157 58.7567C41.8322 58.3721 42.2976 57.7499 42.9121 56.8903C43.5663 56.0413 44.075 55.3774 44.438 54.8985C44.8263 54.4051 45.3209 53.8334 45.9218 53.1836C46.548 52.5191 47.1475 51.9542 47.7203 51.4889C46.1064 52.0167 43.0035 52.647 38.4113 53.3797L35.1757 47.7755L51.2843 45.594L60.4326 33.1934L63.6682 38.7976C63.4741 39.0443 63.0445 39.6121 62.3796 40.5009C61.7399 41.3751 61.2187 42.0463 60.8158 42.5145C60.4528 42.9934 59.9708 43.5577 59.3699 44.2076C58.7942 44.8429 58.2559 45.3388 57.7549 45.6954C58.4336 45.4718 59.192 45.2696 60.03 45.0887C60.9078 44.9184 61.6124 44.7978 62.1435 44.7267C62.7 44.6411 63.5166 44.5398 64.5936 44.423C65.6705 44.3061 66.3969 44.2233 66.7727 44.1746L69.8771 49.5517L54.5418 51.2361L44.8606 64.5503Z" fill="white"/>
<path d="M17.4033 45.4146L55.1156 110.734L41.3425 118.686C39.0155 120.03 36.0399 119.232 34.6964 116.905L1.8494 60.0126C0.505885 57.6855 1.30318 54.71 3.63022 53.3665L17.4033 45.4146Z" fill="url(#paint2_linear_8_57)"/>
<path d="M3.20215 53.6128L40.9145 118.932C38.8232 120.14 36.149 119.423 34.9416 117.332L1.60173 59.5857C0.39431 57.4944 1.11084 54.8202 3.20215 53.6128Z" fill="url(#paint3_linear_8_57)"/>
<g style="mix-blend-mode:soft-light" opacity="0.5">
<path d="M31.3877 49.9614L17.1878 58.1598" stroke="url(#paint4_linear_8_57)" stroke-width="5.46555" stroke-linecap="round"/>
</g>
<circle cx="129.931" cy="32.0952" r="5.83836" fill="#FFD9C8"/>
<circle cx="132.85" cy="50.5836" r="4.8653" fill="#FFD9C8"/>
<circle cx="156.203" cy="51.5565" r="6.81142" fill="#FFD9C8"/>
<circle cx="160.582" cy="72.4773" r="5.35183" fill="#FFD9C8"/>
<circle cx="140.148" cy="72.4774" r="4.37877" fill="#FFD9C8"/>
</g>
<defs>
<linearGradient id="paint0_linear_8_57" x1="85.4516" y1="93.2191" x2="47.7392" y2="27.8994" gradientUnits="userSpaceOnUse">
<stop stop-color="#FFB258"/>
<stop offset="1" stop-color="#FFC178"/>
</linearGradient>
<linearGradient id="paint1_linear_8_57" x1="87.0176" y1="18.4213" x2="47.7311" y2="41.1033" gradientUnits="userSpaceOnUse">
<stop stop-color="white"/>
<stop offset="1" stop-color="#999999"/>
</linearGradient>
<linearGradient id="paint2_linear_8_57" x1="8.41003" y1="50.6068" x2="46.1224" y2="115.926" gradientUnits="userSpaceOnUse">
<stop stop-color="#FF793E"/>
<stop offset="1" stop-color="#FC5B13"/>
</linearGradient>
<linearGradient id="paint3_linear_8_57" x1="1.30882" y1="54.7059" x2="39.0211" y2="120.026" gradientUnits="userSpaceOnUse">
<stop stop-color="#BD101F"/>
<stop offset="1" stop-color="#57070E"/>
</linearGradient>
<linearGradient id="paint4_linear_8_57" x1="31.6377" y1="50.3944" x2="17.4378" y2="58.5928" gradientUnits="userSpaceOnUse">
<stop stop-color="white"/>
<stop offset="1" stop-color="#999999"/>
</linearGradient>
<clipPath id="clip0_8_57">
<rect width="178" height="180" fill="white"/>
</clipPath>
</defs>
</svg>
