<svg width="178" height="180" viewBox="0 0 178 180" fill="none" xmlns="http://www.w3.org/2000/svg">
<rect width="178" height="180" fill="white"/>
<path d="M49.9461 89.9986C49.7549 87.7282 51.5461 85.7798 53.8246 85.7798H124.175C126.453 85.7798 128.245 87.7282 128.053 89.9986L121.225 171.089C120.885 175.121 117.514 178.221 113.468 178.221H64.5318C60.4858 178.221 57.1143 175.121 56.7748 171.089L49.9461 89.9986Z" fill="#E8F1FF"/>
<rect x="100.646" y="1.77979" width="14.4911" height="141.273" rx="7.24555" transform="rotate(2.57393 100.646 1.77979)" fill="#D2E4FC"/>
<path fill-rule="evenodd" clip-rule="evenodd" d="M57.6131 142.649C57.207 138.587 62.1206 136.259 65.0074 139.146C66.7038 140.842 69.4543 140.842 71.1508 139.146L73.9174 136.379C77.1419 133.154 82.3697 133.154 85.5942 136.379C88.8186 139.603 94.0464 139.603 97.2709 136.379C100.495 133.154 105.723 133.154 108.948 136.379L113.1 140.531C114.031 141.463 115.541 141.463 116.472 140.531C118.046 138.957 120.729 140.209 120.532 142.428L118.257 168.12C117.945 171.634 115.001 174.328 111.472 174.328H67.8263C63.8267 174.328 60.478 171.298 60.0798 167.318L57.6131 142.649Z" fill="#8CBCFF"/>
<g style="mix-blend-mode:soft-light">
<path d="M118.192 94.0508L115.272 129.081" stroke="white" stroke-width="6.81142" stroke-linecap="round"/>
</g>
<g style="mix-blend-mode:soft-light">
<path d="M112.84 150.002L111.381 165.571" stroke="white" stroke-width="6.81142" stroke-linecap="round"/>
</g>
<path fill-rule="evenodd" clip-rule="evenodd" d="M114.796 9.6688C114.976 5.67123 111.881 2.28488 107.883 2.10517C103.886 1.92547 100.5 5.02047 100.32 9.01805L96.8691 85.7798H111.375L114.796 9.6688Z" fill="url(#paint0_linear_8_74)"/>
<g clip-path="url(#clip0_8_74)">
<path d="M149 47.2464C147.859 52.6028 144.173 55.8136 139.765 58.3663C133.889 61.7686 127.474 63.7382 120.972 65.4547C120.449 65.5933 119.927 65.743 119.399 65.8596C117.44 66.2975 115.778 65.3072 115.302 63.4279C114.859 61.6761 115.921 60.0499 117.816 59.4469C122.725 57.8778 127.7 56.4738 132.496 54.6032C135.11 53.5843 137.597 51.991 139.813 50.2327C143.217 47.5325 143.341 44.8103 140.499 41.5137C139.443 40.2879 138.151 39.247 136.865 38.2567C135.129 36.9187 134.634 35.0261 135.755 33.4109C136.828 31.8594 138.82 31.5777 140.549 32.7881C143.651 34.9601 146.319 37.5525 147.916 41.0846C148.389 42.1343 148.645 43.2874 149 44.3922V47.2464Z" fill="url(#paint1_linear_8_74)"/>
<path d="M83.237 61.9405C82.6157 61.1966 82.1639 60.6861 81.7446 60.1491C80.5651 58.6373 80.6911 56.7029 82.0314 55.5101C83.3956 54.2954 85.4072 54.412 86.6845 55.8689C88.8699 58.3556 91.027 60.8688 93.1516 63.4083C94.4311 64.9378 94.3486 66.7137 92.9213 68.1265C90.5709 70.4526 88.19 72.7501 85.7765 75.008C84.3167 76.3746 82.3746 76.3064 81.1212 74.953C79.8547 73.5864 79.972 71.586 81.3906 70.1467C81.8685 69.6626 82.3181 69.1498 82.8634 68.5601C81.0213 68.3334 79.2443 68.1419 77.4782 67.8889C68.4239 66.5949 59.4651 64.8806 50.9735 61.2781C47.6976 59.8873 44.5955 58.1839 41.9604 55.7126C37.5462 51.5776 36.7642 46.1177 39.9054 40.9286C42.1103 37.2843 45.2711 34.6369 48.8315 32.4582C50.3543 31.5251 52.2812 32.0819 53.2001 33.5674C54.1168 35.0462 53.678 36.9212 52.2595 38.0479C50.4195 39.5091 48.4579 40.8714 46.8612 42.5791C43.3855 46.296 43.7917 49.2559 47.9626 52.1783C51.5383 54.6827 55.5788 56.1593 59.6911 57.4313C67.2747 59.7794 75.0734 61.0074 83.2349 61.9427L83.237 61.9405Z" fill="url(#paint2_linear_8_74)"/>
</g>
<defs>
<linearGradient id="paint0_linear_8_74" x1="105.995" y1="1.77979" x2="105.995" y2="85.7798" gradientUnits="userSpaceOnUse">
<stop stop-color="#FFB55C"/>
<stop offset="1" stop-color="#FAA137"/>
</linearGradient>
<linearGradient id="paint1_linear_8_74" x1="141" y1="44" x2="117" y2="64" gradientUnits="userSpaceOnUse">
<stop stop-color="#B7101E"/>
<stop offset="0.964127" stop-color="#FF4F00"/>
</linearGradient>
<linearGradient id="paint2_linear_8_74" x1="49.5" y1="34.5" x2="66" y2="58.5" gradientUnits="userSpaceOnUse">
<stop stop-color="#B7101E"/>
<stop offset="1" stop-color="#FF4F00"/>
</linearGradient>
<clipPath id="clip0_8_74">
<rect width="111" height="44" fill="white" transform="translate(38 32)"/>
</clipPath>
</defs>
</svg>
