<svg width="189" height="27" viewBox="0 0 189 27" fill="none" xmlns="http://www.w3.org/2000/svg">
<path fill-rule="evenodd" clip-rule="evenodd" d="M0 25.6773V2.65062H9.34131C10.3423 2.65062 11.2629 2.86923 12.0979 3.30124C12.933 3.73325 13.6674 4.30579 14.2911 5.01887C14.9149 5.73195 15.3978 6.53351 15.7348 7.41835C16.0719 8.30319 16.2379 9.21405 16.2379 10.1405C16.2379 11.4157 15.9562 12.6389 15.3928 13.8048C14.8495 14.9499 14.0648 15.8816 13.0436 16.5947C12.0426 17.3077 10.8705 17.6669 9.53246 17.6669H3.51116V25.6773H0ZM3.51116 14.4554H9.31112C9.98016 14.4554 10.5637 14.2733 11.0667 13.9037C11.5697 13.5133 11.9571 12.998 12.2287 12.3474C12.5205 11.6968 12.6663 10.9629 12.6663 10.1405C12.6663 9.31815 12.5003 8.55303 12.1633 7.90241C11.8313 7.25179 11.3886 6.75732 10.8454 6.40859C10.3222 6.03904 9.74876 5.85686 9.11997 5.85686H3.51116V14.4502V14.4554ZM26.5199 26C25.2472 26 24.0852 25.771 23.0389 25.3182C22.0127 24.8445 21.1273 24.2043 20.3728 23.4027C19.6183 22.5803 19.0347 21.6539 18.6172 20.6129C18.2198 19.5511 18.0236 18.4268 18.0236 17.2401C18.0236 15.6422 18.3808 14.1796 19.0901 12.8627C19.7993 11.5198 20.7953 10.4528 22.068 9.65127C23.3407 8.82889 24.8347 8.4177 26.55 8.4177C28.2654 8.4177 29.7342 8.82889 30.9717 9.65127C32.2242 10.4528 33.1951 11.5094 33.8842 12.8315C34.5734 14.1483 34.9205 15.5641 34.9205 17.0787C34.9205 17.339 34.9104 17.5888 34.8903 17.823C34.8702 18.0416 34.8501 18.2238 34.8299 18.3748H21.6958C21.7561 19.3689 22.0177 20.2433 22.4805 21.0033C22.9634 21.7371 23.5671 22.3201 24.2965 22.7521C25.0258 23.1633 25.8106 23.3663 26.6456 23.3663C27.5662 23.3663 28.4314 23.1269 29.2463 22.6532C30.0813 22.1796 30.6447 21.5498 30.9365 20.7742L33.8842 21.6487C33.5271 22.471 32.9838 23.2154 32.2544 23.8868C31.5451 24.5374 30.7 25.0527 29.7141 25.4431C28.7332 25.8126 27.6668 25.9948 26.5148 25.9948L26.5199 26ZM21.6002 16.0117H31.5049C31.4445 15.0384 31.1729 14.1848 30.69 13.4509C30.2322 12.6962 29.6336 12.108 28.9042 11.702C28.195 11.27 27.4002 11.0514 26.5199 11.0514C25.6395 11.0514 24.8699 11.27 24.1355 11.702C23.4262 12.1132 22.8377 12.6962 22.3799 13.4509C21.9221 14.1848 21.6606 15.0384 21.5952 16.0117H21.6002ZM43.2205 25.9375C41.5505 25.9375 40.1369 25.6252 38.99 24.9954C37.8632 24.3448 36.993 23.46 36.3893 22.3357L39.1812 21.0397C39.5383 21.6643 40.0363 22.164 40.6852 22.5335C41.3341 22.877 42.1189 23.054 43.0344 23.054C44.1411 23.054 44.9962 22.8146 45.6049 22.3409C46.2085 21.8673 46.5154 21.2375 46.5154 20.4619C46.5154 19.7489 46.2639 19.1763 45.7608 18.7443C45.2578 18.2915 44.5485 18.052 43.628 18.0312H41.9378V15.7619H43.6934C44.1109 15.7619 44.4781 15.663 44.79 15.4704C45.1019 15.2778 45.3433 15.0176 45.5093 14.6897C45.6954 14.3461 45.791 13.9558 45.791 13.5237C45.791 12.8731 45.5496 12.3578 45.0717 11.9675C44.6139 11.5563 43.9097 11.3533 42.974 11.3533C42.1591 11.3533 41.4901 11.5146 40.9669 11.8373C40.4438 12.1392 40.0162 12.5921 39.6842 13.201L37.0835 11.7749C37.6268 10.7391 38.4216 9.92713 39.4679 9.34418C40.5142 8.76122 41.7366 8.46975 43.135 8.46975C44.2417 8.46975 45.2226 8.65192 46.0828 9.02147C46.958 9.365 47.6371 9.88549 48.1201 10.5777C48.6231 11.2492 48.8746 12.082 48.8746 13.0761C48.8746 13.8569 48.6985 14.5908 48.3414 15.283C47.9842 15.9545 47.4309 16.4489 46.6814 16.7768C47.6824 17.0787 48.437 17.6096 48.94 18.3643C49.4632 19.0982 49.7247 19.9727 49.7247 20.9928C49.7247 22.013 49.443 22.9291 48.8796 23.6838C48.3364 24.4177 47.5717 24.9798 46.5908 25.3702C45.6099 25.7606 44.4932 25.9532 43.2356 25.9532L43.2205 25.9375ZM52.8888 25.6773V8.71438H56.3346V25.6773H52.8888ZM52.8888 5.92453V2H56.3346V5.92453H52.8888ZM67.9093 26C66.6367 26 65.4747 25.771 64.4284 25.3182C63.4022 24.8445 62.5168 24.1939 61.7623 23.3715C61.0077 22.5491 60.4242 21.607 60.0067 20.5504C59.6093 19.4886 59.4131 18.3643 59.4131 17.1776C59.4131 15.5797 59.7602 14.1171 60.4494 12.8003C61.1586 11.4834 62.1396 10.4216 63.3971 9.62004C64.6698 8.81848 66.1739 8.4177 67.9093 8.4177C69.6448 8.4177 71.0332 8.80807 72.2656 9.5836C73.5182 10.3383 74.4387 11.3585 75.0222 12.6337L71.667 13.7371C71.2897 13.0241 70.7565 12.4723 70.0673 12.082C69.3983 11.6708 68.6589 11.4678 67.8439 11.4678C66.9234 11.4678 66.0884 11.7176 65.3388 12.2121C64.6095 12.6858 64.0209 13.3572 63.5833 14.2212C63.1657 15.0644 62.9545 16.0481 62.9545 17.1724C62.9545 18.2967 63.1758 19.2388 63.6134 20.1236C64.0511 20.9876 64.6396 21.6799 65.369 22.2004C66.1236 22.7001 66.9586 22.9447 67.8741 22.9447C68.4375 22.9447 68.9808 22.8458 69.5039 22.6532C70.0472 22.4346 70.515 22.1535 70.9124 21.81C71.3098 21.4405 71.5915 21.0449 71.7575 20.6077L75.1429 21.6435C74.7858 22.4867 74.2526 23.231 73.5433 23.8816C72.8541 24.5322 72.0292 25.0475 71.0684 25.4379C70.1277 25.8074 69.0714 25.9896 67.9043 25.9896L67.9093 26ZM81.8735 25.6773V11.8634H76.4508V8.71958H90.7772V11.8634H85.3243V25.6773H81.8785H81.8735ZM100.717 26C99.4243 26 98.2623 25.771 97.2361 25.3182C96.2099 24.8445 95.3246 24.1939 94.57 23.3715C93.8406 22.5491 93.2772 21.6226 92.8799 20.5817C92.4825 19.5198 92.2863 18.3956 92.2863 17.2088C92.2863 16.0221 92.4825 14.8979 92.8799 13.836C93.2772 12.7742 93.8406 11.8478 94.57 11.0462C95.3246 10.2238 96.2099 9.58881 97.2361 9.13077C98.2824 8.65712 99.4394 8.4177 100.717 8.4177C101.995 8.4177 103.142 8.65712 104.163 9.13077C105.209 9.5836 106.094 10.2238 106.829 11.0462C107.583 11.8478 108.157 12.7742 108.554 13.836C108.952 14.8979 109.148 16.0221 109.148 17.2088C109.148 18.3956 108.952 19.5198 108.554 20.5817C108.157 21.6174 107.583 22.5491 106.829 23.3715C106.1 24.1939 105.209 24.8393 104.163 25.3182C103.137 25.771 101.99 26 100.717 26ZM95.8276 17.2453C95.8276 18.3279 96.049 19.3012 96.4866 20.1653C96.9242 21.0293 97.5128 21.7111 98.2422 22.2108C98.9716 22.7105 99.8016 22.9551 100.717 22.9551C101.633 22.9551 102.432 22.7053 103.162 22.2108C103.916 21.6903 104.51 20.998 104.948 20.134C105.385 19.2492 105.607 18.2759 105.607 17.2141C105.607 16.1522 105.385 15.1581 104.948 14.2941C104.51 13.4301 103.911 12.7482 103.162 12.2485C102.432 11.728 101.618 11.4678 100.717 11.4678C99.8167 11.4678 98.9716 11.728 98.2422 12.2485C97.5128 12.769 96.9242 13.4613 96.4866 14.3253C96.049 15.1685 95.8276 16.1418 95.8276 17.2453ZM110.888 25.8386V22.6584C111.412 22.6584 111.879 22.5283 112.297 22.2681C112.714 21.987 113.082 21.5342 113.394 20.9044C113.705 20.2537 113.957 19.3585 114.148 18.2134C114.334 17.0683 114.46 15.6057 114.525 13.836L114.747 8.71438H126.437V25.6773H122.991V11.8634H117.79L117.73 14.164C117.644 16.4333 117.448 18.3279 117.136 19.8373C116.824 21.3312 116.382 22.5179 115.818 23.4027C115.275 24.2668 114.586 24.8966 113.751 25.2817C112.936 25.6513 111.985 25.8334 110.898 25.8334L110.888 25.8386Z" fill="currentColor" fill-opacity="0.85"/>
<path d="M188.318 13.0079H183.556V25.8223H179.762V13.0079H175V9.52368H188.318V13.0079Z" fill="#BD101F"/>
<path d="M157.478 11.5368C159.155 9.91079 161.233 9.09779 163.711 9.09779C166.188 9.09779 168.253 9.91079 169.905 11.5368C171.583 13.137 172.421 15.1888 172.421 17.6923C172.421 20.17 171.583 22.2348 169.905 23.8866C168.253 25.5126 166.188 26.3255 163.711 26.3255C161.233 26.3255 159.155 25.5126 157.478 23.8866C155.826 22.2348 155 20.17 155 17.6923C155 15.1888 155.826 13.137 157.478 11.5368ZM160.188 21.525C161.065 22.4541 162.24 22.9187 163.711 22.9187C165.182 22.9187 166.356 22.4541 167.234 21.525C168.111 20.5701 168.55 19.3054 168.55 17.731C168.55 16.0018 168.072 14.6984 167.117 13.8209C166.188 12.9434 165.053 12.5046 163.711 12.5046C162.369 12.5046 161.22 12.9434 160.265 13.8209C159.336 14.6984 158.871 16.0018 158.871 17.731C158.871 19.3054 159.31 20.5701 160.188 21.525Z" fill="#BD101F"/>
<path d="M133 25.8223L141.13 12.3498L134.007 0H138.42L143.453 8.74938L148.602 0H153.015L145.582 12.3498L153.364 25.8223H148.95L143.298 15.9502L137.413 25.8223H133Z" fill="#BD101F"/>
</svg>
