<svg width="384" height="460" viewBox="0 0 384 460" fill="none" xmlns="http://www.w3.org/2000/svg">
<g opacity="0.2">
<g clip-path="url(#clip0_15_777)">
<path d="M0 349.569C6.79196 334.813 18.4646 329.331 34.3182 330.697C42.3729 331.397 50.5472 330.817 59.6429 330.817C32.2533 272.272 27.8504 213.13 48.5847 152.861C64.899 105.434 94.8826 68.2721 135.668 39.2561C210.499 -13.977 347.636 -23.0627 436.528 76.982C480.369 29.8118 534.039 2.89635 598.818 0.215057C650.099 -1.90265 697.131 11.6063 739.043 41.3396C784.983 73.925 815.53 117.628 829.284 172.381C842.919 226.673 836.81 279.292 812.253 330.817C823.772 330.817 834.165 330.749 844.541 330.834C860.462 330.971 871.845 341.508 871.998 356.11C872.152 371.036 860.633 381.864 844.233 381.932C824.079 382.035 803.925 381.727 783.788 382.154C780.068 382.24 775.443 383.999 772.85 386.595C667.557 491.694 562.453 596.982 457.297 702.236C443.064 716.479 429.139 716.581 415.146 702.577C309.802 597.119 204.493 491.626 99.0124 386.304C96.5891 383.879 92.2716 382.223 88.7903 382.154C70.6329 381.744 52.4414 381.283 34.3182 382.154C18.4646 382.923 6.80902 377.953 0.0341304 363.197V349.569H0ZM433.866 387.483C436.238 383.555 437.859 380.959 439.378 378.312C464.754 334.01 490.096 289.692 515.489 245.391C528.169 223.275 550.148 222.643 563.732 244.025C580.781 270.838 597.846 297.634 614.604 324.634C617.522 329.331 620.628 330.988 626.123 330.953C665.851 330.697 705.578 330.697 745.306 330.953C750.852 330.988 753.975 329.246 756.877 324.6C779.556 288.377 788.515 249.251 783.737 206.692C769.419 79.2022 622.112 8.31017 514.516 78.3312C492.707 92.5233 474.754 112.727 455.283 130.437C442.877 141.726 428.695 142.016 416.733 130.318C407.398 121.198 398.388 111.719 388.985 102.668C347.345 62.5679 297.805 45.6775 240.398 52.7479C112.392 68.4941 43.9429 218.202 115.6 325.352C118.262 329.331 121.009 330.971 125.873 330.936C152.836 330.697 179.799 330.612 206.745 330.971C212.837 331.056 215.585 329.058 217.889 323.473C237.94 275.022 258.402 226.725 278.59 178.325C283.044 167.634 290.484 160.939 302.208 160.512C313.949 160.068 321.901 166.233 327.055 176.583C334.888 192.312 342.908 207.973 350.861 223.65C378.268 277.772 405.691 331.893 433.849 387.483H433.866ZM435.658 648.627C524.363 559.871 613.17 471.013 702.165 381.966C699.981 381.966 697.268 381.966 694.554 381.966C665.322 381.966 636.072 381.881 606.839 382.018C595.934 382.069 587.777 377.697 582.009 368.474C571.463 351.635 560.797 334.881 550.148 318.111C547.299 313.619 544.346 309.196 541.002 304.072C538.868 307.659 537.23 310.289 535.694 312.97C509.755 358.279 483.85 403.587 457.928 448.896C457.501 449.631 457.024 450.348 456.631 451.099C451.358 461.244 443.423 467.529 431.631 467.067C420.248 466.641 413.2 459.98 408.2 450.04C376.169 386.475 343.932 322.995 311.747 259.498C309.853 255.775 307.925 252.086 305.45 247.304C303.795 250.907 302.583 253.418 301.491 255.98C286.679 291.281 271.883 326.581 257.07 361.882C250.62 377.253 243.606 381.949 227.172 381.966C210.141 382 193.11 381.966 176.079 382C173.724 382 171.386 382.325 169.662 382.445C258.709 471.559 347.567 560.486 435.658 648.644V648.627Z" fill="white"/>
</g>
</g>
<defs>
<clipPath id="clip0_15_777">
<rect width="384" height="460" rx="16" fill="white"/>
</clipPath>
</defs>
</svg>
