<svg width="384" height="460" viewBox="0 0 384 460" fill="none" xmlns="http://www.w3.org/2000/svg">
<g opacity="0.2">
<g clip-path="url(#clip0_3_1361)">
<path fill-rule="evenodd" clip-rule="evenodd" d="M-64.4633 -99.9726C-50.5648 -100.204 -45.7004 -99.0459 -34.5816 -93.4855C-27.1691 -89.7786 -17.9035 -84.2183 -14.1973 -81.2065C-10.491 -77.9629 -4.00507 -69.1591 0.16449 -61.7453C5.02893 -52.9414 8.27191 -43.2109 9.19843 -34.1753C10.3566 -24.4447 9.66174 -16.5676 7.11371 -7.53206C5.02893 -0.581642 -0.0671997 10.3073 -4.23676 16.5627C-8.40625 22.8181 -15.3555 30.2319 -26.9375 37.6456V104.833L-6.78473 107.845C4.56567 109.698 23.0969 113.405 34.4473 116.417C45.7977 119.429 63.634 124.989 73.8262 128.928C84.0184 132.866 101.855 140.743 113.205 146.535C124.555 152.559 142.392 162.985 152.584 169.935C162.776 176.886 173.895 184.994 183.855 192.872L229.952 146.535L229.72 128.001C229.489 112.478 230.415 107.381 235.511 96.0291C238.986 88.847 246.63 78.1897 252.653 72.166C259.602 65.679 268.636 59.887 276.512 56.8751C286.241 53.3999 293.422 52.4732 306.625 53.1682C318.439 53.6316 327.473 55.485 334.422 58.9602C340.213 61.7404 349.247 68.4591 354.806 74.0195C360.134 79.5798 367.083 88.6154 369.863 94.4074C373.338 101.589 375.191 110.393 375.654 122.209C376.349 135.415 375.422 142.597 371.948 152.327C368.936 160.205 363.145 169.24 356.659 176.191C350.637 182.214 339.981 189.86 332.569 193.335C321.45 198.432 316.354 199.359 282.303 198.895L259.139 221.832C237.364 243.146 236.206 245 239.449 249.17C241.302 251.718 249.641 263.534 257.749 275.35C266.088 287.397 278.133 308.017 284.851 321.454C291.568 334.892 300.139 355.28 304.077 366.632C308.015 377.984 313.111 396.982 315.659 408.334C318.207 419.687 320.755 435.209 322.84 455.829H357.586C376.58 455.829 392.332 455.134 392.332 453.976C392.1 453.049 396.27 447.952 401.598 442.391C406.694 437.063 416.423 429.881 422.909 426.406C433.332 421.077 437.965 420.15 454.875 420.15C472.943 419.919 475.723 420.614 489.389 428.027C497.497 432.429 506.762 439.148 510.005 443.087C513.248 447.025 519.039 456.756 522.746 465.096C529 478.534 529.695 482.009 528.537 496.373C527.842 509.115 525.757 515.834 519.503 527.418C515.102 535.527 508.384 544.794 504.678 548.038C500.971 551.05 492.401 556.378 486.146 559.622C476.418 564.719 471.553 565.646 454.875 565.646C437.965 565.646 433.332 564.719 422.909 559.39C416.423 555.915 406.694 548.733 401.598 543.173C396.27 537.844 392.1 532.747 392.332 531.589C392.332 530.662 376.58 529.967 322.84 529.967L321.45 543.173C320.755 550.586 318.207 566.109 315.659 577.461C313.111 588.814 308.015 607.811 304.077 619.164C300.139 630.516 291.105 651.367 284.156 665.5C277.207 679.632 266.088 698.862 259.37 708.361C252.884 717.86 244.777 729.212 235.975 740.796L282.303 786.9L300.834 786.669C316.354 786.437 321.45 787.364 332.569 792.461C339.981 795.936 350.637 803.581 356.659 809.605C363.145 816.556 368.936 825.591 371.948 833.468C375.422 843.199 376.349 850.381 375.654 863.587C375.191 875.402 373.338 884.206 369.863 891.388C367.083 897.18 360.134 906.216 354.806 911.776C349.247 917.337 340.213 924.055 334.422 926.835C327.473 930.311 318.439 932.164 306.625 932.627C293.422 933.323 286.241 932.396 276.512 928.921C268.636 925.909 259.602 920.117 252.653 913.63C246.63 907.606 238.986 896.949 235.511 889.535C230.415 878.414 229.489 873.317 229.952 839.26L183.855 792.924L177.601 798.021C173.895 800.801 162.313 809.142 151.426 816.556C140.539 823.738 120.849 835.09 107.414 841.809C93.9789 848.527 73.5945 857.1 62.2441 861.038C50.6621 864.977 31.8992 870.074 20.5488 872.622C8.9668 875.171 -6.32147 877.719 -26.9375 879.804L-27.1691 948.15L-20.9149 951.625C-17.4402 953.479 -11.8809 958.807 -8.40625 963.209C-4.93164 967.611 0.396118 975.952 3.40741 981.744C7.80859 990.316 8.73517 995.876 8.73517 1011.86C8.9668 1029.93 8.27185 1032.71 0.859375 1046.38C-3.54181 1054.49 -10.491 1063.76 -14.1973 1067C-17.9035 1070.01 -27.1691 1075.57 -34.5816 1079.28C-45.2371 1084.84 -50.7965 1086 -64 1086C-77.2035 1086 -82.7629 1084.84 -93.65 1079.28C-100.831 1075.57 -110.096 1070.01 -113.803 1067C-117.741 1063.76 -124.458 1054.49 -128.859 1046.38C-136.272 1032.71 -136.967 1029.93 -136.735 1011.86C-136.735 994.949 -135.809 990.316 -130.481 979.89C-127.006 973.403 -119.825 963.673 -114.498 958.576C-108.938 953.247 -103.842 949.077 -102.916 949.308C-101.757 949.308 -101.062 933.554 -101.062 879.804L-114.498 878.414C-121.679 877.719 -137.198 875.171 -148.549 872.622C-160.131 870.074 -178.894 864.745 -190.244 860.806C-201.826 857.1 -221.979 848.296 -235.414 841.809C-248.849 835.09 -269.465 823.043 -281.511 814.702C-293.324 806.593 -305.138 798.253 -307.686 796.399C-311.855 793.156 -313.709 794.314 -357.952 839.26L-357.72 857.795C-357.489 873.317 -358.415 878.414 -363.511 889.535C-366.986 896.949 -374.63 907.606 -380.884 913.63C-387.37 919.885 -396.636 925.909 -404.048 928.689C-410.998 931.237 -422.116 933.091 -430.687 933.091C-438.563 933.091 -450.377 931.469 -456.631 929.152C-464.97 926.372 -472.382 921.275 -482.343 911.313C-492.304 901.351 -497.4 893.937 -500.179 885.596C-502.496 879.109 -504.117 867.525 -504.117 859.416C-504.117 851.076 -502.264 839.955 -499.716 832.773C-496.936 825.591 -490.914 816.324 -484.659 809.605C-478.637 803.581 -467.981 795.936 -460.8 792.461C-449.45 787.364 -444.354 786.437 -410.303 786.9L-387.139 763.964C-365.364 742.649 -364.206 740.796 -367.449 736.626C-369.302 734.077 -377.641 722.262 -385.749 710.446C-394.088 698.398 -406.133 677.779 -412.851 664.341C-419.568 650.904 -428.139 630.516 -432.077 619.164C-436.015 607.811 -441.111 588.814 -443.659 577.461C-446.207 566.109 -448.755 550.586 -450.84 529.967H-519.174L-524.965 538.307C-528.208 542.941 -535.389 549.66 -541.18 553.598C-546.971 557.305 -557.395 561.939 -564.344 564.024C-573.378 566.572 -581.254 567.267 -590.982 566.109C-600.016 565.182 -609.745 561.939 -618.548 557.073C-625.96 552.903 -634.763 546.416 -638.005 542.709C-641.248 539.002 -647.039 529.04 -650.746 520.7C-657 507.262 -657.695 504.018 -656.537 489.423C-655.842 479.229 -653.294 468.803 -649.819 461.621C-646.808 455.134 -640.09 445.867 -634.994 440.77C-629.898 435.673 -620.632 428.954 -614.146 425.711C-604.649 421.077 -598.858 420.15 -582.875 420.15C-565.965 420.15 -561.564 421.077 -551.14 426.406C-544.423 429.881 -534.694 437.063 -529.598 442.391C-524.27 447.952 -520.1 453.049 -520.332 453.976C-520.332 455.134 -504.812 455.829 -450.84 455.829L-449.45 442.391C-448.755 435.209 -446.207 419.687 -443.659 408.334C-441.111 396.982 -436.015 377.984 -432.077 366.632C-428.139 355.28 -419.568 334.892 -412.851 321.454C-406.133 308.017 -394.783 288.324 -387.602 277.435C-380.189 266.546 -371.85 254.962 -363.975 245L-410.303 198.895L-428.834 199.127C-444.354 199.359 -449.45 198.432 -460.8 193.335C-467.981 189.86 -478.637 182.214 -484.659 175.959C-490.914 169.472 -496.936 160.205 -499.716 152.791C-502.264 145.84 -504.117 134.72 -504.117 126.148C-504.117 118.27 -502.496 106.455 -500.179 100.199C-497.4 91.8589 -492.304 84.4451 -482.343 74.4828C-472.382 64.5206 -464.97 59.4236 -456.631 56.6434C-450.377 54.3266 -438.563 52.7049 -430.687 52.7049C-422.116 52.7049 -410.998 54.5583 -404.048 57.1068C-396.636 59.887 -387.37 65.9107 -380.884 72.166C-374.63 78.1897 -366.986 88.847 -363.511 96.0291C-358.415 107.381 -357.489 112.478 -357.952 146.535L-335.02 169.704C-313.709 191.482 -311.855 192.64 -307.686 189.396C-305.138 187.543 -293.324 179.202 -281.511 171.094C-269.465 162.753 -248.849 150.706 -235.414 143.987C-221.979 137.268 -201.826 128.696 -190.244 124.758C-178.894 120.819 -160.131 115.722 -148.549 113.173C-137.198 110.625 -121.679 108.077 -101.062 105.991V71.2393C-101.062 52.0098 -101.757 36.4872 -102.916 36.4872C-103.842 36.7189 -108.938 32.5487 -114.498 27.22C-119.825 22.123 -127.006 12.3925 -130.481 5.67374C-135.809 -4.75189 -136.735 -9.15382 -136.735 -26.0665C-136.735 -42.0525 -135.809 -47.8445 -131.176 -57.3434C-127.933 -63.8304 -121.215 -73.0976 -116.119 -78.1946C-111.023 -83.2916 -101.062 -90.242 -94.1133 -93.7172C-84.1527 -98.5825 -77.8984 -99.9726 -64.6949 -99.9726H-64.4633ZM-163.374 194.03C-171.713 196.578 -188.854 203.992 -201.595 210.248C-214.335 216.271 -233.098 227.392 -243.29 234.574C-253.482 241.988 -267.38 252.877 -274.33 258.669C-281.279 264.461 -294.714 278.825 -304.443 290.409C-314.172 302.225 -326.912 319.833 -332.935 329.795C-339.189 339.989 -348.223 357.828 -353.319 369.412C-358.415 381.228 -365.133 400.689 -368.144 412.273C-371.155 424.089 -374.167 438.685 -375.093 444.708L-376.483 455.829C-351.003 456.756 -344.98 458.377 -340.579 461.621C-337.104 464.169 -332.008 469.266 -329.229 472.742C-325.522 477.839 -324.364 482.704 -324.364 492.898C-324.364 502.86 -325.522 508.189 -328.997 512.822C-331.545 516.066 -336.641 521.163 -340.116 523.943C-344.98 527.418 -350.771 529.04 -361.658 529.272C-369.766 529.735 -376.483 530.893 -376.483 532.284C-376.483 533.442 -374.862 542.709 -373.009 552.44C-371.155 562.402 -366.754 578.851 -363.511 589.045C-360.268 599.239 -353.782 615.92 -348.918 626.114C-344.285 636.308 -335.251 652.526 -329.229 662.025C-322.974 671.523 -311.392 687.278 -303.516 696.777C-295.409 706.276 -282.9 719.481 -275.488 725.968C-267.844 732.456 -253.482 743.808 -243.29 751.222C-233.098 758.404 -214.335 769.524 -201.595 775.548C-188.854 781.803 -170.091 789.449 -159.899 792.692C-149.707 795.936 -133.261 800.338 -123.532 802.191C-113.571 804.045 -104.537 805.667 -103.147 805.667C-101.757 805.667 -100.599 798.948 -100.368 790.839C-99.9043 779.95 -98.2828 774.158 -94.8082 769.293C-92.0285 765.817 -86.9324 760.721 -83.6895 758.172C-79.0566 754.697 -73.7289 753.538 -63.7684 753.538C-53.8078 753.538 -48.48 754.697 -43.8472 758.172C-40.6042 760.721 -35.5082 765.817 -32.7285 769.293C-29.2539 774.158 -27.6324 779.95 -27.4008 790.839C-26.9375 798.948 -26.011 805.667 -25.0844 805.667C-23.9262 805.667 -14.4289 804.045 -3.54181 801.96C7.34534 799.875 26.5715 794.546 39.3117 790.144C52.0519 785.742 68.7301 778.792 76.3742 775.085C84.0184 771.146 97.4536 763.269 106.487 757.477C115.521 751.917 130.578 740.564 140.075 732.687C149.573 724.81 164.861 709.519 173.895 698.862C182.929 688.205 195.206 672.219 200.765 663.183C206.556 654.147 214.432 640.71 218.37 633.065C222.076 625.419 229.025 608.738 233.427 595.996C237.828 583.253 243.155 564.024 245.24 553.135C247.325 542.246 248.946 532.747 248.946 531.589C248.946 530.662 242.229 529.735 234.122 529.272C223.234 529.04 217.443 527.418 212.579 523.943C209.104 521.163 204.008 516.066 201.46 512.822C197.986 508.189 196.827 502.86 196.827 492.898C196.827 482.936 197.986 477.607 201.46 472.973C204.008 469.73 209.104 464.633 212.579 461.853C217.443 458.377 223.234 456.756 234.122 456.292C242.229 456.061 248.946 454.671 248.946 453.512C248.946 452.122 247.325 443.087 245.472 433.124C243.619 423.394 239.218 406.944 235.975 396.75C232.732 386.556 226.246 369.875 221.381 359.682C216.748 349.488 207.714 333.27 201.692 323.771C195.438 314.272 183.392 298.055 175.053 287.861C166.482 277.667 151.194 262.376 141.002 254.035C131.041 245.463 114.827 233.647 105.329 227.392C95.832 221.368 79.6172 212.333 69.425 207.699C59.2328 202.834 42.5547 196.347 32.3625 193.103C22.1703 189.86 5.72382 185.458 -4.23676 183.604C-13.9656 181.751 -22.9996 180.129 -24.3895 180.129C-25.7793 180.129 -26.9375 186.848 -27.4008 194.957C-27.6324 205.846 -29.2539 211.638 -32.7285 216.503C-35.5082 219.978 -40.6042 225.075 -43.8472 227.624C-48.48 231.099 -53.8078 232.257 -63.7684 232.257C-73.7289 232.257 -79.0566 231.099 -83.6895 227.624C-86.9324 225.075 -92.0285 219.978 -94.8082 216.503C-98.2828 211.638 -99.9043 205.846 -100.136 194.957C-100.599 182.446 -101.526 180.129 -104.769 180.361C-107.085 180.361 -117.741 182.446 -128.628 184.763C-139.515 187.08 -155.035 191.25 -163.374 194.03ZM101.855 326.32C106.951 326.088 116.216 327.941 122.471 330.026C130.192 332.807 137.141 337.749 143.318 344.854C148.646 350.646 154.205 359.45 155.595 364.547C157.217 369.412 158.607 377.289 158.607 381.691C158.607 386.093 157.217 393.97 155.595 398.836C154.205 403.933 148.646 412.736 143.318 418.528C137.141 425.633 130.192 430.576 122.471 433.356C116.216 435.441 107.414 437.295 103.013 437.295C98.6118 437.295 90.736 435.904 85.6398 434.514C80.0805 432.661 71.7414 427.101 64.7922 419.919C57.6113 412.968 52.0519 404.628 50.1988 399.067C48.809 393.97 47.4191 386.093 47.4191 381.691C47.4191 377.289 48.809 369.412 50.1988 364.315C52.0519 358.755 57.6113 350.414 64.7922 343.464C71.0465 336.977 80.0805 330.49 84.4816 329.1C88.8828 327.71 96.7586 326.551 101.855 326.32ZM-187.696 344.854C-182.6 344.622 -172.639 346.244 -165.69 348.329C-156.193 351.341 -149.939 355.28 -141.136 364.083C-132.334 372.887 -128.396 379.143 -125.385 388.642C-123.3 395.592 -121.679 405.091 -121.679 409.493C-121.679 413.895 -123.3 423.394 -125.385 430.344C-128.396 439.843 -132.334 446.098 -141.136 454.902C-149.939 463.706 -156.193 467.645 -165.69 470.656C-172.639 472.742 -182.137 474.363 -186.538 474.363C-190.939 474.363 -200.436 472.742 -207.386 470.656C-216.883 467.645 -223.137 463.706 -231.939 454.902C-240.742 446.098 -244.68 439.843 -247.691 430.344C-249.776 423.394 -251.397 413.895 -251.397 409.493C-251.397 405.091 -249.776 395.592 -247.691 388.642C-244.68 379.143 -240.742 372.887 -231.939 364.083C-223.6 355.743 -216.651 351.109 -208.544 348.561C-202.289 346.476 -192.792 344.854 -187.696 344.854ZM-22.0731 549.428C-13.2707 550.123 -2.61523 552.44 3.40741 555.22C9.19843 557.768 17.5375 563.097 21.9387 566.572C26.3398 570.279 33.7524 580.01 38.1535 588.119C45.566 601.788 46.2609 604.568 46.2609 622.639C46.2609 640.71 45.566 643.49 38.1535 657.159C33.7524 665.268 26.8032 674.535 23.0969 677.779C19.3906 680.791 10.8199 686.119 4.56561 689.363C-5.16327 694.46 -10.0277 695.387 -26.7059 695.387C-44.7738 695.618 -47.5535 694.923 -61.2203 687.509C-69.3277 683.108 -79.0566 675.694 -82.7629 671.292C-86.2375 666.89 -91.5652 658.549 -94.3449 652.757C-98.2828 644.649 -99.441 637.93 -99.441 622.639C-99.6727 606.19 -98.5145 601.093 -93.8817 591.362C-90.8703 584.875 -83.9211 575.608 -78.825 570.511C-73.7289 565.414 -65.3898 559.159 -60.2938 556.842C-55.1976 554.293 -47.7852 551.513 -44.0789 550.586C-40.3726 549.428 -30.4121 548.965 -22.0731 549.428Z" fill="white"/>
</g>
</g>
<defs>
<clipPath id="clip0_3_1361">
<rect width="384" height="460" rx="16" fill="white"/>
</clipPath>
</defs>
</svg>
