<svg width="135" height="135" viewBox="0 0 135 135" fill="none" xmlns="http://www.w3.org/2000/svg">
<g filter="url(#filter0_d_64_103)">
<g clip-path="url(#clip0_64_103)">
<rect x="16" y="24" width="71" height="71" rx="8" fill="url(#paint0_linear_64_103)"/>
<g opacity="0.2" clip-path="url(#clip1_64_103)">
<path fill-rule="evenodd" clip-rule="evenodd" d="M-37 63.807C-36.9078 63.4281 -36.8225 63.047 -36.7372 62.6659C-36.5582 61.8662 -36.3791 61.0661 -36.1361 60.2853C-33.5341 51.8764 -27.9537 46.5225 -19.524 44.0458C-18.876 43.8542 -18.0714 43.2621 -17.8624 42.6699C-11.6411 25.2217 -0.553543 11.8386 15.4525 2.51715C15.6006 2.43094 15.7375 2.32791 15.9121 2.19648C16.0126 2.12078 16.1257 2.03566 16.2607 1.93891C7.17127 -1.85782 1.58251 -8.03467 -0.399357 -16.8737C-1.05451 -19.7956 1.37814 -22.3367 4.37263 -22.3367C7.11581 -22.3367 9.28269 -20.1592 10.1615 -17.5605C11.1904 -14.5178 13.0775 -11.9227 15.982 -9.89757C19.434 -7.48708 23.3249 -6.96109 27.7349 -7.28505C25.6806 -10.3687 24.2005 -13.5807 23.4423 -17.0362C22.8115 -19.9114 25.2563 -22.3297 28.1999 -22.3297C31.0171 -22.3297 33.2311 -20.0776 34.154 -17.4159C35.0935 -14.7066 36.7365 -12.3631 39.1882 -10.4375C42.1839 -8.08622 45.6359 -7.11785 49.4049 -7.20493C60.9836 -7.47315 72.1234 -5.45628 82.6292 -0.513382C101.46 8.34482 114.499 22.55 121.591 42.1509C121.998 43.2795 122.528 43.8786 123.775 44.2095C134.092 46.951 141.059 56.1331 141 66.74C140.941 77.2144 133.894 86.2329 123.583 88.9569C122.59 89.2181 122.078 89.6535 121.706 90.6533C111.757 117.102 92.9296 133.439 65.2821 139.072C30.5042 146.157 -5.86568 124.978 -17.4757 91.2768C-17.9634 89.8591 -18.6566 89.2355 -20.1022 88.7897C-29.2634 85.9542 -34.8159 79.7817 -36.676 70.3383C-36.7205 70.1158 -36.8012 69.9012 -36.8822 69.686C-36.9216 69.5811 -36.9611 69.4761 -36.9965 69.3699V63.807H-37ZM69.0476 20.9093C68.8421 30.2517 60.8826 37.6399 51.3103 37.3752C47.096 36.8752 39.446 33.9563 36.7632 26.3358C35.6562 23.1914 33.0999 20.4042 29.7663 20.4042C26.8538 20.4042 24.2956 22.5352 24.8024 25.4033C26.007 32.2209 31.3289 40.0203 38.0352 44.0075C47.8583 49.8456 60.2939 48.9225 69.274 41.7294C77.0489 35.4977 83.0821 23.1491 76.9792 8.47718C77.2035 8.5655 77.4092 8.64258 77.6014 8.71462C77.9854 8.85852 78.3158 8.98233 78.6338 9.13554C96.702 17.8683 108.34 31.9446 113.471 51.3296C113.983 53.2593 114.704 53.8376 116.686 53.8271C124.189 53.7958 129.275 57.9166 130.431 64.6883C131.577 71.3937 126.46 78.2873 119.71 79.1233C118.964 79.2139 118.212 79.2731 117.459 79.3114C114.201 79.4726 114.198 79.4819 113.281 82.5981L113.238 82.746C106.25 106.489 90.8395 121.944 66.9053 128.016C33.6636 136.449 0.0804291 116.364 -9.14352 83.1814C-9.81465 80.7686 -11.4507 79.4705 -14.0516 79.287C-20.029 78.8656 -24.6166 75.309 -26.104 69.9447C-27.5566 64.7126 -25.5153 59.1532 -21.0079 56.0425C-18.4755 54.2939 -15.6156 53.6286 -12.606 53.8132C-10.7145 53.9281 -9.97605 53.2907 -9.48838 51.4236C-4.58728 32.603 6.54556 18.6974 23.8718 9.85659C32.6743 5.36305 42.0898 3.18247 51.9895 3.26258C61.8231 3.3427 69.2636 11.0688 69.0476 20.9093Z" fill="white"/>
<path d="M31.5216 92.5162C33.9146 91.1102 36.946 91.9084 38.9574 93.8209C46.3407 100.841 57.6865 100.948 65.1276 93.8214C67.1255 91.9079 70.1018 91.0857 72.4832 92.4934C75.0049 93.9841 75.8562 97.3389 73.9353 99.5505C68.2794 106.062 60.9796 109.555 51.9154 109.529C42.9445 109.503 35.712 106.027 30.1007 99.5929C28.1596 97.3673 28.9754 94.0122 31.5216 92.5162Z" fill="white"/>
<path d="M16.8489 64.5951C15.3952 66.7195 13.351 68.5793 10.7768 68.5793C7.57804 68.5793 4.86949 65.8911 5.88555 62.858C7.00482 59.5169 9.13688 56.7486 12.2975 54.5935C18.2958 50.5041 24.6843 50.2777 30.923 53.984C34.5589 56.1434 36.9769 59.089 38.2228 62.7492C39.2666 65.8156 36.5381 68.5584 33.2988 68.5584C30.7731 68.5584 28.7353 66.7862 27.3336 64.6851C26.038 62.743 24.3536 61.8936 22.0474 61.9051C19.7905 61.9163 18.1057 62.7584 16.8489 64.5951Z" fill="white"/>
<path d="M93.3705 68.5535C90.7026 68.5545 88.5414 66.7156 87.017 64.5261C85.6749 62.5984 84.008 61.8243 81.7028 61.9088C79.562 61.9881 77.9274 62.8136 76.7383 64.4638C75.2087 66.5866 73.1716 68.5481 70.5551 68.5481C67.3879 68.5481 64.7095 65.8845 65.7156 62.8812C66.8148 59.5996 68.8961 56.8576 71.9877 54.7017C77.9477 50.5426 84.2909 50.3127 90.6167 53.8622C94.2265 55.89 96.9922 59.4402 98.2301 63.1391C99.2261 66.1151 96.5088 68.5524 93.3705 68.5535Z" fill="white"/>
</g>
<g clip-path="url(#clip2_64_103)">
<path fill-rule="evenodd" clip-rule="evenodd" d="M28 60.2963C28.0249 60.1941 28.0479 60.0913 28.0709 59.9886C28.1191 59.7729 28.1674 59.5572 28.233 59.3466C28.9346 57.0791 30.4395 55.6353 32.7126 54.9674C32.8874 54.9158 33.1043 54.7561 33.1607 54.5964C34.8384 49.8913 37.8283 46.2823 42.1445 43.7687C42.1844 43.7454 42.2213 43.7177 42.2684 43.6822C42.2955 43.6618 42.326 43.6388 42.3624 43.6128C39.9114 42.5889 38.4043 40.9232 37.8698 38.5397C37.6932 37.7518 38.3492 37.0665 39.1567 37.0665C39.8964 37.0665 40.4807 37.6537 40.7177 38.3545C40.9952 39.175 41.5041 39.8748 42.2873 40.4209C43.2182 41.0709 44.2674 41.2128 45.4566 41.1254C44.9026 40.2938 44.5035 39.4277 44.2991 38.4959C44.1289 37.7205 44.7882 37.0684 45.582 37.0684C46.3417 37.0684 46.9387 37.6757 47.1876 38.3935C47.4409 39.1241 47.884 39.756 48.5451 40.2753C49.353 40.9093 50.2838 41.1705 51.3002 41.147C54.4225 41.0747 57.4265 41.6185 60.2596 42.9515C65.3376 45.3402 68.8535 49.1708 70.766 54.4564C70.8759 54.7608 71.0187 54.9223 71.355 55.0116C74.1373 55.7508 76.016 58.2269 76 61.0872C75.984 63.9118 74.0838 66.3437 71.3033 67.0783C71.0356 67.1487 70.8975 67.2661 70.797 67.5357C68.1143 74.6681 63.0372 79.0736 55.5817 80.5925C46.2034 82.5031 36.3958 76.7919 33.265 67.7039C33.1335 67.3216 32.9465 67.1534 32.5567 67.0332C30.0863 66.2686 28.589 64.6041 28.0874 62.0575C28.0754 61.9975 28.0536 61.9397 28.0318 61.8816C28.0211 61.8533 28.0105 61.825 28.0009 61.7964V60.2963H28ZM56.5971 48.7284C56.5417 51.2477 54.3953 53.24 51.814 53.1686C50.6776 53.0338 48.6146 52.2467 47.8912 50.1917C47.5927 49.3438 46.9034 48.5922 46.0044 48.5922C45.219 48.5922 44.5292 49.1668 44.6658 49.9402C44.9907 51.7787 46.4258 53.8819 48.2342 54.9571C50.8831 56.5314 54.2366 56.2825 56.6582 54.3428C58.7548 52.6623 60.3817 49.3324 58.736 45.3759C58.7964 45.3997 58.8519 45.4205 58.9038 45.4399C59.0073 45.4787 59.0964 45.5121 59.1822 45.5534C64.0545 47.9083 67.1928 51.7042 68.5764 56.9316C68.7145 57.452 68.909 57.6079 69.4434 57.6051C71.4668 57.5966 72.8382 58.7079 73.1501 60.5339C73.4591 62.3421 72.0792 64.2011 70.2588 64.4265C70.0578 64.4509 69.8549 64.4669 69.652 64.4772C68.7733 64.5207 68.7726 64.5232 68.5252 65.3635L68.5135 65.4034C66.6292 71.8059 62.4736 75.9738 56.0194 77.611C47.0553 79.8852 37.9992 74.469 35.5119 65.5209C35.3309 64.8702 34.8897 64.5201 34.1883 64.4707C32.5764 64.357 31.3393 63.398 30.9382 61.9514C30.5465 60.5405 31.097 59.0413 32.3125 58.2025C32.9954 57.7309 33.7666 57.5515 34.5782 57.6013C35.0882 57.6323 35.2874 57.4604 35.4189 56.9569C36.7405 51.8817 39.7426 48.1319 44.4149 45.7479C46.7886 44.5361 49.3276 43.9481 51.9972 43.9697C54.6489 43.9913 56.6553 46.0747 56.5971 48.7284Z" fill="white"/>
<path d="M46.4778 68.0381C47.1231 67.6589 47.9405 67.8742 48.4829 68.3899C50.4739 70.2829 53.5335 70.3117 55.54 68.39C56.0788 67.8741 56.8814 67.6523 57.5236 68.0319C58.2036 68.4339 58.4332 69.3386 57.9152 69.935C56.39 71.691 54.4215 72.6329 51.9772 72.6259C49.5581 72.6189 47.6078 71.6814 46.0946 69.9464C45.5712 69.3463 45.7912 68.4415 46.4778 68.0381Z" fill="white"/>
<path d="M42.521 60.5088C42.129 61.0817 41.5777 61.5832 40.8836 61.5832C40.021 61.5832 39.2906 60.8583 39.5646 60.0404C39.8664 59.1394 40.4413 58.3929 41.2936 57.8118C42.9112 56.709 44.6339 56.6479 46.3163 57.6474C47.2967 58.2297 47.9488 59.024 48.2847 60.011C48.5662 60.8379 47.8304 61.5776 46.9569 61.5776C46.2758 61.5776 45.7263 61.0997 45.3483 60.5331C44.999 60.0094 44.5447 59.7803 43.9228 59.7834C43.3142 59.7864 42.8599 60.0135 42.521 60.5088Z" fill="white"/>
<path d="M63.1561 61.5762C62.4366 61.5765 61.8538 61.0806 61.4427 60.4902C61.0808 59.9704 60.6313 59.7616 60.0097 59.7844C59.4324 59.8058 58.9916 60.0284 58.671 60.4734C58.2585 61.0458 57.7091 61.5748 57.0036 61.5748C56.1495 61.5748 55.4272 60.8565 55.6985 60.0466C55.995 59.1617 56.5562 58.4223 57.3899 57.8409C58.9971 56.7194 60.7076 56.6574 62.4134 57.6146C63.3869 58.1614 64.1327 59.1187 64.4665 60.1162C64.7351 60.9187 64.0023 61.5759 63.1561 61.5762Z" fill="white"/>
</g>
</g>
</g>
<defs>
<filter id="filter0_d_64_103" x="0" y="0" width="135" height="135" filterUnits="userSpaceOnUse" color-interpolation-filters="sRGB">
<feFlood flood-opacity="0" result="BackgroundImageFix"/>
<feColorMatrix in="SourceAlpha" type="matrix" values="0 0 0 0 0 0 0 0 0 0 0 0 0 0 0 0 0 0 127 0" result="hardAlpha"/>
<feOffset dx="16" dy="8"/>
<feGaussianBlur stdDeviation="16"/>
<feComposite in2="hardAlpha" operator="out"/>
<feColorMatrix type="matrix" values="0 0 0 0 0.27451 0 0 0 0 0.713726 0 0 0 0 0 0 0 0 0.25 0"/>
<feBlend mode="normal" in2="BackgroundImageFix" result="effect1_dropShadow_64_103"/>
<feBlend mode="normal" in="SourceGraphic" in2="effect1_dropShadow_64_103" result="shape"/>
</filter>
<linearGradient id="paint0_linear_64_103" x1="87" y1="24" x2="16" y2="95" gradientUnits="userSpaceOnUse">
<stop stop-color="#46B600"/>
<stop offset="1" stop-color="#80C41C"/>
</linearGradient>
<clipPath id="clip0_64_103">
<rect x="16" y="24" width="71" height="71" rx="8" fill="white"/>
</clipPath>
<clipPath id="clip1_64_103">
<rect width="178" height="178" fill="white" transform="translate(-37 -30)"/>
</clipPath>
<clipPath id="clip2_64_103">
<rect width="48" height="48" fill="white" transform="translate(28 35)"/>
</clipPath>
</defs>
</svg>
