<svg width="32" height="32" viewBox="0 0 32 32" fill="none" xmlns="http://www.w3.org/2000/svg">
<path d="M16.0003 26.6667C17.2003 26.6667 18.3617 26.472 19.4843 26.0827C20.6061 25.6942 21.6337 25.1333 22.567 24.4C21.2781 23.9333 19.9172 23.1831 18.4843 22.1493C17.0505 21.1165 15.7892 19.8222 14.7003 18.2667C13.6114 16.7111 12.8172 14.9053 12.3177 12.8493C11.8172 10.7942 11.8337 8.51112 12.367 6.00001C10.3003 6.73334 8.61144 8.00534 7.30033 9.81601C5.98921 11.6276 5.33366 13.6889 5.33366 16C5.33366 18.9556 6.37277 21.4725 8.45099 23.5507C10.5283 25.628 13.0448 26.6667 16.0003 26.6667ZM16.0003 29.3333C14.1559 29.3333 12.4225 28.9831 10.8003 28.2827C9.1781 27.5831 7.76699 26.6333 6.56699 25.4333C5.36699 24.2333 4.41721 22.8222 3.71766 21.2C3.01721 19.5778 2.66699 17.8445 2.66699 16C2.66699 12.7333 3.69455 9.85557 5.74966 7.36668C7.80566 4.87779 10.5559 3.36668 14.0003 2.83334C14.6448 2.72223 15.1061 2.87201 15.3843 3.28268C15.6617 3.69423 15.6781 4.23334 15.4337 4.90001C14.767 6.76668 14.5337 8.64979 14.7337 10.5493C14.9337 12.4498 15.4781 14.2 16.367 15.8C17.2559 17.4 18.4505 18.7831 19.951 19.9493C21.4505 21.1165 23.167 21.9111 25.1003 22.3333C25.8114 22.4889 26.2612 22.7889 26.4497 23.2333C26.639 23.6778 26.5225 24.1445 26.1003 24.6333C24.8781 26.0778 23.395 27.2222 21.651 28.0667C19.9061 28.9111 18.0225 29.3333 16.0003 29.3333Z" fill="#647362"/>
</svg>
