<svg width="660" height="119" viewBox="0 0 660 119" fill="none" xmlns="http://www.w3.org/2000/svg">
<path d="M24.6246 48.456V55.18C22.8753 56.2187 20.88 56.738 18.6386 56.738C7.59595 56.738 2.07462 47.6907 2.07462 29.596C2.07462 10.244 7.54129 0.567995 18.4746 0.567995C20.6066 0.567995 22.6566 1.11466 24.6246 2.208V8.85C22.93 7.92066 21.3446 7.456 19.8686 7.456C18.2833 7.456 16.8893 7.81133 15.6866 8.522C14.484 9.23266 13.5273 10.2713 12.8166 11.638C12.1606 13.0047 11.614 14.344 11.1766 15.656C10.7393 16.968 10.4386 18.608 10.2746 20.576C10.1106 22.4893 10.0013 23.9927 9.94662 25.086C9.89195 26.1793 9.86462 27.546 9.86462 29.186C9.86462 42.7433 13.336 49.522 20.2786 49.522C21.7546 49.522 23.2033 49.1667 24.6246 48.456ZM54.3836 56H47.0856L45.0356 45.34H34.2116L32.1616 56H25.0276L36.9176 1.306H42.7396L54.3836 56ZM35.2776 39.682H43.9696C41.7829 27.4913 40.3616 18.2527 39.7056 11.966C39.1589 17.5967 37.6829 26.8353 35.2776 39.682ZM92.3784 56H85.2444C84.4244 43.536 83.9597 35.9647 83.8504 33.286C83.8504 32.466 83.7957 31.2633 83.6864 29.678C83.5771 28.038 83.5224 26.808 83.5224 25.988C83.4677 25.0587 83.4404 24.2113 83.4404 23.446C83.4951 22.6807 83.4951 21.8333 83.4404 20.904C83.4404 19.9747 83.3857 19.1273 83.2764 18.362C82.7844 21.5873 80.4611 34.1333 76.3064 56H71.3864C71.0584 54.36 70.4024 51.3533 69.4184 46.98C68.4891 42.552 67.7784 39.2173 67.2864 36.976C66.8491 34.68 66.3024 31.7553 65.6464 28.202C65.0451 24.594 64.5531 21.314 64.1704 18.362L62.0384 56H55.1504L59.6604 1.306H65.9744L70.7304 23.61C70.7851 24.0473 70.9217 24.7033 71.1404 25.578C71.4137 26.4527 71.5777 27.1087 71.6324 27.546C72.3431 31.482 73.0264 35.91 73.6824 40.83C73.6824 40.7207 74.0924 38.1513 74.9124 33.122C75.0217 32.466 75.1584 31.482 75.3224 30.17C75.5411 28.8033 75.7051 27.792 75.8144 27.136C75.9237 26.6987 76.0604 26.07 76.2244 25.25C76.4431 24.3753 76.5797 23.7193 76.6344 23.282L80.8984 1.306H87.2944L92.3784 56ZM124.105 28.694C124.105 32.302 124.023 35.3633 123.859 37.878C123.695 40.338 123.175 43.1533 122.301 46.324C121.481 49.44 120.278 51.7907 118.693 53.376C116.451 55.6173 113.527 56.738 109.919 56.738C106.256 56.738 103.304 55.6173 101.063 53.376C97.4547 49.7133 95.6507 41.5407 95.6507 28.858C95.6507 26.1793 95.678 23.9107 95.7327 22.052C95.842 20.1387 96.0607 17.9247 96.3887 15.41C96.7167 12.8953 97.2634 10.6813 98.0287 8.768C98.8487 6.8 99.86 5.21466 101.063 4.012C103.304 1.77067 106.256 0.649999 109.919 0.649999C113.527 0.649999 116.451 1.77067 118.693 4.012C120.934 6.25333 122.383 9.506 123.039 13.77C123.749 18.034 124.105 23.0087 124.105 28.694ZM103.359 30.006C103.359 40.3927 104.37 46.5973 106.393 48.62C107.267 49.4947 108.443 49.932 109.919 49.932C111.34 49.932 112.488 49.4947 113.363 48.62C115.385 46.5973 116.397 40.3927 116.397 30.006V25.906C116.397 16.2847 115.385 10.5173 113.363 8.604C112.488 7.72933 111.34 7.292 109.919 7.292C108.443 7.292 107.267 7.72933 106.393 8.604C104.37 10.5173 103.359 16.2847 103.359 25.906V30.006ZM133.769 1.306H157.385V56H150.005V7.538H140.739V35.418C140.739 40.4473 140.575 43.8913 140.247 45.75C139.591 49.522 138.47 52.228 136.885 53.868C135.135 55.672 132.867 56.574 130.079 56.574C128.439 56.574 127.045 56.328 125.897 55.836V48.374C126.662 49.194 127.673 49.604 128.931 49.604C130.024 49.604 130.926 49.2487 131.637 48.538C132.566 47.6087 133.14 46.1873 133.359 44.274C133.632 42.3607 133.769 39.6547 133.769 36.156V1.306ZM171.526 56H164.146V1.306H171.526V56ZM204.273 56H195.991L185.741 29.186V56H178.361V1.306H185.741V26.398L195.991 1.306H203.453L192.383 27.792L204.273 56ZM203.705 1.306H211.413L214.775 14.18C216.36 20.4667 217.454 25.25 218.055 28.53C219.094 22.954 220.132 18.116 221.171 14.016L224.451 1.306H231.831L216.825 56H209.609L214.611 38.534L203.705 1.306ZM235.06 1.306H245.064C252.881 1.306 256.79 6.17133 256.79 15.902C256.79 19.7833 256.106 22.7627 254.74 24.84C253.81 26.316 252.198 27.4367 249.902 28.202C252.143 29.022 253.756 29.9787 254.74 31.072C256.653 33.0947 257.61 36.402 257.61 40.994C257.61 50.998 253.318 56 244.736 56H235.06V1.306ZM242.03 25.414H242.522C245.419 25.414 247.332 24.6213 248.262 23.036C249.191 21.396 249.656 19.018 249.656 15.902C249.656 10.162 247.524 7.292 243.26 7.292H242.03V25.414ZM242.03 31.236V49.686C244.162 49.686 245.692 49.4673 246.622 49.03C248.863 47.9913 249.984 45.2307 249.984 40.748C249.984 37.468 249.437 35.0627 248.344 33.532C247.305 32.0013 245.2 31.236 242.03 31.236ZM288.545 56H281.247L279.197 45.34H268.373L266.323 56H259.189L271.079 1.306H276.901L288.545 56ZM269.439 39.682H278.131C275.944 27.4913 274.523 18.2527 273.867 11.966C273.32 17.5967 271.844 26.8353 269.439 39.682ZM316.782 56H309.402V28.94H298.578V56H291.198V1.306H298.578V22.708H309.402V1.306H316.782V56ZM349.095 56H341.715V28.94H330.891V56H323.511V1.306H330.891V22.708H341.715V1.306H349.095V56ZM353.282 56L362.22 30.662C360.088 30.334 358.284 29.432 356.808 27.956C354.512 25.7147 353.364 22.0247 353.364 16.886C353.364 10.818 354.785 6.49933 357.628 3.93C358.503 3.11 359.541 2.50866 360.744 2.126C361.947 1.68867 362.931 1.44267 363.696 1.388C364.461 1.33333 365.527 1.306 366.894 1.306H376.652V56H369.272V31.072L360.826 56H353.282ZM369.272 7.374H367.304C365.391 7.374 363.915 7.81133 362.876 8.686C361.291 10.1073 360.498 12.786 360.498 16.722C360.498 20.658 361.345 23.2273 363.04 24.43C364.133 25.3047 365.828 25.742 368.124 25.742H369.272V7.374ZM436.253 56H429.119C428.299 43.536 427.834 35.9647 427.725 33.286C427.725 32.466 427.67 31.2633 427.561 29.678C427.452 28.038 427.397 26.808 427.397 25.988C427.342 25.0587 427.315 24.2113 427.315 23.446C427.37 22.6807 427.37 21.8333 427.315 20.904C427.315 19.9747 427.26 19.1273 427.151 18.362C426.659 21.5873 424.336 34.1333 420.181 56H415.261C414.933 54.36 414.277 51.3533 413.293 46.98C412.364 42.552 411.653 39.2173 411.161 36.976C410.724 34.68 410.177 31.7553 409.521 28.202C408.92 24.594 408.428 21.314 408.045 18.362L405.913 56H399.025L403.535 1.306H409.849L414.605 23.61C414.66 24.0473 414.796 24.7033 415.015 25.578C415.288 26.4527 415.452 27.1087 415.507 27.546C416.218 31.482 416.901 35.91 417.557 40.83C417.557 40.7207 417.967 38.1513 418.787 33.122C418.896 32.466 419.033 31.482 419.197 30.17C419.416 28.8033 419.58 27.792 419.689 27.136C419.798 26.6987 419.935 26.07 420.099 25.25C420.318 24.3753 420.454 23.7193 420.509 23.282L424.773 1.306H431.169L436.253 56ZM467.979 28.694C467.979 32.302 467.897 35.3633 467.733 37.878C467.569 40.338 467.05 43.1533 466.175 46.324C465.355 49.44 464.153 51.7907 462.567 53.376C460.326 55.6173 457.401 56.738 453.793 56.738C450.131 56.738 447.179 55.6173 444.937 53.376C441.329 49.7133 439.525 41.5407 439.525 28.858C439.525 26.1793 439.553 23.9107 439.607 22.052C439.717 20.1387 439.935 17.9247 440.263 15.41C440.591 12.8953 441.138 10.6813 441.903 8.768C442.723 6.8 443.735 5.21466 444.937 4.012C447.179 1.77067 450.131 0.649999 453.793 0.649999C457.401 0.649999 460.326 1.77067 462.567 4.012C464.809 6.25333 466.257 9.506 466.913 13.77C467.624 18.034 467.979 23.0087 467.979 28.694ZM447.233 30.006C447.233 40.3927 448.245 46.5973 450.267 48.62C451.142 49.4947 452.317 49.932 453.793 49.932C455.215 49.932 456.363 49.4947 457.237 48.62C459.26 46.5973 460.271 40.3927 460.271 30.006V25.906C460.271 16.2847 459.26 10.5173 457.237 8.604C456.363 7.72933 455.215 7.292 453.793 7.292C452.317 7.292 451.142 7.72933 450.267 8.604C448.245 10.5173 447.233 16.2847 447.233 25.906V30.006ZM510.144 56H502.518L493.006 29.022V56H485.79V29.022L476.278 56H468.652L479.476 27.792L469.144 1.306H476.278L485.79 26.562V1.306H493.006V26.562L502.518 1.306H509.652L499.32 27.792L510.144 56ZM532.663 56H513.065V1.306H532.663V7.538H520.445V24.922H531.269V31.154H520.445V49.768H532.663V56ZM555.27 1.306H575.36V7.538H562.65V24.758H563.88C568.69 24.758 572.271 25.9607 574.622 28.366C577.082 30.8807 578.312 35.008 578.312 40.748C578.312 46.3787 577.109 50.3967 574.704 52.802C572.572 54.934 569.483 56 565.438 56H555.27V1.306ZM562.65 30.99V49.768H563.142C565.766 49.768 567.624 49.2487 568.718 48.21C570.03 46.9527 570.686 44.438 570.686 40.666C570.686 36.6753 569.948 33.9967 568.472 32.63C567.214 31.5367 565.41 30.99 563.06 30.99H562.65ZM577.33 1.306H585.038L588.4 14.18C589.986 20.4667 591.079 25.25 591.68 28.53C592.719 22.954 593.758 18.116 594.796 14.016L598.076 1.306H605.456L590.45 56H583.234L588.236 38.534L577.33 1.306ZM630.845 7.784H622.481V56H615.265V7.784H606.901V1.306H630.845V7.784ZM633.231 56V1.306H640.447V23.692C640.447 30.0333 639.927 36.4567 638.889 42.962C639.49 40.994 640.255 38.3427 641.185 35.008C642.114 31.6187 642.961 28.776 643.727 26.48L651.927 1.306H658.487V56H651.271V31.646C651.271 28.1473 651.763 22.216 652.747 13.852C650.068 23.4733 648.674 28.4207 648.565 28.694L639.791 56H633.231ZM0.815417 67.979H6.35942V105.212H14.0454V67.979H19.5894V105.212H27.2754V67.979H32.8194V110H0.815417V67.979ZM57.9156 110H51.5526L43.6776 89.399V110H38.0076V67.979H43.6776V87.257L51.5526 67.979H57.2856L48.7806 88.328L57.9156 110ZM65.858 110H60.188V67.979H65.858V110ZM73.8186 67.979H91.8366V105.212H95.1756V118.19H90.0096V110H73.3146V118.19H68.1486V105.212C69.7026 104.414 70.9206 103.322 71.8026 101.936C73.1466 99.836 73.8186 95.972 73.8186 90.344V67.979ZM79.1106 72.767V88.454C79.1106 93.956 78.7746 97.82 78.1026 100.046C77.4726 102.104 76.3596 103.826 74.7636 105.212H86.1666V72.767H79.1106ZM102.899 67.979H121.043V110H115.373V72.767H108.254V94.187C108.254 98.051 108.128 100.697 107.876 102.125C107.372 105.023 106.511 107.102 105.293 108.362C103.949 109.748 102.206 110.441 100.064 110.441C98.8035 110.441 97.7325 110.252 96.8505 109.874V104.141C97.4385 104.771 98.2155 105.086 99.1815 105.086C100.022 105.086 100.715 104.813 101.261 104.267C101.975 103.553 102.416 102.461 102.584 100.991C102.794 99.521 102.899 97.442 102.899 94.754V67.979ZM126.237 110V67.979H131.781V85.178C131.781 90.05 131.382 94.985 130.584 99.983C131.046 98.471 131.634 96.434 132.348 93.872C133.062 91.268 133.713 89.084 134.301 87.32L140.601 67.979H145.641V110H140.097V91.289C140.097 88.601 140.475 84.044 141.231 77.618C139.173 85.01 138.102 88.811 138.018 89.021L131.277 110H126.237ZM150.817 67.979H158.503C164.509 67.979 167.512 71.717 167.512 79.193C167.512 82.175 166.987 84.464 165.937 86.06C165.223 87.194 163.984 88.055 162.22 88.643C163.942 89.273 165.181 90.008 165.937 90.848C167.407 92.402 168.142 94.943 168.142 98.471C168.142 106.157 164.845 110 158.251 110H150.817V67.979ZM156.172 86.501H156.55C158.776 86.501 160.246 85.892 160.96 84.674C161.674 83.414 162.031 81.587 162.031 79.193C162.031 74.783 160.393 72.578 157.117 72.578H156.172V86.501ZM156.172 90.974V105.149C157.81 105.149 158.986 104.981 159.7 104.645C161.422 103.847 162.283 101.726 162.283 98.282C162.283 95.762 161.863 93.914 161.023 92.738C160.225 91.562 158.608 90.974 156.172 90.974ZM172.505 110V67.979H178.049V85.178C178.049 90.05 177.65 94.985 176.852 99.983C177.314 98.471 177.902 96.434 178.616 93.872C179.33 91.268 179.981 89.084 180.569 87.32L186.869 67.979H191.909V110H186.365V91.289C186.365 88.601 186.743 84.044 187.499 77.618C185.441 85.01 184.37 88.811 184.286 89.021L177.545 110H172.505ZM224.238 110H218.757C218.127 100.424 217.77 94.607 217.686 92.549C217.686 91.919 217.644 90.995 217.56 89.777C217.476 88.517 217.434 87.572 217.434 86.942C217.392 86.228 217.371 85.577 217.371 84.989C217.413 84.401 217.413 83.75 217.371 83.036C217.371 82.322 217.329 81.671 217.245 81.083C216.867 83.561 215.082 93.2 211.89 110H208.11C207.858 108.74 207.354 106.43 206.598 103.07C205.884 99.668 205.338 97.106 204.96 95.384C204.624 93.62 204.204 91.373 203.7 88.643C203.238 85.871 202.86 83.351 202.566 81.083L200.928 110H195.636L199.101 67.979H203.952L207.606 85.115C207.648 85.451 207.753 85.955 207.921 86.627C208.131 87.299 208.257 87.803 208.299 88.139C208.845 91.163 209.37 94.565 209.874 98.345C209.874 98.261 210.189 96.287 210.819 92.423C210.903 91.919 211.008 91.163 211.134 90.155C211.302 89.105 211.428 88.328 211.512 87.824C211.596 87.488 211.701 87.005 211.827 86.375C211.995 85.703 212.1 85.199 212.142 84.863L215.418 67.979H220.332L224.238 110ZM243.724 67.979H261.742V105.212H265.081V118.19H259.915V110H243.22V118.19H238.054V105.212C239.608 104.414 240.826 103.322 241.708 101.936C243.052 99.836 243.724 95.972 243.724 90.344V67.979ZM249.016 72.767V88.454C249.016 93.956 248.68 97.82 248.008 100.046C247.378 102.104 246.265 103.826 244.669 105.212H256.072V72.767H249.016ZM272.804 67.979H290.948V110H285.278V72.767H278.159V94.187C278.159 98.051 278.033 100.697 277.781 102.125C277.277 105.023 276.416 107.102 275.198 108.362C273.854 109.748 272.111 110.441 269.969 110.441C268.709 110.441 267.638 110.252 266.756 109.874V104.141C267.344 104.771 268.121 105.086 269.087 105.086C269.927 105.086 270.62 104.813 271.166 104.267C271.88 103.553 272.321 102.461 272.489 100.991C272.699 99.521 272.804 97.442 272.804 94.754V67.979ZM294.19 110L301.057 90.533C299.419 90.281 298.033 89.588 296.899 88.454C295.135 86.732 294.253 83.897 294.253 79.949C294.253 75.287 295.345 71.969 297.529 69.995C298.201 69.365 298.999 68.903 299.923 68.609C300.847 68.273 301.603 68.084 302.191 68.042C302.779 68 303.598 67.979 304.648 67.979H312.145V110H306.475V90.848L299.986 110H294.19ZM306.475 72.641H304.963C303.493 72.641 302.359 72.977 301.561 73.649C300.343 74.741 299.734 76.799 299.734 79.823C299.734 82.847 300.385 84.821 301.687 85.745C302.527 86.417 303.829 86.753 305.593 86.753H306.475V72.641ZM330.783 67.979H338.469C344.475 67.979 347.478 71.717 347.478 79.193C347.478 82.175 346.953 84.464 345.903 86.06C345.189 87.194 343.95 88.055 342.186 88.643C343.908 89.273 345.147 90.008 345.903 90.848C347.373 92.402 348.108 94.943 348.108 98.471C348.108 106.157 344.811 110 338.217 110H330.783V67.979ZM336.138 86.501H336.516C338.742 86.501 340.212 85.892 340.926 84.674C341.64 83.414 341.997 81.587 341.997 79.193C341.997 74.783 340.359 72.578 337.083 72.578H336.138V86.501ZM336.138 90.974V105.149C337.776 105.149 338.952 104.981 339.666 104.645C341.388 103.847 342.249 101.726 342.249 98.282C342.249 95.762 341.829 93.914 340.989 92.738C340.191 91.562 338.574 90.974 336.138 90.974ZM371.875 110H366.268L364.693 101.81H356.377L354.802 110H349.321L358.456 67.979H362.929L371.875 110ZM357.196 97.463H363.874C362.194 88.097 361.102 80.999 360.598 76.169C360.178 80.495 359.044 87.593 357.196 97.463ZM373.913 67.979H379.457V105.212H387.143V67.979H392.687V105.212H400.373V67.979H405.917V110H373.913V67.979ZM432.147 89.021C432.147 91.793 432.084 94.145 431.958 96.077C431.832 97.967 431.433 100.13 430.761 102.566C430.131 104.96 429.207 106.766 427.989 107.984C426.267 109.706 424.02 110.567 421.248 110.567C418.434 110.567 416.166 109.706 414.444 107.984C411.672 105.17 410.286 98.891 410.286 89.147C410.286 87.089 410.307 85.346 410.349 83.918C410.433 82.448 410.601 80.747 410.853 78.815C411.105 76.883 411.525 75.182 412.113 73.712C412.743 72.2 413.52 70.982 414.444 70.058C416.166 68.336 418.434 67.475 421.248 67.475C424.02 67.475 426.267 68.336 427.989 70.058C429.711 71.78 430.824 74.279 431.328 77.555C431.874 80.831 432.147 84.653 432.147 89.021ZM416.208 90.029C416.208 98.009 416.985 102.776 418.539 104.33C419.211 105.002 420.114 105.338 421.248 105.338C422.34 105.338 423.222 105.002 423.894 104.33C425.448 102.776 426.225 98.009 426.225 90.029V86.879C426.225 79.487 425.448 75.056 423.894 73.586C423.222 72.914 422.34 72.578 421.248 72.578C420.114 72.578 419.211 72.914 418.539 73.586C416.985 75.056 416.208 79.487 416.208 86.879V90.029ZM451.605 72.767H442.155V110H436.485V67.979H451.605V72.767ZM473.124 89.021C473.124 91.793 473.061 94.145 472.935 96.077C472.809 97.967 472.41 100.13 471.738 102.566C471.108 104.96 470.184 106.766 468.966 107.984C467.244 109.706 464.997 110.567 462.225 110.567C459.411 110.567 457.143 109.706 455.421 107.984C452.649 105.17 451.263 98.891 451.263 89.147C451.263 87.089 451.284 85.346 451.326 83.918C451.41 82.448 451.578 80.747 451.83 78.815C452.082 76.883 452.502 75.182 453.09 73.712C453.72 72.2 454.497 70.982 455.421 70.058C457.143 68.336 459.411 67.475 462.225 67.475C464.997 67.475 467.244 68.336 468.966 70.058C470.688 71.78 471.801 74.279 472.305 77.555C472.851 80.831 473.124 84.653 473.124 89.021ZM457.185 90.029C457.185 98.009 457.962 102.776 459.516 104.33C460.188 105.002 461.091 105.338 462.225 105.338C463.317 105.338 464.199 105.002 464.871 104.33C466.425 102.776 467.202 98.009 467.202 90.029V86.879C467.202 79.487 466.425 75.056 464.871 73.586C464.199 72.914 463.317 72.578 462.225 72.578C461.091 72.578 460.188 72.914 459.516 73.586C457.962 75.056 457.185 79.487 457.185 86.879V90.029ZM493.741 85.871H494.371C496.513 85.871 498.13 85.388 499.222 84.422C500.398 83.414 500.986 81.776 500.986 79.508C500.986 77.156 500.461 75.392 499.411 74.216C498.487 73.208 497.248 72.704 495.694 72.704C493.636 72.704 491.851 73.649 490.339 75.539V69.68C492.187 68.21 494.35 67.475 496.828 67.475C499.684 67.475 501.931 68.252 503.569 69.806C505.627 71.78 506.656 74.762 506.656 78.752C506.656 81.986 505.9 84.401 504.388 85.997C503.506 86.921 502.519 87.509 501.427 87.761C502.771 87.971 504.01 88.58 505.144 89.588C506.992 91.352 507.916 94.04 507.916 97.652C507.916 102.062 506.698 105.443 504.262 107.795C502.372 109.643 499.852 110.567 496.702 110.567C494.014 110.567 491.809 109.832 490.087 108.362V102.44C491.851 104.246 493.825 105.149 496.009 105.149C497.689 105.149 499.054 104.666 500.104 103.7C501.406 102.482 502.057 100.508 502.057 97.778C502.057 95.132 501.427 93.242 500.167 92.108C499.117 91.142 497.416 90.659 495.064 90.659H493.741V85.871ZM514.75 67.979H532.768V105.212H536.107V118.19H530.941V110H514.246V118.19H509.08V105.212C510.634 104.414 511.852 103.322 512.734 101.936C514.078 99.836 514.75 95.972 514.75 90.344V67.979ZM520.042 72.767V88.454C520.042 93.956 519.706 97.82 519.034 100.046C518.404 102.104 517.291 103.826 515.695 105.212H527.098V72.767H520.042ZM559.754 89.021C559.754 91.793 559.691 94.145 559.565 96.077C559.439 97.967 559.04 100.13 558.368 102.566C557.738 104.96 556.814 106.766 555.596 107.984C553.874 109.706 551.627 110.567 548.855 110.567C546.041 110.567 543.773 109.706 542.051 107.984C539.279 105.17 537.893 98.891 537.893 89.147C537.893 87.089 537.914 85.346 537.956 83.918C538.04 82.448 538.208 80.747 538.46 78.815C538.712 76.883 539.132 75.182 539.72 73.712C540.35 72.2 541.127 70.982 542.051 70.058C543.773 68.336 546.041 67.475 548.855 67.475C551.627 67.475 553.874 68.336 555.596 70.058C557.318 71.78 558.431 74.279 558.935 77.555C559.481 80.831 559.754 84.653 559.754 89.021ZM543.815 90.029C543.815 98.009 544.592 102.776 546.146 104.33C546.818 105.002 547.721 105.338 548.855 105.338C549.947 105.338 550.829 105.002 551.501 104.33C553.055 102.776 553.832 98.009 553.832 90.029V86.879C553.832 79.487 553.055 75.056 551.501 73.586C550.829 72.914 549.947 72.578 548.855 72.578C547.721 72.578 546.818 72.914 546.146 73.586C544.592 75.056 543.815 79.487 543.815 86.879V90.029ZM564.092 67.979H571.526C574.172 67.979 576.23 68.42 577.7 69.302C580.472 70.982 581.858 74.447 581.858 79.697C581.858 84.317 580.64 87.572 578.204 89.462C576.566 90.722 573.752 91.352 569.762 91.352V110H564.092V67.979ZM569.762 86.501H570.266C572.45 86.501 573.941 85.955 574.739 84.863C575.537 83.771 575.936 82.091 575.936 79.823C575.936 75.119 574.13 72.767 570.518 72.767H569.762V86.501ZM605.961 89.021C605.961 91.793 605.898 94.145 605.772 96.077C605.646 97.967 605.247 100.13 604.575 102.566C603.945 104.96 603.021 106.766 601.803 107.984C600.081 109.706 597.834 110.567 595.062 110.567C592.248 110.567 589.98 109.706 588.258 107.984C585.486 105.17 584.1 98.891 584.1 89.147C584.1 87.089 584.121 85.346 584.163 83.918C584.247 82.448 584.415 80.747 584.667 78.815C584.919 76.883 585.339 75.182 585.927 73.712C586.557 72.2 587.334 70.982 588.258 70.058C589.98 68.336 592.248 67.475 595.062 67.475C597.834 67.475 600.081 68.336 601.803 70.058C603.525 71.78 604.638 74.279 605.142 77.555C605.688 80.831 605.961 84.653 605.961 89.021ZM590.022 90.029C590.022 98.009 590.799 102.776 592.353 104.33C593.025 105.002 593.928 105.338 595.062 105.338C596.154 105.338 597.036 105.002 597.708 104.33C599.262 102.776 600.039 98.009 600.039 90.029V86.879C600.039 79.487 599.262 75.056 597.708 73.586C597.036 72.914 596.154 72.578 595.062 72.578C593.928 72.578 593.025 72.914 592.353 73.586C590.799 75.056 590.022 79.487 590.022 86.879V90.029ZM610.299 67.979H617.985C623.991 67.979 626.994 71.717 626.994 79.193C626.994 82.175 626.469 84.464 625.419 86.06C624.705 87.194 623.466 88.055 621.702 88.643C623.424 89.273 624.663 90.008 625.419 90.848C626.889 92.402 627.624 94.943 627.624 98.471C627.624 106.157 624.327 110 617.733 110H610.299V67.979ZM615.654 86.501H616.032C618.258 86.501 619.728 85.892 620.442 84.674C621.156 83.414 621.513 81.587 621.513 79.193C621.513 74.783 619.875 72.578 616.599 72.578H615.654V86.501ZM615.654 90.974V105.149C617.292 105.149 618.468 104.981 619.182 104.645C620.904 103.847 621.765 101.726 621.765 98.282C621.765 95.762 621.345 93.914 620.505 92.738C619.707 91.562 618.09 90.974 615.654 90.974ZM639.106 67.979L634.192 81.524L631.294 80.705L634.57 66.656L639.106 67.979ZM641.202 110L648.069 90.533C646.431 90.281 645.045 89.588 643.911 88.454C642.147 86.732 641.265 83.897 641.265 79.949C641.265 75.287 642.357 71.969 644.541 69.995C645.213 69.365 646.011 68.903 646.935 68.609C647.859 68.273 648.615 68.084 649.203 68.042C649.791 68 650.61 67.979 651.66 67.979H659.157V110H653.487V90.848L646.998 110H641.202ZM653.487 72.641H651.975C650.505 72.641 649.371 72.977 648.573 73.649C647.355 74.741 646.746 76.799 646.746 79.823C646.746 82.847 647.397 84.821 648.699 85.745C649.539 86.417 650.841 86.753 652.605 86.753H653.487V72.641Z" fill="white"/>
</svg>
