<svg preserveAspectRatio="none" width="1189" height="207" viewBox="0 0 1189 207" fill="none" xmlns="http://www.w3.org/2000/svg">
<path d="M42.3547 87.384V99.52C39.1974 101.395 35.596 102.332 31.5507 102.332C11.62 102.332 1.6547 86.0027 1.6547 53.344C1.6547 18.416 11.5214 0.951991 31.2547 0.951991C35.1027 0.951991 38.8027 1.93866 42.3547 3.912V15.9C39.296 14.2227 36.4347 13.384 33.7707 13.384C30.9094 13.384 28.3934 14.0253 26.2227 15.308C24.052 16.5907 22.3254 18.4653 21.0427 20.932C19.8587 23.3987 18.872 25.816 18.0827 28.184C17.2934 30.552 16.7507 33.512 16.4547 37.064C16.1587 40.5173 15.9614 43.2307 15.8627 45.204C15.764 47.1773 15.7147 49.644 15.7147 52.604C15.7147 77.0733 21.98 89.308 34.5107 89.308C37.1747 89.308 39.7894 88.6667 42.3547 87.384ZM96.066 101H82.894L79.194 81.76H59.658L55.958 101H43.082L64.542 2.28399H75.05L96.066 101ZM61.582 71.548H77.27C73.3233 49.5453 70.758 32.8707 69.574 21.524C68.5873 31.6867 65.9233 48.3613 61.582 71.548ZM164.642 101H151.766C150.286 78.504 149.447 64.8387 149.25 60.004C149.25 58.524 149.151 56.3533 148.954 53.492C148.757 50.532 148.658 48.312 148.658 46.832C148.559 45.1547 148.51 43.6253 148.51 42.244C148.609 40.8627 148.609 39.3333 148.51 37.656C148.51 35.9787 148.411 34.4493 148.214 33.068C147.326 38.8893 143.133 61.5333 135.634 101H126.754C126.162 98.04 124.978 92.6133 123.202 84.72C121.525 76.728 120.242 70.7093 119.354 66.664C118.565 62.52 117.578 57.2413 116.394 50.828C115.309 44.316 114.421 38.396 113.73 33.068L109.882 101H97.45L105.59 2.28399H116.986L125.57 42.54C125.669 43.3293 125.915 44.5133 126.31 46.092C126.803 47.6707 127.099 48.8547 127.198 49.644C128.481 56.748 129.714 64.74 130.898 73.62C130.898 73.4227 131.638 68.7853 133.118 59.708C133.315 58.524 133.562 56.748 133.858 54.38C134.253 51.9133 134.549 50.088 134.746 48.904C134.943 48.1147 135.19 46.98 135.486 45.5C135.881 43.9213 136.127 42.7373 136.226 41.948L143.922 2.28399H155.466L164.642 101ZM221.904 51.716C221.904 58.228 221.756 63.7533 221.46 68.292C221.164 72.732 220.227 77.8133 218.648 83.536C217.168 89.16 214.997 93.4027 212.136 96.264C208.091 100.309 202.812 102.332 196.3 102.332C189.689 102.332 184.361 100.309 180.316 96.264C173.804 89.6533 170.548 74.9027 170.548 52.012C170.548 47.1773 170.597 43.0827 170.696 39.728C170.893 36.2747 171.288 32.2787 171.88 27.74C172.472 23.2013 173.459 19.2053 174.84 15.752C176.32 12.2 178.145 9.33866 180.316 7.168C184.361 3.12267 189.689 1.1 196.3 1.1C202.812 1.1 208.091 3.12267 212.136 7.168C216.181 11.2133 218.796 17.084 219.98 24.78C221.263 32.476 221.904 41.4547 221.904 51.716ZM184.46 54.084C184.46 72.8307 186.285 84.0293 189.936 87.68C191.515 89.2587 193.636 90.048 196.3 90.048C198.865 90.048 200.937 89.2587 202.516 87.68C206.167 84.0293 207.992 72.8307 207.992 54.084V46.684C207.992 29.3187 206.167 18.9093 202.516 15.456C200.937 13.8773 198.865 13.088 196.3 13.088C193.636 13.088 191.515 13.8773 189.936 15.456C186.285 18.9093 184.46 29.3187 184.46 46.684V54.084ZM239.346 2.28399H281.97V101H268.65V13.532H251.926V63.852C251.926 72.9293 251.63 79.1453 251.038 82.5C249.854 89.308 247.832 94.192 244.97 97.152C241.813 100.408 237.718 102.036 232.686 102.036C229.726 102.036 227.21 101.592 225.138 100.704V87.236C226.52 88.716 228.345 89.456 230.614 89.456C232.588 89.456 234.216 88.8147 235.498 87.532C237.176 85.8547 238.212 83.2893 238.606 79.836C239.1 76.3827 239.346 71.4987 239.346 65.184V2.28399ZM307.493 101H294.173V2.28399H307.493V101ZM366.598 101H351.65L333.15 52.604V101H319.83V2.28399H333.15V47.572L351.65 2.28399H365.118L345.138 50.088L366.598 101ZM365.573 2.28399H379.485L385.553 25.52C388.414 36.8667 390.387 45.5 391.473 51.42C393.347 41.356 395.222 32.624 397.097 25.224L403.017 2.28399H416.337L389.253 101H376.229L385.257 69.476L365.573 2.28399ZM422.164 2.28399H440.22C454.33 2.28399 461.384 11.0653 461.384 28.628C461.384 35.6333 460.151 41.0107 457.684 44.76C456.007 47.424 453.096 49.4467 448.952 50.828C452.998 52.308 455.908 54.0347 457.684 56.008C461.138 59.6587 462.864 65.628 462.864 73.916C462.864 91.972 455.119 101 439.628 101H422.164V2.28399ZM434.744 45.796H435.632C440.862 45.796 444.315 44.3653 445.992 41.504C447.67 38.544 448.508 34.252 448.508 28.628C448.508 18.268 444.66 13.088 436.964 13.088H434.744V45.796ZM434.744 56.304V89.604C438.592 89.604 441.355 89.2093 443.032 88.42C447.078 86.5453 449.1 81.5627 449.1 73.472C449.1 67.552 448.114 63.2107 446.14 60.448C444.266 57.6853 440.467 56.304 434.744 56.304ZM518.698 101H505.526L501.826 81.76H482.29L478.59 101H465.714L487.174 2.28399H497.682L518.698 101ZM484.214 71.548H499.902C495.956 49.5453 493.39 32.8707 492.206 21.524C491.22 31.6867 488.556 48.3613 484.214 71.548ZM569.663 101H556.343V52.16H536.807V101H523.487V2.28399H536.807V40.912H556.343V2.28399H569.663V101ZM627.984 101H614.664V52.16H595.128V101H581.808V2.28399H595.128V40.912H614.664V2.28399H627.984V101ZM635.541 101L651.673 55.268C647.825 54.676 644.569 53.048 641.905 50.384C637.761 46.3387 635.689 39.6787 635.689 30.404C635.689 19.452 638.254 11.6573 643.385 7.01999C644.964 5.53999 646.838 4.45466 649.009 3.764C651.18 2.97466 652.956 2.53066 654.337 2.432C655.718 2.33333 657.642 2.28399 660.109 2.28399H677.721V101H664.401V56.008L649.157 101H635.541ZM664.401 13.236H660.849C657.396 13.236 654.732 14.0253 652.857 15.604C649.996 18.1693 648.565 23.004 648.565 30.108C648.565 37.212 650.094 41.8493 653.153 44.02C655.126 45.5987 658.185 46.388 662.329 46.388H664.401V13.236ZM785.294 101H772.418C770.938 78.504 770.099 64.8387 769.902 60.004C769.902 58.524 769.803 56.3533 769.606 53.492C769.409 50.532 769.31 48.312 769.31 46.832C769.211 45.1547 769.162 43.6253 769.162 42.244C769.261 40.8627 769.261 39.3333 769.162 37.656C769.162 35.9787 769.063 34.4493 768.866 33.068C767.978 38.8893 763.785 61.5333 756.286 101H747.406C746.814 98.04 745.63 92.6133 743.854 84.72C742.177 76.728 740.894 70.7093 740.006 66.664C739.217 62.52 738.23 57.2413 737.046 50.828C735.961 44.316 735.073 38.396 734.382 33.068L730.534 101H718.102L726.242 2.28399H737.638L746.222 42.54C746.321 43.3293 746.567 44.5133 746.962 46.092C747.455 47.6707 747.751 48.8547 747.85 49.644C749.133 56.748 750.366 64.74 751.55 73.62C751.55 73.4227 752.29 68.7853 753.77 59.708C753.967 58.524 754.214 56.748 754.51 54.38C754.905 51.9133 755.201 50.088 755.398 48.904C755.595 48.1147 755.842 46.98 756.138 45.5C756.533 43.9213 756.779 42.7373 756.878 41.948L764.574 2.28399H776.118L785.294 101ZM842.556 51.716C842.556 58.228 842.408 63.7533 842.112 68.292C841.816 72.732 840.879 77.8133 839.3 83.536C837.82 89.16 835.649 93.4027 832.788 96.264C828.743 100.309 823.464 102.332 816.952 102.332C810.341 102.332 805.013 100.309 800.968 96.264C794.456 89.6533 791.2 74.9027 791.2 52.012C791.2 47.1773 791.249 43.0827 791.348 39.728C791.545 36.2747 791.94 32.2787 792.532 27.74C793.124 23.2013 794.111 19.2053 795.492 15.752C796.972 12.2 798.797 9.33866 800.968 7.168C805.013 3.12267 810.341 1.1 816.952 1.1C823.464 1.1 828.743 3.12267 832.788 7.168C836.833 11.2133 839.448 17.084 840.632 24.78C841.915 32.476 842.556 41.4547 842.556 51.716ZM805.112 54.084C805.112 72.8307 806.937 84.0293 810.588 87.68C812.167 89.2587 814.288 90.048 816.952 90.048C819.517 90.048 821.589 89.2587 823.168 87.68C826.819 84.0293 828.644 72.8307 828.644 54.084V46.684C828.644 29.3187 826.819 18.9093 823.168 15.456C821.589 13.8773 819.517 13.088 816.952 13.088C814.288 13.088 812.167 13.8773 810.588 15.456C806.937 18.9093 805.112 29.3187 805.112 46.684V54.084ZM918.658 101H904.894L887.726 52.308V101H874.702V52.308L857.534 101H843.77L863.306 50.088L844.658 2.28399H857.534L874.702 47.868V2.28399H887.726V47.868L904.894 2.28399H917.77L899.122 50.088L918.658 101ZM959.303 101H923.931V2.28399H959.303V13.532H937.251V44.908H956.787V56.156H937.251V89.752H959.303V101ZM1000.1 2.28399H1036.36V13.532H1013.42V44.612H1015.64C1024.33 44.612 1030.79 46.7827 1035.03 51.124C1039.47 55.6627 1041.69 63.112 1041.69 73.472C1041.69 83.6347 1039.52 90.8867 1035.18 95.228C1031.33 99.076 1025.76 101 1018.46 101H1000.1V2.28399ZM1013.42 55.86V89.752H1014.31C1019.05 89.752 1022.4 88.8147 1024.38 86.94C1026.74 84.6707 1027.93 80.132 1027.93 73.324C1027.93 66.1213 1026.6 61.2867 1023.93 58.82C1021.66 56.8467 1018.41 55.86 1014.16 55.86H1013.42ZM1039.92 2.28399H1053.83L1059.9 25.52C1062.76 36.8667 1064.74 45.5 1065.82 51.42C1067.7 41.356 1069.57 32.624 1071.45 25.224L1077.37 2.28399H1090.69L1063.6 101H1050.58L1059.61 69.476L1039.92 2.28399ZM1136.51 13.976H1121.41V101H1108.39V13.976H1093.29V2.28399H1136.51V13.976ZM1140.81 101V2.28399H1153.84V42.688C1153.84 54.1333 1152.9 65.7267 1151.03 77.468C1152.11 73.916 1153.49 69.1307 1155.17 63.112C1156.85 56.9947 1158.38 51.864 1159.76 47.72L1174.56 2.28399H1186.4V101H1173.37V57.044C1173.37 50.7293 1174.26 40.024 1176.04 24.928C1171.2 42.2933 1168.69 51.2227 1168.49 51.716L1152.65 101H1140.81ZM0.982649 116.173H10.9869V183.36H24.8563V116.173H34.8605V183.36H48.73V116.173H58.7342V192H0.982649V116.173ZM104.021 192H92.5384L78.3279 154.825V192H68.0963V116.173H78.3279V150.96L92.5384 116.173H102.884L87.5363 152.893L104.021 192ZM118.353 192H108.121V116.173H118.353V192ZM132.718 116.173H165.231V183.36H171.257V206.779H161.935V192H131.808V206.779H122.486V183.36C125.29 181.92 127.488 179.949 129.08 177.448C131.505 173.659 132.718 166.686 132.718 156.531V116.173ZM142.267 124.813V153.12C142.267 163.048 141.661 170.021 140.448 174.038C139.311 177.752 137.303 180.859 134.423 183.36H155V124.813H142.267ZM185.193 116.173H217.934V192H207.702V124.813H194.856V163.465C194.856 170.438 194.629 175.213 194.174 177.789C193.264 183.019 191.711 186.771 189.513 189.044C187.088 191.545 183.942 192.796 180.077 192.796C177.803 192.796 175.871 192.455 174.279 191.773V181.427C175.34 182.564 176.742 183.133 178.485 183.133C180.001 183.133 181.252 182.64 182.237 181.655C183.525 180.366 184.321 178.396 184.624 175.743C185.003 173.091 185.193 169.339 185.193 164.488V116.173ZM227.307 192V116.173H237.312V147.208C237.312 156 236.592 164.905 235.152 173.924C235.985 171.196 237.046 167.52 238.335 162.897C239.623 158.198 240.798 154.257 241.859 151.074L253.227 116.173H262.322V192H252.318V158.236C252.318 153.385 253 145.162 254.364 133.566C250.651 146.905 248.718 153.764 248.566 154.143L236.402 192H227.307ZM271.662 116.173H285.532C296.369 116.173 301.788 122.918 301.788 136.408C301.788 141.789 300.841 145.92 298.946 148.8C297.658 150.846 295.422 152.4 292.239 153.461C295.346 154.598 297.582 155.924 298.946 157.44C301.599 160.244 302.925 164.829 302.925 171.196C302.925 185.065 296.976 192 285.077 192H271.662V116.173ZM281.325 149.596H282.007C286.024 149.596 288.677 148.497 289.965 146.299C291.254 144.025 291.898 140.728 291.898 136.408C291.898 128.451 288.942 124.472 283.031 124.472H281.325V149.596ZM281.325 157.667V183.246C284.281 183.246 286.403 182.943 287.692 182.337C290.799 180.897 292.353 177.069 292.353 170.855C292.353 166.307 291.595 162.973 290.079 160.851C288.639 158.728 285.721 157.667 281.325 157.667ZM310.799 192V116.173H320.803V147.208C320.803 156 320.083 164.905 318.643 173.924C319.477 171.196 320.538 167.52 321.826 162.897C323.115 158.198 324.289 154.257 325.35 151.074L336.719 116.173H345.814V192H335.809V158.236C335.809 153.385 336.491 145.162 337.856 133.566C334.142 146.905 332.209 153.764 332.058 154.143L319.894 192H310.799ZM404.151 192H394.261C393.124 174.72 392.48 164.223 392.328 160.509C392.328 159.373 392.252 157.705 392.101 155.507C391.949 153.234 391.873 151.528 391.873 150.392C391.798 149.103 391.76 147.928 391.76 146.867C391.835 145.806 391.835 144.632 391.76 143.343C391.76 142.055 391.684 140.88 391.532 139.819C390.85 144.291 387.629 161.684 381.869 192H375.048C374.593 189.726 373.684 185.558 372.32 179.495C371.031 173.356 370.046 168.733 369.364 165.625C368.758 162.442 368 158.387 367.09 153.461C366.257 148.459 365.574 143.912 365.044 139.819L362.088 192H352.539L358.791 116.173H367.545L374.139 147.095C374.214 147.701 374.404 148.611 374.707 149.823C375.086 151.036 375.313 151.945 375.389 152.552C376.374 158.008 377.322 164.147 378.231 170.968C378.231 170.817 378.8 167.255 379.937 160.282C380.088 159.373 380.278 158.008 380.505 156.189C380.808 154.295 381.035 152.893 381.187 151.983C381.339 151.377 381.528 150.505 381.755 149.368C382.059 148.156 382.248 147.246 382.324 146.64L388.235 116.173H397.103L404.151 192ZM439.314 116.173H471.828V183.36H477.853V206.779H468.531V192H438.405V206.779H429.083V183.36C431.887 181.92 434.085 179.949 435.676 177.448C438.102 173.659 439.314 166.686 439.314 156.531V116.173ZM448.864 124.813V153.12C448.864 163.048 448.257 170.021 447.045 174.038C445.908 177.752 443.9 180.859 441.02 183.36H461.596V124.813H448.864ZM491.789 116.173H524.53V192H514.299V124.813H501.453V163.465C501.453 170.438 501.225 175.213 500.77 177.789C499.861 183.019 498.307 186.771 496.109 189.044C493.684 191.545 490.539 192.796 486.674 192.796C484.4 192.796 482.467 192.455 480.876 191.773V181.427C481.937 182.564 483.339 183.133 485.082 183.133C486.598 183.133 487.848 182.64 488.834 181.655C490.122 180.366 490.918 178.396 491.221 175.743C491.6 173.091 491.789 169.339 491.789 164.488V116.173ZM530.38 192L542.771 156.872C539.816 156.417 537.315 155.166 535.268 153.12C532.085 150.013 530.494 144.897 530.494 137.773C530.494 129.36 532.464 123.373 536.405 119.811C537.618 118.674 539.058 117.84 540.725 117.309C542.392 116.703 543.757 116.362 544.818 116.286C545.879 116.211 547.357 116.173 549.251 116.173H562.78V192H552.548V157.44L540.839 192H530.38ZM552.548 124.585H549.82C547.167 124.585 545.121 125.192 543.681 126.404C541.483 128.375 540.384 132.088 540.384 137.545C540.384 143.002 541.559 146.564 543.908 148.232C545.424 149.444 547.774 150.051 550.957 150.051H552.548V124.585ZM596.413 116.173H610.282C621.12 116.173 626.539 122.918 626.539 136.408C626.539 141.789 625.592 145.92 623.697 148.8C622.408 150.846 620.173 152.4 616.989 153.461C620.097 154.598 622.333 155.924 623.697 157.44C626.349 160.244 627.676 164.829 627.676 171.196C627.676 185.065 621.726 192 609.827 192H596.413V116.173ZM606.076 149.596H606.758C610.775 149.596 613.427 148.497 614.716 146.299C616.004 144.025 616.648 140.728 616.648 136.408C616.648 128.451 613.693 124.472 607.781 124.472H606.076V149.596ZM606.076 157.667V183.246C609.032 183.246 611.154 182.943 612.442 182.337C615.549 180.897 617.103 177.069 617.103 170.855C617.103 166.307 616.345 162.973 614.829 160.851C613.389 158.728 610.472 157.667 606.076 157.667ZM670.564 192H660.446L657.604 177.221H642.598L639.756 192H629.865L646.349 116.173H654.421L670.564 192ZM644.076 169.377H656.126C653.095 152.476 651.124 139.667 650.215 130.952C649.457 138.758 647.41 151.566 644.076 169.377ZM674.242 116.173H684.246V183.36H698.116V116.173H708.12V183.36H721.989V116.173H731.993V192H674.242V116.173ZM779.326 154.143C779.326 159.145 779.212 163.389 778.985 166.876C778.758 170.286 778.038 174.189 776.825 178.585C775.688 182.905 774.021 186.164 771.823 188.362C768.716 191.469 764.661 193.023 759.659 193.023C754.581 193.023 750.488 191.469 747.381 188.362C742.379 183.284 739.878 171.954 739.878 154.371C739.878 150.657 739.916 147.512 739.991 144.935C740.143 142.282 740.446 139.213 740.901 135.726C741.356 132.24 742.113 129.171 743.174 126.518C744.311 123.789 745.713 121.592 747.381 119.924C750.488 116.817 754.581 115.263 759.659 115.263C764.661 115.263 768.716 116.817 771.823 119.924C774.93 123.032 776.939 127.541 777.848 133.453C778.833 139.364 779.326 146.261 779.326 154.143ZM750.564 155.962C750.564 170.362 751.966 178.964 754.77 181.768C755.983 182.981 757.612 183.587 759.659 183.587C761.629 183.587 763.221 182.981 764.433 181.768C767.238 178.964 768.64 170.362 768.64 155.962V150.278C768.64 136.939 767.238 128.943 764.433 126.291C763.221 125.078 761.629 124.472 759.659 124.472C757.612 124.472 755.983 125.078 754.77 126.291C751.966 128.943 750.564 136.939 750.564 150.278V155.962ZM814.438 124.813H797.385V192H787.153V116.173H814.438V124.813ZM853.27 154.143C853.27 159.145 853.156 163.389 852.929 166.876C852.701 170.286 851.981 174.189 850.769 178.585C849.632 182.905 847.964 186.164 845.766 188.362C842.659 191.469 838.604 193.023 833.602 193.023C828.524 193.023 824.432 191.469 821.324 188.362C816.322 183.284 813.821 171.954 813.821 154.371C813.821 150.657 813.859 147.512 813.935 144.935C814.086 142.282 814.39 139.213 814.844 135.726C815.299 132.24 816.057 129.171 817.118 126.518C818.255 123.789 819.657 121.592 821.324 119.924C824.432 116.817 828.524 115.263 833.602 115.263C838.604 115.263 842.659 116.817 845.766 119.924C848.874 123.032 850.882 127.541 851.792 133.453C852.777 139.364 853.27 146.261 853.27 154.143ZM824.508 155.962C824.508 170.362 825.91 178.964 828.714 181.768C829.926 182.981 831.556 183.587 833.602 183.587C835.573 183.587 837.164 182.981 838.377 181.768C841.181 178.964 842.583 170.362 842.583 155.962V150.278C842.583 136.939 841.181 128.943 838.377 126.291C837.164 125.078 835.573 124.472 833.602 124.472C831.556 124.472 829.926 125.078 828.714 126.291C825.91 128.943 824.508 136.939 824.508 150.278V155.962ZM890.473 148.459H891.61C895.475 148.459 898.393 147.587 900.363 145.844C902.485 144.025 903.546 141.069 903.546 136.977C903.546 132.733 902.599 129.549 900.704 127.427C899.037 125.608 896.801 124.699 893.997 124.699C890.283 124.699 887.062 126.404 884.334 129.815V119.242C887.669 116.589 891.572 115.263 896.043 115.263C901.197 115.263 905.252 116.665 908.208 119.469C911.921 123.032 913.778 128.413 913.778 135.613C913.778 141.448 912.414 145.806 909.685 148.686C908.094 150.354 906.313 151.415 904.342 151.869C906.768 152.248 909.003 153.347 911.05 155.166C914.384 158.349 916.052 163.2 916.052 169.718C916.052 177.676 913.854 183.777 909.458 188.021C906.048 191.356 901.5 193.023 895.816 193.023C890.965 193.023 886.986 191.697 883.879 189.044V178.358C887.062 181.617 890.624 183.246 894.565 183.246C897.597 183.246 900.06 182.375 901.955 180.632C904.304 178.434 905.479 174.872 905.479 169.945C905.479 165.171 904.342 161.76 902.069 159.714C900.174 157.971 897.104 157.099 892.86 157.099H890.473V148.459ZM928.383 116.173H960.897V183.36H966.922V206.779H957.6V192H927.473V206.779H918.151V183.36C920.956 181.92 923.153 179.949 924.745 177.448C927.17 173.659 928.383 166.686 928.383 156.531V116.173ZM937.932 124.813V153.12C937.932 163.048 937.326 170.021 936.113 174.038C934.977 177.752 932.968 180.859 930.088 183.36H950.665V124.813H937.932ZM1009.59 154.143C1009.59 159.145 1009.48 163.389 1009.25 166.876C1009.03 170.286 1008.31 174.189 1007.09 178.585C1005.96 182.905 1004.29 186.164 1002.09 188.362C998.984 191.469 994.929 193.023 989.927 193.023C984.849 193.023 980.756 191.469 977.649 188.362C972.647 183.284 970.146 171.954 970.146 154.371C970.146 150.657 970.184 147.512 970.26 144.935C970.411 142.282 970.714 139.213 971.169 135.726C971.624 132.24 972.382 129.171 973.443 126.518C974.58 123.789 975.982 121.592 977.649 119.924C980.756 116.817 984.849 115.263 989.927 115.263C994.929 115.263 998.984 116.817 1002.09 119.924C1005.2 123.032 1007.21 127.541 1008.12 133.453C1009.1 139.364 1009.59 146.261 1009.59 154.143ZM980.832 155.962C980.832 170.362 982.234 178.964 985.039 181.768C986.251 182.981 987.881 183.587 989.927 183.587C991.897 183.587 993.489 182.981 994.702 181.768C997.506 178.964 998.908 170.362 998.908 155.962V150.278C998.908 136.939 997.506 128.943 994.702 126.291C993.489 125.078 991.897 124.472 989.927 124.472C987.881 124.472 986.251 125.078 985.039 126.291C982.234 128.943 980.832 136.939 980.832 150.278V155.962ZM1017.42 116.173H1030.84C1035.61 116.173 1039.32 116.968 1041.98 118.56C1046.98 121.592 1049.48 127.844 1049.48 137.318C1049.48 145.655 1047.28 151.528 1042.89 154.939C1039.93 157.213 1034.85 158.349 1027.65 158.349V192H1017.42V116.173ZM1027.65 149.596H1028.56C1032.5 149.596 1035.19 148.611 1036.63 146.64C1038.07 144.669 1038.79 141.638 1038.79 137.545C1038.79 129.057 1035.54 124.813 1029.02 124.813H1027.65V149.596ZM1092.97 154.143C1092.97 159.145 1092.86 163.389 1092.63 166.876C1092.41 170.286 1091.69 174.189 1090.47 178.585C1089.34 182.905 1087.67 186.164 1085.47 188.362C1082.36 191.469 1078.31 193.023 1073.31 193.023C1068.23 193.023 1064.14 191.469 1061.03 188.362C1056.03 183.284 1053.53 171.954 1053.53 154.371C1053.53 150.657 1053.56 147.512 1053.64 144.935C1053.79 142.282 1054.09 139.213 1054.55 135.726C1055 132.24 1055.76 129.171 1056.82 126.518C1057.96 123.789 1059.36 121.592 1061.03 119.924C1064.14 116.817 1068.23 115.263 1073.31 115.263C1078.31 115.263 1082.36 116.817 1085.47 119.924C1088.58 123.032 1090.59 127.541 1091.5 133.453C1092.48 139.364 1092.97 146.261 1092.97 154.143ZM1064.21 155.962C1064.21 170.362 1065.61 178.964 1068.42 181.768C1069.63 182.981 1071.26 183.587 1073.31 183.587C1075.28 183.587 1076.87 182.981 1078.08 181.768C1080.89 178.964 1082.29 170.362 1082.29 155.962V150.278C1082.29 136.939 1080.89 128.943 1078.08 126.291C1076.87 125.078 1075.28 124.472 1073.31 124.472C1071.26 124.472 1069.63 125.078 1068.42 126.291C1065.61 128.943 1064.21 136.939 1064.21 150.278V155.962ZM1100.8 116.173H1114.67C1125.51 116.173 1130.93 122.918 1130.93 136.408C1130.93 141.789 1129.98 145.92 1128.09 148.8C1126.8 150.846 1124.56 152.4 1121.38 153.461C1124.49 154.598 1126.72 155.924 1128.09 157.44C1130.74 160.244 1132.06 164.829 1132.06 171.196C1132.06 185.065 1126.12 192 1114.22 192H1100.8V116.173ZM1110.46 149.596H1111.15C1115.16 149.596 1117.82 148.497 1119.1 146.299C1120.39 144.025 1121.04 140.728 1121.04 136.408C1121.04 128.451 1118.08 124.472 1112.17 124.472H1110.46V149.596ZM1110.46 157.667V183.246C1113.42 183.246 1115.54 182.943 1116.83 182.337C1119.94 180.897 1121.49 177.069 1121.49 170.855C1121.49 166.307 1120.73 162.973 1119.22 160.851C1117.78 158.728 1114.86 157.667 1110.46 157.667ZM1152.78 116.173L1143.92 140.615L1138.69 139.137L1144.6 113.785L1152.78 116.173ZM1156.57 192L1168.96 156.872C1166 156.417 1163.5 155.166 1161.46 153.12C1158.27 150.013 1156.68 144.897 1156.68 137.773C1156.68 129.36 1158.65 123.373 1162.59 119.811C1163.8 118.674 1165.24 117.84 1166.91 117.309C1168.58 116.703 1169.94 116.362 1171 116.286C1172.07 116.211 1173.54 116.173 1175.44 116.173H1188.97V192H1178.74V157.44L1167.03 192H1156.57ZM1178.74 124.585H1176.01C1173.35 124.585 1171.31 125.192 1169.87 126.404C1167.67 128.375 1166.57 132.088 1166.57 137.545C1166.57 143.002 1167.75 146.564 1170.1 148.232C1171.61 149.444 1173.96 150.051 1177.14 150.051H1178.74V124.585Z" fill="white"/>
</svg>
