<svg width="337" height="60" viewBox="0 0 337 60" fill="none" xmlns="http://www.w3.org/2000/svg">
<path d="M12.0882 24.636V28.08C11.1922 28.612 10.1702 28.878 9.02223 28.878C3.36623 28.878 0.53823 24.244 0.53823 14.976C0.53823 5.064 3.33823 0.107998 8.93823 0.107998C10.0302 0.107998 11.0802 0.387998 12.0882 0.947999V4.35C11.2202 3.874 10.4082 3.636 9.65223 3.636C8.84023 3.636 8.12623 3.818 7.51023 4.182C6.89423 4.546 6.40423 5.078 6.04023 5.778C5.70423 6.478 5.42423 7.164 5.20023 7.836C4.97623 8.508 4.82223 9.348 4.73823 10.356C4.65423 11.336 4.59823 12.106 4.57023 12.666C4.54223 13.226 4.52823 13.926 4.52823 14.766C4.52823 21.71 6.30623 25.182 9.86223 25.182C10.6182 25.182 11.3602 25 12.0882 24.636ZM27.3306 28.5H23.5926L22.5426 23.04H16.9986L15.9486 28.5H12.2946L18.3846 0.485998H21.3666L27.3306 28.5ZM17.5446 20.142H21.9966C20.8766 13.898 20.1486 9.166 19.8126 5.946C19.5326 8.83 18.7766 13.562 17.5446 20.142ZM46.7914 28.5H43.1374C42.7174 22.116 42.4794 18.238 42.4234 16.866C42.4234 16.446 42.3954 15.83 42.3394 15.018C42.2834 14.178 42.2554 13.548 42.2554 13.128C42.2274 12.652 42.2134 12.218 42.2134 11.826C42.2414 11.434 42.2414 11 42.2134 10.524C42.2134 10.048 42.1854 9.614 42.1294 9.222C41.8774 10.874 40.6874 17.3 38.5594 28.5H36.0394C35.8714 27.66 35.5354 26.12 35.0314 23.88C34.5554 21.612 34.1914 19.904 33.9394 18.756C33.7154 17.58 33.4354 16.082 33.0994 14.262C32.7914 12.414 32.5394 10.734 32.3434 9.222L31.2514 28.5H27.7234L30.0334 0.485998H33.2674L35.7034 11.91C35.7314 12.134 35.8014 12.47 35.9134 12.918C36.0534 13.366 36.1374 13.702 36.1654 13.926C36.5294 15.942 36.8794 18.21 37.2154 20.73C37.2154 20.674 37.4254 19.358 37.8454 16.782C37.9014 16.446 37.9714 15.942 38.0554 15.27C38.1674 14.57 38.2514 14.052 38.3074 13.716C38.3634 13.492 38.4334 13.17 38.5174 12.75C38.6294 12.302 38.6994 11.966 38.7274 11.742L40.9114 0.485998H44.1874L46.7914 28.5ZM63.0414 14.514C63.0414 16.362 62.9994 17.93 62.9154 19.218C62.8314 20.478 62.5654 21.92 62.1174 23.544C61.6974 25.14 61.0814 26.344 60.2694 27.156C59.1214 28.304 57.6234 28.878 55.7754 28.878C53.8994 28.878 52.3874 28.304 51.2394 27.156C49.3914 25.28 48.4674 21.094 48.4674 14.598C48.4674 13.226 48.4814 12.064 48.5094 11.112C48.5654 10.132 48.6774 8.998 48.8454 7.71C49.0134 6.422 49.2934 5.288 49.6854 4.308C50.1054 3.3 50.6234 2.488 51.2394 1.872C52.3874 0.724 53.8994 0.149999 55.7754 0.149999C57.6234 0.149999 59.1214 0.724 60.2694 1.872C61.4174 3.02 62.1594 4.686 62.4954 6.87C62.8594 9.054 63.0414 11.602 63.0414 14.514ZM52.4154 15.186C52.4154 20.506 52.9334 23.684 53.9694 24.72C54.4174 25.168 55.0194 25.392 55.7754 25.392C56.5034 25.392 57.0914 25.168 57.5394 24.72C58.5754 23.684 59.0934 20.506 59.0934 15.186V13.086C59.0934 8.158 58.5754 5.204 57.5394 4.224C57.0914 3.776 56.5034 3.552 55.7754 3.552C55.0194 3.552 54.4174 3.776 53.9694 4.224C52.9334 5.204 52.4154 8.158 52.4154 13.086V15.186ZM67.9912 0.485998H80.0872V28.5H76.3072V3.678H71.5612V17.958C71.5612 20.534 71.4772 22.298 71.3092 23.25C70.9732 25.182 70.3992 26.568 69.5872 27.408C68.6912 28.332 67.5292 28.794 66.1012 28.794C65.2612 28.794 64.5472 28.668 63.9592 28.416V24.594C64.3512 25.014 64.8692 25.224 65.5132 25.224C66.0732 25.224 66.5352 25.042 66.8992 24.678C67.3752 24.202 67.6692 23.474 67.7812 22.494C67.9212 21.514 67.9912 20.128 67.9912 18.336V0.485998ZM87.3302 28.5H83.5502V0.485998H87.3302V28.5ZM104.103 28.5H99.8613L94.6113 14.766V28.5H90.8313V0.485998H94.6113V13.338L99.8613 0.485998H103.683L98.0133 14.052L104.103 28.5ZM103.812 0.485998H107.76L109.482 7.08C110.294 10.3 110.854 12.75 111.162 14.43C111.694 11.574 112.226 9.096 112.758 6.996L114.438 0.485998H118.218L110.532 28.5H106.836L109.398 19.554L103.812 0.485998ZM119.872 0.485998H124.996C129 0.485998 131.002 2.978 131.002 7.962C131.002 9.95 130.652 11.476 129.952 12.54C129.476 13.296 128.65 13.87 127.474 14.262C128.622 14.682 129.448 15.172 129.952 15.732C130.932 16.768 131.422 18.462 131.422 20.814C131.422 25.938 129.224 28.5 124.828 28.5H119.872V0.485998ZM123.442 12.834H123.694C125.178 12.834 126.158 12.428 126.634 11.616C127.11 10.776 127.348 9.558 127.348 7.962C127.348 5.022 126.256 3.552 124.072 3.552H123.442V12.834ZM123.442 15.816V25.266C124.534 25.266 125.318 25.154 125.794 24.93C126.942 24.398 127.516 22.984 127.516 20.688C127.516 19.008 127.236 17.776 126.676 16.992C126.144 16.208 125.066 15.816 123.442 15.816ZM147.267 28.5H143.529L142.479 23.04H136.935L135.885 28.5H132.231L138.321 0.485998H141.303L147.267 28.5ZM137.481 20.142H141.933C140.813 13.898 140.085 9.166 139.749 5.946C139.469 8.83 138.713 13.562 137.481 20.142ZM161.73 28.5H157.95V14.64H152.406V28.5H148.626V0.485998H152.406V11.448H157.95V0.485998H161.73V28.5ZM178.28 28.5H174.5V14.64H168.956V28.5H165.176V0.485998H168.956V11.448H174.5V0.485998H178.28V28.5ZM180.425 28.5L185.003 15.522C183.911 15.354 182.987 14.892 182.231 14.136C181.055 12.988 180.467 11.098 180.467 8.466C180.467 5.358 181.195 3.146 182.651 1.83C183.099 1.41 183.631 1.102 184.247 0.906C184.863 0.681999 185.367 0.555999 185.759 0.528C186.151 0.499998 186.697 0.485998 187.397 0.485998H192.395V28.5H188.615V15.732L184.289 28.5H180.425ZM188.615 3.594H187.607C186.627 3.594 185.871 3.818 185.339 4.266C184.527 4.994 184.121 6.366 184.121 8.382C184.121 10.398 184.555 11.714 185.423 12.33C185.983 12.778 186.851 13.002 188.027 13.002H188.615V3.594ZM222.922 28.5H219.268C218.848 22.116 218.61 18.238 218.554 16.866C218.554 16.446 218.526 15.83 218.47 15.018C218.414 14.178 218.386 13.548 218.386 13.128C218.358 12.652 218.344 12.218 218.344 11.826C218.372 11.434 218.372 11 218.344 10.524C218.344 10.048 218.316 9.614 218.26 9.222C218.008 10.874 216.818 17.3 214.69 28.5H212.17C212.002 27.66 211.666 26.12 211.162 23.88C210.686 21.612 210.322 19.904 210.07 18.756C209.846 17.58 209.566 16.082 209.23 14.262C208.922 12.414 208.67 10.734 208.474 9.222L207.382 28.5H203.854L206.164 0.485998H209.398L211.834 11.91C211.862 12.134 211.932 12.47 212.044 12.918C212.184 13.366 212.268 13.702 212.296 13.926C212.66 15.942 213.01 18.21 213.346 20.73C213.346 20.674 213.556 19.358 213.976 16.782C214.032 16.446 214.102 15.942 214.186 15.27C214.298 14.57 214.382 14.052 214.438 13.716C214.494 13.492 214.564 13.17 214.648 12.75C214.76 12.302 214.83 11.966 214.858 11.742L217.042 0.485998H220.318L222.922 28.5ZM239.172 14.514C239.172 16.362 239.13 17.93 239.046 19.218C238.962 20.478 238.696 21.92 238.248 23.544C237.828 25.14 237.212 26.344 236.4 27.156C235.252 28.304 233.754 28.878 231.906 28.878C230.03 28.878 228.518 28.304 227.37 27.156C225.522 25.28 224.598 21.094 224.598 14.598C224.598 13.226 224.612 12.064 224.64 11.112C224.696 10.132 224.808 8.998 224.976 7.71C225.144 6.422 225.424 5.288 225.816 4.308C226.236 3.3 226.754 2.488 227.37 1.872C228.518 0.724 230.03 0.149999 231.906 0.149999C233.754 0.149999 235.252 0.724 236.4 1.872C237.548 3.02 238.29 4.686 238.626 6.87C238.99 9.054 239.172 11.602 239.172 14.514ZM228.546 15.186C228.546 20.506 229.064 23.684 230.1 24.72C230.548 25.168 231.15 25.392 231.906 25.392C232.634 25.392 233.222 25.168 233.67 24.72C234.706 23.684 235.224 20.506 235.224 15.186V13.086C235.224 8.158 234.706 5.204 233.67 4.224C233.222 3.776 232.634 3.552 231.906 3.552C231.15 3.552 230.548 3.776 230.1 4.224C229.064 5.204 228.546 8.158 228.546 13.086V15.186ZM260.769 28.5H256.863L251.991 14.682V28.5H248.295V14.682L243.423 28.5H239.517L245.061 14.052L239.769 0.485998H243.423L248.295 13.422V0.485998H251.991V13.422L256.863 0.485998H260.517L255.225 14.052L260.769 28.5ZM272.303 28.5H262.265V0.485998H272.303V3.678H266.045V12.582H271.589V15.774H266.045V25.308H272.303V28.5ZM283.882 0.485998H294.172V3.678H287.662V12.498H288.292C290.756 12.498 292.59 13.114 293.794 14.346C295.054 15.634 295.684 17.748 295.684 20.688C295.684 23.572 295.068 25.63 293.836 26.862C292.744 27.954 291.162 28.5 289.09 28.5H283.882V0.485998ZM287.662 15.69V25.308H287.914C289.258 25.308 290.21 25.042 290.77 24.51C291.442 23.866 291.778 22.578 291.778 20.646C291.778 18.602 291.4 17.23 290.644 16.53C290 15.97 289.076 15.69 287.872 15.69H287.662ZM295.181 0.485998H299.129L300.851 7.08C301.663 10.3 302.223 12.75 302.531 14.43C303.063 11.574 303.595 9.096 304.127 6.996L305.807 0.485998H309.587L301.901 28.5H298.205L300.767 19.554L295.181 0.485998ZM322.592 3.804H318.308V28.5H314.612V3.804H310.328V0.485998H322.592V3.804ZM323.813 28.5V0.485998H327.509V11.952C327.509 15.2 327.243 18.49 326.711 21.822C327.019 20.814 327.411 19.456 327.887 17.748C328.363 16.012 328.797 14.556 329.189 13.38L333.389 0.485998H336.749V28.5H333.053V16.026C333.053 14.234 333.305 11.196 333.809 6.912C332.437 11.84 331.723 14.374 331.667 14.514L327.173 28.5H323.813ZM1.29513 34.156H4.11113V53.068H8.01513V34.156H10.8311V53.068H14.7351V34.156H17.5511V55.5H1.29513V34.156ZM30.2984 55.5H27.0664L23.0664 45.036V55.5H20.1864V34.156H23.0664V43.948L27.0664 34.156H29.9784L25.6584 44.492L30.2984 55.5ZM34.3326 55.5H31.4526V34.156H34.3326V55.5ZM38.3761 34.156H47.5281V53.068H49.2241V59.66H46.6001V55.5H38.1201V59.66H35.4961V53.068C36.2855 52.6627 36.9041 52.108 37.3521 51.404C38.0348 50.3373 38.3761 48.3747 38.3761 45.516V34.156ZM41.0641 36.588V44.556C41.0641 47.3507 40.8935 49.3133 40.5521 50.444C40.2321 51.4893 39.6668 52.364 38.8561 53.068H44.6481V36.588H41.0641ZM53.1469 34.156H62.3629V55.5H59.4829V36.588H55.8669V47.468C55.8669 49.4307 55.8029 50.7747 55.6749 51.5C55.4189 52.972 54.9815 54.028 54.3629 54.668C53.6802 55.372 52.7949 55.724 51.7069 55.724C51.0669 55.724 50.5229 55.628 50.0749 55.436V52.524C50.3735 52.844 50.7682 53.004 51.2589 53.004C51.6855 53.004 52.0375 52.8653 52.3149 52.588C52.6775 52.2253 52.9015 51.6707 52.9869 50.924C53.0935 50.1773 53.1469 49.1213 53.1469 47.756V34.156ZM65.0014 55.5V34.156H67.8174V42.892C67.8174 45.3667 67.6147 47.8733 67.2094 50.412C67.4441 49.644 67.7427 48.6093 68.1054 47.308C68.4681 45.9853 68.7987 44.876 69.0974 43.98L72.2974 34.156H74.8574V55.5H72.0414V45.996C72.0414 44.6307 72.2334 42.316 72.6174 39.052C71.5721 42.8067 71.0281 44.7373 70.9854 44.844L67.5614 55.5H65.0014ZM77.4864 34.156H81.3904C84.4411 34.156 85.9664 36.0547 85.9664 39.852C85.9664 41.3667 85.6997 42.5293 85.1664 43.34C84.8037 43.916 84.1744 44.3533 83.2784 44.652C84.1531 44.972 84.7824 45.3453 85.1664 45.772C85.9131 46.5613 86.2864 47.852 86.2864 49.644C86.2864 53.548 84.6117 55.5 81.2624 55.5H77.4864V34.156ZM80.2064 43.564H80.3984C81.5291 43.564 82.2757 43.2547 82.6384 42.636C83.0011 41.996 83.1824 41.068 83.1824 39.852C83.1824 37.612 82.3504 36.492 80.6864 36.492H80.2064V43.564ZM80.2064 45.836V53.036C81.0384 53.036 81.6357 52.9507 81.9984 52.78C82.8731 52.3747 83.3104 51.2973 83.3104 49.548C83.3104 48.268 83.0971 47.3293 82.6704 46.732C82.2651 46.1347 81.4437 45.836 80.2064 45.836ZM88.5026 55.5V34.156H91.3186V42.892C91.3186 45.3667 91.116 47.8733 90.7106 50.412C90.9453 49.644 91.244 48.6093 91.6066 47.308C91.9693 45.9853 92.3 44.876 92.5986 43.98L95.7986 34.156H98.3586V55.5H95.5426V45.996C95.5426 44.6307 95.7346 42.316 96.1186 39.052C95.0733 42.8067 94.5293 44.7373 94.4866 44.844L91.0626 55.5H88.5026ZM114.78 55.5H111.996C111.676 50.636 111.494 47.6813 111.452 46.636C111.452 46.316 111.43 45.8467 111.388 45.228C111.345 44.588 111.324 44.108 111.324 43.788C111.302 43.4253 111.292 43.0947 111.292 42.796C111.313 42.4973 111.313 42.1667 111.292 41.804C111.292 41.4413 111.27 41.1107 111.228 40.812C111.036 42.0707 110.129 46.9667 108.508 55.5H106.588C106.46 54.86 106.204 53.6867 105.82 51.98C105.457 50.252 105.18 48.9507 104.988 48.076C104.817 47.18 104.604 46.0387 104.348 44.652C104.113 43.244 103.921 41.964 103.772 40.812L102.94 55.5H100.252L102.012 34.156H104.476L106.332 42.86C106.353 43.0307 106.406 43.2867 106.492 43.628C106.598 43.9693 106.662 44.2253 106.684 44.396C106.961 45.932 107.228 47.66 107.484 49.58C107.484 49.5373 107.644 48.5347 107.964 46.572C108.006 46.316 108.06 45.932 108.124 45.42C108.209 44.8867 108.273 44.492 108.316 44.236C108.358 44.0653 108.412 43.82 108.476 43.5C108.561 43.1587 108.614 42.9027 108.636 42.732L110.3 34.156H112.796L114.78 55.5ZM124.677 34.156H133.829V53.068H135.525V59.66H132.901V55.5H124.421V59.66H121.797V53.068C122.587 52.6627 123.205 52.108 123.653 51.404C124.336 50.3373 124.677 48.3747 124.677 45.516V34.156ZM127.365 36.588V44.556C127.365 47.3507 127.195 49.3133 126.853 50.444C126.533 51.4893 125.968 52.364 125.157 53.068H130.949V36.588H127.365ZM139.448 34.156H148.664V55.5H145.784V36.588H142.168V47.468C142.168 49.4307 142.104 50.7747 141.976 51.5C141.72 52.972 141.283 54.028 140.664 54.668C139.981 55.372 139.096 55.724 138.008 55.724C137.368 55.724 136.824 55.628 136.376 55.436V52.524C136.675 52.844 137.069 53.004 137.56 53.004C137.987 53.004 138.339 52.8653 138.616 52.588C138.979 52.2253 139.203 51.6707 139.288 50.924C139.395 50.1773 139.448 49.1213 139.448 47.756V34.156ZM150.311 55.5L153.799 45.612C152.967 45.484 152.263 45.132 151.687 44.556C150.791 43.6813 150.343 42.2413 150.343 40.236C150.343 37.868 150.897 36.1827 152.007 35.18C152.348 34.86 152.753 34.6253 153.223 34.476C153.692 34.3053 154.076 34.2093 154.375 34.188C154.673 34.1667 155.089 34.156 155.623 34.156H159.431V55.5H156.551V45.772L153.255 55.5H150.311ZM156.551 36.524H155.783C155.036 36.524 154.46 36.6947 154.055 37.036C153.436 37.5907 153.127 38.636 153.127 40.172C153.127 41.708 153.457 42.7107 154.119 43.18C154.545 43.5213 155.207 43.692 156.103 43.692H156.551V36.524ZM168.898 34.156H172.802C175.852 34.156 177.378 36.0547 177.378 39.852C177.378 41.3667 177.111 42.5293 176.578 43.34C176.215 43.916 175.586 44.3533 174.69 44.652C175.564 44.972 176.194 45.3453 176.578 45.772C177.324 46.5613 177.698 47.852 177.698 49.644C177.698 53.548 176.023 55.5 172.674 55.5H168.898V34.156ZM171.618 43.564H171.81C172.94 43.564 173.687 43.2547 174.05 42.636C174.412 41.996 174.594 41.068 174.594 39.852C174.594 37.612 173.762 36.492 172.098 36.492H171.618V43.564ZM171.618 45.836V53.036C172.45 53.036 173.047 52.9507 173.41 52.78C174.284 52.3747 174.722 51.2973 174.722 49.548C174.722 48.268 174.508 47.3293 174.082 46.732C173.676 46.1347 172.855 45.836 171.618 45.836ZM189.77 55.5H186.922L186.122 51.34H181.898L181.098 55.5H178.314L182.954 34.156H185.226L189.77 55.5ZM182.314 49.132H185.706C184.853 44.3747 184.298 40.7693 184.042 38.316C183.829 40.5133 183.253 44.1187 182.314 49.132ZM190.805 34.156H193.621V53.068H197.525V34.156H200.341V53.068H204.245V34.156H207.061V55.5H190.805V34.156ZM220.384 44.844C220.384 46.252 220.352 47.4467 220.288 48.428C220.224 49.388 220.022 50.4867 219.68 51.724C219.36 52.94 218.891 53.8573 218.272 54.476C217.398 55.3507 216.256 55.788 214.848 55.788C213.419 55.788 212.267 55.3507 211.392 54.476C209.984 53.0467 209.28 49.8573 209.28 44.908C209.28 43.8627 209.291 42.9773 209.312 42.252C209.355 41.5053 209.44 40.6413 209.568 39.66C209.696 38.6787 209.91 37.8147 210.208 37.068C210.528 36.3 210.923 35.6813 211.392 35.212C212.267 34.3373 213.419 33.9 214.848 33.9C216.256 33.9 217.398 34.3373 218.272 35.212C219.147 36.0867 219.712 37.356 219.968 39.02C220.246 40.684 220.384 42.6253 220.384 44.844ZM212.288 45.356C212.288 49.4093 212.683 51.8307 213.472 52.62C213.814 52.9613 214.272 53.132 214.848 53.132C215.403 53.132 215.851 52.9613 216.192 52.62C216.982 51.8307 217.376 49.4093 217.376 45.356V43.756C217.376 40.0013 216.982 37.7507 216.192 37.004C215.851 36.6627 215.403 36.492 214.848 36.492C214.272 36.492 213.814 36.6627 213.472 37.004C212.683 37.7507 212.288 40.0013 212.288 43.756V45.356ZM230.268 36.588H225.468V55.5H222.588V34.156H230.268V36.588ZM241.198 44.844C241.198 46.252 241.166 47.4467 241.102 48.428C241.038 49.388 240.835 50.4867 240.494 51.724C240.174 52.94 239.705 53.8573 239.086 54.476C238.211 55.3507 237.07 55.788 235.662 55.788C234.233 55.788 233.081 55.3507 232.206 54.476C230.798 53.0467 230.094 49.8573 230.094 44.908C230.094 43.8627 230.105 42.9773 230.126 42.252C230.169 41.5053 230.254 40.6413 230.382 39.66C230.51 38.6787 230.723 37.8147 231.022 37.068C231.342 36.3 231.737 35.6813 232.206 35.212C233.081 34.3373 234.233 33.9 235.662 33.9C237.07 33.9 238.211 34.3373 239.086 35.212C239.961 36.0867 240.526 37.356 240.782 39.02C241.059 40.684 241.198 42.6253 241.198 44.844ZM233.102 45.356C233.102 49.4093 233.497 51.8307 234.286 52.62C234.627 52.9613 235.086 53.132 235.662 53.132C236.217 53.132 236.665 52.9613 237.006 52.62C237.795 51.8307 238.19 49.4093 238.19 45.356V43.756C238.19 40.0013 237.795 37.7507 237.006 37.004C236.665 36.6627 236.217 36.492 235.662 36.492C235.086 36.492 234.627 36.6627 234.286 37.004C233.497 37.7507 233.102 40.0013 233.102 43.756V45.356ZM251.67 43.244H251.99C253.078 43.244 253.899 42.9987 254.454 42.508C255.051 41.996 255.35 41.164 255.35 40.012C255.35 38.8173 255.083 37.9213 254.55 37.324C254.081 36.812 253.451 36.556 252.662 36.556C251.617 36.556 250.71 37.036 249.942 37.996V35.02C250.881 34.2733 251.979 33.9 253.238 33.9C254.689 33.9 255.83 34.2947 256.662 35.084C257.707 36.0867 258.23 37.6013 258.23 39.628C258.23 41.2707 257.846 42.4973 257.078 43.308C256.63 43.7773 256.129 44.076 255.574 44.204C256.257 44.3107 256.886 44.62 257.462 45.132C258.401 46.028 258.87 47.3933 258.87 49.228C258.87 51.468 258.251 53.1853 257.014 54.38C256.054 55.3187 254.774 55.788 253.174 55.788C251.809 55.788 250.689 55.4147 249.814 54.668V51.66C250.71 52.5773 251.713 53.036 252.822 53.036C253.675 53.036 254.369 52.7907 254.902 52.3C255.563 51.6813 255.894 50.6787 255.894 49.292C255.894 47.948 255.574 46.988 254.934 46.412C254.401 45.9213 253.537 45.676 252.342 45.676H251.67V43.244ZM262.341 34.156H271.493V53.068H273.189V59.66H270.565V55.5H262.085V59.66H259.461V53.068C260.25 52.6627 260.869 52.108 261.317 51.404C262 50.3373 262.341 48.3747 262.341 45.516V34.156ZM265.029 36.588V44.556C265.029 47.3507 264.858 49.3133 264.517 50.444C264.197 51.4893 263.632 52.364 262.821 53.068H268.613V36.588H265.029ZM285.201 44.844C285.201 46.252 285.169 47.4467 285.105 48.428C285.041 49.388 284.838 50.4867 284.497 51.724C284.177 52.94 283.707 53.8573 283.089 54.476C282.214 55.3507 281.073 55.788 279.665 55.788C278.235 55.788 277.083 55.3507 276.209 54.476C274.801 53.0467 274.097 49.8573 274.097 44.908C274.097 43.8627 274.107 42.9773 274.129 42.252C274.171 41.5053 274.257 40.6413 274.385 39.66C274.513 38.6787 274.726 37.8147 275.025 37.068C275.345 36.3 275.739 35.6813 276.209 35.212C277.083 34.3373 278.235 33.9 279.665 33.9C281.073 33.9 282.214 34.3373 283.089 35.212C283.963 36.0867 284.529 37.356 284.785 39.02C285.062 40.684 285.201 42.6253 285.201 44.844ZM277.105 45.356C277.105 49.4093 277.499 51.8307 278.289 52.62C278.63 52.9613 279.089 53.132 279.665 53.132C280.219 53.132 280.667 52.9613 281.009 52.62C281.798 51.8307 282.193 49.4093 282.193 45.356V43.756C282.193 40.0013 281.798 37.7507 281.009 37.004C280.667 36.6627 280.219 36.492 279.665 36.492C279.089 36.492 278.63 36.6627 278.289 37.004C277.499 37.7507 277.105 40.0013 277.105 43.756V45.356ZM287.404 34.156H291.18C292.524 34.156 293.569 34.38 294.316 34.828C295.724 35.6813 296.428 37.4413 296.428 40.108C296.428 42.4547 295.809 44.108 294.572 45.068C293.74 45.708 292.311 46.028 290.284 46.028V55.5H287.404V34.156ZM290.284 43.564H290.54C291.649 43.564 292.407 43.2867 292.812 42.732C293.217 42.1773 293.42 41.324 293.42 40.172C293.42 37.7827 292.503 36.588 290.668 36.588H290.284V43.564ZM308.671 44.844C308.671 46.252 308.639 47.4467 308.575 48.428C308.511 49.388 308.308 50.4867 307.967 51.724C307.647 52.94 307.177 53.8573 306.559 54.476C305.684 55.3507 304.543 55.788 303.135 55.788C301.705 55.788 300.553 55.3507 299.679 54.476C298.271 53.0467 297.567 49.8573 297.567 44.908C297.567 43.8627 297.577 42.9773 297.599 42.252C297.641 41.5053 297.727 40.6413 297.855 39.66C297.983 38.6787 298.196 37.8147 298.495 37.068C298.815 36.3 299.209 35.6813 299.679 35.212C300.553 34.3373 301.705 33.9 303.135 33.9C304.543 33.9 305.684 34.3373 306.559 35.212C307.433 36.0867 307.999 37.356 308.255 39.02C308.532 40.684 308.671 42.6253 308.671 44.844ZM300.575 45.356C300.575 49.4093 300.969 51.8307 301.759 52.62C302.1 52.9613 302.559 53.132 303.135 53.132C303.689 53.132 304.137 52.9613 304.479 52.62C305.268 51.8307 305.663 49.4093 305.663 45.356V43.756C305.663 40.0013 305.268 37.7507 304.479 37.004C304.137 36.6627 303.689 36.492 303.135 36.492C302.559 36.492 302.1 36.6627 301.759 37.004C300.969 37.7507 300.575 40.0013 300.575 43.756V45.356ZM310.874 34.156H314.778C317.829 34.156 319.354 36.0547 319.354 39.852C319.354 41.3667 319.087 42.5293 318.554 43.34C318.191 43.916 317.562 44.3533 316.666 44.652C317.541 44.972 318.17 45.3453 318.554 45.772C319.301 46.5613 319.674 47.852 319.674 49.644C319.674 53.548 317.999 55.5 314.65 55.5H310.874V34.156ZM313.594 43.564H313.786C314.917 43.564 315.663 43.2547 316.026 42.636C316.389 41.996 316.57 41.068 316.57 39.852C316.57 37.612 315.738 36.492 314.074 36.492H313.594V43.564ZM313.594 45.836V53.036C314.426 53.036 315.023 52.9507 315.386 52.78C316.261 52.3747 316.698 51.2973 316.698 49.548C316.698 48.268 316.485 47.3293 316.058 46.732C315.653 46.1347 314.831 45.836 313.594 45.836ZM325.506 34.156L323.01 41.036L321.538 40.62L323.202 33.484L325.506 34.156ZM326.571 55.5L330.059 45.612C329.227 45.484 328.523 45.132 327.947 44.556C327.051 43.6813 326.603 42.2413 326.603 40.236C326.603 37.868 327.157 36.1827 328.267 35.18C328.608 34.86 329.013 34.6253 329.483 34.476C329.952 34.3053 330.336 34.2093 330.635 34.188C330.933 34.1667 331.349 34.156 331.883 34.156H335.691V55.5H332.811V45.772L329.515 55.5H326.571ZM332.811 36.524H332.043C331.296 36.524 330.72 36.6947 330.315 37.036C329.696 37.5907 329.387 38.636 329.387 40.172C329.387 41.708 329.717 42.7107 330.379 43.18C330.805 43.5213 331.467 43.692 332.363 43.692H332.811V36.524Z" fill="white"/>
</svg>
