<svg width="134" height="44" viewBox="0 0 134 44" fill="none" xmlns="http://www.w3.org/2000/svg">
<path d="M37.8252 1.7C37.8252 0.399997 37.7252 0.299999 36.8252 0.299999V0H42.0253C42.0253 0.2 42.1252 1.1 42.1252 1.7H41.8252C41.7252 1.1 41.6252 0.799998 41.4252 0.599998C41.2252 0.399998 40.8252 0.299999 40.1252 0.299999H39.3252C38.9252 0.299999 38.8252 0.299997 38.8252 0.699997V3.1H40.1252C42.0252 3.1 42.8252 4 42.8252 5.2C42.8252 6.2 42.4252 6.7 41.8252 7.1C41.2252 7.5 40.4253 7.6 39.5253 7.6H36.8252V7.3C37.8252 7.2 37.9252 7.1 37.9252 5.9V1.7H37.8252ZM41.7252 5.4C41.7252 4.1 40.9252 3.6 39.6252 3.6H38.8252V6C38.8252 7.1 39.0252 7.3 39.9252 7.3C40.8252 7.3 41.7252 6.8 41.7252 5.4Z" fill="white"/>
<path d="M49.3253 2.5V2.8C48.5253 2.9 48.5254 2.9 48.5254 3.6V6.6C48.5254 7.3 48.6253 7.3 49.3253 7.4V7.7H46.7253V7.4C47.5253 7.3 47.6254 7.3 47.6254 6.6V3.4C47.6254 3 47.6253 2.9 47.2253 2.9H46.7253C46.2253 2.9 46.2253 3 46.2253 3.4C46.1253 5.8 45.6254 7 45.1254 7.5C44.9254 7.7 44.7254 7.8 44.6254 7.8C44.4254 7.8 44.2254 7.7 44.0254 7.7V7.5C44.6254 7.2 45.0253 6.7 45.3253 6.2C45.5253 5.8 45.8253 4.9 45.8253 3.6C45.8253 3.1 45.8254 3 45.0254 2.9V2.6H49.3253V2.5Z" fill="white"/>
<path d="M55.4252 6.60039C55.4252 7.30039 55.5252 7.30039 56.3252 7.40039V7.70039H53.8252V7.40039C54.5252 7.30039 54.5253 7.30039 54.5253 6.60039V4.00039L52.3252 6.50039C52.2252 6.60039 52.1252 6.70039 52.1252 6.80039V7.10039C52.1252 7.20039 52.2252 7.30039 52.4252 7.30039H52.6252V7.60039H50.3252V7.30039C51.1252 7.20039 51.2252 7.20039 51.2252 6.50039V3.50039C51.2252 2.80039 51.1252 2.80039 50.3252 2.70039V2.40039H52.8252V2.70039C52.1252 2.80039 52.1252 2.80039 52.1252 3.50039V6.10039L54.3252 3.50039C54.4252 3.40039 54.4252 3.30039 54.4252 3.20039V3.10039C54.4252 3.00039 54.3252 2.90039 54.2252 2.90039L54.0253 2.80039V2.50039H56.3252V2.80039C55.5252 2.90039 55.4252 2.90039 55.4252 3.60039V6.60039Z" fill="white"/>
<path d="M62.7256 2.49981V2.7998C62.0256 2.8998 61.9255 2.8998 61.9255 3.5998V4.7998C62.3255 4.7998 62.5256 4.6998 62.8256 4.3998C63.1256 4.1998 63.5256 3.5998 63.7256 3.1998C63.9256 2.8998 64.3256 2.2998 64.8256 2.2998C65.1256 2.2998 65.3256 2.3998 65.3256 2.6998C65.3256 2.8998 65.2255 3.0998 64.9255 3.0998H64.6256C64.1256 3.0998 63.9256 3.49981 63.5256 3.99981C63.3256 4.19981 63.1256 4.4998 62.8256 4.6998C63.1256 4.6998 63.4256 4.8998 63.6256 5.2998C63.8256 5.5998 64.0256 5.7998 64.3256 6.3998C64.7256 7.0998 64.9255 7.1998 65.4255 7.2998V7.5998H64.7256C64.2256 7.5998 63.8256 7.4998 63.5256 6.8998C63.2256 6.3998 62.9256 5.8998 62.8256 5.5998C62.5256 5.0998 62.2256 4.99981 61.8256 4.99981V6.49981C61.8256 7.19981 61.9256 7.1998 62.6256 7.2998V7.5998H60.0256V7.2998C60.8256 7.1998 60.9255 7.19981 60.9255 6.49981V5.0998C60.5255 5.0998 60.1256 5.1998 59.8256 5.6998C59.7256 5.9998 59.4256 6.49981 59.1256 6.99981C58.8256 7.59981 58.4255 7.6998 57.9255 7.6998H57.2256V7.3998C57.7256 7.3998 57.9256 7.19981 58.3256 6.49981C58.7256 5.89981 58.9256 5.6998 59.0256 5.3998C59.2256 4.9998 59.6256 4.8998 59.8256 4.7998C59.5256 4.5998 59.3256 4.3998 59.1256 4.0998C58.7256 3.5998 58.5256 3.1998 58.1256 3.1998H57.8256C57.5256 3.1998 57.4255 2.9998 57.4255 2.7998C57.4255 2.5998 57.6255 2.3998 57.9255 2.3998C58.4255 2.3998 58.8256 2.9998 59.0256 3.2998C59.2256 3.5998 59.6255 4.29981 59.9255 4.49981C60.2255 4.69981 60.4256 4.8998 60.8256 4.8998V3.6998C60.8256 2.9998 60.7256 2.9998 60.0256 2.8998V2.5998H62.7256V2.49981Z" fill="white"/>
<path d="M71.3253 6.60039C71.3253 7.30039 71.4254 7.30039 72.1254 7.40039V7.70039H69.4253V7.40039C70.3253 7.30039 70.3253 7.30039 70.3253 6.60039V5.30039C69.9253 5.40039 69.5254 5.50039 69.1254 5.50039C68.5254 5.50039 68.0253 5.40039 67.7253 5.10039C67.4253 4.80039 67.3253 4.50039 67.3253 4.00039V3.50039C67.3253 2.80039 67.2254 2.80039 66.5254 2.70039V2.40039H68.9253V2.70039C68.2253 2.80039 68.2253 2.80039 68.2253 3.50039V4.10039C68.2253 4.80039 68.6253 5.10039 69.3253 5.10039C69.6253 5.10039 70.0253 5.10039 70.3253 5.00039V3.60039C70.3253 2.90039 70.2254 2.90039 69.6254 2.80039V2.50039H72.1254V2.80039C71.3254 2.90039 71.3253 2.90039 71.3253 3.60039V6.60039Z" fill="white"/>
<path d="M77.6259 6.7C77.0259 7.6 76.1258 7.9 75.8258 7.9C74.3258 7.9 73.4258 6.8 73.4258 5.4C73.4258 3.8 74.5258 2.5 75.9258 2.5C76.8258 2.5 77.6259 3.4 77.6259 4.1C77.6259 4.5 77.6258 4.5 77.4258 4.5C77.2258 4.5 75.8258 4.6 74.3258 4.7C74.3258 6.5 75.4258 7.1 76.2258 7.1C76.6258 7.1 76.9258 7 77.4258 6.5L77.6259 6.7ZM76.4258 4.2C76.6258 4.2 76.6259 4.1 76.6259 3.8C76.6259 3.3 76.2259 2.8 75.6259 2.8C75.0259 2.8 74.4258 3.4 74.3258 4.3L76.4258 4.2Z" fill="white"/>
<path d="M83.2253 7.7C82.7253 7.7 82.6253 7.9 82.4253 8.6L82.3253 9.2H82.0254V7.7C82.0254 7.5 82.1253 7.4 82.2253 7.4H82.5254C82.6254 7.4 82.6253 7.4 82.7253 7.2C82.8253 7 83.0254 6.6 83.1254 6C83.3254 5.3 83.4253 4 83.4253 3.5C83.4253 3.1 83.3253 3 82.8253 2.9L82.4253 2.8V2.5H87.1254V2.8C86.4254 2.9 86.3253 2.9 86.3253 3.6V6.5C86.3253 7.2 86.4253 7.3 86.7253 7.3H86.9253C87.1253 7.3 87.1254 7.3 87.1254 7.6V9.1H86.8253L86.7253 8.5C86.5253 7.8 86.5253 7.6 85.9253 7.6H83.2253V7.7ZM84.9253 7.3C85.5253 7.3 85.5254 7.3 85.5254 6.6V3.4C85.5254 2.9 85.5253 2.9 84.9253 2.9H84.5254C83.9254 2.9 83.9253 3 83.9253 3.5C83.8253 5.1 83.6253 6.4 83.3253 7.1C83.2253 7.3 83.2253 7.4 83.4253 7.4H84.9253V7.3Z" fill="white"/>
<path d="M88.5254 5.3C88.5254 3.3 90.0254 2.5 91.1254 2.5C92.6254 2.5 93.7253 3.6 93.7253 5.1C93.7253 6.9 92.3254 7.9 91.1254 7.9C89.4254 7.8 88.5254 6.5 88.5254 5.3ZM92.6254 5.3C92.6254 4 92.0254 2.8 91.0254 2.8C90.2254 2.8 89.6254 3.6 89.6254 4.9C89.6254 6.4 90.2253 7.5 91.3253 7.5C91.9253 7.5 92.6254 6.9 92.6254 5.3Z" fill="white"/>
<path d="M103.425 2.5V2.8C102.625 2.9 102.525 2.9 102.525 3.6V6.6C102.525 7.3 102.625 7.3 103.425 7.4V7.7H100.825V7.4C101.625 7.3 101.725 7.3 101.725 6.6V3.4C101.725 3 101.725 2.9 101.325 2.9H100.825C100.325 2.9 100.325 3 100.325 3.4C100.225 5.8 99.725 7 99.225 7.5C99.025 7.7 98.825 7.8 98.725 7.8C98.525 7.8 98.325 7.7 98.125 7.7V7.5C98.725 7.2 99.125 6.7 99.325 6.2C99.525 5.8 99.825 4.9 99.825 3.6C99.825 3.1 99.825 3 99.025 2.9V2.6H103.425V2.5Z" fill="white"/>
<path d="M104.525 2.50039H107.125V2.80039C106.325 2.90039 106.325 2.90039 106.325 3.60039V4.90039H107.425C107.625 3.20039 109.025 2.40039 110.025 2.40039C111.525 2.40039 112.625 3.50039 112.625 5.00039C112.625 6.80039 111.225 7.80039 110.025 7.80039C108.325 7.80039 107.425 6.50039 107.425 5.20039H106.325V6.60039C106.325 7.30039 106.425 7.30039 107.225 7.40039V7.70039H104.625V7.40039C105.425 7.30039 105.425 7.30039 105.425 6.60039V3.60039C105.425 2.90039 105.325 2.90039 104.525 2.80039V2.50039ZM111.425 5.30039C111.425 4.00039 110.825 2.80039 109.825 2.80039C109.025 2.80039 108.425 3.60039 108.425 4.90039C108.425 6.40039 109.025 7.50039 110.125 7.50039C110.825 7.50039 111.425 6.90039 111.425 5.30039Z" fill="white"/>
<path d="M114.626 7.70039C114.126 7.70039 114.026 7.90039 113.826 8.60039L113.726 9.10039H113.426V7.60039C113.426 7.40039 113.526 7.30039 113.726 7.30039H114.026C114.126 7.30039 114.126 7.30039 114.226 7.10039C114.326 6.90039 114.526 6.50039 114.626 5.90039C114.826 5.20039 114.926 3.90039 114.926 3.40039C114.926 3.00039 114.826 2.90039 114.326 2.80039L113.926 2.70039V2.40039H118.626V2.70039C117.926 2.80039 117.826 2.80039 117.826 3.50039V6.40039C117.826 7.10039 117.926 7.20039 118.226 7.20039H118.426C118.626 7.20039 118.626 7.20039 118.726 7.50039V9.10039H118.426L118.326 8.50039C118.126 7.80039 118.126 7.60039 117.526 7.60039H114.626V7.70039ZM116.326 7.30039C116.926 7.30039 116.926 7.30039 116.926 6.60039V3.40039C116.926 2.90039 116.926 2.90039 116.326 2.90039H115.926C115.326 2.90039 115.326 3.00039 115.326 3.50039C115.226 5.10039 115.026 6.40039 114.726 7.10039C114.626 7.30039 114.626 7.40039 114.826 7.40039H116.326V7.30039Z" fill="white"/>
<path d="M124.025 6.7C123.425 7.6 122.525 7.9 122.225 7.9C120.725 7.9 119.825 6.8 119.825 5.4C119.825 3.8 120.925 2.5 122.325 2.5C123.225 2.5 124.025 3.4 124.025 4.1C124.025 4.5 124.025 4.5 123.725 4.5C123.525 4.5 122.125 4.6 120.625 4.7C120.625 6.5 121.725 7.1 122.525 7.1C122.925 7.1 123.225 7 123.725 6.5L124.025 6.7ZM122.925 4.2C123.125 4.2 123.125 4.1 123.125 3.8C123.125 3.3 122.725 2.8 122.125 2.8C121.525 2.8 120.925 3.4 120.825 4.3L122.925 4.2Z" fill="white"/>
<path d="M130.326 6.6002C130.326 7.3002 130.426 7.3002 131.226 7.4002V7.7002H128.726V7.4002C129.426 7.3002 129.426 7.3002 129.426 6.6002V4.0002L127.226 6.5002C127.126 6.6002 127.026 6.7002 127.026 6.8002V7.1002C127.026 7.2002 127.126 7.3002 127.326 7.3002H127.526V7.6002H125.226V7.3002C126.026 7.2002 126.126 7.2002 126.126 6.5002V3.5002C126.126 2.8002 126.026 2.8002 125.226 2.7002V2.4002H127.726V2.7002C127.026 2.8002 127.026 2.8002 127.026 3.5002V6.1002L129.226 3.5002C129.326 3.4002 129.326 3.3002 129.326 3.2002V3.1002C129.326 3.0002 129.226 2.9002 129.126 2.9002L128.926 2.8002V2.5002H131.226V2.8002C130.326 2.9002 130.326 2.9002 130.326 3.6002V6.6002ZM128.826 1.3002C128.826 1.2002 128.826 1.1002 128.726 1.1002C128.626 0.900197 128.726 0.700195 129.026 0.700195C129.326 0.700195 129.426 0.900195 129.426 1.2002C129.426 1.7002 128.926 2.0002 128.126 2.0002C127.326 2.0002 126.826 1.6002 126.826 1.2002C126.826 1.0002 127.026 0.700195 127.226 0.700195C127.526 0.700195 127.626 1.0002 127.526 1.1002C127.526 1.2002 127.526 1.3002 127.426 1.3002C127.426 1.5002 127.626 1.6002 128.026 1.6002C128.626 1.6002 128.826 1.5002 128.826 1.3002Z" fill="white"/>
<path d="M68.9255 27.0002C68.9255 24.5002 68.7255 24.4002 66.9255 24.2002V23.7002H76.8256C76.8256 24.1002 76.9256 25.7002 77.0256 27.0002L76.4255 27.1002C76.2255 26.0002 75.9256 25.4002 75.6256 25.0002C75.2256 24.6002 74.5256 24.5002 73.1256 24.5002H71.4255C70.8255 24.5002 70.7256 24.5002 70.7256 25.2002V30.5002H73.0256C74.9256 30.5002 75.0256 30.4002 75.2256 28.7002H75.8256V33.1002H75.2256C75.1256 32.3002 75.0256 31.8002 74.7256 31.6002C74.4256 31.4002 73.9255 31.3002 72.9255 31.3002H70.6256V35.3002C70.6256 36.6002 70.7256 37.3002 71.2256 37.5002C71.6256 37.8002 72.4256 37.8002 73.5256 37.8002C74.8256 37.8002 75.8256 37.7002 76.3256 37.1002C76.7256 36.7002 77.0255 35.9002 77.4255 34.9002L78.0256 35.0002C77.9256 35.6002 77.4256 37.9002 77.2256 38.5002H66.7256V38.0002C68.7256 37.9002 68.9255 37.7002 68.9255 35.3002V27.0002Z" fill="white"/>
<path d="M95.1256 35.1002C95.1256 37.5002 95.3256 37.7002 97.1256 37.8002V38.3002H91.2256V37.8002C93.0256 37.7002 93.2256 37.5002 93.2256 35.1002V27.0002C93.2256 24.5002 93.0256 24.4002 91.2256 24.2002V23.7002H97.1256V24.2002C95.3256 24.3002 95.1256 24.5002 95.1256 27.0002V35.1002Z" fill="white"/>
<path d="M104.526 23.7998V24.2998C102.726 24.3998 102.526 24.5998 102.526 27.0998V31.7998C102.526 33.6998 102.726 35.1998 103.426 36.1998C104.126 37.1998 105.126 37.7998 106.626 37.7998C108.026 37.7998 109.226 37.1998 109.926 36.0998C110.626 34.9998 110.926 32.9998 110.926 31.0998V29.8998C110.926 27.4998 110.826 26.2998 110.726 25.5998C110.626 24.7998 110.026 24.4998 108.526 24.3998V23.8998H113.926V24.3998C112.726 24.3998 112.126 24.7998 112.026 25.5998C111.926 26.2998 111.826 27.4998 111.826 29.8998V31.3998C111.826 33.9998 111.426 35.8998 110.126 37.2998C109.126 38.2998 107.526 38.8998 105.926 38.8998C104.726 38.8998 103.226 38.5998 102.226 37.6998C101.026 36.6998 100.526 35.1998 100.526 32.5998V27.0998C100.526 24.5998 100.326 24.4998 98.4258 24.2998V23.7998H104.526Z" fill="white"/>
<path d="M119.026 23.7998L124.426 35.3998L129.826 23.7998H133.526V24.2998C131.526 24.4998 131.426 24.5998 131.526 27.0998L131.726 35.1998C131.826 37.6998 131.826 37.7998 133.826 37.8998V38.3998H127.926V37.8998C129.826 37.6998 129.926 37.6998 129.826 35.1998L129.726 26.0998H129.626L124.126 38.1998H123.526L118.326 26.3998L118.126 32.6998C118.026 34.7998 118.026 36.0998 118.126 36.7998C118.226 37.5998 118.826 37.8998 120.226 37.9998V38.4998H114.926V37.9998C116.226 37.8998 116.626 37.6998 116.826 36.7998C116.926 36.0998 117.126 34.7998 117.226 32.4998L117.426 27.7998C117.626 24.7998 117.426 24.4998 115.326 24.3998V23.8998H119.026V23.7998Z" fill="white"/>
<path d="M53.825 23.7998C53.725 24.7998 53.625 25.9998 53.625 27.1998H54.225C54.525 26.1998 54.725 25.5998 55.025 25.2998C55.325 24.8998 55.9249 24.5998 57.9249 24.5998H59.025V35.0998C59.025 37.4998 58.825 37.6998 56.725 37.7998V38.2998H63.325V37.7998C61.125 37.6998 60.9249 37.4998 60.9249 35.0998V24.4998H62.4249C63.8249 24.4998 64.5249 24.6998 64.9249 25.0998C65.2249 25.4998 65.525 26.0998 65.725 27.1998H66.325C66.225 26.0998 66.125 24.6998 66.125 23.7998H53.825Z" fill="white"/>
<path d="M53.0253 37.0998C52.4253 36.3998 51.9252 35.7998 51.1252 34.5998C50.4252 33.5998 49.5252 32.0998 49.1252 31.3998C50.9252 30.6998 52.1252 29.2998 52.1252 27.4998C52.1252 26.1998 51.5252 25.1998 50.6252 24.5998C49.8252 23.9998 48.5253 23.7998 47.0253 23.7998H43.3252V24.4998H45.4252C45.7252 24.4998 46.2252 24.4998 46.7252 24.4998C48.4252 24.4998 50.1252 25.2998 50.1252 27.6998C50.1252 28.7998 49.8252 29.8998 48.8252 30.6998C48.2252 31.1998 47.5253 31.1998 46.5253 31.1998H43.3252V31.8998H46.4252C47.1252 31.8998 47.5252 32.0998 47.8252 32.6998C48.4252 33.7998 49.4252 35.3998 50.1252 36.3998C51.0252 37.5998 51.7252 38.3998 54.3252 38.4998H54.6252V38.0998C53.8252 37.9998 53.4253 37.5998 53.0253 37.0998Z" fill="white"/>
<path d="M88.9255 37.0998C88.3255 36.3998 87.8256 35.7998 87.0256 34.5998C86.3256 33.5998 85.4256 32.0998 85.0256 31.3998C86.8256 30.6998 88.0256 29.2998 88.0256 27.4998C88.0256 26.1998 87.4256 25.1998 86.5256 24.5998C85.7256 23.9998 84.4255 23.7998 82.9255 23.7998H79.2256V24.4998H81.3256C81.6256 24.4998 82.1256 24.4998 82.6256 24.4998C84.3256 24.4998 86.0256 25.2998 86.0256 27.6998C86.0256 28.7998 85.7256 29.8998 84.7256 30.6998C84.1256 31.1998 83.4255 31.1998 82.4255 31.1998H79.2256V31.8998H82.3256C83.0256 31.8998 83.4256 32.0998 83.7256 32.6998C84.3256 33.7998 85.3256 35.3998 86.0256 36.3998C86.9256 37.5998 87.6256 38.3998 90.2256 38.4998H90.5256V38.0998C89.8256 37.9998 89.4255 37.5998 88.9255 37.0998Z" fill="white"/>
<path d="M38.8252 37.9L39.5253 37.8C40.3253 37.7 40.4252 37.5 40.2252 36.8C40.0252 36.3 39.4252 34.5 38.8252 32.9H34.2252C34.0252 33.5 33.4252 35.2 33.1252 36.2C32.7252 37.5 32.9252 37.8 33.9252 37.9L34.6252 38V38.5H29.8252V38C30.0252 38 30.2252 38 30.3252 37.9C31.3252 37.7 31.5252 37.4 32.2252 35.7L36.8252 23.7L37.3252 23.5L38.9252 27.8C40.0252 30.7 40.9252 33.5 41.8252 35.8C42.5252 37.7 42.8252 37.8 44.2252 38V38.5H38.8252V37.9ZM34.5253 32H38.5253L36.5253 26.5L34.5253 32Z" fill="white"/>
<path d="M12.3251 18.7002C13.1251 18.8002 13.6251 18.9002 14.3251 19.1002C18.0251 20.4002 20.2251 26.6002 13.4251 30.1002C13.4251 30.1002 13.1252 30.3002 13.0252 30.3002C12.8252 30.4002 12.5251 30.5002 12.3251 30.6002C8.02511 32.4002 5.52511 33.0002 4.32511 35.8002C2.92511 39.6002 5.92509 43.5002 12.4251 43.6002C11.6251 43.5002 11.1251 43.4002 10.4251 43.2002C6.72509 41.9002 4.52511 35.7002 11.3251 32.2002L11.7251 32.0002C11.9251 31.9002 12.2251 31.8002 12.4251 31.7002C16.7251 29.9002 19.2251 29.3002 20.4251 26.5002C21.8251 22.7002 18.9251 18.8002 12.3251 18.7002Z" fill="white"/>
<path d="M12.1253 19.9002C10.5253 19.1002 8.72531 19.1002 7.22531 19.8002C6.72531 20.0002 4.22526 21.2002 2.42526 23.7002C0.925263 25.7002 0.125361 28.0002 0.0253606 30.2002C-0.174639 33.4002 0.825263 36.2002 2.42526 38.4002C1.22526 36.7002 1.52534 34.0002 3.62534 32.6002C6.12534 30.9002 9.52526 30.5002 11.4253 29.8002C12.6253 29.4002 13.8253 28.5002 14.4253 27.2002C15.8253 24.6002 14.8253 21.3002 12.1253 19.9002Z" fill="white"/>
<path d="M22.425 23.7998C23.625 25.4998 23.325 28.1998 21.225 29.5998C18.725 31.2998 15.325 31.6998 13.425 32.3998C12.125 32.7998 11.025 33.6998 10.425 34.9998C9.02495 37.6998 10.025 40.9998 12.625 42.3998C14.225 43.2998 16.0251 43.1998 17.5251 42.4998C18.0251 42.2998 20.525 41.0998 22.325 38.5998C23.825 36.5998 24.625 34.3998 24.725 32.0998C25.025 28.7998 24.025 25.9998 22.425 23.7998Z" fill="white"/>
</svg>
