<?xml version="1.0" encoding="utf-8"?>
<!-- Generator: Adobe Illustrator 22.1.0, SVG Export Plug-In . SVG Version: 6.00 Build 0)  -->
<svg version="1.1" id="Слой_1" xmlns="http://www.w3.org/2000/svg" xmlns:xlink="http://www.w3.org/1999/xlink" x="0px" y="0px"
	 viewBox="0 0 71 71" style="enable-background:new 0 0 71 71;" xml:space="preserve">
<style type="text/css">
	.st0{clip-path:url(#SVGID_2_);}
	.st1{fill:url(#SVGID_3_);}
	.st2{opacity:0.2;}
	.st3{fill:#FFFFFF;}
</style>
<g>
	<g>
		<defs>
			<path id="SVGID_1_" d="M8,0h55c4.4,0,8,3.6,8,8v55c0,4.4-3.6,8-8,8H8c-4.4,0-8-3.6-8-8V8C0,3.6,3.6,0,8,0z"/>
		</defs>
		<clipPath id="SVGID_2_">
			<use xlink:href="#SVGID_1_"  style="overflow:visible;"/>
		</clipPath>
		<g class="st0">
			
				<linearGradient id="SVGID_3_" gradientUnits="userSpaceOnUse" x1="71" y1="88" x2="-3.455594e-07" y2="17" gradientTransform="matrix(1 0 0 -1 0 88)">
				<stop  offset="0" style="stop-color:#46B600"/>
				<stop  offset="1" style="stop-color:#80C41C"/>
			</linearGradient>
			<path class="st1" d="M8,0h55c4.4,0,8,3.6,8,8v55c0,4.4-3.6,8-8,8H8c-4.4,0-8-3.6-8-8V8C0,3.6,3.6,0,8,0z"/>
			<g class="st2">
				<path class="st3" d="M-71,33.4c1.7-3.6,4.5-4.9,8.3-4.6c2,0.2,3.9,0,6.2,0c-6.7-14.2-7.7-28.6-2.7-43.2
					c4-11.5,11.3-20.5,21.2-27.6c18.2-12.9,51.5-15.1,73.1,9.2c10.7-11.5,23.7-18,39.5-18.6c12.5-0.5,23.9,2.8,34.1,10
					c11.2,7.9,18.6,18.5,21.9,31.8c3.3,13.2,1.8,26-4.1,38.5c2.8,0,5.3,0,7.8,0c3.9,0,6.6,2.6,6.7,6.1c0,3.6-2.8,6.3-6.8,6.3
					c-4.9,0-9.8,0-14.7,0.1c-0.9,0-2,0.4-2.7,1.1c-25.6,25.5-51.2,51.1-76.7,76.7c-3.5,3.5-6.8,3.5-10.2,0.1
					C4.3,93.6-21.3,67.9-46.9,42.3c-0.6-0.6-1.6-1-2.5-1c-4.4-0.1-8.8-0.2-13.2,0c-3.9,0.2-6.7-1-8.3-4.6L-71,33.4L-71,33.4z
					 M34.5,42.6c0.6-1,1-1.6,1.3-2.2C42,29.6,48.1,18.9,54.3,8.1c3.1-5.4,8.4-5.5,11.7-0.3c4.1,6.5,8.3,13,12.4,19.6
					c0.7,1.1,1.5,1.5,2.8,1.5c9.7-0.1,19.3-0.1,29,0c1.3,0,2.1-0.4,2.8-1.5c5.5-8.8,7.7-18.3,6.5-28.6c-3.5-31-39.3-48.2-65.5-31.2
					c-5.3,3.4-9.7,8.4-14.4,12.7c-3,2.7-6.5,2.8-9.4,0c-2.3-2.2-4.5-4.5-6.7-6.7C13.4-36.3,1.4-40.4-12.6-38.7
					c-31.1,3.8-47.8,40.2-30.3,66.2c0.6,1,1.3,1.4,2.5,1.4c6.6-0.1,13.1-0.1,19.7,0c1.5,0,2.1-0.5,2.7-1.8
					C-13.2,15.3-8.2,3.6-3.3-8.2c1.1-2.6,2.9-4.2,5.7-4.3c2.9-0.1,4.8,1.4,6,3.9c1.9,3.8,3.9,7.6,5.8,11.4
					C21,16,27.6,29.1,34.5,42.6L34.5,42.6z M34.9,106.1c21.6-21.6,43.2-43.1,64.8-64.8c-0.5,0-1.2,0-1.9,0c-7.1,0-14.2,0-21.3,0
					c-2.7,0-4.6-1-6-3.3c-2.6-4.1-5.2-8.2-7.7-12.2c-0.7-1.1-1.4-2.2-2.2-3.4c-0.5,0.9-0.9,1.5-1.3,2.2c-6.3,11-12.6,22-18.9,33
					c-0.1,0.2-0.2,0.4-0.3,0.5c-1.3,2.5-3.2,4-6.1,3.9c-2.8-0.1-4.5-1.7-5.7-4.1C20.5,42.4,12.6,27,4.8,11.5c-0.5-0.9-0.9-1.8-1.5-3
					c-0.4,0.9-0.7,1.5-1,2.1c-3.6,8.6-7.2,17.2-10.8,25.7c-1.6,3.7-3.3,4.9-7.3,4.9c-4.1,0-8.3,0-12.4,0c-0.6,0-1.1,0.1-1.6,0.1
					C-8.1,63.1,13.5,84.7,34.9,106.1L34.9,106.1z"/>
			</g>
			<path class="st3" d="M11,34.6c0.4-0.8,1-1.1,1.9-1c0.4,0,0.9,0,1.4,0c-1.5-3.2-1.8-6.5-0.6-9.8c0.9-2.6,2.5-4.7,4.8-6.2
				c4.1-2.9,11.7-3.4,16.6,2.1c2.4-2.6,5.4-4.1,8.9-4.2c2.8-0.1,5.4,0.6,7.7,2.3c2.5,1.8,4.2,4.2,5,7.2c0.8,3,0.4,5.9-0.9,8.7
				c0.6,0,1.2,0,1.8,0c0.9,0,1.5,0.6,1.5,1.4c0,0.8-0.6,1.4-1.5,1.4c-1.1,0-2.2,0-3.3,0c-0.2,0-0.5,0.1-0.6,0.2
				C47.7,42.5,42,48.2,36.2,54c-0.8,0.8-1.5,0.8-2.3,0c-5.8-5.8-11.6-11.6-17.4-17.4c-0.1-0.1-0.4-0.2-0.6-0.2c-1,0-2,0-3,0
				c-0.9,0-1.5-0.2-1.9-1L11,34.6L11,34.6z M34.9,36.7c0.1-0.2,0.2-0.4,0.3-0.5c1.4-2.4,2.8-4.9,4.2-7.3c0.7-1.2,1.9-1.3,2.7-0.1
				c0.9,1.5,1.9,2.9,2.8,4.4c0.2,0.3,0.3,0.3,0.6,0.3c2.2,0,4.4,0,6.6,0c0.3,0,0.5-0.1,0.6-0.3c1.2-2,1.7-4.1,1.5-6.5
				c-0.8-7-8.9-10.9-14.8-7.1c-1.2,0.8-2.2,1.9-3.3,2.9c-0.7,0.6-1.5,0.6-2.1,0c-0.5-0.5-1-1-1.5-1.5c-2.3-2.2-5-3.1-8.2-2.7
				c-7,0.9-10.8,9.1-6.9,15c0.1,0.2,0.3,0.3,0.6,0.3c1.5,0,3,0,4.5,0c0.3,0,0.5-0.1,0.6-0.4c1.1-2.7,2.2-5.3,3.3-8
				c0.2-0.6,0.7-1,1.3-1c0.6,0,1.1,0.3,1.4,0.9c0.4,0.9,0.9,1.7,1.3,2.6C31.8,30.7,33.3,33.7,34.9,36.7L34.9,36.7z M35,51.1
				c4.9-4.9,9.8-9.8,14.7-14.7c-0.1,0-0.3,0-0.4,0c-1.6,0-3.2,0-4.8,0c-0.6,0-1-0.2-1.4-0.7c-0.6-0.9-1.2-1.8-1.8-2.8
				c-0.2-0.2-0.3-0.5-0.5-0.8c-0.1,0.2-0.2,0.3-0.3,0.5c-1.4,2.5-2.9,5-4.3,7.5c0,0,0,0.1-0.1,0.1c-0.3,0.6-0.7,0.9-1.4,0.9
				c-0.6,0-1-0.4-1.3-0.9c-1.8-3.5-3.5-7-5.3-10.5c-0.1-0.2-0.2-0.4-0.3-0.7c-0.1,0.2-0.2,0.3-0.2,0.5c-0.8,1.9-1.6,3.9-2.4,5.8
				c-0.4,0.8-0.7,1.1-1.6,1.1c-0.9,0-1.9,0-2.8,0c-0.1,0-0.3,0-0.4,0C25.2,41.4,30.1,46.2,35,51.1L35,51.1z"/>
		</g>
	</g>
</g>
</svg>
