<svg width="135" height="135" viewBox="0 0 135 135" fill="none" xmlns="http://www.w3.org/2000/svg">
<g filter="url(#filter0_d_64_77)">
<g clip-path="url(#clip0_64_77)">
<rect x="16" y="24" width="71" height="71" rx="8" fill="url(#paint0_linear_64_77)"/>
<g opacity="0.2">
<path d="M-55 57.4176C-53.3488 53.8331 -50.5111 52.5014 -46.6569 52.8333C-44.6987 53.0034 -42.7115 52.8623 -40.5002 52.8623C-47.1589 38.6405 -48.2293 24.2735 -43.1886 9.6326C-39.2224 -1.88842 -31.9331 -10.9161 -22.0176 -17.9647C-3.82544 -30.8963 29.5137 -33.1034 51.1245 -8.8002C61.7826 -20.259 74.8303 -26.7974 90.5789 -27.4487C103.046 -27.9632 114.48 -24.6815 124.669 -17.4586C135.837 -9.54282 143.264 1.07377 146.607 14.3746C149.922 27.5634 148.437 40.3456 142.467 52.8623C145.267 52.8623 147.794 52.8457 150.316 52.8665C154.187 52.8997 156.954 55.4594 156.992 59.0066C157.029 62.6326 154.229 65.2629 150.242 65.2795C145.342 65.3044 140.442 65.2297 135.547 65.3334C134.643 65.3542 133.518 65.7815 132.888 66.4121C107.29 91.9434 81.7379 117.52 56.1735 143.089C52.7134 146.549 49.3281 146.574 45.9261 143.172C20.316 117.553 -5.28579 91.9268 -30.9291 66.3416C-31.5182 65.7524 -32.5678 65.35 -33.4142 65.3334C-37.8284 65.2338 -42.251 65.1218 -46.6569 65.3334C-50.5111 65.5201 -53.3447 64.3128 -54.9917 60.7283V57.4176H-55ZM50.4773 66.6278C51.0539 65.6736 51.4481 65.043 51.8173 64.4C57.9865 53.6382 64.1473 42.8722 70.3206 32.1104C73.4031 26.7378 78.7467 26.5843 82.0491 31.7785C86.1937 38.292 90.3424 44.8014 94.4164 51.3605C95.1259 52.5014 95.881 52.9038 97.2168 52.8955C106.875 52.8333 116.533 52.8333 126.192 52.8955C127.54 52.9038 128.299 52.4807 129.004 51.3522C134.518 42.5528 136.696 33.048 135.535 22.7094C132.054 -8.26087 96.2419 -25.4822 70.0842 -8.47245C64.7821 -5.02486 60.4176 -0.116915 55.6839 4.18532C52.6678 6.92762 49.2202 6.99815 46.3119 4.15627C44.0426 1.94086 41.8521 -0.361689 39.5661 -2.56051C29.4432 -12.3017 17.3995 -16.4048 3.44313 -14.6872C-27.6765 -10.8621 -44.317 25.5056 -26.8965 51.5347C-26.2493 52.5014 -25.5814 52.8997 -24.399 52.8914C-17.844 52.8333 -11.289 52.8126 -4.73816 52.8997C-3.25706 52.9204 -2.58912 52.435 -2.02904 51.0784C2.84572 39.3084 7.82004 27.5758 12.728 15.8183C13.8108 13.2212 15.6197 11.5949 18.4698 11.4912C21.3242 11.3834 23.2575 12.8811 24.5104 15.3952C26.4146 19.2162 28.3645 23.0205 30.2979 26.8291C36.9607 39.9764 43.6277 53.1237 50.4731 66.6278H50.4773ZM50.9129 130.066C72.478 108.505 94.0679 86.9193 115.704 65.2878C115.173 65.2878 114.513 65.2878 113.853 65.2878C106.746 65.2878 99.6355 65.267 92.5288 65.3002C89.8777 65.3127 87.8946 64.2506 86.4924 62.0103C83.9285 57.9196 81.3355 53.8497 78.7467 49.7757C78.0539 48.6846 77.3361 47.6101 76.523 46.3654C76.0044 47.2367 75.6061 47.8756 75.2327 48.5269C68.9267 59.5335 62.6289 70.5401 56.327 81.5466C56.2233 81.725 56.1071 81.8993 56.0117 82.0818C54.7297 84.5462 52.8006 86.0729 49.9338 85.9609C47.1666 85.8572 45.4532 84.2392 44.2376 81.8246C36.4504 66.383 28.6135 50.9622 20.789 35.5373C20.3285 34.6328 19.8597 33.7367 19.2581 32.5751C18.8557 33.4504 18.5611 34.0603 18.2956 34.6826C14.6945 43.258 11.0975 51.8335 7.49644 60.4089C5.92822 64.1427 4.22309 65.2836 0.227867 65.2878C-3.91256 65.2961 -8.05299 65.2878 -12.1934 65.2961C-12.7659 65.2961 -13.3343 65.3749 -13.7533 65.4039C7.89472 87.052 29.4971 108.654 50.9129 130.07V130.066Z" fill="white"/>
</g>
<path d="M27 58.6418C27.3739 57.8302 28.0164 57.5287 28.889 57.6038C29.3324 57.6423 29.7823 57.6104 30.283 57.6104C28.7753 54.3903 28.533 51.1374 29.6743 47.8225C30.5723 45.214 32.2227 43.17 34.4677 41.5741C38.5867 38.6462 46.1352 38.1464 51.0282 43.6491C53.4413 41.0546 56.3955 39.5742 59.9613 39.4267C62.784 39.3103 65.3728 40.0533 67.6798 41.6887C70.2085 43.4809 71.8899 45.8847 72.647 48.8962C73.3975 51.8823 73.0612 54.7764 71.7095 57.6104C72.3436 57.6104 72.9156 57.6066 73.4867 57.6113C74.3631 57.6188 74.9897 58.1984 74.9981 59.0015C75.0066 59.8225 74.3725 60.4181 73.4698 60.4218C72.3605 60.4275 71.2511 60.4105 70.1427 60.434C69.9379 60.4387 69.6834 60.5355 69.5406 60.6783C63.7449 66.4589 57.9595 72.2499 52.1714 78.039C51.3879 78.8224 50.6215 78.8281 49.8512 78.0578C44.0527 72.2574 38.256 66.4552 32.45 60.6623C32.3166 60.5289 32.079 60.4378 31.8874 60.434C30.8879 60.4115 29.8866 60.3861 28.889 60.434C28.0164 60.4763 27.3748 60.2029 27.0019 59.3914V58.6418H27ZM50.8816 60.7271C51.0122 60.5111 51.1014 60.3683 51.1851 60.2227C52.5818 57.786 53.9768 55.3485 55.3745 52.9118C56.0724 51.6954 57.2823 51.6606 58.03 52.8367C58.9684 54.3114 59.9077 55.7853 60.8301 57.2703C60.9908 57.5287 61.1617 57.6198 61.4642 57.6179C63.651 57.6038 65.8377 57.6038 68.0245 57.6179C68.3298 57.6198 68.5017 57.524 68.6614 57.2685C69.9097 55.2761 70.4029 53.1241 70.1399 50.7833C69.3518 43.7712 61.2434 39.872 55.3209 43.7233C54.1205 44.5038 53.1323 45.6151 52.0605 46.5892C51.3776 47.2101 50.597 47.226 49.9386 46.5826C49.4247 46.081 48.9288 45.5597 48.4112 45.0618C46.1192 42.8563 43.3923 41.9273 40.2324 42.3161C33.1865 43.1822 29.4188 51.4164 33.3631 57.3098C33.5096 57.5287 33.6608 57.6188 33.9285 57.617C35.4127 57.6038 36.8968 57.5991 38.38 57.6188C38.7154 57.6235 38.8666 57.5136 38.9934 57.2065C40.0971 54.5416 41.2234 51.8851 42.3346 49.2231C42.5798 48.635 42.9894 48.2668 43.6347 48.2433C44.2809 48.2189 44.7187 48.558 45.0023 49.1273C45.4335 49.9924 45.875 50.8538 46.3127 51.7161C47.8213 54.6928 49.3308 57.6696 50.8807 60.7271H50.8816ZM50.9803 75.0905C55.8629 70.2087 60.7512 65.3214 65.6499 60.4237C65.5296 60.4237 65.3803 60.4237 65.2309 60.4237C63.6218 60.4237 62.0118 60.419 60.4027 60.4265C59.8025 60.4293 59.3535 60.1889 59.036 59.6816C58.4555 58.7554 57.8684 57.8339 57.2823 56.9115C57.1254 56.6645 56.9629 56.4212 56.7788 56.1394C56.6614 56.3366 56.5712 56.4813 56.4867 56.6288C55.0589 59.1208 53.633 61.6129 52.2061 64.1049C52.1826 64.1453 52.1563 64.1848 52.1347 64.2261C51.8445 64.7841 51.4077 65.1298 50.7586 65.1044C50.1321 65.0809 49.7441 64.7146 49.4689 64.1679C47.7058 60.6717 45.9314 57.1802 44.1598 53.6877C44.0555 53.4829 43.9494 53.2801 43.8132 53.017C43.722 53.2152 43.6553 53.3533 43.5952 53.4942C42.7799 55.4358 41.9655 57.3774 41.1501 59.319C40.7951 60.1644 40.409 60.4228 39.5044 60.4237C38.567 60.4256 37.6295 60.4237 36.6921 60.4256C36.5624 60.4256 36.4337 60.4434 36.3389 60.45C41.2403 65.3514 46.1314 70.2426 50.9803 75.0914V75.0905Z" fill="white"/>
</g>
</g>
<defs>
<filter id="filter0_d_64_77" x="0" y="0" width="135" height="135" filterUnits="userSpaceOnUse" color-interpolation-filters="sRGB">
<feFlood flood-opacity="0" result="BackgroundImageFix"/>
<feColorMatrix in="SourceAlpha" type="matrix" values="0 0 0 0 0 0 0 0 0 0 0 0 0 0 0 0 0 0 127 0" result="hardAlpha"/>
<feOffset dx="16" dy="8"/>
<feGaussianBlur stdDeviation="16"/>
<feComposite in2="hardAlpha" operator="out"/>
<feColorMatrix type="matrix" values="0 0 0 0 0.27451 0 0 0 0 0.713726 0 0 0 0 0 0 0 0 0.25 0"/>
<feBlend mode="normal" in2="BackgroundImageFix" result="effect1_dropShadow_64_77"/>
<feBlend mode="normal" in="SourceGraphic" in2="effect1_dropShadow_64_77" result="shape"/>
</filter>
<linearGradient id="paint0_linear_64_77" x1="87" y1="24" x2="16" y2="95" gradientUnits="userSpaceOnUse">
<stop stop-color="#46B600"/>
<stop offset="1" stop-color="#80C41C"/>
</linearGradient>
<clipPath id="clip0_64_77">
<rect x="16" y="24" width="71" height="71" rx="8" fill="white"/>
</clipPath>
</defs>
</svg>
