<svg width="32" height="32" viewBox="0 0 32 32" fill="none" xmlns="http://www.w3.org/2000/svg">
<path d="M16.9335 31.9939H15.1826C15.1131 31.9764 15.0448 31.9488 14.9747 31.9432C13.4655 31.8173 12.0314 31.4197 10.6581 30.7822C4.59003 27.9673 1.75512 20.6743 4.33578 14.5041C5.31457 12.1646 6.87136 10.3041 8.93414 8.83244C11.6062 6.92559 13.1305 4.3205 13.4887 1.05162C13.5939 0.0897411 14.2295 -0.262196 15.0855 0.204966C17.1846 1.35033 18.8479 2.95095 20.0346 5.02438C21.3365 7.29757 21.9114 9.74673 21.6997 12.3687C21.6872 12.5259 21.6797 12.6837 21.6703 12.8415C21.8988 12.6718 22.0779 12.4965 22.217 12.2942C22.5939 11.7463 22.9791 11.2014 23.3147 10.6278C23.7675 9.85444 24.4181 9.73984 25.0343 10.3792C28.007 13.464 29.2012 17.133 28.5606 21.3663C27.7797 26.527 23.6347 30.7834 18.4997 31.7503C17.9812 31.848 17.4564 31.9131 16.9341 31.9933L16.9335 31.9939Z" fill="url(#paint0_linear_3_2166)"/>
<defs>
<linearGradient id="paint0_linear_3_2166" x1="16.0551" y1="0" x2="16.0551" y2="31.9939" gradientUnits="userSpaceOnUse">
<stop stop-color="white"/>
<stop offset="1" stop-color="white" stop-opacity="0.25"/>
</linearGradient>
</defs>
</svg>
