<svg width="32" height="32" viewBox="0 0 32 32" fill="none" xmlns="http://www.w3.org/2000/svg">
<path d="M16.9338 31.9939H15.1828C15.1133 31.9764 15.0451 31.9488 14.9749 31.9432C13.4657 31.8173 12.0317 31.4197 10.6584 30.7822C4.59027 27.9673 1.75536 20.6743 4.33603 14.5041C5.31481 12.1646 6.8716 10.3041 8.93438 8.83244C11.6065 6.92559 13.1307 4.3205 13.4889 1.05162C13.5941 0.0897411 14.2297 -0.262196 15.0858 0.204966C17.1849 1.35033 18.8481 2.95095 20.0348 5.02438C21.3367 7.29757 21.9116 9.74673 21.6999 12.3687C21.6874 12.5259 21.6799 12.6837 21.6705 12.8415C21.8991 12.6718 22.0782 12.4965 22.2172 12.2942C22.5942 11.7463 22.9793 11.2014 23.315 10.6278C23.7677 9.85444 24.4184 9.73984 25.0346 10.3792C28.0073 13.464 29.2015 17.133 28.5608 21.3663C27.7799 26.527 23.635 30.7834 18.4999 31.7503C17.9814 31.848 17.4567 31.9131 16.9344 31.9933L16.9338 31.9939Z" fill="url(#paint0_linear_3_2330)"/>
<defs>
<linearGradient id="paint0_linear_3_2330" x1="16.0554" y1="0" x2="16.0554" y2="31.9939" gradientUnits="userSpaceOnUse">
<stop stop-color="white"/>
<stop offset="1" stop-color="white" stop-opacity="0.25"/>
</linearGradient>
</defs>
</svg>
