<svg width="48" height="48" viewBox="0 0 48 48" fill="none" xmlns="http://www.w3.org/2000/svg">
<path fill-rule="evenodd" clip-rule="evenodd" d="M27.8442 6.47793C28.6035 6.46856 29.4567 6.53418 30.2817 6.65606C30.9754 6.75918 31.866 6.92793 32.2504 7.03106C32.6348 7.12481 33.291 7.32168 33.7035 7.46231C34.116 7.59356 34.9129 7.93106 35.4848 8.19356C36.0567 8.46543 36.9004 8.92481 37.3598 9.22481C37.8192 9.52481 38.5598 10.0592 39.0004 10.4061C39.441 10.7529 40.1535 11.4186 40.5942 11.8686C41.0348 12.3279 41.6629 13.0686 41.9817 13.4998C42.3098 13.9404 42.816 14.6998 43.1067 15.1873C43.3973 15.6748 43.8379 16.5654 44.091 17.1561C44.3442 17.7467 44.6723 18.6748 44.8223 19.2186C44.9723 19.7623 45.1692 20.5873 45.2535 21.0467C45.3754 21.6842 45.4129 22.4061 45.4129 23.9998C45.4129 25.5936 45.3754 26.3154 45.2535 26.9529C45.1692 27.4123 44.9723 28.2373 44.8223 28.7811C44.6723 29.3248 44.3442 30.2529 44.091 30.8436C43.8379 31.4342 43.3973 32.3248 43.1067 32.8123C42.816 33.2998 42.3098 34.0592 41.9817 34.4998C41.6629 34.9311 41.0535 35.6436 40.641 36.0748C40.2285 36.5154 39.5067 37.1717 39.0473 37.5467C38.5879 37.9217 37.8192 38.4748 37.3598 38.7748C36.9004 39.0748 36.0567 39.5342 35.4848 39.8061C34.9129 40.0686 34.116 40.4061 33.7035 40.5373C33.291 40.6779 32.6348 40.8748 32.2504 40.9686C31.866 41.0717 30.9754 41.2404 30.2817 41.3436C29.5879 41.4467 28.5567 41.5311 27.9848 41.5311C27.4129 41.5311 26.5129 41.4654 25.9692 41.3904C25.4254 41.3154 24.5817 41.1561 24.0942 41.0529C23.6067 40.9404 22.7817 40.7061 22.266 40.5279C21.7504 40.3498 20.8692 39.9748 20.2973 39.6936C19.7254 39.4217 18.9004 38.9529 18.4504 38.6529C18.0004 38.3529 17.3348 37.8654 16.9785 37.5748C16.6129 37.2748 16.2285 36.8904 16.1254 36.7311C16.0129 36.5436 15.9379 36.2529 15.9379 35.9998C15.9379 35.7092 16.0035 35.4748 16.1442 35.2592C16.266 35.0811 16.4817 34.8467 16.6223 34.7436C16.8192 34.5936 17.0254 34.5467 17.4379 34.5467C17.9442 34.5467 18.0098 34.5748 18.5254 34.9967C18.8348 35.2404 19.4817 35.7092 19.9692 36.0373C20.4567 36.3748 21.3004 36.8529 21.8442 37.1061C22.3879 37.3592 23.1004 37.6592 23.4379 37.7717C23.7754 37.8748 24.441 38.0529 24.9192 38.1561C25.3879 38.2592 26.2785 38.3904 26.8785 38.4467C27.6754 38.5123 28.2942 38.5123 29.1098 38.4373C29.7285 38.3811 30.5535 38.2686 30.9379 38.1936C31.3223 38.1186 32.0817 37.9029 32.6254 37.7248C33.1692 37.5373 34.0692 37.1529 34.641 36.8623C35.2129 36.5717 35.991 36.1029 36.3754 35.8217C36.7598 35.5498 37.3879 35.0436 37.7723 34.6967C38.1567 34.3592 38.7285 33.7592 39.0473 33.3748C39.366 32.9904 39.8817 32.2873 40.1817 31.8279C40.4817 31.3686 40.9035 30.5998 41.1192 30.1404C41.3348 29.6811 41.616 28.9779 41.7473 28.5936C41.8785 28.2092 42.0754 27.4498 42.1973 26.9061C42.3942 26.0342 42.4223 25.6873 42.4223 23.9529C42.4129 22.1248 42.3942 21.8998 42.1504 20.8592C42.0004 20.2404 41.7379 19.3498 41.5598 18.8904C41.3817 18.4311 41.0535 17.6904 40.8192 17.2498C40.5848 16.8092 40.2192 16.1998 40.0129 15.8904C39.7973 15.5811 39.366 15.0092 39.0473 14.6248C38.7285 14.2404 38.1567 13.6404 37.7723 13.3029C37.3879 12.9561 36.7598 12.4498 36.3754 12.1779C35.991 11.8967 35.2129 11.4279 34.641 11.1373C34.0692 10.8467 33.1692 10.4623 32.6254 10.2748C32.0817 10.0967 31.3223 9.88106 30.9379 9.80606C30.5535 9.73106 29.7098 9.61856 29.0629 9.55294C28.191 9.47794 27.6192 9.47794 26.8129 9.55294C26.2223 9.61856 25.3504 9.74981 24.891 9.85293C24.4317 9.94668 23.7754 10.1248 23.4379 10.2279C23.1004 10.3404 22.3879 10.6404 21.8442 10.8936C21.3004 11.1467 20.4567 11.6248 19.9692 11.9623C19.4817 12.2904 18.8348 12.7592 18.5254 13.0029C18.0098 13.4248 17.9442 13.4529 17.4379 13.4529C17.0254 13.4529 16.8192 13.4061 16.6223 13.2561C16.4817 13.1529 16.266 12.9186 16.1442 12.7404C16.0035 12.5248 15.9379 12.2904 15.9379 11.9998C15.9379 11.7467 16.0129 11.4561 16.1254 11.2779C16.2285 11.1092 16.5942 10.7342 16.9504 10.4529C17.2973 10.1623 17.9348 9.69356 18.3754 9.39356C18.816 9.10293 19.5942 8.65293 20.1098 8.39043C20.6254 8.12793 21.4317 7.77168 21.891 7.60293C22.3504 7.43418 23.1192 7.19981 23.5785 7.06856C24.0379 6.94668 24.9285 6.76856 25.5473 6.66543C26.166 6.57168 27.1973 6.48731 27.8442 6.47793ZM27.3285 13.7061C27.5629 13.7248 27.8442 13.8467 28.0692 14.0154C28.2754 14.1748 28.5004 14.4373 28.566 14.6061C28.6598 14.8311 28.6879 15.7873 28.6879 22.5467L31.7723 25.6404C33.4785 27.3373 34.9129 28.8467 34.9598 28.9967C35.016 29.1373 35.0629 29.4186 35.0629 29.6248C35.0629 29.8311 34.9973 30.1311 34.9223 30.2811C34.8473 30.4311 34.641 30.6654 34.4723 30.7873C34.3129 30.9092 34.041 31.0404 33.891 31.0779C33.741 31.1061 33.441 31.0967 33.2348 31.0404C32.916 30.9561 32.3442 30.4217 29.3723 27.4498C27.4504 25.5279 25.8379 23.8404 25.7817 23.6998C25.7254 23.5311 25.6879 21.9186 25.6879 19.1998C25.6879 14.9811 25.6879 14.9529 25.8942 14.5311C26.0535 14.2217 26.2223 14.0529 26.5317 13.8936C26.8223 13.7436 27.066 13.6873 27.3285 13.7061ZM3.79728 15.4686H9.9379C13.8285 15.4686 16.2004 15.5061 16.4067 15.5623C16.5848 15.6186 16.8754 15.7967 17.0442 15.9654C17.2129 16.1248 17.391 16.4248 17.4379 16.6217C17.4942 16.8373 17.5035 17.0998 17.4473 17.3248C17.391 17.5123 17.2692 17.7842 17.166 17.9342C17.0535 18.0748 16.8473 18.2529 16.6879 18.3279C16.4442 18.4498 15.5067 18.4686 10.0317 18.4686C4.15353 18.4686 3.62853 18.4592 3.31915 18.3092C3.12228 18.2154 2.8879 18.0186 2.7754 17.8592C2.65353 17.6811 2.56915 17.3811 2.5504 17.0623C2.52228 16.6404 2.55978 16.4904 2.7379 16.2186C2.85978 16.0404 3.14103 15.7967 3.3754 15.6748L3.79728 15.4686ZM12.1129 22.5279C18.3848 22.5561 18.5535 22.5561 18.8067 22.7436C18.9473 22.8467 19.1442 23.0436 19.2567 23.1936C19.4067 23.3904 19.4535 23.5873 19.4535 24.0092C19.4535 24.4217 19.4067 24.6186 19.2567 24.8154C19.1442 24.9654 18.9473 25.1717 18.8067 25.2748C18.5535 25.4529 18.3754 25.4623 12.2067 25.4904C8.2879 25.4998 5.7379 25.4811 5.53165 25.4248C5.35353 25.3779 5.0629 25.1811 4.90353 24.9936C4.71603 24.7967 4.5754 24.5154 4.5379 24.3092C4.50978 24.1123 4.50978 23.8217 4.5379 23.6529C4.56603 23.4842 4.69728 23.2123 4.81915 23.0529C4.93165 22.8936 5.1754 22.7061 5.35353 22.6404C5.61603 22.5373 6.91915 22.5186 12.1129 22.5279ZM7.5379 29.5404H13.941C19.8473 29.5404 20.3723 29.5498 20.691 29.6998C20.8785 29.7936 21.1129 29.9904 21.2254 30.1498C21.3473 30.3186 21.4317 30.6186 21.4504 30.9467C21.4785 31.3686 21.4504 31.5186 21.2629 31.7904C21.141 31.9686 20.8598 32.2123 20.2035 32.5404H14.0629C10.5754 32.5404 7.78165 32.4936 7.59415 32.4467C7.41603 32.3998 7.11603 32.2029 6.92853 32.0061C6.69415 31.7529 6.57228 31.5186 6.5254 31.2279C6.46915 30.8811 6.49728 30.7217 6.6754 30.3842C6.79728 30.1498 7.04103 29.8592 7.20978 29.7467L7.5379 29.5404Z" fill="#46B600"/>
<circle cx="28" cy="24" r="15" fill="#46B600" fill-opacity="0.25"/>
</svg>
