<svg width="48" height="48" viewBox="0 0 48 48" fill="none" xmlns="http://www.w3.org/2000/svg">
<g clip-path="url(#clip0_15_690)">
<path d="M26.5 1.5H21.5H15.5L13.5 7L7.5 10V16L11 17L12.5 21L12 25L7.5 28V30L13.5 38.5L18 41L19 37.5L24 35L29 37.5V40.5L31.5 39.5L36.5 35L41 27C39.6667 26.1667 36.9 24.4 36.5 24C36.1 23.6 36 22.5 36 22V19C37 18.3333 39.1 16.9 39.5 16.5C39.9 16.1 41 15.4583 41.5 15.1875V10.5L39 9.5L35.5 7.5L33.5 5L32 1.5H26.5Z" fill="#46B600" fill-opacity="0.25"/>
<path fill-rule="evenodd" clip-rule="evenodd" d="M13.9969 0H33.9844L34.05 1.37812C34.0875 2.37188 34.1625 2.97187 34.3125 3.46875C34.425 3.85313 34.6969 4.52812 34.9219 4.96875C35.1656 5.4375 35.5781 6.02813 35.925 6.4125C36.2531 6.76875 36.7687 7.2375 37.0781 7.4625C37.3875 7.67812 37.9125 7.9875 38.25 8.1375C38.5875 8.2875 39.1687 8.48438 39.5437 8.56875C39.9469 8.6625 40.6406 8.71875 42.375 8.71875V14.4375L43.0594 15.1219C43.5562 15.6375 43.9125 15.9 44.4375 16.1437C44.8219 16.3312 45.3656 16.5281 45.6375 16.5844C45.9 16.6406 46.275 16.6875 46.4531 16.6875C46.7719 16.6875 46.7906 16.7156 48 18.8438L47.8219 19.2C47.7281 19.3875 47.5687 19.8 47.4844 20.1094C47.3906 20.4375 47.325 21 47.325 21.4688C47.325 21.9375 47.3906 22.5 47.4844 22.8281C47.5687 23.1375 47.7281 23.55 48 24.0938L47.3906 25.1719C46.7906 26.2219 46.7719 26.25 46.4531 26.25C46.275 26.25 45.9 26.2969 45.6375 26.3531C45.3656 26.4094 44.8312 26.5969 44.4656 26.775C43.9687 27.0094 43.5938 27.2812 43.0969 27.7781C42.7219 28.1437 42.3469 28.6031 42.2625 28.7812C42.1781 28.9594 41.9531 29.4937 41.7562 29.9531C41.5594 30.4125 41.1563 31.2563 40.8469 31.8281C40.5469 32.4 40.0219 33.2625 39.7031 33.75C39.375 34.2375 38.7375 35.1 38.2781 35.6719C37.8281 36.2344 36.9844 37.1625 36.4219 37.7344C35.85 38.2969 34.95 39.1313 34.4062 39.5719C33.8625 40.0125 33.0656 40.6313 32.625 40.9406C32.1844 41.25 31.5469 41.6813 30.5625 42.2812L31.0031 43.2656L30.3844 44.325C29.7844 45.3562 29.7563 45.3844 29.4375 45.375C29.2594 45.375 28.8563 45.4406 28.5469 45.5156C28.2375 45.6 27.7313 45.7781 27.4219 45.9281C27.1125 46.0781 26.6063 46.425 26.3063 46.7063C26.0063 46.9781 25.6313 47.3812 25.2188 48H22.7812L22.5094 47.5969C22.3688 47.3813 21.9937 46.9781 21.6937 46.7063C21.3937 46.425 20.8875 46.0781 20.5781 45.9281C20.2687 45.7781 19.7625 45.6 19.4531 45.5156C19.1437 45.4406 18.7406 45.375 18.5625 45.375C18.2437 45.3844 18.2156 45.3563 16.9969 43.2656L17.4281 42.3281L16.1437 41.475C15.4406 40.9969 14.4187 40.2563 13.875 39.8156C13.3313 39.3844 12.4875 38.6437 12 38.1844C11.5125 37.7156 10.7438 36.9187 10.3031 36.4125C9.8625 35.9062 9.19688 35.0812 8.84063 34.5938C8.475 34.1063 7.93125 33.3 7.63125 32.8125C7.34063 32.325 6.85313 31.4156 6.55313 30.7969C6.2625 30.1781 5.925 29.4 5.80313 29.0625C5.625 28.5656 5.45625 28.3312 4.92188 27.7875C4.44375 27.3 4.07812 27.0375 3.5625 26.7937C3.17812 26.6062 2.63438 26.4094 2.3625 26.3531C2.1 26.2969 1.725 26.25 1.54688 26.25C1.22812 26.25 1.20937 26.2219 0 24.0938L0.178125 23.7375C0.271875 23.55 0.43125 23.1375 0.515625 22.8281C0.609375 22.5 0.675 21.9375 0.675 21.4688C0.675 21 0.609375 20.4375 0.515625 20.1094C0.43125 19.8 0.271875 19.3875 0 18.8438L0.609375 17.7656C1.20938 16.7156 1.22812 16.6875 1.54688 16.6875C1.725 16.6875 2.1 16.6406 2.3625 16.5844C2.63438 16.5281 3.17812 16.3312 3.5625 16.1437C4.0875 15.9 4.44375 15.6375 5.625 14.4375V8.71875H6.70312C7.35938 8.71875 8.05312 8.6625 8.45625 8.56875C8.83125 8.48438 9.4125 8.2875 9.75 8.1375C10.0875 7.9875 10.6125 7.67812 10.9219 7.4625C11.2312 7.2375 11.7469 6.76875 12.075 6.4125C12.4125 6.0375 12.8344 5.42812 13.0687 4.96875C13.3031 4.52812 13.575 3.85313 13.6875 3.46875C13.8375 2.95312 13.9031 2.4 13.9406 1.37812L13.9969 0ZM16.4813 3.87187C16.3031 4.59375 16.0687 5.25 15.7219 5.95312C15.4406 6.525 15 7.26562 14.7469 7.59375C14.4938 7.93125 14.0813 8.41875 13.8281 8.67188C13.5656 8.93437 13.1062 9.3375 12.7969 9.58125C12.4875 9.81562 11.925 10.1906 11.5406 10.3969C11.1469 10.6031 10.5375 10.8844 10.1812 11.0063C9.81562 11.1281 9.28125 11.2781 8.98125 11.3344L8.44687 11.4375L8.4375 14.3906C8.8875 14.9719 9.21563 15.3094 9.45938 15.5062C9.70312 15.7031 10.1344 15.9937 10.4344 16.1437C10.7344 16.2937 11.2125 16.4719 11.5125 16.5563C11.8125 16.6313 12.225 16.6969 12.4313 16.6969H12.8063C13.725 18.3281 13.9687 18.8625 13.9406 18.9375C13.9219 19.0219 13.8094 19.3031 13.6969 19.575L13.5094 20.0625H22.6031V2.82188H16.7344L16.4813 3.87187ZM25.4062 20.0625H34.5C34.2 19.3031 34.0969 19.0125 34.0687 18.9375C34.0406 18.8625 34.2844 18.3188 34.6125 17.7469L35.2031 16.6875C35.7844 16.6875 36.1969 16.6219 36.4969 16.5469C36.7969 16.4719 37.275 16.2844 37.575 16.1344C37.875 15.9844 38.2875 15.7219 38.4938 15.5531C38.7094 15.375 39.0375 15.0563 39.225 14.8406L39.5625 14.4375V11.4375C38.7281 11.2688 38.2125 11.1281 37.875 11.0156C37.5469 10.9031 37.0125 10.6781 36.7031 10.5187C36.3937 10.3687 35.85 10.0312 35.4844 9.76875C35.1281 9.51562 34.6031 9.08438 34.3125 8.80313C34.0312 8.52188 33.6094 8.04375 33.375 7.73438C33.1312 7.425 32.7937 6.91875 32.6156 6.60938C32.4375 6.3 32.1375 5.67188 31.95 5.20312C31.7625 4.74375 31.5375 4.0125 31.4437 3.58125L31.2656 2.8125H25.4062V20.0625ZM5.29688 18.4219C4.9875 18.6 4.40625 18.8719 4.00313 19.0125L3.27188 19.2656C3.39375 19.9969 3.42188 20.775 3.42188 21.4688C3.42188 22.1625 3.39375 22.95 3.34688 23.2031L3.27188 23.6719C4.33125 24.0375 4.94063 24.3188 5.29688 24.5344C5.6625 24.7406 6.17813 25.1156 6.45 25.35C6.72188 25.5844 6.96562 25.7812 6.98438 25.7812C7.0125 25.7812 7.32188 25.5469 7.66875 25.2562C8.01562 24.975 8.71875 24.525 9.23438 24.2719C9.75 24.0187 10.3219 23.7844 10.4906 23.7469C10.7625 23.6813 10.8 23.6437 10.7437 23.4375C10.7156 23.3062 10.6406 22.8281 10.5844 22.3594C10.5 21.7125 10.5 21.3094 10.5844 20.625C10.6406 20.1375 10.7156 19.6313 10.7437 19.5C10.8 19.2938 10.7625 19.2562 10.4906 19.1906C10.3219 19.1531 9.75 18.9188 9.23438 18.6656C8.71875 18.4125 8.01562 17.9625 7.66875 17.6813C7.32188 17.3906 7.02187 17.1562 6.99375 17.1562C6.975 17.1562 6.7125 17.3625 6.4125 17.625C6.1125 17.8781 5.60625 18.2344 5.29688 18.4219ZM38.7656 18.6656C38.25 18.9188 37.6875 19.1625 37.5188 19.2C37.2469 19.2563 37.2094 19.2938 37.2656 19.5C37.2938 19.6313 37.3688 20.1375 37.425 20.625C37.5094 21.3094 37.5094 21.7125 37.425 22.3594C37.3688 22.8281 37.2938 23.3062 37.2656 23.4375C37.2094 23.6437 37.2469 23.6812 37.5188 23.7375C37.6875 23.775 38.25 24.0187 38.7656 24.2719C39.2812 24.525 39.9937 24.975 40.3406 25.2562C40.6875 25.5469 40.9969 25.7812 41.0156 25.7812C41.0438 25.7812 41.2875 25.5844 41.5594 25.35C41.8312 25.1062 42.3469 24.7406 42.7125 24.525C43.0688 24.3188 43.6781 24.0375 44.0531 23.9062L44.7375 23.6719C44.6156 22.95 44.5781 22.1625 44.5781 21.4688C44.5781 20.775 44.6156 19.9969 44.6625 19.7344L44.7469 19.2656C43.8937 18.9937 43.4344 18.8063 43.1719 18.6844C42.9188 18.5531 42.45 18.2625 42.1406 18.0469C41.8312 17.8219 41.475 17.5313 41.3438 17.4C41.2219 17.2594 41.0719 17.1562 41.0156 17.1562C40.9688 17.1656 40.65 17.4 40.3125 17.6813C39.9844 17.9719 39.2812 18.4125 38.7656 18.6656ZM13.6969 23.3719C13.8094 23.6344 13.9125 23.925 13.9406 24C13.9687 24.075 13.725 24.6188 13.3969 25.1906L12.7969 26.25C12.2156 26.25 11.8125 26.3156 11.5125 26.3906C11.2125 26.4656 10.7344 26.6531 10.4344 26.8031C10.1344 26.9531 9.70312 27.2344 9.45938 27.4313C9.225 27.6375 8.91562 27.9375 8.78437 28.1062L8.53125 28.4062C9.54375 30.4781 10.1156 31.5 10.4625 32.0156C10.8094 32.5312 11.4094 33.3469 11.8031 33.8344C12.1969 34.3219 12.9187 35.1281 13.4062 35.625C13.9031 36.1125 14.6812 36.8344 15.1406 37.2188C15.6094 37.6125 16.275 38.1281 16.6219 38.3719C16.9688 38.6156 17.2781 38.7938 17.2969 38.7656C17.325 38.7375 17.2688 38.5406 17.1844 38.325L17.0156 37.9219C17.8219 36.5344 18.1125 36.0563 18.1875 35.9625C18.2812 35.8594 18.4688 35.8031 18.7031 35.8125C18.9094 35.8125 19.3125 35.7469 19.5938 35.6625C19.8844 35.5781 20.3906 35.3719 20.7188 35.1937C21.1219 34.9969 21.5531 34.65 21.9656 34.2188L22.5938 33.5625V22.875H13.5094L13.6969 23.3719ZM25.4062 33.5719C26.4469 34.6594 26.8875 34.9969 27.2812 35.2031C27.6094 35.3719 28.1156 35.5875 28.4062 35.6719C28.6875 35.7469 29.0906 35.8125 29.2969 35.8125C29.5406 35.8125 29.7188 35.8688 29.8125 35.9719C29.8875 36.0563 30.1875 36.5344 30.4688 37.0312L30.9938 37.9313C30.7313 38.5406 30.675 38.7469 30.7031 38.775C30.7219 38.7938 31.0313 38.6156 31.3781 38.3719C31.725 38.1281 32.4375 37.5656 32.9531 37.125C33.4688 36.675 34.3125 35.8781 34.8281 35.3438C35.3438 34.8 36.1219 33.8813 36.5625 33.2906C37.0125 32.6906 37.5562 31.9125 37.7719 31.5563C37.9969 31.1906 38.4 30.45 38.6719 29.9156C38.9344 29.3719 39.2062 28.7906 39.2625 28.6219C39.3562 28.3594 39.3469 28.2844 39.1781 28.0594C39.0656 27.9187 38.7844 27.6375 38.5406 27.4406C38.3063 27.2438 37.8656 26.9531 37.5656 26.8031C37.275 26.6531 36.7875 26.475 36.4875 26.3906C36.1969 26.3156 35.7844 26.25 35.5781 26.25H35.2031C34.275 24.6187 34.0312 24.0844 34.0594 24.0094C34.0875 23.925 34.1906 23.6438 34.3031 23.3719L34.5 22.8844H25.4062V33.5719ZM21.9844 37.7063C21.5719 37.9219 21.0187 38.1656 20.7656 38.2594C20.3719 38.3906 20.2969 38.4563 20.3063 38.6438C20.3063 38.7656 20.3719 39.2438 20.4375 39.7125C20.5219 40.3594 20.5313 40.7438 20.4469 41.4C20.3906 41.8594 20.3156 42.3656 20.2875 42.525C20.2312 42.7969 20.2406 42.8063 20.9156 43.0312C21.3 43.1625 21.9281 43.4625 22.3125 43.6875C22.7062 43.9219 23.2313 44.2969 23.4844 44.5125C23.7375 44.7375 23.9813 44.9156 24.0188 44.9156C24.0563 44.9156 24.3094 44.7188 24.5813 44.4844C24.8531 44.2406 25.3687 43.875 25.7344 43.6594C26.1 43.4438 26.7 43.1625 27.075 43.0406C27.75 42.8063 27.7594 42.7969 27.7031 42.525C27.675 42.3656 27.6 41.8594 27.5437 41.4C27.4687 40.7438 27.4688 40.3594 27.5625 39.7125C27.6281 39.2438 27.6844 38.7656 27.6937 38.6438C27.7031 38.4563 27.6281 38.3906 27.2344 38.2594C26.9719 38.1656 26.4281 37.9219 26.0156 37.7063C25.6031 37.4906 24.975 37.0875 24.6281 36.7969C24.2813 36.5156 23.9906 36.2906 23.9719 36.2906C23.9625 36.3 23.6719 36.525 23.3438 36.8063C23.0063 37.0875 22.3969 37.4906 21.9844 37.7063Z" fill="#46B600"/>
</g>
<defs>
<clipPath id="clip0_15_690">
<rect width="48" height="48" fill="white"/>
</clipPath>
</defs>
</svg>
