<svg width="48" height="49" viewBox="0 0 48 49" fill="none" xmlns="http://www.w3.org/2000/svg">
<g clip-path="url(#clip0_15_711)">
<path fill-rule="evenodd" clip-rule="evenodd" d="M21.1223 0.609056C21.8535 0.599681 22.3223 0.646556 22.8473 0.796556C23.2504 0.899681 23.8129 1.07781 24.0941 1.19031C24.3754 1.31218 24.8441 1.55593 25.1254 1.74343C25.4066 1.93093 25.866 2.30593 26.1473 2.58718C26.4285 2.85906 26.8316 3.35593 27.0566 3.69343C27.2723 4.03093 27.5629 4.57468 27.6848 4.91218C27.816 5.24968 27.9848 5.84968 28.0691 6.24343C28.2004 6.89031 28.2191 8.38093 28.2191 31.7247L28.716 32.3059C28.9879 32.6341 29.4004 33.2153 29.6441 33.5997C29.8785 33.9841 30.1879 34.5653 30.3191 34.8841C30.4504 35.2122 30.6566 35.8216 30.7691 36.2434C30.9566 36.9091 30.9848 37.2466 30.9754 38.6153C30.9754 40.0403 30.9473 40.3028 30.7223 41.1466C30.5816 41.6622 30.2629 42.5059 30.0098 43.0216C29.7566 43.5372 29.2973 44.2966 28.9973 44.7091C28.6879 45.1216 28.1629 45.7122 27.8348 46.0122C27.5066 46.3122 27.0004 46.7247 26.7191 46.9122C26.4379 47.1091 25.9129 47.4091 25.5473 47.5872C25.1816 47.7653 24.6191 47.9997 24.2816 48.1122C23.9441 48.2153 23.3723 48.3653 23.016 48.4497C22.5941 48.5434 21.9285 48.5997 21.1598 48.5997C20.4285 48.5997 19.7254 48.5434 19.3316 48.4591C18.9848 48.3747 18.4316 48.2247 18.0941 48.1122C17.7566 48.0091 17.1848 47.7653 16.8285 47.5872C16.4629 47.4091 15.9379 47.1091 15.6566 46.9122C15.3754 46.7247 14.8691 46.3122 14.541 46.0122C14.2129 45.7122 13.6879 45.1216 13.3785 44.7091C13.0691 44.2966 12.6098 43.5372 12.366 43.0216C12.1129 42.5059 11.8035 41.6997 11.6723 41.2403C11.5316 40.7434 11.4004 39.9934 11.3629 39.4122C11.3254 38.8684 11.3254 38.0716 11.3629 37.6309C11.4004 37.1903 11.5223 36.4966 11.6254 36.0841C11.7379 35.6716 11.9816 34.9966 12.1785 34.5841C12.366 34.1716 12.6941 33.5809 12.9004 33.2809C13.0973 32.9716 13.4441 32.5122 14.0629 31.8184V19.8841C14.0629 12.9278 14.1004 7.61218 14.1566 7.11531C14.2035 6.64656 14.316 6.01843 14.391 5.70906C14.4754 5.39968 14.6629 4.87468 14.8223 4.53718C14.9816 4.19968 15.3098 3.65593 15.5441 3.31843C15.7879 2.99031 16.2566 2.49343 16.5941 2.21218C16.9316 1.94031 17.5223 1.55593 17.9066 1.36843C18.291 1.18093 18.9473 0.927806 19.3598 0.815306C19.8941 0.674681 20.391 0.609056 21.1129 0.609056H21.1223ZM19.1535 3.90906C18.891 4.04968 18.4504 4.38718 18.1785 4.64968C17.8785 4.95906 17.5691 5.40906 17.3629 5.84968L17.0254 6.55281L16.9316 33.0091C16.1441 33.7216 15.741 34.1809 15.516 34.4903C15.3004 34.7997 14.9629 35.3716 14.7848 35.7559C14.5973 36.1403 14.3816 36.7497 14.3066 37.1153C14.2316 37.4809 14.166 38.1747 14.166 38.6622C14.166 39.2434 14.2316 39.8341 14.3629 40.3497C14.466 40.7903 14.691 41.4372 14.8691 41.8028C15.0379 42.1684 15.4129 42.7497 15.6941 43.1153C15.9754 43.4809 16.4535 43.9684 16.7535 44.2028C17.0629 44.4372 17.4941 44.7372 17.7285 44.8684C17.9629 45.0091 18.4598 45.2247 18.8254 45.3559C19.2004 45.4872 19.9035 45.6466 20.3723 45.7122C21.0285 45.7872 21.441 45.7872 22.041 45.7122C22.4816 45.6466 23.091 45.5153 23.4004 45.4122C23.7098 45.2997 24.2535 45.0559 24.6191 44.8684C24.9754 44.6809 25.5848 44.2216 25.9785 43.8559C26.3629 43.4903 26.8598 42.9184 27.0754 42.5903C27.291 42.2622 27.5816 41.7278 27.7129 41.3997C27.8441 41.0809 28.0129 40.4903 28.0973 40.0872C28.2098 39.5716 28.2379 39.0841 28.2098 38.3809C28.1723 37.6122 28.0973 37.1997 27.8629 36.5059C27.6941 36.0184 27.366 35.2966 27.1223 34.9122C26.8785 34.5278 26.4004 33.9278 26.0441 33.5809L25.416 32.9434C25.416 8.61531 25.3973 7.04968 25.266 6.55281C25.191 6.24343 25.0035 5.77468 24.8535 5.52156C24.7129 5.25906 24.3379 4.81843 24.0379 4.53718C23.7191 4.23718 23.241 3.90906 22.8848 3.74968C22.3691 3.51531 22.1348 3.46843 21.3379 3.44968C20.7285 3.42156 20.2691 3.45906 20.0254 3.53406C19.8191 3.60906 19.4254 3.77781 19.1535 3.90906ZM2.82227 6.22468C2.82227 5.44803 3.45187 4.81843 4.22852 4.81843H9.85352C10.6302 4.81843 11.2598 5.44803 11.2598 6.22468C11.2598 7.00133 10.6302 7.63093 9.85352 7.63093H4.22852C3.45187 7.63093 2.82227 7.00133 2.82227 6.22468ZM5.63477 11.8497C5.63477 11.073 6.26437 10.4434 7.04102 10.4434H9.85352C10.6302 10.4434 11.2598 11.073 11.2598 11.8497C11.2598 12.6263 10.6302 13.2559 9.85352 13.2559H7.04102C6.26436 13.2559 5.63477 12.6263 5.63477 11.8497ZM2.82227 17.4747C2.82227 16.698 3.45187 16.0684 4.22852 16.0684H9.85352C10.6302 16.0684 11.2598 16.698 11.2598 17.4747C11.2598 18.2513 10.6302 18.8809 9.85352 18.8809H4.22852C3.45187 18.8809 2.82227 18.2513 2.82227 17.4747ZM5.63477 23.1934C5.63477 22.4168 6.26437 21.7872 7.04102 21.7872H9.85352C10.6302 21.7872 11.2598 22.4168 11.2598 23.1934C11.2598 23.9701 10.6302 24.5997 9.85352 24.5997H7.04102C6.26437 24.5997 5.63477 23.9701 5.63477 23.1934ZM2.82227 28.8184C2.82227 28.0418 3.45187 27.4122 4.22852 27.4122H9.85352C10.6302 27.4122 11.2598 28.0418 11.2598 28.8184C11.2598 29.5951 10.6302 30.2247 9.85352 30.2247H4.22852C3.45187 30.2247 2.82227 29.5951 2.82227 28.8184ZM19.791 17.4747C19.791 16.698 20.4206 16.0684 21.1973 16.0684C21.9739 16.0684 22.6035 16.698 22.6035 17.4747V34.6778L23.1379 34.9591C23.4285 35.1091 23.8598 35.4091 24.0941 35.6247C24.3285 35.8309 24.6848 36.2997 24.8723 36.6559C25.1035 37.0872 25.2566 37.5372 25.3316 38.0059C25.4254 38.5778 25.4254 38.8403 25.3223 39.4122C25.2566 39.7966 25.0691 40.3684 24.9098 40.6778C24.7598 40.9872 24.4035 41.4653 24.1316 41.7278C23.8504 42.0091 23.3816 42.3466 23.0441 42.5059C22.7254 42.6559 22.1816 42.8247 21.8254 42.8809C21.3941 42.9466 21.0004 42.9466 20.5598 42.8809C20.2129 42.8247 19.641 42.6466 19.2754 42.4684C18.8348 42.2528 18.4598 41.9809 18.1504 41.6434C17.8879 41.3716 17.5785 40.9309 17.4566 40.6778C17.3254 40.4153 17.166 39.9934 17.1004 39.7403C17.0348 39.4778 16.9785 38.9903 16.9785 38.6341C16.9785 38.2872 17.0535 37.7622 17.1473 37.4622C17.241 37.1716 17.4285 36.7403 17.5598 36.5059C17.691 36.2716 18.0191 35.8872 18.2816 35.6341C18.5441 35.3903 18.9941 35.0809 19.791 34.6778V17.4747ZM19.9598 38.0247C19.866 38.1934 19.791 38.5028 19.791 38.7091C19.791 38.9434 19.866 39.2059 19.9973 39.4028C20.1191 39.5809 20.3254 39.8059 20.4473 39.8997C20.5879 40.0122 20.8504 40.0872 21.1035 40.0872C21.3754 40.0966 21.6473 40.0403 21.8441 39.9184C22.0223 39.8247 22.2473 39.6372 22.341 39.5059C22.4441 39.3747 22.5473 39.0841 22.566 38.8497C22.6035 38.5497 22.566 38.3341 22.4441 38.0997C22.3504 37.9216 22.1348 37.6778 21.9473 37.5559C21.7129 37.4059 21.4879 37.3497 21.1504 37.3497C20.8504 37.3497 20.5879 37.4153 20.4004 37.5372C20.2504 37.6403 20.0441 37.8559 19.9598 38.0247Z" fill="#46B600"/>
<path d="M37.3223 3.41218C37.3223 2.63553 37.9519 2.00593 38.7285 2.00593C39.5052 2.00593 40.1348 2.63553 40.1348 3.41218V13.9591C40.1348 20.5309 40.1535 25.9122 40.1816 25.9122L42.4666 24.2573C43.0652 23.8238 43.9013 23.9531 44.341 24.5472C44.7758 25.1346 44.6633 25.9615 44.0875 26.4115L39.102 30.3078C38.8818 30.4799 38.5734 30.4821 38.3508 30.3134L33.366 26.5351C32.7538 26.071 32.6307 25.1999 33.0904 24.5844C33.5493 23.9698 34.4177 23.8398 35.0365 24.2931L37.2473 25.9122C37.2941 25.9122 37.3223 20.5309 37.3223 13.9591V3.41218Z" fill="#46B600"/>
<path fill-rule="evenodd" clip-rule="evenodd" d="M23.5 2.5L25.5 4.5L26.5 6.5V11L27.5 33L29 36V41L27.5 44.5L23.5 47.5H19L15 45L12.5 42C12.6667 40.6667 13 37.9 13 37.5C13 37.1 13.6667 35.3333 14 34.5L16 32V5.5L18.5 3.5L22.5 2L23.5 2.5ZM21 41C22.1046 41 23 40.1046 23 39C23 37.8954 22.1046 37 21 37C19.8954 37 19 37.8954 19 39C19 40.1046 19.8954 41 21 41Z" fill="#46B600" fill-opacity="0.25"/>
</g>
<defs>
<clipPath id="clip0_15_711">
<rect width="48" height="48" fill="white" transform="translate(0 0.599609)"/>
</clipPath>
</defs>
</svg>
