<svg width="128" height="128" viewBox="0 0 128 128" fill="none" xmlns="http://www.w3.org/2000/svg">
<g filter="url(#filter0_d_335_482)">
<rect x="16" y="24" width="64" height="64" rx="8" fill="white"/>
<g clip-path="url(#clip0_335_482)">
<path fill-rule="evenodd" clip-rule="evenodd" d="M37.9969 32H57.9844L58.05 33.3781C58.0875 34.3719 58.1625 34.9719 58.3125 35.4688C58.425 35.8531 58.6969 36.5281 58.9219 36.9688C59.1656 37.4375 59.5781 38.0281 59.925 38.4125C60.2531 38.7688 60.7687 39.2375 61.0781 39.4625C61.3875 39.6781 61.9125 39.9875 62.25 40.1375C62.5875 40.2875 63.1687 40.4844 63.5437 40.5688C63.9469 40.6625 64.6406 40.7188 66.375 40.7188V46.4375L67.0594 47.1219C67.5562 47.6375 67.9125 47.9 68.4375 48.1437C68.8219 48.3312 69.3656 48.5281 69.6375 48.5844C69.9 48.6406 70.275 48.6875 70.4531 48.6875C70.7719 48.6875 70.7906 48.7156 72 50.8438L71.8219 51.2C71.7281 51.3875 71.5687 51.8 71.4844 52.1094C71.3906 52.4375 71.325 53 71.325 53.4688C71.325 53.9375 71.3906 54.5 71.4844 54.8281C71.5687 55.1375 71.7281 55.55 72 56.0938L71.3906 57.1719C70.7906 58.2219 70.7719 58.25 70.4531 58.25C70.275 58.25 69.9 58.2969 69.6375 58.3531C69.3656 58.4094 68.8312 58.5969 68.4656 58.775C67.9687 59.0094 67.5938 59.2812 67.0969 59.7781C66.7219 60.1437 66.3469 60.6031 66.2625 60.7812C66.1781 60.9594 65.9531 61.4937 65.7562 61.9531C65.5594 62.4125 65.1563 63.2563 64.8469 63.8281C64.5469 64.4 64.0219 65.2625 63.7031 65.75C63.375 66.2375 62.7375 67.1 62.2781 67.6719C61.8281 68.2344 60.9844 69.1625 60.4219 69.7344C59.85 70.2969 58.95 71.1313 58.4062 71.5719C57.8625 72.0125 57.0656 72.6313 56.625 72.9406C56.1844 73.25 55.5469 73.6813 54.5625 74.2812L55.0031 75.2656L54.3844 76.325C53.7844 77.3562 53.7563 77.3844 53.4375 77.375C53.2594 77.375 52.8563 77.4406 52.5469 77.5156C52.2375 77.6 51.7313 77.7781 51.4219 77.9281C51.1125 78.0781 50.6063 78.425 50.3063 78.7063C50.0063 78.9781 49.6313 79.3812 49.2188 80H46.7812L46.5094 79.5969C46.3688 79.3813 45.9937 78.9781 45.6937 78.7063C45.3937 78.425 44.8875 78.0781 44.5781 77.9281C44.2687 77.7781 43.7625 77.6 43.4531 77.5156C43.1437 77.4406 42.7406 77.375 42.5625 77.375C42.2437 77.3844 42.2156 77.3563 40.9969 75.2656L41.4281 74.3281L40.1437 73.475C39.4406 72.9969 38.4187 72.2563 37.875 71.8156C37.3313 71.3844 36.4875 70.6437 36 70.1844C35.5125 69.7156 34.7438 68.9187 34.3031 68.4125C33.8625 67.9062 33.1969 67.0812 32.8406 66.5938C32.475 66.1063 31.9313 65.3 31.6313 64.8125C31.3406 64.325 30.8531 63.4156 30.5531 62.7969C30.2625 62.1781 29.925 61.4 29.8031 61.0625C29.625 60.5656 29.4563 60.3312 28.9219 59.7875C28.4437 59.3 28.0781 59.0375 27.5625 58.7937C27.1781 58.6062 26.6344 58.4094 26.3625 58.3531C26.1 58.2969 25.725 58.25 25.5469 58.25C25.2281 58.25 25.2094 58.2219 24 56.0938L24.1781 55.7375C24.2719 55.55 24.4313 55.1375 24.5156 54.8281C24.6094 54.5 24.675 53.9375 24.675 53.4688C24.675 53 24.6094 52.4375 24.5156 52.1094C24.4313 51.8 24.2719 51.3875 24 50.8438L24.6094 49.7656C25.2094 48.7156 25.2281 48.6875 25.5469 48.6875C25.725 48.6875 26.1 48.6406 26.3625 48.5844C26.6344 48.5281 27.1781 48.3312 27.5625 48.1437C28.0875 47.9 28.4437 47.6375 29.625 46.4375V40.7188H30.7031C31.3594 40.7188 32.0531 40.6625 32.4562 40.5688C32.8312 40.4844 33.4125 40.2875 33.75 40.1375C34.0875 39.9875 34.6125 39.6781 34.9219 39.4625C35.2312 39.2375 35.7469 38.7688 36.075 38.4125C36.4125 38.0375 36.8344 37.4281 37.0687 36.9688C37.3031 36.5281 37.575 35.8531 37.6875 35.4688C37.8375 34.9531 37.9031 34.4 37.9406 33.3781L37.9969 32ZM40.4813 35.8719C40.3031 36.5938 40.0687 37.25 39.7219 37.9531C39.4406 38.525 39 39.2656 38.7469 39.5938C38.4938 39.9313 38.0813 40.4187 37.8281 40.6719C37.5656 40.9344 37.1062 41.3375 36.7969 41.5812C36.4875 41.8156 35.925 42.1906 35.5406 42.3969C35.1469 42.6031 34.5375 42.8844 34.1812 43.0063C33.8156 43.1281 33.2813 43.2781 32.9813 43.3344L32.4469 43.4375L32.4375 46.3906C32.8875 46.9719 33.2156 47.3094 33.4594 47.5062C33.7031 47.7031 34.1344 47.9937 34.4344 48.1437C34.7344 48.2937 35.2125 48.4719 35.5125 48.5563C35.8125 48.6313 36.225 48.6969 36.4313 48.6969H36.8063C37.725 50.3281 37.9687 50.8625 37.9406 50.9375C37.9219 51.0219 37.8094 51.3031 37.6969 51.575L37.5094 52.0625H46.6031V34.8219H40.7344L40.4813 35.8719ZM49.4062 52.0625H58.5C58.2 51.3031 58.0969 51.0125 58.0687 50.9375C58.0406 50.8625 58.2844 50.3188 58.6125 49.7469L59.2031 48.6875C59.7844 48.6875 60.1969 48.6219 60.4969 48.5469C60.7969 48.4719 61.275 48.2844 61.575 48.1344C61.875 47.9844 62.2875 47.7219 62.4938 47.5531C62.7094 47.375 63.0375 47.0563 63.225 46.8406L63.5625 46.4375V43.4375C62.7281 43.2688 62.2125 43.1281 61.875 43.0156C61.5469 42.9031 61.0125 42.6781 60.7031 42.5187C60.3937 42.3687 59.85 42.0312 59.4844 41.7687C59.1281 41.5156 58.6031 41.0844 58.3125 40.8031C58.0312 40.5219 57.6094 40.0437 57.375 39.7344C57.1312 39.425 56.7937 38.9187 56.6156 38.6094C56.4375 38.3 56.1375 37.6719 55.95 37.2031C55.7625 36.7438 55.5375 36.0125 55.4437 35.5813L55.2656 34.8125H49.4062V52.0625ZM29.2969 50.4219C28.9875 50.6 28.4062 50.8719 28.0031 51.0125L27.2719 51.2656C27.3938 51.9969 27.4219 52.775 27.4219 53.4688C27.4219 54.1625 27.3938 54.95 27.3469 55.2031L27.2719 55.6719C28.3313 56.0375 28.9406 56.3188 29.2969 56.5344C29.6625 56.7406 30.1781 57.1156 30.45 57.35C30.7219 57.5844 30.9656 57.7812 30.9844 57.7812C31.0125 57.7812 31.3219 57.5469 31.6688 57.2562C32.0156 56.975 32.7188 56.525 33.2344 56.2719C33.75 56.0187 34.3219 55.7844 34.4906 55.7469C34.7625 55.6813 34.8 55.6437 34.7437 55.4375C34.7156 55.3062 34.6406 54.8281 34.5844 54.3594C34.5 53.7125 34.5 53.3094 34.5844 52.625C34.6406 52.1375 34.7156 51.6313 34.7437 51.5C34.8 51.2938 34.7625 51.2562 34.4906 51.1906C34.3219 51.1531 33.75 50.9188 33.2344 50.6656C32.7188 50.4125 32.0156 49.9625 31.6688 49.6813C31.3219 49.3906 31.0219 49.1562 30.9937 49.1562C30.975 49.1562 30.7125 49.3625 30.4125 49.625C30.1125 49.8781 29.6062 50.2344 29.2969 50.4219ZM62.7656 50.6656C62.25 50.9188 61.6875 51.1625 61.5188 51.2C61.2469 51.2563 61.2094 51.2938 61.2656 51.5C61.2938 51.6313 61.3688 52.1375 61.425 52.625C61.5094 53.3094 61.5094 53.7125 61.425 54.3594C61.3688 54.8281 61.2938 55.3062 61.2656 55.4375C61.2094 55.6437 61.2469 55.6812 61.5188 55.7375C61.6875 55.775 62.25 56.0187 62.7656 56.2719C63.2812 56.525 63.9937 56.975 64.3406 57.2562C64.6875 57.5469 64.9969 57.7812 65.0156 57.7812C65.0438 57.7812 65.2875 57.5844 65.5594 57.35C65.8312 57.1062 66.3469 56.7406 66.7125 56.525C67.0688 56.3188 67.6781 56.0375 68.0531 55.9062L68.7375 55.6719C68.6156 54.95 68.5781 54.1625 68.5781 53.4688C68.5781 52.775 68.6156 51.9969 68.6625 51.7344L68.7469 51.2656C67.8937 50.9937 67.4344 50.8063 67.1719 50.6844C66.9188 50.5531 66.45 50.2625 66.1406 50.0469C65.8312 49.8219 65.475 49.5313 65.3438 49.4C65.2219 49.2594 65.0719 49.1562 65.0156 49.1562C64.9688 49.1656 64.65 49.4 64.3125 49.6813C63.9844 49.9719 63.2812 50.4125 62.7656 50.6656ZM37.6969 55.3719C37.8094 55.6344 37.9125 55.925 37.9406 56C37.9687 56.075 37.725 56.6188 37.3969 57.1906L36.7969 58.25C36.2156 58.25 35.8125 58.3156 35.5125 58.3906C35.2125 58.4656 34.7344 58.6531 34.4344 58.8031C34.1344 58.9531 33.7031 59.2344 33.4594 59.4313C33.225 59.6375 32.9156 59.9375 32.7844 60.1062L32.5312 60.4062C33.5437 62.4781 34.1156 63.5 34.4625 64.0156C34.8094 64.5312 35.4094 65.3469 35.8031 65.8344C36.1969 66.3219 36.9187 67.1281 37.4062 67.625C37.9031 68.1125 38.6812 68.8344 39.1406 69.2188C39.6094 69.6125 40.275 70.1281 40.6219 70.3719C40.9688 70.6156 41.2781 70.7938 41.2969 70.7656C41.325 70.7375 41.2688 70.5406 41.1844 70.325L41.0156 69.9219C41.8219 68.5344 42.1125 68.0563 42.1875 67.9625C42.2812 67.8594 42.4688 67.8031 42.7031 67.8125C42.9094 67.8125 43.3125 67.7469 43.5938 67.6625C43.8844 67.5781 44.3906 67.3719 44.7188 67.1937C45.1219 66.9969 45.5531 66.65 45.9656 66.2188L46.5938 65.5625V54.875H37.5094L37.6969 55.3719ZM49.4062 65.5719C50.4469 66.6594 50.8875 66.9969 51.2812 67.2031C51.6094 67.3719 52.1156 67.5875 52.4062 67.6719C52.6875 67.7469 53.0906 67.8125 53.2969 67.8125C53.5406 67.8125 53.7188 67.8688 53.8125 67.9719C53.8875 68.0563 54.1875 68.5344 54.4688 69.0312L54.9938 69.9313C54.7313 70.5406 54.675 70.7469 54.7031 70.775C54.7219 70.7938 55.0313 70.6156 55.3781 70.3719C55.725 70.1281 56.4375 69.5656 56.9531 69.125C57.4688 68.675 58.3125 67.8781 58.8281 67.3438C59.3438 66.8 60.1219 65.8813 60.5625 65.2906C61.0125 64.6906 61.5562 63.9125 61.7719 63.5563C61.9969 63.1906 62.4 62.45 62.6719 61.9156C62.9344 61.3719 63.2062 60.7906 63.2625 60.6219C63.3562 60.3594 63.3469 60.2844 63.1781 60.0594C63.0656 59.9187 62.7844 59.6375 62.5406 59.4406C62.3063 59.2438 61.8656 58.9531 61.5656 58.8031C61.275 58.6531 60.7875 58.475 60.4875 58.3906C60.1969 58.3156 59.7844 58.25 59.5781 58.25H59.2031C58.275 56.6187 58.0312 56.0844 58.0594 56.0094C58.0875 55.925 58.1906 55.6438 58.3031 55.3719L58.5 54.8844H49.4062V65.5719ZM45.9844 69.7063C45.5719 69.9219 45.0187 70.1656 44.7656 70.2594C44.3719 70.3906 44.2969 70.4563 44.3063 70.6438C44.3063 70.7656 44.3719 71.2438 44.4375 71.7125C44.5219 72.3594 44.5313 72.7438 44.4469 73.4C44.3906 73.8594 44.3156 74.3656 44.2875 74.525C44.2312 74.7969 44.2406 74.8063 44.9156 75.0312C45.3 75.1625 45.9281 75.4625 46.3125 75.6875C46.7062 75.9219 47.2313 76.2969 47.4844 76.5125C47.7375 76.7375 47.9813 76.9156 48.0188 76.9156C48.0563 76.9156 48.3094 76.7188 48.5813 76.4844C48.8531 76.2406 49.3687 75.875 49.7344 75.6594C50.1 75.4438 50.7 75.1625 51.075 75.0406C51.75 74.8063 51.7594 74.7969 51.7031 74.525C51.675 74.3656 51.6 73.8594 51.5437 73.4C51.4687 72.7438 51.4688 72.3594 51.5625 71.7125C51.6281 71.2438 51.6844 70.7656 51.6937 70.6438C51.7031 70.4563 51.6281 70.3906 51.2344 70.2594C50.9719 70.1656 50.4281 69.9219 50.0156 69.7063C49.6031 69.4906 48.975 69.0875 48.6281 68.7969C48.2813 68.5156 47.9906 68.2906 47.9719 68.2906C47.9625 68.3 47.6719 68.525 47.3438 68.8063C47.0063 69.0875 46.3969 69.4906 45.9844 69.7063Z" fill="#46B600"/>
</g>
</g>
<defs>
<filter id="filter0_d_335_482" x="0" y="0" width="128" height="128" filterUnits="userSpaceOnUse" color-interpolation-filters="sRGB">
<feFlood flood-opacity="0" result="BackgroundImageFix"/>
<feColorMatrix in="SourceAlpha" type="matrix" values="0 0 0 0 0 0 0 0 0 0 0 0 0 0 0 0 0 0 127 0" result="hardAlpha"/>
<feOffset dx="16" dy="8"/>
<feGaussianBlur stdDeviation="16"/>
<feComposite in2="hardAlpha" operator="out"/>
<feColorMatrix type="matrix" values="0 0 0 0 0 0 0 0 0 0 0 0 0 0 0 0 0 0 0.06 0"/>
<feBlend mode="normal" in2="BackgroundImageFix" result="effect1_dropShadow_335_482"/>
<feBlend mode="normal" in="SourceGraphic" in2="effect1_dropShadow_335_482" result="shape"/>
</filter>
<clipPath id="clip0_335_482">
<rect width="48" height="48" fill="white" transform="translate(24 32)"/>
</clipPath>
</defs>
</svg>
