<svg width="48" height="49" viewBox="0 0 48 49" fill="none" xmlns="http://www.w3.org/2000/svg">
<path fill-rule="evenodd" clip-rule="evenodd" d="M21.8909 3.04631C22.2003 3.03693 22.9128 3.10256 23.4847 3.17756C24.0566 3.26193 24.9566 3.43068 25.5003 3.56193C26.0441 3.69318 26.9066 3.96506 27.4222 4.17131C27.9378 4.37756 28.7441 4.77131 29.2034 5.04318C29.6628 5.32443 30.3659 5.79318 30.7503 6.10256C31.1347 6.41193 31.8191 7.04006 32.2597 7.49943C32.7003 7.95881 33.1784 8.51193 33.6097 9.14006L35.0159 9.13068C36.3284 9.12131 36.4409 9.14006 36.7409 9.33693C36.9191 9.45881 37.1441 9.65568 37.2378 9.78693C37.3409 9.91818 37.4441 10.2088 37.4722 10.4432C37.5097 10.7619 37.4722 10.9588 37.3222 11.2588C37.2003 11.5026 36.9847 11.7463 36.7784 11.8682C36.5628 11.9901 36.1972 12.0838 35.2972 12.1588L35.6441 13.0588C35.8316 13.5557 36.1034 14.3807 36.2441 14.8963C36.3847 15.4119 36.5159 15.8526 36.5347 15.8807C36.5534 15.9088 36.7034 15.7963 36.8722 15.6369C37.0316 15.4682 37.2659 15.2901 37.3784 15.2338C37.5003 15.1776 37.7628 15.1307 37.9691 15.1307C38.1753 15.1307 38.4941 15.2057 38.6816 15.2901C38.8784 15.3838 39.1034 15.5619 39.1878 15.6932C39.2722 15.8244 39.3941 16.0776 39.4503 16.2557C39.5347 16.4994 39.5347 16.6776 39.4597 16.9588C39.3847 17.2494 39.1034 17.5869 37.1722 19.5463L37.2941 20.6901C37.3597 21.3182 37.4347 22.5744 37.4722 23.4744C37.5003 24.4776 37.4816 25.5463 37.4159 26.2401C37.3503 26.8588 37.2191 27.7869 37.1066 28.3026C37.0034 28.8182 36.7878 29.6619 36.6378 30.1776C36.4878 30.6932 36.3941 31.1244 36.4409 31.1432C36.4784 31.1526 36.6566 31.2463 36.8159 31.3494C37.0034 31.4619 37.2003 31.7057 37.3222 31.9776C37.4722 32.3057 37.5097 32.5307 37.4722 32.8026C37.4347 33.0088 37.3316 33.2807 37.2378 33.4119C37.1441 33.5432 36.9191 33.7401 36.7409 33.8619C36.4878 34.0401 36.3284 34.0776 35.9534 34.0494C35.6909 34.0213 35.4097 33.9838 35.3159 33.9463C35.1847 33.8901 35.1003 33.9932 34.8659 34.4619C34.6972 34.7901 34.3034 35.4932 33.9847 36.0369C33.6566 36.5807 33.0284 37.5276 32.5784 38.1463C32.1284 38.7651 31.5753 39.4963 31.3503 39.7588C31.1253 40.0307 30.9378 40.2838 30.9378 40.3213C30.9378 40.3682 31.3222 40.5838 31.8003 40.8182C32.2691 41.0526 32.7847 41.3432 32.9347 41.4744C33.0847 41.6057 33.2722 41.8213 33.3378 41.9619C33.4128 42.1119 33.4691 42.4026 33.4691 42.6182C33.4691 42.8807 33.4034 43.1338 33.2628 43.3401C33.1409 43.5182 32.9441 43.7432 32.8128 43.8369C32.6816 43.9401 32.3909 44.0432 32.1566 44.0713C31.7722 44.1182 31.6128 44.0619 30.3003 43.4057C29.5222 43.0119 28.8378 42.6932 28.7816 42.6932C28.7253 42.6932 28.4253 42.9276 28.0972 43.2182C27.7784 43.5088 27.2253 43.9588 26.8597 44.2119C26.4941 44.4651 25.9316 44.8213 25.5941 44.9901C25.2566 45.1588 24.6753 45.4026 24.3003 45.5432C23.9347 45.6744 23.1378 45.8713 22.5472 45.9744C21.9566 46.0776 21.2722 46.1619 21.0191 46.1619C20.7753 46.1619 20.1941 46.0963 19.7347 46.0213C19.2753 45.9463 18.5722 45.7963 18.1878 45.6838C17.8034 45.5807 17.1472 45.3369 16.7347 45.1401C16.3222 44.9526 15.6472 44.5682 15.2347 44.2869C14.8222 44.0057 14.1753 43.4526 13.7816 43.0682C13.3972 42.6838 12.8816 42.0932 12.6378 41.7557C12.4034 41.4182 12.0566 40.8744 11.8691 40.5369C11.6909 40.1994 11.4097 39.5807 11.2503 39.1494C11.1003 38.7276 10.8847 37.9494 10.7722 37.4151C10.6691 36.8901 10.5753 36.0369 10.5472 34.5651L9.7597 34.1526C9.28157 33.9088 8.8972 33.6276 8.77532 33.4588C8.6722 33.3088 8.56907 32.9901 8.54095 32.7557C8.5222 32.5119 8.5597 32.2026 8.6347 32.0151C8.7097 31.8369 8.87845 31.5932 9.01907 31.4713C9.16907 31.3588 9.44095 31.2088 9.62845 31.1526C9.91907 31.0588 10.0691 31.0682 10.4534 31.1994C10.7066 31.2838 10.9784 31.3682 11.0441 31.3776C11.1097 31.3869 11.2972 31.0588 11.4847 30.5994C11.6722 30.1588 12.0378 29.4463 12.3097 29.0151C12.5816 28.5838 13.2284 27.7776 13.7534 27.2151C14.2878 26.6526 14.7191 26.1276 14.7191 26.0526C14.7191 25.9401 14.6722 25.9307 14.4847 26.0057C14.3534 26.0619 14.1097 26.0994 13.9409 26.0994C13.7816 26.0994 13.4722 26.0057 13.2753 25.8838C13.0691 25.7713 12.8159 25.5276 12.7128 25.3494C12.6003 25.1526 12.5253 24.8526 12.5253 24.5994C12.5253 24.3557 12.6003 24.0369 12.7034 23.8494C12.8441 23.6057 13.0691 23.4369 13.5941 23.1744C13.9784 22.9869 14.4566 22.7994 14.6441 22.7713C14.8972 22.7432 15.0003 22.6776 15.0003 22.5557C15.0003 22.4713 14.8503 22.1432 14.6628 21.8338C14.4753 21.5244 14.0347 20.8026 13.6972 20.2401C13.3597 19.6682 12.8628 18.7588 12.1409 17.2119L11.3441 17.6057C10.9034 17.8307 10.4347 18.0369 10.2847 18.0744C10.1441 18.1026 9.86282 18.0932 9.65657 18.0369C9.45032 17.9807 9.16907 17.8401 9.01907 17.7276C8.87845 17.6057 8.69095 17.3338 8.5972 17.1182C8.46595 16.7901 8.45657 16.6588 8.54095 16.3213C8.5972 16.1057 8.72845 15.8151 8.8222 15.6651C8.9347 15.5057 9.43157 15.1963 11.4378 14.1932L11.4847 13.4619C11.5128 13.0682 11.6066 12.3838 11.6816 11.9432C11.7659 11.5026 11.9628 10.7901 12.1128 10.3494C12.2722 9.90881 12.4972 9.36506 12.8347 8.70881L11.9816 8.28693C11.5128 8.05256 11.0159 7.72443 10.8659 7.55568C10.7159 7.39631 10.5659 7.09631 10.5378 6.89943C10.5097 6.71193 10.5097 6.41193 10.5378 6.24318C10.5659 6.08381 10.7066 5.81193 10.8472 5.64318C10.9972 5.48381 11.2503 5.29631 11.4097 5.22131C11.5784 5.15568 11.8597 5.09943 12.0191 5.09943C12.2066 5.09943 12.7691 5.31506 14.6253 6.22443L15.1597 5.74631C15.4597 5.47443 15.9566 5.09006 16.2659 4.88381C16.5753 4.66818 17.1472 4.34943 17.5316 4.15256C17.9159 3.96506 18.5347 3.71193 18.8909 3.59943C19.2472 3.47756 19.9503 3.30881 20.4378 3.21506C20.9253 3.13068 21.5816 3.04631 21.8909 3.04631ZM18.9378 6.79631C18.6003 6.95568 18.0753 7.26506 17.7659 7.48068C17.4566 7.70568 16.9691 8.13693 16.6878 8.43693C16.4066 8.74631 15.9941 9.27131 15.7691 9.59943C15.5534 9.93693 15.2441 10.5369 15.0941 10.9307C14.9347 11.3338 14.7472 11.9432 14.6628 12.2901C14.5784 12.6463 14.5034 13.3401 14.5034 13.8651C14.5034 14.6338 14.5503 14.9432 14.7472 15.5526C14.8784 15.9651 15.2347 16.7901 15.5441 17.3807C15.8441 17.9713 16.4534 19.0307 16.8847 19.7244C17.4097 20.5588 17.7659 21.2526 17.9347 21.7588C18.0753 22.1901 18.2253 22.9026 18.2722 23.3526C18.3191 23.8401 18.3191 24.4494 18.2722 24.8338C18.2253 25.1994 18.1222 25.7244 18.0378 26.0057C17.9534 26.2869 17.7097 26.8588 17.5034 27.2713C17.2222 27.8057 16.8472 28.2838 16.1722 29.0057C15.6566 29.5494 15.0659 30.2432 14.8691 30.5526C14.6628 30.8619 14.3722 31.3776 14.2316 31.6963C14.0909 32.0244 13.8753 32.6338 13.7628 33.0557C13.5847 33.7026 13.5472 34.0682 13.5566 35.1932C13.5659 36.3932 13.5941 36.6463 13.8191 37.3963C13.9597 37.8557 14.2691 38.6151 14.5128 39.0838C14.8691 39.7776 15.1128 40.0963 15.8816 40.8744C16.7347 41.7276 16.9222 41.8682 17.8128 42.2994C18.3566 42.5619 19.1066 42.8432 19.4722 42.9182C19.8472 43.0026 20.5691 43.0682 21.0659 43.0682C21.6566 43.0682 22.2378 43.0026 22.6878 42.8901C23.0722 42.7963 23.7097 42.5619 24.0941 42.3744C24.4784 42.1869 25.1347 41.7744 25.5472 41.4369C25.9597 41.1088 26.7378 40.3869 27.2722 39.8244C27.8066 39.2619 28.6128 38.3619 29.0534 37.8182C29.4941 37.2744 30.0941 36.4963 30.3847 36.0838C30.6753 35.6713 31.1534 34.9307 31.4534 34.4432C31.7534 33.9557 32.0909 33.3557 32.2128 33.1026C32.3347 32.8588 32.4284 32.6151 32.4097 32.5588C32.4003 32.5026 32.0534 32.2869 31.6409 32.0713C31.0972 31.7807 30.8441 31.5932 30.7128 31.3494C30.6003 31.1526 30.5253 30.8526 30.5253 30.5994C30.5253 30.3557 30.6003 30.0463 30.7128 29.8494C30.8253 29.6526 31.0597 29.4369 31.3128 29.3057C31.5472 29.1932 31.8659 29.0994 32.0159 29.0994C32.1659 29.0994 32.6066 29.2494 32.9722 29.4276L33.6566 29.7557C33.8816 28.9963 34.0503 28.2651 34.1816 27.6463C34.3409 26.8776 34.4253 26.0619 34.4722 25.0682C34.5003 24.2432 34.4816 22.9213 34.4159 22.0213C34.3503 21.1401 34.2378 19.9869 34.1628 19.4432C34.0878 18.8994 33.9191 17.9901 33.7972 17.4276C33.6753 16.8557 33.4691 16.0588 33.3472 15.6463C33.2159 15.2338 33.0097 14.6244 32.8878 14.2869C32.7566 13.9494 32.4566 13.2744 32.2034 12.7869C31.9597 12.2994 31.5191 11.5401 31.2284 11.0994C30.9378 10.6588 30.3003 9.89943 29.8128 9.40256C29.2972 8.89631 28.5659 8.27756 28.0784 7.95881C27.6191 7.64943 26.8784 7.24631 26.4378 7.04943C25.9972 6.85256 25.2191 6.59006 24.7034 6.44943C23.9534 6.25256 23.4941 6.19631 22.3597 6.16818C21.1597 6.13068 20.8503 6.15881 20.2503 6.31818C19.8659 6.42131 19.2753 6.63693 18.9378 6.79631ZM23.9534 9.14006C24.4316 9.14006 25.0409 9.19631 25.3597 9.28068C25.6691 9.36506 26.2128 9.58068 26.5784 9.76818C27.0003 9.98381 27.4691 10.3401 27.8909 10.7619C28.3597 11.2401 28.6503 11.6338 28.8941 12.1307C29.0816 12.5151 29.2878 13.0682 29.3534 13.3494C29.4191 13.6307 29.4753 14.2213 29.4753 14.6619C29.4659 15.1307 29.4003 15.6932 29.2972 16.0213C29.2128 16.3307 29.0159 16.8182 28.8753 17.0994C28.7347 17.3807 28.4253 17.8494 28.2003 18.1307C27.9753 18.4119 27.4691 18.8619 27.0847 19.1151C26.6909 19.3869 26.0816 19.6869 25.6878 19.8182C25.1253 20.0057 24.7972 20.0526 24.0003 20.0526C23.2034 20.0526 22.8847 20.0057 22.3128 19.8182C21.9284 19.6963 21.3566 19.4244 21.0472 19.2182C20.7378 19.0213 20.2691 18.6369 20.0159 18.3651C19.7628 18.1026 19.3972 17.5869 19.2003 17.2307C19.0128 16.8744 18.7878 16.3307 18.6941 16.0213C18.6003 15.6838 18.5253 15.1401 18.5253 14.6619C18.5253 14.2213 18.5816 13.6307 18.6472 13.3494C18.7128 13.0682 18.9191 12.5151 19.1066 12.1307C19.3503 11.6338 19.6409 11.2401 20.1097 10.7713C20.5034 10.3682 21.0097 9.98381 21.3753 9.78693C21.7128 9.60881 22.2378 9.39318 22.5472 9.30881C22.8847 9.20568 23.4472 9.14006 23.9534 9.14006ZM22.0503 13.0776C21.8722 13.3026 21.6753 13.7244 21.5909 14.0057C21.5066 14.3338 21.4784 14.6526 21.5159 14.8963C21.5534 15.1026 21.6472 15.4213 21.7222 15.5994C21.7972 15.7776 22.0128 16.0869 22.2003 16.2838C22.3878 16.4807 22.7159 16.7338 22.9222 16.8463C23.2128 17.0057 23.4566 17.0526 24.0003 17.0526C24.5441 17.0526 24.7878 17.0057 25.0784 16.8463C25.2847 16.7338 25.6128 16.4807 25.8003 16.2838C25.9878 16.0869 26.2034 15.7776 26.2784 15.5994C26.3534 15.4213 26.4472 15.1026 26.4847 14.8963C26.5222 14.6526 26.4941 14.3338 26.4097 14.0057C26.3253 13.7244 26.1284 13.3026 25.9503 13.0776C25.7628 12.8151 25.4441 12.5526 25.1253 12.3932C24.7128 12.1776 24.4878 12.1213 23.9909 12.1307C23.5034 12.1307 23.2691 12.1869 22.8659 12.3932C22.5566 12.5526 22.2378 12.8244 22.0503 13.0776ZM22.0128 34.6307C22.3128 34.6307 22.6316 34.6963 22.8566 34.8088C23.0441 34.9119 23.3159 35.1088 23.4566 35.2588C23.5972 35.3994 23.7753 35.6807 23.8503 35.8682C23.9347 36.0651 24.0003 36.4026 24.0003 36.6182C24.0003 36.8432 23.9159 37.1901 23.8222 37.3963C23.7284 37.6026 23.5316 37.8838 23.3816 38.0244C23.2316 38.1651 22.9503 38.3432 22.7628 38.4182C22.5659 38.5026 22.2191 38.5682 21.9847 38.5682C21.7503 38.5682 21.4034 38.5026 21.2159 38.4182C21.0191 38.3432 20.7566 38.1838 20.6441 38.0713C20.5222 37.9588 20.3347 37.6963 20.2222 37.4901C20.0909 37.2369 20.0253 36.9369 20.0253 36.5994C20.0253 36.2619 20.0909 35.9619 20.2222 35.7088C20.3347 35.5026 20.5222 35.2401 20.6441 35.1276C20.7566 35.0151 21.0097 34.8557 21.1878 34.7807C21.3659 34.7057 21.7409 34.6401 22.0128 34.6307Z" fill="#46B600"/>
<path fill-rule="evenodd" clip-rule="evenodd" d="M22.5 5L15 7.5L12.5 11.5L13 16.5L15.5 21.5L16.5 24.5L14.5 28.5L11 33.5L13 40.5L16 43L20.5 44.5H24.5L28 41.5L34 33.5L36 27L35 16.5L31 7L22.5 5ZM24.5 18C26.433 18 28 16.433 28 14.5C28 12.567 26.433 11 24.5 11C22.567 11 21 12.567 21 14.5C21 16.433 22.567 18 24.5 18Z" fill="#46B600" fill-opacity="0.25"/>
</svg>
