<svg width="64" height="64" viewBox="0 0 64 64" fill="none" xmlns="http://www.w3.org/2000/svg">
<g clip-path="url(#clip0_335_613)">
<rect width="64" height="64" fill="white"/>
<rect x="0.5" y="0.5" width="63" height="63" rx="31.5" fill="#FF7436" fill-opacity="0.08"/>
<rect x="0.5" y="0.5" width="63" height="63" rx="31.5" stroke="#FF7436"/>
<path fill-rule="evenodd" clip-rule="evenodd" d="M34.492 18.5529C40.169 16.9462 44.519 19.2188 46.0002 20.577L45.7656 20.8311C44.3604 19.5425 40.132 17.3155 34.5866 18.885C29.0771 20.4443 27.4656 25.6403 27.3519 28.0484L27.3495 28.1002L27.3188 28.1421C26.7957 28.8564 26.0457 29.9918 25.4967 31.0743C25.2218 31.616 25.0008 32.1379 24.8821 32.5834C24.7606 33.0396 24.7586 33.3724 24.8639 33.5691C25.1716 34.1443 25.7135 34.3646 26.2454 34.5809L26.2702 34.591C26.5301 34.6967 26.7997 34.8083 27.0009 34.9736C27.2143 35.149 27.3521 35.385 27.3521 35.7218C27.3521 36.2704 27.4558 37.6803 27.9834 38.9461C28.5099 40.2094 29.4372 41.2887 31.0756 41.2887C31.7928 41.2887 32.3453 41.4397 32.7679 41.697C33.1911 41.9549 33.4718 42.3121 33.6569 42.704C34.0198 43.4727 34.0198 45.3892 34.0198 45.9871V46H33.6734C33.6734 45.3892 33.6707 43.5441 33.3435 42.851C33.1822 42.5094 32.9433 42.2085 32.5873 41.9916C32.2305 41.7743 31.7439 41.634 31.0756 41.634C29.2371 41.634 28.2161 40.4045 27.6635 39.0785C27.1119 37.7551 27.0058 36.2952 27.0058 35.7218C27.0058 35.4976 26.9217 35.356 26.7806 35.24C26.6273 35.1141 26.4098 35.0207 26.1393 34.9106C26.1291 34.9065 26.1188 34.9023 26.1084 34.8981L26.0867 34.8893C25.5733 34.681 24.9258 34.4184 24.5582 33.7316C24.3864 33.4105 24.4227 32.9629 24.5473 32.4949C24.6748 32.0161 24.9078 31.47 25.1875 30.9185C25.737 29.8354 26.4798 28.7064 27.0086 27.9802C27.1463 25.4752 28.8187 20.1585 34.492 18.5529ZM41.1481 28.3848C41.7651 28.4401 42.4187 28.6508 42.9155 29.0926C43.4072 29.5298 43.7614 30.2076 43.7614 31.2337C43.7614 32.2599 43.4071 32.9456 42.9143 33.3921C42.4167 33.843 41.7626 34.0638 41.1462 34.1259L41.1811 34.4694C41.8492 34.4021 42.5805 34.1612 43.1473 33.6476C43.7189 33.1296 44.1078 32.348 44.1078 31.2337C44.1078 30.1194 43.7188 29.3443 43.1461 28.835C42.5785 28.3302 41.8467 28.1008 41.1791 28.041L41.1481 28.3848Z" fill="#FF0000" stroke="#FF7436"/>
<path d="M20.0782 36.7144C20.0782 37.2864 19.613 37.7501 19.0391 37.7501C18.4652 37.7501 18 37.2864 18 36.7144C18 36.1424 18.4652 35.6787 19.0391 35.6787C19.613 35.6787 20.0782 36.1424 20.0782 36.7144Z" fill="#FF7436"/>
<path d="M24.2347 38.8721C24.2347 39.4441 23.7694 39.9079 23.1955 39.9079C22.6217 39.9079 22.1564 39.4441 22.1564 38.8721C22.1564 38.3001 22.6217 37.8364 23.1955 37.8364C23.7694 37.8364 24.2347 38.3001 24.2347 38.8721Z" fill="#FF7436"/>
<path d="M19.0391 41.893C19.613 41.893 20.0782 41.4293 20.0782 40.8572C20.0782 40.2852 19.613 39.8215 19.0391 39.8215C18.4652 39.8215 18 40.2852 18 40.8572C18 41.4293 18.4652 41.893 19.0391 41.893Z" fill="#FF7436"/>
</g>
<defs>
<clipPath id="clip0_335_613">
<rect width="64" height="64" fill="white"/>
</clipPath>
</defs>
</svg>
