<svg width="64" height="64" viewBox="0 0 64 64" fill="none" xmlns="http://www.w3.org/2000/svg">
<g clip-path="url(#clip0_335_592)">
<rect width="64" height="64" fill="white"/>
<rect x="0.5" y="0.5" width="63" height="63" rx="31.5" fill="#FF7436" fill-opacity="0.08"/>
<rect x="0.5" y="0.5" width="63" height="63" rx="31.5" stroke="#FF7436"/>
<path fill-rule="evenodd" clip-rule="evenodd" d="M32.076 18C30.9161 18 29.6722 18.4175 28.7179 19.3719C27.7615 20.3282 27.1111 21.8082 27.1111 23.9042C27.1111 29.3896 26.0395 33.1264 23.4132 35.49C22.4457 36.3607 21.9065 37.6457 21.7952 38.926C21.684 40.205 21.9978 41.5056 22.771 42.4042C24.4562 44.3627 26.8934 44.5644 29.213 43.9299C29.2766 44.1025 29.3471 44.2722 29.4275 44.4354C29.6407 44.8675 29.9286 45.2625 30.3576 45.5479C30.7874 45.8339 31.3436 46 32.076 46C32.8084 46 33.3646 45.8339 33.7944 45.5479C34.2234 45.2625 34.5113 44.8675 34.7245 44.4354C34.8049 44.2722 34.8754 44.1025 34.939 43.9299C37.2586 44.5644 39.6958 44.3627 41.381 42.4042C42.1542 41.5056 42.468 40.205 42.3568 38.926C42.2455 37.6457 41.7063 36.3607 40.7388 35.49C38.1125 33.1264 37.0409 29.3896 37.0409 23.9042C37.0409 21.8082 36.3905 20.3282 35.4341 19.3719C34.4798 18.4175 33.2359 18 32.076 18ZM35.0553 43.5908C37.2952 44.1983 39.555 43.9777 41.1097 42.1708C41.8048 41.3631 42.1055 40.1663 42.0003 38.957C41.8953 37.7491 41.3872 36.555 40.4995 35.756C37.7583 33.289 36.683 29.4219 36.683 23.9042C36.683 21.8851 36.0586 20.5024 35.1811 19.6249C34.3016 18.7454 33.1525 18.3578 32.076 18.3578C30.9995 18.3578 29.8504 18.7454 28.9709 19.6249C28.0934 20.5024 27.469 21.8851 27.469 23.9042C27.469 29.4219 26.3937 33.289 23.6525 35.756C22.7648 36.555 22.2567 37.7491 22.1517 38.957C22.0465 40.1663 22.3472 41.3631 23.0423 42.1708C24.597 43.9777 26.8568 44.1983 29.0967 43.5908C29.0415 43.419 28.9908 43.247 28.9417 43.0785L28.9231 43.0147C28.7967 42.581 28.6784 42.1747 28.5148 41.827C28.3203 41.4138 27.9029 41.1203 27.4249 40.9251C26.95 40.7312 26.4442 40.6465 26.1193 40.6324L26.1349 40.2749C26.4958 40.2906 27.0427 40.3826 27.5601 40.5938C28.0743 40.8037 28.5887 41.1438 28.8385 41.6746C29.0145 42.0487 29.1401 42.4801 29.2638 42.9047L29.2852 42.9783C29.4178 43.4328 29.5523 43.8794 29.7484 44.2771C29.9434 44.6724 30.195 45.0099 30.5558 45.25C30.9157 45.4895 31.3994 45.6422 32.076 45.6422C32.7526 45.6422 33.2363 45.4895 33.5962 45.25C33.957 45.0099 34.2086 44.6724 34.4036 44.2771C34.5997 43.8794 34.7342 43.4328 34.8668 42.9783L34.8882 42.9047C35.0119 42.4801 35.1375 42.0487 35.3135 41.6746C35.5633 41.1438 36.0777 40.8037 36.5919 40.5938C37.1093 40.3826 37.6562 40.2906 38.0171 40.2749L38.0327 40.6324C37.7078 40.6465 37.202 40.7312 36.7271 40.9251C36.2491 41.1203 35.8317 41.4138 35.6372 41.827C35.4736 42.1747 35.3553 42.5809 35.2289 43.0146L35.2103 43.0785C35.1612 43.247 35.1105 43.419 35.0553 43.5908Z" fill="#FF7436" stroke="#FF7436"/>
<path d="M45.1219 28.3325C45.1219 28.9254 44.6413 29.406 44.0484 29.406C43.4556 29.406 42.975 28.9254 42.975 28.3325C42.975 27.7396 43.4556 27.259 44.0484 27.259C44.6413 27.259 45.1219 27.7396 45.1219 28.3325Z" fill="#FF7436"/>
<path d="M40.2913 28.3325C40.8841 28.3325 41.3647 27.8519 41.3647 27.259C41.3647 26.6662 40.8841 26.1855 40.2913 26.1855C39.6984 26.1855 39.2178 26.6662 39.2178 27.259C39.2178 27.8519 39.6984 28.3325 40.2913 28.3325Z" fill="#FF7436"/>
<path d="M42.975 31.553C42.975 32.1458 42.4943 32.6264 41.9015 32.6264C41.3086 32.6264 40.828 32.1458 40.828 31.553C40.828 30.9601 41.3086 30.4795 41.9015 30.4795C42.4943 30.4795 42.975 30.9601 42.975 31.553Z" fill="#FF7436"/>
<path d="M20.0735 29.406C19.4806 29.406 19 28.9254 19 28.3325C19 27.7396 19.4806 27.259 20.0735 27.259C20.6664 27.259 21.147 27.7396 21.147 28.3325C21.147 28.9254 20.6664 29.406 20.0735 29.406Z" fill="#FF7436"/>
<path d="M22.7572 27.259C22.7572 27.8519 23.2378 28.3325 23.8307 28.3325C24.4235 28.3325 24.9042 27.8519 24.9042 27.259C24.9042 26.6662 24.4235 26.1855 23.8307 26.1855C23.2378 26.1855 22.7572 26.6662 22.7572 27.259Z" fill="#FF7436"/>
<path d="M22.2204 32.6264C21.6276 32.6264 21.147 32.1458 21.147 31.553C21.147 30.9601 21.6276 30.4795 22.2204 30.4795C22.8133 30.4795 23.2939 30.9601 23.2939 31.553C23.2939 32.1458 22.8133 32.6264 22.2204 32.6264Z" fill="#FF7436"/>
</g>
<defs>
<clipPath id="clip0_335_592">
<rect width="64" height="64" fill="white"/>
</clipPath>
</defs>
</svg>
