<svg width="64" height="64" viewBox="0 0 64 64" fill="none" xmlns="http://www.w3.org/2000/svg">
<g clip-path="url(#clip0_335_605)">
<rect width="64" height="64" fill="white"/>
<rect x="0.5" y="0.5" width="63" height="63" rx="31.5" fill="#FF7436" fill-opacity="0.08"/>
<rect x="0.5" y="0.5" width="63" height="63" rx="31.5" stroke="#FF7436"/>
<path fill-rule="evenodd" clip-rule="evenodd" d="M18.4599 18H18.2846V18.1761V20.9051C18.2846 25.5715 20.695 29.6727 24.3337 32.0213C24.3262 33.4827 24.016 35.8424 23.1015 38.3453C22.1543 40.9375 20.563 43.6726 18 45.7247L18.2186 46C20.8453 43.8969 22.4682 41.1007 23.4306 38.4666C24.316 36.0435 24.6458 33.7487 24.6812 32.2381C26.655 33.4267 28.9651 34.11 31.434 34.11C33.9575 34.11 36.315 33.3961 38.3172 32.1585C38.3427 33.6674 38.6683 36.0006 39.5694 38.4666C40.5318 41.1007 42.1547 43.8969 44.7814 46L45 45.7247C42.437 43.6726 40.8457 40.9375 39.8985 38.3453C38.9658 35.7925 38.6617 33.3888 38.6662 31.9351C42.2311 29.5731 44.5834 25.5149 44.5834 20.9051V18.1761V18H44.4081H18.4599ZM18.6353 20.9051V18.3521H44.2327V20.9051C44.2327 28.0035 38.5026 33.7578 31.434 33.7578C24.3655 33.7578 18.6353 28.0035 18.6353 20.9051ZM27.6645 40.4483C27.6645 38.3577 29.3522 36.6629 31.434 36.6629C33.5158 36.6629 35.2035 38.3577 35.2035 40.4483C35.2035 42.5389 33.5158 44.2337 31.434 44.2337C29.3522 44.2337 27.6645 42.5389 27.6645 40.4483ZM31.434 36.3108C29.1585 36.3108 27.3139 38.1632 27.3139 40.4483C27.3139 42.7334 29.1585 44.5859 31.434 44.5859C33.7095 44.5859 35.5541 42.7334 35.5541 40.4483C35.5541 38.1632 33.7095 36.3108 31.434 36.3108ZM28.1898 26.648C30.2272 25.4789 32.7284 25.4789 34.7659 26.648L34.9398 26.3423C32.7946 25.1113 30.1611 25.1113 28.0158 26.3423L28.1898 26.648Z" fill="#FF7436" stroke="#FF7436"/>
<path d="M32.4857 40.4485C32.4857 41.0319 32.0148 41.5049 31.4338 41.5049C30.8528 41.5049 30.3818 41.0319 30.3818 40.4485C30.3818 39.8651 30.8528 39.3921 31.4338 39.3921C32.0148 39.3921 32.4857 39.8651 32.4857 40.4485Z" fill="#FF7436"/>
</g>
<defs>
<clipPath id="clip0_335_605">
<rect width="64" height="64" fill="white"/>
</clipPath>
</defs>
</svg>
