<svg width="71" height="71" viewBox="0 0 71 71" fill="none" xmlns="http://www.w3.org/2000/svg">
<g clip-path="url(#clip0_374_32)">
<rect width="71" height="71" rx="8" fill="url(#paint0_linear_374_32)"/>
<g opacity="0.2">
<path fill-rule="evenodd" clip-rule="evenodd" d="M-17.268 -78.3902C-13.6285 -78.4374 -11.2652 -78.2011 -8.80742 -77.5394C-6.91679 -77.0195 -4.17539 -76.1687 -2.75742 -75.6488C-1.33945 -75.1288 1.49649 -73.6163 3.48164 -72.2929C5.51407 -71.0167 8.35001 -68.748 9.76797 -67.33C11.1859 -65.912 13.4547 -63.0761 14.7309 -61.0909C16.0543 -59.0585 17.5668 -56.2226 18.0867 -54.8046C18.6066 -53.3867 19.4102 -51.0234 19.8356 -49.6054C20.5445 -47.2894 20.6391 -42.3265 20.8754 40.4356L25.791 45.3985C28.5324 48.1872 31.841 52.1102 33.259 54.379C34.7242 56.6004 36.5676 59.7672 37.4184 61.4688C38.2691 63.1704 39.6399 66.668 40.4906 69.2676C41.3414 71.8672 42.3813 76.2157 42.8066 78.9571C43.232 81.6985 43.5629 85.7161 43.5629 87.9376C43.5629 90.159 43.232 94.1766 42.8066 96.918C42.4285 99.6594 41.3414 104.102 40.4434 106.844C39.4981 109.585 37.7965 113.745 36.5676 116.061C35.3387 118.377 33.1645 121.922 31.7465 123.859C30.2813 125.797 27.6344 128.87 25.791 130.666C23.9949 132.509 20.9227 135.156 18.9848 136.621C17.0469 138.039 13.3129 140.308 10.7133 141.631C8.11368 142.955 4.28516 144.609 2.20547 145.318C0.125786 145.98 -3.18281 146.878 -5.1207 147.303C-7.05859 147.729 -11.4543 148.154 -14.8102 148.296C-19.0641 148.438 -22.4199 148.296 -25.6812 147.823C-28.2809 147.398 -32.5348 146.405 -35.1344 145.602C-37.734 144.751 -41.9879 143.002 -44.5875 141.679C-47.1871 140.308 -50.9211 138.039 -52.859 136.621C-54.7969 135.156 -57.8691 132.509 -59.6652 130.666C-61.5086 128.87 -64.1555 125.797 -65.6207 123.859C-67.0387 121.922 -69.2129 118.377 -70.4418 116.061C-71.6234 113.745 -73.1832 110.2 -73.8922 108.262C-74.6012 106.324 -75.5465 102.921 -76.0664 100.699C-76.5391 98.4778 -77.1062 94.0348 -77.248 90.7735C-77.4844 86.3778 -77.3426 83.4473 -76.7754 79.4297C-76.3027 76.452 -75.2629 71.8672 -74.4121 69.2676C-73.5141 66.668 -72.0488 62.934 -71.0562 60.9961C-70.0637 59.0583 -68.2203 55.8442 -66.8969 53.9063C-65.5734 51.9684 -62.3121 48.1399 -54.7496 40.4356L-54.6078 -3.28509C-54.5133 -42.3265 -54.4187 -47.2894 -53.7098 -49.6054C-53.2844 -51.0234 -52.4809 -53.3867 -51.9609 -54.8046C-51.441 -56.2226 -49.9285 -59.0585 -48.6051 -61.0909C-47.3289 -63.0761 -45.0602 -65.912 -43.6422 -67.33C-42.2242 -68.748 -39.3883 -71.0167 -37.4031 -72.2929C-35.3707 -73.6163 -32.5348 -75.1288 -31.1168 -75.6488C-29.6988 -76.1687 -27.1465 -77.0195 -25.4449 -77.4921C-23.4125 -78.0593 -20.6238 -78.3429 -17.3152 -78.3902H-17.268ZM-27.95 -60.3347C-29.4625 -59.4839 -31.8258 -57.6406 -33.1965 -56.2226C-34.5199 -54.8046 -36.2215 -52.4886 -36.8832 -51.1652C-37.5922 -49.7945 -38.4902 -47.4312 -38.8684 -45.966C-39.4828 -43.6027 -39.5773 -36.8437 -39.5773 1.29967C-39.5773 37.0797 -39.7191 46.1547 -40.1918 47.3837C-40.5226 48.2344 -41.8461 49.7942 -43.1223 50.834C-44.3984 51.8739 -46.7144 53.9063 -48.2269 55.3243C-49.7867 56.7422 -52.0082 59.2001 -53.1898 60.7598C-54.3715 62.3196 -56.3566 65.7227 -57.5855 68.3223C-58.8144 70.9219 -60.3269 74.845 -60.8941 77.0665C-61.7922 80.3751 -61.9812 82.3129 -61.9812 87.9376C-61.934 93.7512 -61.7449 95.5001 -60.7523 99.2813C-60.0906 101.739 -58.6727 105.568 -57.5383 107.789C-56.4512 110.011 -54.8914 112.752 -54.0879 113.934C-53.3316 115.115 -50.732 117.998 -48.3215 120.315C-45.9582 122.678 -42.5551 125.419 -40.7117 126.506C-38.9156 127.546 -35.5598 129.2 -33.1965 130.146C-30.8805 131.091 -26.9101 132.225 -24.4523 132.651C-21.191 133.218 -18.4969 133.36 -14.7629 133.171C-11.8797 133.029 -7.90937 132.462 -5.78241 131.895C-3.70273 131.375 -0.724992 130.335 0.834774 129.673C2.39454 128.964 5.13594 127.546 6.88477 126.459C8.68086 125.419 11.6586 123.15 13.502 121.449C15.3926 119.747 17.9449 117.006 19.2211 115.304C20.4973 113.65 22.577 110.152 23.8059 107.553C25.082 104.953 26.5473 100.888 27.1617 98.5723C27.9652 95.2165 28.2016 92.995 28.2016 87.9376C28.2016 82.8801 27.9652 80.6586 27.1617 77.3028C26.5473 74.9868 25.1766 71.111 24.0895 68.795C22.9551 66.479 21.3953 63.5958 20.5918 62.4141C19.8356 61.2325 18.0395 59.011 16.6215 57.4985C15.2035 55.986 12.5094 53.4337 10.5715 51.8266C8.4918 50.1251 6.79024 48.2817 6.41211 47.3837C5.93946 46.1547 5.79766 37.1743 5.79766 1.29967C5.79766 -36.8437 5.70313 -43.6027 5.08868 -45.966C4.71056 -47.4312 3.8125 -49.7945 3.10352 -51.1652C2.4418 -52.4886 0.740242 -54.8046 -0.583195 -56.2226C-1.9539 -57.6406 -4.31718 -59.4839 -5.82968 -60.3347C-7.38945 -61.1382 -9.89452 -62.1781 -11.4543 -62.5562C-13.0141 -62.9816 -15.5664 -63.3124 -17.1262 -63.2652C-18.6859 -63.2652 -21.1437 -62.9343 -22.5617 -62.5562C-23.9797 -62.1781 -26.3902 -61.1382 -27.95 -60.3347ZM119.141 -25.4999C119.944 -25.4999 121.22 -25.2636 121.977 -24.98C122.686 -24.7437 124.387 -23.4202 125.758 -22.0495C127.176 -20.6788 129.539 -18.1265 131.052 -16.2831C132.517 -14.487 134.927 -11.1784 136.345 -8.95697C137.811 -6.73548 139.938 -2.95423 141.166 -0.590952C142.348 1.81959 144.191 6.30983 145.184 9.33483C146.177 12.4071 147.358 16.6137 147.784 18.6934C148.209 20.7731 148.729 24.4126 149.013 26.7286C149.249 29.0446 149.485 32.7786 149.485 35.0001C149.485 37.2215 149.249 40.9555 149.013 43.2715C148.729 45.5876 148.209 49.227 147.784 51.3067C147.358 53.3864 146.177 57.593 145.184 60.618C144.191 63.6903 142.348 68.1805 141.166 70.5438C139.938 72.9544 137.811 76.7356 136.345 78.9571C134.927 81.1786 132.517 84.4399 131.052 86.2833C129.539 88.1266 127.081 90.7735 125.569 92.2387C123.489 94.2239 122.307 95.0274 120.889 95.2637C119.85 95.4528 118.243 95.4528 117.345 95.2637C116.399 95.0747 114.981 94.1766 113.989 93.184C112.823 92.0497 112.13 90.8523 111.909 89.5918C111.72 88.552 111.72 86.9922 111.862 86.1415C112.051 85.1489 113.28 83.4001 115.548 80.9422C117.392 78.9571 120.039 75.8376 121.362 73.9942C122.733 72.1508 124.813 68.984 125.994 66.9044C127.176 64.8247 128.877 61.1852 129.775 58.8692C130.721 56.5059 131.902 52.8192 132.422 50.5977C132.942 48.3762 133.604 44.784 133.888 42.5626C134.124 40.3411 134.36 36.938 134.36 35.0001C134.36 33.0622 134.124 29.659 133.888 27.4376C133.604 25.2161 132.942 21.6239 132.422 19.4024C131.902 17.1809 130.721 13.4469 129.775 11.1309C128.877 8.76764 127.176 5.17546 125.994 3.09577C124.813 1.01608 122.733 -2.19798 121.362 -3.99408C120.039 -5.83743 117.392 -8.95697 115.548 -10.9894C112.996 -13.7308 112.051 -15.0542 111.862 -16.4249C111.72 -17.3702 111.72 -18.8828 111.862 -19.7335C112.004 -20.537 112.665 -21.9078 113.232 -22.7113C113.847 -23.562 115.076 -24.5074 115.974 -24.8382C116.872 -25.1691 118.29 -25.4527 119.141 -25.4999ZM90.8758 -3.28509C91.7738 -3.23783 93.1918 -2.8597 94.0426 -2.43431C94.8461 -2.00892 96.8785 -0.449151 98.5328 1.01608C100.187 2.43405 102.881 5.41179 104.536 7.63327C106.19 9.80749 108.364 13.3051 109.357 15.3848C110.349 17.4645 111.578 20.7731 112.145 22.711C112.665 24.6489 113.327 28.2883 113.611 30.7462C113.941 33.913 113.941 36.4653 113.563 39.4903C113.28 41.8063 112.618 45.3512 112.098 47.2891C111.578 49.227 110.349 52.5356 109.357 54.6153C108.364 56.695 106.237 60.0981 104.725 62.1778C103.165 64.2575 100.613 67.0934 99.1 68.4641C97.5875 69.8821 95.5078 71.3946 94.5625 71.9145C93.5699 72.3872 92.152 72.8126 91.3485 72.8126C90.5922 72.8126 89.2215 72.529 88.418 72.1981C87.5672 71.82 86.291 70.8747 85.582 70.0712C84.8258 69.2204 84.1168 67.7551 83.975 66.7626C83.8332 65.8172 83.8332 64.2575 84.0223 63.3594C84.2586 62.1305 85.4403 60.618 88.4653 57.6403C90.6867 55.4188 93.3336 52.2047 94.3262 50.5504C95.3188 48.8961 96.6422 45.8239 97.3512 43.7442C98.3438 40.6247 98.5801 39.0649 98.5801 35.0001C98.5801 30.9352 98.3438 29.3755 97.3512 26.2559C96.6422 24.1762 95.3188 21.104 94.3262 19.4969C93.3336 17.8426 91.4903 15.3848 90.1668 14.0614C88.8906 12.6907 86.9528 10.8473 85.9602 9.94928C84.9676 9.05124 83.9278 7.82233 83.7387 7.20788C83.5024 6.64069 83.3133 5.26999 83.3133 4.13561C83.3133 3.0485 83.6914 1.39421 84.2113 0.496159C84.7313 -0.496419 85.9129 -1.58353 87.1418 -2.24525C88.2762 -2.81244 89.9305 -3.28509 90.8758 -3.28509ZM67.5738 27.5321C69.6535 27.6266 70.8824 27.9575 71.8277 28.6665C72.5367 29.1864 73.6238 30.368 74.2383 31.2661C74.9473 32.3532 75.3254 33.5821 75.3254 35.0001C75.3254 36.418 74.9473 37.6469 74.2383 38.734C73.6238 39.6321 72.5367 40.8137 71.8277 41.3337C70.977 41.9481 69.5117 42.3735 68.0465 42.5153C66.6758 42.6098 64.8324 42.468 63.9344 42.1844C63.0363 41.9008 61.5711 40.9083 60.7676 40.0102C59.8223 39.0176 59.066 37.5997 58.9242 36.5126C58.7824 35.5673 58.7824 34.0547 58.9242 33.204C59.066 32.4005 59.7277 31.0297 60.2949 30.2262C60.9094 29.3755 62.1383 28.4301 63.0364 28.0993C63.9817 27.7212 65.8723 27.4848 67.5738 27.5321ZM-16.1809 -47.9984C-14.8574 -47.9038 -13.2977 -47.3839 -12.6832 -46.9113C-12.0687 -46.4386 -11.1234 -45.446 -9.56366 -43.4136L-9.32734 59.1055L-7.53125 59.6254C-6.58594 59.909 -4.26991 60.9489 -2.47382 61.8942C-0.394133 62.934 2.06368 64.8247 4.19063 66.9044C6.08125 68.795 8.25547 71.5364 9.24805 73.2852C10.1461 74.9868 11.4223 77.8227 12.0367 79.6661C12.9348 82.3602 13.1238 83.9672 13.1238 88.4102C13.1238 92.8532 12.9348 94.4602 12.0367 97.1543C11.4223 98.9977 10.1461 101.834 9.24805 103.535C8.30274 105.237 6.03399 108.073 4.19063 109.963C1.73282 112.421 -0.20507 113.792 -3.1828 115.257C-5.40429 116.344 -8.66562 117.573 -10.509 117.951C-12.3051 118.329 -15.1883 118.66 -16.8898 118.66C-18.5914 118.66 -21.4273 118.329 -23.2707 117.951C-25.0668 117.573 -28.0445 116.533 -29.8879 115.635C-31.684 114.737 -34.4254 113.036 -35.8906 111.854C-37.4031 110.672 -39.4828 108.545 -40.5699 107.222C-41.657 105.851 -43.2168 103.252 -44.1148 101.408C-44.9656 99.5649 -46.0055 96.6344 -46.4309 94.7911C-46.809 92.9477 -47.1398 90.1118 -47.1398 88.4102C-47.1398 86.7086 -46.809 83.8727 -46.4309 82.0293C-46.0527 80.186 -44.8238 76.9247 -43.7367 74.7032C-42.2715 71.7254 -40.8535 69.8348 -38.3957 67.3297C-36.5523 65.4864 -33.7164 63.2649 -32.0148 62.3196C-30.3133 61.3743 -27.9027 60.2399 -24.4051 58.8692L-24.4523 8.43678C-24.4523 -26.2562 -24.3105 -42.4683 -23.9324 -43.3191C-23.6488 -44.0753 -23.0816 -45.1624 -22.609 -45.8242C-22.1836 -46.4386 -21.0965 -47.2421 -20.1984 -47.573C-19.2531 -47.9511 -17.5043 -48.0929 -16.1809 -47.9984ZM-26.9574 77.161C-28.2809 78.3426 -29.7934 80.2805 -30.5023 81.793C-31.5422 83.92 -31.7785 85.0543 -31.7785 88.1739C-31.7785 91.2934 -31.5422 92.4278 -30.5496 94.5547C-29.8406 95.9727 -28.4699 97.9579 -27.4773 98.9977C-26.4375 99.9903 -24.4523 101.361 -23.0344 102.07C-20.9547 103.015 -19.7258 103.252 -16.8898 103.252C-14.0539 103.252 -12.825 103.015 -10.7453 102.07C-9.32734 101.361 -7.34218 99.9903 -6.30234 98.9977C-5.30976 97.9579 -3.93906 95.9727 -3.23007 94.5547C-2.23749 92.4278 -2.00116 91.2934 -2.00116 88.1739C-2.00116 85.0543 -2.2375 83.92 -3.27734 81.793C-3.98633 80.2805 -5.49883 78.3426 -6.82226 77.161C-8.05117 76.0266 -10.2254 74.7032 -11.5488 74.1833C-13.1086 73.6161 -15.1883 73.2852 -16.9844 73.3325C-18.6859 73.3325 -20.9547 73.7106 -22.3254 74.2305C-23.6016 74.7032 -25.7285 76.0266 -26.9574 77.161Z" fill="white"/>
</g>
<path fill-rule="evenodd" clip-rule="evenodd" d="M25.4344 12.5094C26.1563 12.5 26.6251 12.5469 27.1126 12.6781C27.4876 12.7813 28.0313 12.95 28.3126 13.0531C28.5938 13.1563 29.1563 13.4563 29.5501 13.7188C29.9532 13.9719 30.5157 14.4219 30.7969 14.7031C31.0782 14.9844 31.5282 15.5469 31.7813 15.9406C32.0438 16.3438 32.3438 16.9063 32.4469 17.1875C32.5501 17.4688 32.7094 17.9375 32.7938 18.2188C32.9344 18.6781 32.9532 19.6625 33.0001 36.0781L33.9751 37.0625C34.5188 37.6156 35.1751 38.3938 35.4563 38.8438C35.7469 39.2844 36.1126 39.9125 36.2813 40.25C36.4501 40.5875 36.7219 41.2813 36.8907 41.7969C37.0594 42.3125 37.2657 43.175 37.3501 43.7188C37.4344 44.2625 37.5001 45.0594 37.5001 45.5C37.5001 45.9406 37.4344 46.7375 37.3501 47.2813C37.2751 47.825 37.0594 48.7063 36.8813 49.25C36.6938 49.7938 36.3563 50.6188 36.1126 51.0781C35.8688 51.5375 35.4376 52.2406 35.1563 52.625C34.8657 53.0094 34.3407 53.6188 33.9751 53.975C33.6188 54.3406 33.0094 54.8656 32.6251 55.1563C32.2407 55.4375 31.5001 55.8875 30.9844 56.15C30.4688 56.4125 29.7094 56.7406 29.2969 56.8813C28.8844 57.0125 28.2282 57.1906 27.8438 57.275C27.4594 57.3594 26.5876 57.4438 25.9219 57.4719C25.0782 57.5 24.4126 57.4719 23.7657 57.3781C23.2501 57.2938 22.4063 57.0969 21.8907 56.9375C21.3751 56.7688 20.5313 56.4219 20.0157 56.1594C19.5001 55.8875 18.7594 55.4375 18.3751 55.1563C17.9907 54.8656 17.3813 54.3406 17.0251 53.975C16.6594 53.6188 16.1344 53.0094 15.8438 52.625C15.5626 52.2406 15.1313 51.5375 14.8876 51.0781C14.6532 50.6188 14.3438 49.9156 14.2032 49.5313C14.0626 49.1469 13.8751 48.4719 13.7719 48.0313C13.6782 47.5906 13.5657 46.7094 13.5376 46.0625C13.4907 45.1906 13.5188 44.6094 13.6313 43.8125C13.7251 43.2219 13.9313 42.3125 14.1001 41.7969C14.2782 41.2813 14.5688 40.5406 14.7657 40.1563C14.9626 39.7719 15.3282 39.1344 15.5907 38.75C15.8532 38.3656 16.5001 37.6063 18.0001 36.0781L18.0282 27.4063C18.0469 19.6625 18.0657 18.6781 18.2063 18.2188C18.2907 17.9375 18.4501 17.4688 18.5532 17.1875C18.6563 16.9063 18.9563 16.3438 19.2188 15.9406C19.4719 15.5469 19.9219 14.9844 20.2032 14.7031C20.4844 14.4219 21.0469 13.9719 21.4407 13.7188C21.8438 13.4563 22.4063 13.1563 22.6876 13.0531C22.9688 12.95 23.4751 12.7813 23.8126 12.6875C24.2157 12.575 24.7688 12.5188 25.4251 12.5094H25.4344ZM23.3157 16.0906C23.0157 16.2594 22.5469 16.625 22.2751 16.9063C22.0126 17.1875 21.6751 17.6469 21.5438 17.9094C21.4032 18.1813 21.2251 18.65 21.1501 18.9406C21.0282 19.4094 21.0094 20.75 21.0094 28.3156C21.0094 35.4125 20.9813 37.2125 20.8876 37.4563C20.8219 37.625 20.5594 37.9344 20.3063 38.1406C20.0532 38.3469 19.5938 38.75 19.2938 39.0313C18.9844 39.3125 18.5438 39.8 18.3094 40.1094C18.0751 40.4188 17.6813 41.0938 17.4376 41.6094C17.1938 42.125 16.8938 42.9031 16.7813 43.3438C16.6032 44 16.5657 44.3844 16.5657 45.5C16.5751 46.6531 16.6126 47 16.8094 47.75C16.9407 48.2375 17.2219 48.9969 17.4469 49.4375C17.6626 49.8781 17.9719 50.4219 18.1313 50.6563C18.2813 50.8906 18.7969 51.4625 19.2751 51.9219C19.7438 52.3906 20.4188 52.9344 20.7844 53.15C21.1407 53.3563 21.8063 53.6844 22.2751 53.8719C22.7344 54.0594 23.5219 54.2844 24.0094 54.3688C24.6563 54.4813 25.1907 54.5094 25.9313 54.4719C26.5032 54.4438 27.2907 54.3313 27.7126 54.2188C28.1251 54.1156 28.7157 53.9094 29.0251 53.7781C29.3344 53.6375 29.8782 53.3563 30.2251 53.1406C30.5813 52.9344 31.1719 52.4844 31.5376 52.1469C31.9126 51.8094 32.4188 51.2656 32.6719 50.9281C32.9251 50.6 33.3376 49.9063 33.5813 49.3906C33.8344 48.875 34.1251 48.0688 34.2469 47.6094C34.4063 46.9438 34.4532 46.5031 34.4532 45.5C34.4532 44.4969 34.4063 44.0563 34.2469 43.3906C34.1251 42.9313 33.8532 42.1625 33.6376 41.7031C33.4126 41.2438 33.1032 40.6719 32.9438 40.4375C32.7938 40.2031 32.4376 39.7625 32.1563 39.4625C31.8751 39.1625 31.3407 38.6563 30.9563 38.3375C30.5438 38 30.2063 37.6344 30.1313 37.4563C30.0376 37.2125 30.0094 35.4313 30.0094 28.3156C30.0094 20.75 29.9907 19.4094 29.8688 18.9406C29.7938 18.65 29.6157 18.1813 29.4751 17.9094C29.3438 17.6469 29.0063 17.1875 28.7438 16.9063C28.4719 16.625 28.0032 16.2594 27.7032 16.0906C27.3938 15.9313 26.8969 15.725 26.5876 15.65C26.2782 15.5656 25.7719 15.5 25.4626 15.5094C25.1532 15.5094 24.6657 15.575 24.3844 15.65C24.1032 15.725 23.6251 15.9313 23.3157 16.0906ZM52.4907 23C52.6501 23 52.9032 23.0469 53.0532 23.1031C53.1938 23.15 53.5313 23.4125 53.8032 23.6844C54.0844 23.9563 54.5532 24.4625 54.8532 24.8281C55.1438 25.1844 55.6219 25.8406 55.9032 26.2813C56.1938 26.7219 56.6157 27.4719 56.8594 27.9406C57.0938 28.4188 57.4594 29.3094 57.6563 29.9094C57.8532 30.5188 58.0876 31.3531 58.1719 31.7656C58.2563 32.1781 58.3594 32.9 58.4157 33.3594C58.4626 33.8188 58.5094 34.5594 58.5094 35C58.5094 35.4406 58.4626 36.1813 58.4157 36.6406C58.3594 37.1 58.2563 37.8219 58.1719 38.2344C58.0876 38.6469 57.8532 39.4813 57.6563 40.0813C57.4594 40.6906 57.0938 41.5813 56.8594 42.05C56.6157 42.5281 56.1938 43.2781 55.9032 43.7188C55.6219 44.1594 55.1438 44.8063 54.8532 45.1719C54.5532 45.5375 54.0657 46.0625 53.7657 46.3531C53.3532 46.7469 53.1188 46.9063 52.8376 46.9531C52.6313 46.9906 52.3126 46.9906 52.1344 46.9531C51.9469 46.9156 51.6657 46.7375 51.4688 46.5406C51.2376 46.3156 51.1001 46.0781 51.0563 45.8281C51.0188 45.6219 51.0188 45.3125 51.0469 45.1438C51.0844 44.9469 51.3282 44.6 51.7782 44.1125C52.1438 43.7188 52.6688 43.1 52.9313 42.7344C53.2032 42.3688 53.6157 41.7406 53.8501 41.3281C54.0844 40.9156 54.4219 40.1938 54.6001 39.7344C54.7876 39.2656 55.0219 38.5344 55.1251 38.0938C55.2282 37.6531 55.3594 36.9406 55.4157 36.5C55.4626 36.0594 55.5094 35.3844 55.5094 35C55.5094 34.6156 55.4626 33.9406 55.4157 33.5C55.3594 33.0594 55.2282 32.3469 55.1251 31.9063C55.0219 31.4656 54.7876 30.725 54.6001 30.2656C54.4219 29.7969 54.0844 29.0844 53.8501 28.6719C53.6157 28.2594 53.2032 27.6219 52.9313 27.2656C52.6688 26.9 52.1438 26.2813 51.7782 25.8781C51.2719 25.3344 51.0844 25.0719 51.0469 24.8C51.0188 24.6125 51.0188 24.3125 51.0469 24.1438C51.0751 23.9844 51.2063 23.7125 51.3188 23.5531C51.4407 23.3844 51.6844 23.1969 51.8626 23.1313C52.0407 23.0656 52.3219 23.0094 52.4907 23ZM46.8844 27.4063C47.0626 27.4156 47.3438 27.4906 47.5126 27.575C47.6719 27.6594 48.0751 27.9688 48.4032 28.2594C48.7313 28.5406 49.2657 29.1313 49.5938 29.5719C49.9219 30.0031 50.3532 30.6969 50.5501 31.1094C50.7469 31.5219 50.9907 32.1781 51.1032 32.5625C51.2063 32.9469 51.3376 33.6688 51.3938 34.1563C51.4594 34.7844 51.4594 35.2906 51.3844 35.8906C51.3282 36.35 51.1969 37.0531 51.0938 37.4375C50.9907 37.8219 50.7469 38.4781 50.5501 38.8906C50.3532 39.3031 49.9313 39.9781 49.6313 40.3906C49.3219 40.8031 48.8157 41.3656 48.5157 41.6375C48.2157 41.9188 47.8032 42.2188 47.6157 42.3219C47.4188 42.4156 47.1376 42.5 46.9782 42.5C46.8282 42.5 46.5563 42.4438 46.3969 42.3781C46.2282 42.3031 45.9751 42.1156 45.8344 41.9563C45.6844 41.7875 45.5438 41.4969 45.5157 41.3C45.4876 41.1125 45.4876 40.8031 45.5251 40.625C45.5719 40.3813 45.8063 40.0813 46.4063 39.4906C46.8469 39.05 47.3719 38.4125 47.5688 38.0844C47.7657 37.7563 48.0282 37.1469 48.1688 36.7344C48.3657 36.1156 48.4126 35.8063 48.4126 35C48.4126 34.1938 48.3657 33.8844 48.1688 33.2656C48.0282 32.8531 47.7657 32.2438 47.5688 31.925C47.3719 31.5969 47.0063 31.1094 46.7438 30.8469C46.4907 30.575 46.1063 30.2094 45.9094 30.0313C45.7126 29.8531 45.5063 29.6094 45.4688 29.4875C45.4219 29.375 45.3844 29.1031 45.3844 28.8781C45.3844 28.6625 45.4594 28.3344 45.5626 28.1563C45.6657 27.9594 45.9001 27.7438 46.1438 27.6125C46.3688 27.5 46.6969 27.4063 46.8844 27.4063ZM42.2626 33.5188C42.6751 33.5375 42.9188 33.6031 43.1063 33.7438C43.2469 33.8469 43.4626 34.0813 43.5844 34.2594C43.7251 34.475 43.8001 34.7188 43.8001 35C43.8001 35.2813 43.7251 35.525 43.5844 35.7406C43.4626 35.9188 43.2469 36.1531 43.1063 36.2563C42.9376 36.3781 42.6469 36.4625 42.3563 36.4906C42.0844 36.5094 41.7188 36.4813 41.5407 36.425C41.3626 36.3688 41.0719 36.1719 40.9126 35.9938C40.7251 35.7969 40.5751 35.5156 40.5469 35.3C40.5188 35.1125 40.5188 34.8125 40.5469 34.6438C40.5751 34.4844 40.7063 34.2125 40.8188 34.0531C40.9407 33.8844 41.1844 33.6969 41.3626 33.6313C41.5501 33.5563 41.9251 33.5094 42.2626 33.5188ZM25.6501 18.5375C25.9126 18.5563 26.2219 18.6594 26.3438 18.7531C26.4657 18.8469 26.6532 19.0438 26.9626 19.4469L27.0094 39.7813L27.3657 39.8844C27.5532 39.9406 28.0126 40.1469 28.3688 40.3344C28.7813 40.5406 29.2688 40.9156 29.6907 41.3281C30.0657 41.7031 30.4969 42.2469 30.6938 42.5938C30.8719 42.9313 31.1251 43.4938 31.2469 43.8594C31.4251 44.3938 31.4626 44.7125 31.4626 45.5938C31.4626 46.475 31.4251 46.7938 31.2469 47.3281C31.1251 47.6938 30.8719 48.2563 30.6938 48.5938C30.5063 48.9313 30.0563 49.4938 29.6907 49.8688C29.2032 50.3563 28.8188 50.6281 28.2282 50.9188C27.7876 51.1344 27.1407 51.3781 26.7751 51.4531C26.4188 51.5281 25.8469 51.5938 25.5094 51.5938C25.1719 51.5938 24.6094 51.5281 24.2438 51.4531C23.8876 51.3781 23.2969 51.1719 22.9313 50.9938C22.5751 50.8156 22.0313 50.4781 21.7407 50.2438C21.4407 50.0094 21.0282 49.5875 20.8126 49.325C20.5969 49.0531 20.2876 48.5375 20.1094 48.1719C19.9407 47.8063 19.7344 47.225 19.6501 46.8594C19.5751 46.4938 19.5094 45.9313 19.5094 45.5938C19.5094 45.2563 19.5751 44.6938 19.6501 44.3281C19.7251 43.9625 19.9688 43.3156 20.1844 42.875C20.4751 42.2844 20.7563 41.9094 21.2438 41.4125C21.6094 41.0469 22.1719 40.6063 22.5094 40.4188C22.8469 40.2313 23.3251 40.0063 24.0188 39.7344L24.0094 29.7313C24.0094 22.85 24.0376 19.6344 24.1126 19.4656C24.1688 19.3156 24.2813 19.1 24.3751 18.9688C24.4594 18.8469 24.6751 18.6875 24.8532 18.6219C25.0407 18.5469 25.3876 18.5188 25.6501 18.5375ZM23.5126 43.3625C23.2501 43.5969 22.9501 43.9813 22.8094 44.2813C22.6032 44.7031 22.5563 44.9281 22.5563 45.5469C22.5563 46.1656 22.6032 46.3906 22.8001 46.8125C22.9407 47.0938 23.2126 47.4875 23.4094 47.6938C23.6157 47.8906 24.0094 48.1625 24.2907 48.3031C24.7032 48.4906 24.9469 48.5375 25.5094 48.5375C26.0719 48.5375 26.3157 48.4906 26.7282 48.3031C27.0094 48.1625 27.4032 47.8906 27.6094 47.6938C27.8063 47.4875 28.0782 47.0938 28.2188 46.8125C28.4157 46.3906 28.4626 46.1656 28.4626 45.5469C28.4626 44.9281 28.4157 44.7031 28.2094 44.2813C28.0688 43.9813 27.7688 43.5969 27.5063 43.3625C27.2626 43.1375 26.8313 42.875 26.5688 42.7719C26.2594 42.6594 25.8469 42.5938 25.4907 42.6031C25.1532 42.6031 24.7032 42.6781 24.4313 42.7813C24.1782 42.875 23.7563 43.1375 23.5126 43.3625Z" fill="white"/>
</g>
<defs>
<linearGradient id="paint0_linear_374_32" x1="71" y1="0" x2="0" y2="71" gradientUnits="userSpaceOnUse">
<stop stop-color="#46B600"/>
<stop offset="1" stop-color="#80C41C"/>
</linearGradient>
<clipPath id="clip0_374_32">
<rect width="71" height="71" rx="8" fill="white"/>
</clipPath>
</defs>
</svg>
