<svg width="71" height="71" viewBox="0 0 71 71" fill="none" xmlns="http://www.w3.org/2000/svg">
<g clip-path="url(#clip0_374_61)">
<rect width="71" height="71" rx="8" fill="url(#paint0_linear_374_61)"/>
<g opacity="0.2" clip-path="url(#clip1_374_61)">
<path fill-rule="evenodd" clip-rule="evenodd" d="M-53 39.807C-52.9078 39.4281 -52.8225 39.0471 -52.7372 38.666C-52.5582 37.8662 -52.3791 37.0662 -52.1361 36.2853C-49.5341 27.8765 -43.9537 22.5226 -35.524 20.0459C-34.876 19.8543 -34.0714 19.2621 -33.8624 18.67C-27.6411 1.22178 -16.5535 -12.1613 -0.547478 -21.4828C-0.399386 -21.569 -0.262514 -21.672 -0.0879152 -21.8035C0.012643 -21.8792 0.125718 -21.9643 0.260661 -22.061C-8.82873 -25.8578 -14.4175 -32.0346 -16.3994 -40.8736C-17.0545 -43.7956 -14.6219 -46.3366 -11.6274 -46.3366V-46.3366C-8.88419 -46.3366 -6.71731 -44.1591 -5.83855 -41.5605C-4.8096 -38.5178 -2.92247 -35.9227 -0.0180044 -33.8975C3.43401 -31.487 7.32493 -30.961 11.7349 -31.285C9.68064 -34.3687 8.20053 -37.5806 7.44234 -41.0362C6.8115 -43.9114 9.25628 -46.3296 12.1999 -46.3296V-46.3296C15.017 -46.3296 17.2311 -44.0776 18.154 -41.4159C19.0935 -38.7066 20.7365 -36.3631 23.1882 -34.4374C26.1839 -32.0862 29.6359 -31.1178 33.4049 -31.2049C44.9836 -31.4731 56.1234 -29.4562 66.6292 -24.5133C85.4603 -15.6551 98.4985 -1.44996 105.591 18.1509C105.998 19.2796 106.528 19.8787 107.775 20.2096C118.092 22.951 125.059 32.1332 125 42.74C124.941 53.2145 117.894 62.2329 107.583 64.9569C106.59 65.2182 106.078 65.6536 105.706 66.6533C95.7571 93.1025 76.9295 109.44 49.2821 115.072C14.5041 122.157 -21.8657 100.978 -33.4757 67.2769C-33.9634 65.8591 -34.6566 65.2356 -36.1022 64.7897C-45.2634 61.9543 -50.8159 55.7817 -52.676 46.3383C-52.7205 46.1159 -52.8012 45.9013 -52.8822 45.6861C-52.9216 45.5812 -52.9611 45.4761 -52.9965 45.37V39.807H-53ZM53.0476 -3.09062C52.8421 6.25176 44.8826 13.64 35.3103 13.3752C31.096 12.8753 23.446 9.9564 20.7632 2.33589C19.6562 -0.808552 17.0999 -3.59571 13.7663 -3.59571V-3.59571C10.8538 -3.59571 8.2956 -1.46476 8.80237 1.40332C10.007 8.221 15.3289 16.0203 22.0352 20.0076C31.8583 25.8457 44.2939 24.9226 53.274 17.7295C61.0489 11.4977 67.0821 -0.850819 60.9792 -15.5228C61.2035 -15.4344 61.4092 -15.3574 61.6014 -15.2853C61.9854 -15.1414 62.3158 -15.0176 62.6338 -14.8644C80.702 -6.1316 92.34 7.94468 97.471 27.3296C97.983 29.2594 98.7041 29.8376 100.686 29.8272C108.189 29.7958 113.275 33.9167 114.431 40.6883C115.577 47.3938 110.46 54.2874 103.71 55.1234C102.964 55.2139 102.212 55.2732 101.459 55.3115C98.201 55.4727 98.1983 55.4819 97.2811 58.5981L97.2376 58.7461C90.2499 82.4887 74.8395 97.9444 50.9053 104.016C17.6636 112.449 -15.9196 92.3641 -25.1435 59.1815C-25.8147 56.7687 -27.4507 55.4706 -30.0516 55.2871C-36.029 54.8656 -40.6166 51.3091 -42.104 45.9447C-43.5566 40.7127 -41.5153 35.1532 -37.0079 32.0426C-34.4755 30.294 -31.6156 29.6286 -28.606 29.8133C-26.7145 29.9282 -25.976 29.2907 -25.4884 27.4237C-20.5873 8.60304 -9.45445 -5.30256 7.87182 -14.1433C16.6743 -18.6369 26.0898 -20.8175 35.9895 -20.7374C45.8231 -20.6572 53.2636 -12.9311 53.0476 -3.09062Z" fill="white"/>
<path d="M15.5216 68.5163C17.9146 67.1103 20.946 67.9086 22.9574 69.821C30.3407 76.841 41.6865 76.9477 49.1276 69.8215C51.1255 67.9081 54.1018 67.0858 56.4832 68.4936V68.4936C59.0049 69.9842 59.8562 73.339 57.9353 75.5506C52.2794 82.0625 44.9796 85.5556 35.9154 85.5295C26.9445 85.5034 19.712 82.0268 14.1007 75.593C12.1596 73.3675 12.9754 70.0123 15.5216 68.5163V68.5163Z" fill="white"/>
<path d="M0.848662 40.5952C-0.605051 42.7196 -2.64928 44.5794 -5.22347 44.5794V44.5794C-8.42221 44.5794 -11.1308 41.8912 -10.1147 38.8581C-8.99542 35.517 -6.86336 32.7487 -3.70278 30.5937C2.29557 26.5042 8.68407 26.2778 14.9228 29.9841C18.5586 32.1435 20.9766 35.0891 22.2226 38.7493C23.2664 41.8158 20.5379 44.5585 17.2986 44.5585V44.5585C14.7728 44.5585 12.7351 42.7864 11.3334 40.6852C10.0378 38.7431 8.35331 37.8937 6.04716 37.9053C3.79022 37.9165 2.10547 38.7585 0.848662 40.5952Z" fill="white"/>
<path d="M77.3703 44.5536C74.7024 44.5546 72.5412 42.7157 71.0168 40.5262C69.6747 38.5985 68.0078 37.8244 65.7025 37.9089C63.5617 37.9882 61.9272 38.8137 60.738 40.4639C59.2084 42.5867 57.1713 44.5482 54.5549 44.5482V44.5482C51.3876 44.5482 48.7093 41.8846 49.7153 38.8813C50.8146 35.5998 52.8959 32.8577 55.9874 30.7019C61.9474 26.5427 68.2906 26.3128 74.6164 29.8624C78.2262 31.8901 80.992 35.4403 82.2299 39.1392C83.2259 42.1152 80.5086 44.5525 77.3703 44.5536V44.5536Z" fill="white"/>
</g>
<g clip-path="url(#clip2_374_61)">
<path fill-rule="evenodd" clip-rule="evenodd" d="M12 36.2963C12.0249 36.1942 12.0479 36.0914 12.0709 35.9886C12.1191 35.773 12.1674 35.5572 12.233 35.3467C12.9346 33.0791 14.4395 31.6354 16.7126 30.9675C16.8874 30.9158 17.1043 30.7561 17.1607 30.5965C18.8384 25.8913 21.8283 22.2824 26.1445 19.7687C26.1844 19.7455 26.2213 19.7177 26.2684 19.6823C26.2955 19.6619 26.326 19.6389 26.3624 19.6128C23.9114 18.589 22.4043 16.9233 21.8698 14.5398C21.6932 13.7518 22.3492 13.0666 23.1567 13.0666V13.0666C23.8964 13.0666 24.4807 13.6538 24.7177 14.3545C24.9952 15.175 25.5041 15.8748 26.2873 16.421C27.2182 17.071 28.2674 17.2128 29.4566 17.1255C28.9026 16.2939 28.5035 15.4278 28.2991 14.4959C28.1289 13.7206 28.7882 13.0685 29.582 13.0685V13.0685C30.3417 13.0685 30.9387 13.6758 31.1876 14.3935C31.4409 15.1241 31.884 15.7561 32.5451 16.2754C33.353 16.9094 34.2838 17.1705 35.3002 17.1471C38.4225 17.0747 41.4265 17.6186 44.2596 18.9515C49.3376 21.3402 52.8535 25.1709 54.766 30.4565C54.8759 30.7608 55.0187 30.9224 55.355 31.0116C58.1373 31.7509 60.016 34.227 60 37.0873C59.984 39.9118 58.0838 42.3438 55.3033 43.0783C55.0356 43.1488 54.8975 43.2662 54.797 43.5358C52.1143 50.6682 47.0372 55.0736 39.5817 56.5925C30.2034 58.5031 20.3958 52.792 17.265 43.7039C17.1335 43.3216 16.9465 43.1535 16.5567 43.0332C14.0863 42.2686 12.589 40.6041 12.0874 38.0576C12.0754 37.9976 12.0536 37.9397 12.0318 37.8817C12.0211 37.8534 12.0105 37.8251 12.0009 37.7964V36.2963H12ZM40.5971 24.7284C40.5417 27.2477 38.3953 29.2401 35.814 29.1687C34.6776 29.0338 32.6146 28.2467 31.8912 26.1918C31.5927 25.3438 30.9034 24.5922 30.0044 24.5922V24.5922C29.219 24.5922 28.5291 25.1669 28.6658 25.9403C28.9907 27.7788 30.4258 29.8819 32.2342 30.9572C34.8831 32.5315 38.2366 32.2826 40.6582 30.3428C42.7548 28.6624 44.3817 25.3324 42.736 21.3759C42.7964 21.3998 42.8519 21.4205 42.9038 21.44C43.0073 21.4788 43.0964 21.5122 43.1822 21.5535C48.0545 23.9084 51.1928 27.7042 52.5764 32.9316C52.7145 33.452 52.909 33.608 53.4434 33.6051C55.4668 33.5967 56.8382 34.7079 57.1501 36.534C57.4591 38.3422 56.0792 40.2011 54.2588 40.4266C54.0578 40.451 53.8549 40.467 53.652 40.4773C52.7733 40.5208 52.7726 40.5233 52.5252 41.3636L52.5135 41.4035C50.6292 47.806 46.4736 51.9738 40.0194 53.6111C31.0553 55.8852 21.9992 50.469 19.5119 41.5209C19.3309 40.8703 18.8897 40.5202 18.1883 40.4707C16.5764 40.3571 15.3393 39.398 14.9382 37.9514C14.5465 36.5406 15.097 35.0414 16.3125 34.2026C16.9954 33.731 17.7666 33.5516 18.5782 33.6014C19.0882 33.6324 19.2874 33.4605 19.4189 32.957C20.7405 27.8818 23.7426 24.132 28.4149 21.7479C30.7886 20.5362 33.3276 19.9482 35.9972 19.9698C38.6489 19.9914 40.6553 22.0748 40.5971 24.7284Z" fill="white"/>
<path d="M30.478 44.0382C31.1233 43.6591 31.9408 43.8743 32.4832 44.39C34.4742 46.2831 37.5337 46.3118 39.5403 44.3902C40.0791 43.8742 40.8817 43.6524 41.5239 44.0321V44.0321C42.2039 44.434 42.4334 45.3387 41.9154 45.9351C40.3902 47.6911 38.4217 48.6331 35.9775 48.626C33.5583 48.619 31.608 47.6815 30.0948 45.9465C29.5714 45.3464 29.7914 44.4416 30.478 44.0382V44.0382Z" fill="white"/>
<path d="M26.521 36.5088C26.129 37.0817 25.5777 37.5832 24.8836 37.5832V37.5832C24.021 37.5832 23.2906 36.8583 23.5646 36.0404C23.8664 35.1394 24.4413 34.3929 25.2936 33.8118C26.9112 32.709 28.6339 32.6479 30.3163 33.6474C31.2967 34.2297 31.9488 35.024 32.2847 36.011C32.5662 36.8379 31.8304 37.5776 30.9569 37.5776V37.5776C30.2758 37.5776 29.7263 37.0997 29.3483 36.5331C28.999 36.0094 28.5447 35.7803 27.9228 35.7834C27.3142 35.7864 26.8599 36.0135 26.521 36.5088Z" fill="white"/>
<path d="M47.1561 37.5762C46.4366 37.5765 45.8538 37.0806 45.4427 36.4902C45.0808 35.9704 44.6313 35.7616 44.0097 35.7844C43.4324 35.8058 42.9916 36.0284 42.671 36.4734C42.2585 37.0458 41.7091 37.5748 41.0036 37.5748V37.5748C40.1495 37.5748 39.4272 36.8565 39.6985 36.0466C39.995 35.1617 40.5562 34.4223 41.3899 33.8409C42.9971 32.7194 44.7076 32.6574 46.4134 33.6146C47.3869 34.1614 48.1327 35.1187 48.4665 36.1162C48.7351 36.9187 48.0023 37.5759 47.1561 37.5762V37.5762Z" fill="white"/>
</g>
</g>
<defs>
<linearGradient id="paint0_linear_374_61" x1="71" y1="0" x2="0" y2="71" gradientUnits="userSpaceOnUse">
<stop stop-color="#46B600"/>
<stop offset="1" stop-color="#80C41C"/>
</linearGradient>
<clipPath id="clip0_374_61">
<rect width="71" height="71" rx="8" fill="white"/>
</clipPath>
<clipPath id="clip1_374_61">
<rect width="178" height="178" fill="white" transform="translate(-53 -54)"/>
</clipPath>
<clipPath id="clip2_374_61">
<rect width="48" height="48" fill="white" transform="translate(12 11)"/>
</clipPath>
</defs>
</svg>
