<svg width="71" height="71" viewBox="0 0 71 71" fill="none" xmlns="http://www.w3.org/2000/svg">
<g clip-path="url(#clip0_374_37)">
<rect width="71" height="71" rx="8" fill="url(#paint0_linear_374_37)"/>
<g opacity="0.2" clip-path="url(#clip1_374_37)">
<path fill-rule="evenodd" clip-rule="evenodd" d="M35.9039 -86.9518C38.7867 -86.9998 39.7957 -86.7596 42.102 -85.6065C43.6395 -84.8377 45.5613 -83.6846 46.3301 -83.06C47.0988 -82.3873 48.4441 -80.5615 49.309 -79.024C50.318 -77.1983 50.9906 -75.1803 51.1828 -73.3065C51.423 -71.2885 51.2789 -69.6549 50.7504 -67.7811C50.318 -66.3397 49.2609 -64.0815 48.3961 -62.7842C47.5312 -61.4869 46.0898 -59.9494 43.6875 -58.4119V-44.4783L47.8676 -43.8537C50.2219 -43.4693 54.0656 -42.7006 56.4199 -42.076C58.7742 -41.4514 62.4738 -40.2983 64.5879 -39.4815C66.702 -38.6647 70.4016 -37.0311 72.7559 -35.8299C75.1102 -34.5807 78.8098 -32.4186 80.9238 -30.9772C83.0379 -29.5358 85.3441 -27.8541 87.4102 -26.2205L96.9715 -35.8299L96.9234 -39.6736C96.8754 -42.8928 97.0676 -43.9498 98.1246 -46.3041C98.8453 -47.7936 100.431 -50.0037 101.68 -51.2529C103.121 -52.5983 104.995 -53.7994 106.629 -54.424C108.647 -55.1447 110.136 -55.3369 112.875 -55.1928C115.325 -55.0967 117.199 -54.7123 118.641 -53.9916C119.842 -53.4151 121.716 -52.0217 122.869 -50.8686C123.974 -49.7154 125.415 -47.8416 125.992 -46.6404C126.712 -45.151 127.097 -43.3252 127.193 -40.8748C127.337 -38.1361 127.145 -36.6467 126.424 -34.6287C125.8 -32.9951 124.598 -31.1213 123.253 -29.6799C122.004 -28.4307 119.794 -26.8451 118.256 -26.1244C115.95 -25.0674 114.893 -24.8752 107.83 -24.9713L103.025 -20.2147C98.509 -15.7944 98.2688 -15.41 98.9414 -14.5451C99.3258 -14.0166 101.055 -11.5662 102.737 -9.11583C104.467 -6.61739 106.965 -2.34123 108.359 0.445493C109.752 3.23221 111.53 7.46034 112.346 9.81463C113.163 12.1689 114.22 16.1088 114.749 18.4631C115.277 20.8174 115.806 24.0365 116.238 28.3127H123.445C127.385 28.3127 130.652 28.1685 130.652 27.9283C130.604 27.7361 131.469 26.6791 132.574 25.526C133.631 24.4209 135.649 22.9314 136.995 22.2107C139.157 21.1057 140.118 20.9135 143.625 20.9135C147.373 20.8654 147.949 21.0096 150.784 22.5471C152.466 23.4599 154.387 24.8533 155.06 25.6701C155.733 26.4869 156.934 28.5049 157.703 30.2346C159 33.0213 159.144 33.742 158.904 36.7209C158.76 39.3635 158.327 40.7568 157.03 43.1592C156.117 44.8408 154.724 46.7627 153.955 47.4353C153.186 48.0599 151.409 49.165 150.111 49.8377C148.093 50.8947 147.084 51.0869 143.625 51.0869C140.118 51.0869 139.157 50.8947 136.995 49.7896C135.649 49.0689 133.631 47.5795 132.574 46.4264C131.469 45.3213 130.604 44.2642 130.652 44.024C130.652 43.8318 127.385 43.6877 116.238 43.6877L115.95 46.4264C115.806 47.9639 115.277 51.183 114.749 53.5373C114.22 55.8916 113.163 59.8314 112.346 62.1857C111.53 64.54 109.656 68.8642 108.214 71.7951C106.773 74.726 104.467 78.7139 103.073 80.6838C101.728 82.6537 100.046 85.008 98.2207 87.4103L107.83 96.9717L111.674 96.9236C114.893 96.8756 115.95 97.0678 118.256 98.1248C119.794 98.8455 122.004 100.431 123.253 101.68C124.598 103.122 125.8 104.995 126.424 106.629C127.145 108.647 127.337 110.137 127.193 112.875C127.097 115.326 126.712 117.151 125.992 118.641C125.415 119.842 123.974 121.716 122.869 122.869C121.716 124.022 119.842 125.415 118.641 125.992C117.199 126.713 115.325 127.097 112.875 127.193C110.136 127.337 108.647 127.145 106.629 126.424C104.995 125.8 103.121 124.599 101.68 123.253C100.431 122.004 98.8453 119.794 98.1246 118.256C97.0676 115.95 96.8754 114.893 96.9715 107.83L87.4102 98.2209L86.1129 99.2779C85.3441 99.8545 82.9418 101.584 80.6836 103.122C78.4254 104.611 74.3414 106.965 71.5547 108.359C68.768 109.752 64.5398 111.53 62.1855 112.347C59.7832 113.163 55.8914 114.22 53.5371 114.749C51.1348 115.278 47.9637 115.806 43.6875 116.238L43.6395 130.412L44.9367 131.133C45.6574 131.517 46.8105 132.622 47.5312 133.535C48.252 134.448 49.357 136.178 49.9816 137.379C50.8945 139.157 51.0867 140.31 51.0867 143.625C51.1348 147.373 50.9906 147.949 49.4531 150.784C48.5402 152.466 47.0988 154.388 46.3301 155.06C45.5613 155.685 43.6395 156.838 42.102 157.607C39.8918 158.76 38.7387 159 36 159C33.2613 159 32.1082 158.76 29.85 157.607C28.3605 156.838 26.4387 155.685 25.6699 155.06C24.8531 154.388 23.4598 152.466 22.5469 150.784C21.0094 147.949 20.8652 147.373 20.9133 143.625C20.9133 140.118 21.1055 139.157 22.2105 136.995C22.9313 135.649 24.4207 133.631 25.5258 132.574C26.6789 131.469 27.7359 130.604 27.9281 130.653C28.1684 130.653 28.3125 127.385 28.3125 116.238L25.5258 115.95C24.0363 115.806 20.8172 115.278 18.4629 114.749C16.0605 114.22 12.1688 113.115 9.81445 112.299C7.41211 111.53 3.23203 109.704 0.445312 108.359C-2.34141 106.965 -6.61758 104.467 -9.11601 102.737C-11.5664 101.056 -14.0168 99.326 -14.5453 98.9416C-15.4102 98.2689 -15.7945 98.5092 -24.9715 107.83L-24.9234 111.674C-24.8754 114.893 -25.0676 115.95 -26.1246 118.256C-26.8453 119.794 -28.4309 122.004 -29.7281 123.253C-31.0734 124.551 -32.9953 125.8 -34.5328 126.376C-35.9742 126.905 -38.2805 127.289 -40.0582 127.289C-41.6918 127.289 -44.1422 126.953 -45.4395 126.472C-47.1691 125.896 -48.7066 124.839 -50.7727 122.773C-52.8387 120.707 -53.8957 119.169 -54.4723 117.44C-54.9527 116.094 -55.2891 113.692 -55.2891 112.01C-55.2891 110.281 -54.9047 107.974 -54.3762 106.485C-53.7996 104.995 -52.5504 103.074 -51.2531 101.68C-50.0039 100.431 -47.7938 98.8455 -46.3043 98.1248C-43.95 97.0678 -42.893 96.8756 -35.8301 96.9717L-31.0254 92.215C-26.509 87.7947 -26.2688 87.4103 -26.9414 86.5455C-27.3258 86.017 -29.0555 83.5666 -30.7371 81.1162C-32.4668 78.6178 -34.9652 74.3416 -36.3586 71.5549C-37.752 68.7681 -39.5297 64.54 -40.3465 62.1857C-41.1633 59.8314 -42.2203 55.8916 -42.7488 53.5373C-43.2773 51.183 -43.8059 47.9639 -44.2383 43.6877H-58.4121L-59.6133 45.4174C-60.2859 46.3783 -61.7754 47.7717 -62.9766 48.5885C-64.1777 49.3572 -66.3398 50.3182 -67.7812 50.7506C-69.6551 51.2791 -71.2887 51.4232 -73.3066 51.183C-75.1805 50.9908 -77.1984 50.3182 -79.0242 49.3092C-80.5617 48.4443 -82.3875 47.099 -83.0602 46.3303C-83.7328 45.5615 -84.934 43.4955 -85.7027 41.7658C-87 38.9791 -87.1441 38.3064 -86.9039 35.2795C-86.7598 33.1654 -86.2313 31.0033 -85.5105 29.5139C-84.8859 28.1685 -83.4926 26.2467 -82.4355 25.1896C-81.3785 24.1326 -79.4566 22.7392 -78.1113 22.0666C-76.1414 21.1056 -74.9402 20.9135 -71.625 20.9135C-68.1176 20.9135 -67.2047 21.1057 -65.0426 22.2107C-63.6492 22.9314 -61.6313 24.4209 -60.5742 25.526C-59.4691 26.6791 -58.6043 27.7361 -58.6523 27.9283C-58.6523 28.1685 -55.4332 28.3127 -44.2383 28.3127L-43.95 25.526C-43.8059 24.0365 -43.2773 20.8174 -42.7488 18.4631C-42.2203 16.1088 -41.1633 12.1689 -40.3465 9.81463C-39.5297 7.46034 -37.752 3.23221 -36.3586 0.445493C-34.9652 -2.34123 -32.6109 -6.42521 -31.1215 -8.68341C-29.584 -10.9416 -27.8543 -13.344 -26.2207 -15.41L-35.8301 -24.9713L-39.6738 -24.9233C-42.893 -24.8752 -43.95 -25.0674 -46.3043 -26.1244C-47.7938 -26.8451 -50.0039 -28.4307 -51.2531 -29.7279C-52.5504 -31.0733 -53.7996 -32.9951 -54.3762 -34.5326C-54.9047 -35.974 -55.2891 -38.2803 -55.2891 -40.058C-55.2891 -41.6916 -54.9527 -44.142 -54.4723 -45.4393C-53.8957 -47.169 -52.8387 -48.7065 -50.7727 -50.7725C-48.7066 -52.8385 -47.1691 -53.8955 -45.4395 -54.4721C-44.1422 -54.9526 -41.6918 -55.2889 -40.0582 -55.2889C-38.2805 -55.2889 -35.9742 -54.9045 -34.5328 -54.376C-32.9953 -53.7994 -31.0734 -52.5502 -29.7281 -51.2529C-28.4309 -50.0037 -26.8453 -47.7936 -26.1246 -46.3041C-25.0676 -43.9498 -24.8754 -42.8928 -24.9715 -35.8299L-20.2148 -31.0252C-15.7945 -26.5088 -15.4102 -26.2686 -14.5453 -26.9412C-14.0168 -27.3256 -11.5664 -29.0553 -9.11601 -30.7369C-6.61758 -32.4666 -2.34141 -34.9651 0.445312 -36.3584C3.23203 -37.7518 7.41211 -39.5295 9.81445 -40.3463C12.1688 -41.1631 16.0605 -42.2201 18.4629 -42.7486C20.8172 -43.2772 24.0363 -43.8057 28.3125 -44.2381V-51.4451C28.3125 -55.433 28.1684 -58.6522 27.9281 -58.6522C27.7359 -58.6041 26.6789 -59.469 25.5258 -60.574C24.4207 -61.6311 22.9313 -63.649 22.2105 -65.0424C21.1055 -67.2045 20.9133 -68.1174 20.9133 -71.6248C20.9133 -74.9401 21.1055 -76.1412 22.0664 -78.1111C22.7391 -79.4565 24.1324 -81.3783 25.1895 -82.4354C26.2465 -83.4924 28.3125 -84.9338 29.7539 -85.6545C31.8199 -86.6635 33.1172 -86.9518 35.8559 -86.9518H35.9039ZM15.3879 -25.9803C13.6582 -25.4518 10.1027 -23.9143 7.46016 -22.617C4.81758 -21.3678 0.925784 -19.0615 -1.18828 -17.5721C-3.30234 -16.0346 -6.18516 -13.7764 -7.62656 -12.5752C-9.06797 -11.374 -11.8547 -8.39513 -13.8727 -5.99278C-15.8906 -3.54239 -18.5332 0.109168 -19.7824 2.17518C-21.0797 4.28925 -22.9535 7.98885 -24.0105 10.3912C-25.0676 12.8416 -26.4609 16.8775 -27.0855 19.2799C-27.7102 21.7303 -28.3348 24.7572 -28.527 26.0064L-28.8152 28.3127C-23.5301 28.5049 -22.2809 28.8412 -21.368 29.5139C-20.6473 30.0424 -19.5902 31.0994 -19.0137 31.8201C-18.2449 32.8771 -18.0047 33.8861 -18.0047 36.0002C-18.0047 38.0662 -18.2449 39.1713 -18.9656 40.1322C-19.4941 40.8049 -20.5512 41.8619 -21.2719 42.4385C-22.2809 43.1592 -23.482 43.4955 -25.7402 43.5435C-27.4219 43.6396 -28.8152 43.8799 -28.8152 44.1681C-28.8152 44.4084 -28.4789 46.3303 -28.0945 48.3482C-27.7102 50.4142 -26.7973 53.8256 -26.1246 55.9396C-25.452 58.0537 -24.1066 61.5131 -23.0977 63.6271C-22.1367 65.7412 -20.2629 69.1045 -19.0137 71.0744C-17.7164 73.0443 -15.3141 76.3115 -13.6805 78.2814C-11.9988 80.2514 -9.4043 82.99 -7.8668 84.3353C-6.28125 85.6807 -3.30234 88.0349 -1.18828 89.5724C0.925784 91.0619 4.81758 93.3681 7.46016 94.6174C10.1027 95.9146 13.9945 97.5002 16.1086 98.1728C18.2227 98.8455 21.634 99.7584 23.652 100.143C25.718 100.527 27.5918 100.863 27.8801 100.863C28.1684 100.863 28.4086 99.4701 28.4566 97.7885C28.5527 95.5303 28.8891 94.3291 29.6098 93.3201C30.1863 92.5994 31.2434 91.5424 31.916 91.0139C32.877 90.2931 33.982 90.0529 36.048 90.0529C38.1141 90.0529 39.2191 90.2931 40.1801 91.0139C40.8527 91.5424 41.9098 92.5994 42.4863 93.3201C43.207 94.3291 43.5434 95.5303 43.5914 97.7885C43.6875 99.4701 43.8797 100.863 44.0719 100.863C44.3121 100.863 46.282 100.527 48.5402 100.095C50.7984 99.6623 54.7863 98.5572 57.4289 97.6443C60.0715 96.7314 63.5309 95.29 65.1164 94.5213C66.702 93.7045 69.4887 92.0709 71.3625 90.8697C73.2363 89.7166 76.3594 87.3623 78.3293 85.7287C80.2992 84.0951 83.4703 80.924 85.3441 78.7138C87.218 76.5037 89.7644 73.1885 90.9176 71.3146C92.1187 69.4408 93.7523 66.6541 94.5691 65.0685C95.3379 63.483 96.7793 60.0236 97.6922 57.381C98.6051 54.7385 99.7102 50.7506 100.143 48.4924C100.575 46.2342 100.911 44.2642 100.911 44.024C100.911 43.8318 99.518 43.6396 97.8363 43.5435C95.5781 43.4955 94.377 43.1592 93.368 42.4385C92.6473 41.8619 91.5902 40.8049 91.0617 40.1322C90.341 39.1713 90.1008 38.0662 90.1008 36.0002C90.1008 33.9342 90.341 32.8291 91.0617 31.8681C91.5902 31.1955 92.6473 30.1385 93.368 29.5619C94.377 28.8412 95.5781 28.5049 97.8363 28.4088C99.518 28.3607 100.911 28.0724 100.911 27.8322C100.911 27.5439 100.575 25.6701 100.191 23.6041C99.8063 21.5861 98.8934 18.1748 98.2207 16.0607C97.548 13.9467 96.2027 10.4873 95.1938 8.37323C94.2328 6.25917 92.359 2.89588 91.1098 0.925962C89.8125 -1.04396 87.3141 -4.40724 85.5844 -6.5213C83.8066 -8.63537 80.6355 -11.8065 78.5215 -13.5362C76.4555 -15.3139 73.0922 -17.7643 71.1223 -19.0615C69.1523 -20.3108 65.7891 -22.1846 63.675 -23.1455C61.5609 -24.1545 58.1016 -25.4998 55.9875 -26.1725C53.8734 -26.8451 50.4621 -27.758 48.3961 -28.1424C46.3781 -28.5268 44.5043 -28.8631 44.216 -28.8631C43.9277 -28.8631 43.6875 -27.4697 43.5914 -25.7881C43.5434 -23.5299 43.207 -22.3287 42.4863 -21.3197C41.9098 -20.599 40.8527 -19.542 40.1801 -19.0135C39.2191 -18.2928 38.1141 -18.0526 36.048 -18.0526C33.982 -18.0526 32.877 -18.2928 31.916 -19.0135C31.2434 -19.542 30.1863 -20.599 29.6098 -21.3197C28.8891 -22.3287 28.5527 -23.5299 28.5047 -25.7881C28.4086 -28.3826 28.2164 -28.8631 27.5437 -28.8151C27.0633 -28.8151 24.8531 -28.3826 22.5949 -27.9022C20.3367 -27.4217 17.1176 -26.5569 15.3879 -25.9803ZM70.4016 1.45448C71.4586 1.40643 73.3805 1.7908 74.6777 2.22323C76.2793 2.79979 77.7207 3.82479 79.002 5.29823C80.107 6.4994 81.2602 8.32518 81.5484 9.38222C81.8848 10.3912 82.173 12.0248 82.173 12.9377C82.173 13.8506 81.8848 15.4842 81.5484 16.4931C81.2602 17.5502 80.107 19.376 79.002 20.5771C77.7207 22.0506 76.2793 23.0756 74.6777 23.6521C73.3805 24.0846 71.5547 24.4689 70.6418 24.4689C69.7289 24.4689 68.0953 24.1807 67.0383 23.8924C65.8852 23.508 64.1555 22.3549 62.7141 20.8654C61.2246 19.424 60.0715 17.6943 59.6871 16.5412C59.3988 15.4842 59.1105 13.8506 59.1105 12.9377C59.1105 12.0248 59.3988 10.3912 59.6871 9.33417C60.0715 8.18104 61.2246 6.45135 62.7141 5.00995C64.0113 3.66463 65.8852 2.31932 66.798 2.03104C67.7109 1.74276 69.3445 1.50253 70.4016 1.45448ZM10.343 5.29823C11.4 5.25018 13.466 5.58651 14.9074 6.01893C16.8773 6.64354 18.1746 7.46033 20.0004 9.28612C21.8262 11.1119 22.643 12.4092 23.2676 14.3791C23.7 15.8205 24.0363 17.7904 24.0363 18.7033C24.0363 19.6162 23.7 21.5861 23.2676 23.0275C22.643 24.9974 21.8262 26.2947 20.0004 28.1205C18.1746 29.9463 16.8773 30.7631 14.9074 31.3877C13.466 31.8201 11.4961 32.1564 10.5832 32.1564C9.67032 32.1564 7.70039 31.8201 6.25899 31.3877C4.28907 30.7631 2.9918 29.9463 1.16602 28.1205C-0.659766 26.2947 -1.47656 24.9974 -2.10117 23.0275C-2.5336 21.5861 -2.86992 19.6162 -2.86992 18.7033C-2.86992 17.7904 -2.5336 15.8205 -2.10117 14.3791C-1.47656 12.4092 -0.659766 11.1119 1.16602 9.28612C2.8957 7.55643 4.33711 6.59549 6.01875 6.06698C7.31602 5.63455 9.28594 5.29823 10.343 5.29823ZM44.6965 47.7236C46.5223 47.8678 48.7324 48.3482 49.9816 48.9248C51.1828 49.4533 52.9125 50.5584 53.8254 51.2791C54.7383 52.0478 56.2758 54.0658 57.1887 55.7474C58.7262 58.5822 58.8703 59.1588 58.8703 62.9064C58.8703 66.6541 58.7262 67.2306 57.1887 70.0654C56.2758 71.7471 54.8344 73.6689 54.0656 74.3416C53.2969 74.9662 51.5191 76.0713 50.2219 76.7439C48.2039 77.801 47.1949 77.9931 43.7355 77.9931C39.9879 78.0412 39.4113 77.8971 36.5766 76.3596C34.8949 75.4467 32.877 73.9092 32.1082 72.9963C31.3875 72.0834 30.2824 70.3537 29.7059 69.1525C28.8891 67.4709 28.6488 66.0775 28.6488 62.9064C28.6008 59.4951 28.841 58.4381 29.802 56.4201C30.4266 55.0748 31.868 53.1529 32.925 52.0959C33.982 51.0389 35.7117 49.7416 36.7688 49.2611C37.8258 48.7326 39.3633 48.156 40.132 47.9638C40.9008 47.7236 42.9668 47.6275 44.6965 47.7236Z" fill="white"/>
</g>
<g clip-path="url(#clip2_374_37)">
<path fill-rule="evenodd" clip-rule="evenodd" d="M35.9813 12.0093C36.5438 12 36.7406 12.0468 37.1906 12.2718C37.4906 12.4218 37.8656 12.6468 38.0156 12.7687C38.1656 12.9 38.4281 13.2562 38.5969 13.5562C38.7938 13.9125 38.925 14.3062 38.9625 14.6718C39.0094 15.0656 38.9813 15.3843 38.8781 15.75C38.7938 16.0312 38.5875 16.4718 38.4187 16.725C38.25 16.9781 37.9688 17.2781 37.5 17.5781V20.2968L38.3156 20.4187C38.775 20.4937 39.525 20.6437 39.9844 20.7656C40.4438 20.8875 41.1656 21.1125 41.5781 21.2718C41.9906 21.4312 42.7125 21.75 43.1719 21.9843C43.6313 22.2281 44.3531 22.65 44.7656 22.9312C45.1781 23.2125 45.6281 23.5406 46.0312 23.8593L47.8969 21.9843L47.8875 21.2343C47.8781 20.6062 47.9156 20.4 48.1219 19.9406C48.2625 19.65 48.5719 19.2187 48.8156 18.975C49.0969 18.7125 49.4625 18.4781 49.7812 18.3562C50.175 18.2156 50.4656 18.1781 51 18.2062C51.4781 18.225 51.8438 18.3 52.125 18.4406C52.3594 18.5531 52.725 18.825 52.95 19.05C53.1656 19.275 53.4469 19.6406 53.5594 19.875C53.7 20.1656 53.775 20.5218 53.7937 21C53.8219 21.5343 53.7844 21.825 53.6438 22.2187C53.5219 22.5375 53.2875 22.9031 53.025 23.1843C52.7813 23.4281 52.35 23.7375 52.05 23.8781C51.6 24.0843 51.3937 24.1218 50.0156 24.1031L49.0781 25.0312C48.1969 25.8937 48.15 25.9687 48.2812 26.1375C48.3563 26.2406 48.6937 26.7187 49.0219 27.1968C49.3594 27.6843 49.8469 28.5187 50.1188 29.0625C50.3906 29.6062 50.7375 30.4312 50.8969 30.8906C51.0562 31.35 51.2625 32.1187 51.3656 32.5781C51.4687 33.0375 51.5719 33.6656 51.6562 34.5H53.0625C53.8312 34.5 54.4688 34.4718 54.4688 34.425C54.4594 34.3875 54.6281 34.1812 54.8438 33.9562C55.05 33.7406 55.4438 33.45 55.7063 33.3093C56.1281 33.0937 56.3156 33.0562 57 33.0562C57.7313 33.0468 57.8437 33.075 58.3969 33.375C58.725 33.5531 59.1 33.825 59.2312 33.9843C59.3625 34.1437 59.5969 34.5375 59.7469 34.875C60 35.4187 60.0281 35.5593 59.9812 36.1406C59.9531 36.6562 59.8687 36.9281 59.6156 37.3968C59.4375 37.725 59.1656 38.1 59.0156 38.2312C58.8656 38.3531 58.5188 38.5687 58.2656 38.7C57.8719 38.9062 57.675 38.9437 57 38.9437C56.3156 38.9437 56.1281 38.9062 55.7063 38.6906C55.4438 38.55 55.05 38.2594 54.8438 38.0344C54.6281 37.8187 54.4594 37.6125 54.4688 37.5656C54.4688 37.5281 53.8313 37.5 51.6562 37.5L51.6 38.0344C51.5719 38.3344 51.4687 38.9625 51.3656 39.4218C51.2625 39.8812 51.0562 40.65 50.8969 41.1093C50.7375 41.5687 50.3719 42.4125 50.0906 42.9843C49.8094 43.5562 49.3594 44.3343 49.0875 44.7187C48.825 45.1031 48.4969 45.5625 48.1406 46.0312L50.0156 47.8968L50.7656 47.8875C51.3937 47.8781 51.6 47.9156 52.05 48.1218C52.35 48.2625 52.7813 48.5719 53.025 48.8156C53.2875 49.0969 53.5219 49.4625 53.6438 49.7812C53.7844 50.175 53.8219 50.4656 53.7937 51C53.775 51.4781 53.7 51.8343 53.5594 52.125C53.4469 52.3593 53.1656 52.725 52.95 52.95C52.725 53.175 52.3594 53.4468 52.125 53.5593C51.8438 53.7 51.4781 53.775 51 53.7937C50.4656 53.8218 50.175 53.7844 49.7812 53.6437C49.4625 53.5219 49.0969 53.2875 48.8156 53.025C48.5719 52.7812 48.2625 52.35 48.1219 52.05C47.9156 51.6 47.8781 51.3937 47.8969 50.0156L46.0312 48.1406L45.7781 48.3469C45.6281 48.4594 45.1594 48.7969 44.7188 49.0969C44.2781 49.3875 43.4813 49.8468 42.9375 50.1187C42.3937 50.3906 41.5688 50.7375 41.1094 50.8968C40.6406 51.0562 39.8813 51.2625 39.4219 51.3656C38.9531 51.4687 38.3344 51.5718 37.5 51.6562L37.4906 54.4218L37.7438 54.5625C37.8844 54.6375 38.1094 54.8531 38.25 55.0312C38.3906 55.2093 38.6063 55.5468 38.7281 55.7812C38.9063 56.1281 38.9437 56.3531 38.9437 57C38.9531 57.7312 38.925 57.8437 38.625 58.3968C38.4469 58.725 38.1656 59.1 38.0156 59.2312C37.8656 59.3531 37.4906 59.5781 37.1906 59.7281C36.7594 59.9531 36.5344 60 36 60C35.4656 60 35.2406 59.9531 34.8 59.7281C34.5094 59.5781 34.1344 59.3531 33.9844 59.2312C33.825 59.1 33.5531 58.725 33.375 58.3968C33.075 57.8437 33.0469 57.7312 33.0563 57C33.0563 56.3156 33.0938 56.1281 33.3094 55.7062C33.45 55.4437 33.7406 55.05 33.9562 54.8437C34.1812 54.6281 34.3875 54.4593 34.425 54.4687C34.4719 54.4687 34.5 53.8312 34.5 51.6562L33.9562 51.6C33.6656 51.5718 33.0375 51.4687 32.5781 51.3656C32.1094 51.2625 31.35 51.0468 30.8906 50.8875C30.4219 50.7375 29.6063 50.3812 29.0625 50.1187C28.5187 49.8468 27.6844 49.3593 27.1969 49.0218C26.7188 48.6937 26.2406 48.3562 26.1375 48.2812C25.9688 48.15 25.8938 48.1968 24.1031 50.0156L24.1125 50.7656C24.1219 51.3937 24.0844 51.6 23.8781 52.05C23.7375 52.35 23.4281 52.7812 23.175 53.025C22.9125 53.2781 22.5375 53.5218 22.2375 53.6343C21.9562 53.7375 21.5062 53.8125 21.1594 53.8125C20.8406 53.8125 20.3625 53.7468 20.1094 53.6531C19.7719 53.5406 19.4719 53.3343 19.0688 52.9312C18.6656 52.5281 18.4594 52.2281 18.3469 51.8906C18.2531 51.6281 18.1875 51.1594 18.1875 50.8312C18.1875 50.4937 18.2625 50.0437 18.3656 49.7531C18.4781 49.4625 18.7219 49.0875 18.975 48.8156C19.2188 48.5719 19.65 48.2625 19.9406 48.1218C20.4 47.9156 20.6063 47.8781 21.9844 47.8968L22.9219 46.9687C23.8031 46.1062 23.85 46.0312 23.7188 45.8625C23.6437 45.7594 23.3062 45.2812 22.9781 44.8031C22.6406 44.3156 22.1531 43.4812 21.8813 42.9375C21.6094 42.3937 21.2625 41.5687 21.1031 41.1093C20.9437 40.65 20.7375 39.8812 20.6344 39.4218C20.5312 38.9625 20.4281 38.3343 20.3438 37.5H17.5781L17.3438 37.8375C17.2125 38.025 16.9219 38.2969 16.6875 38.4562C16.4531 38.6062 16.0312 38.7937 15.75 38.8781C15.3844 38.9812 15.0656 39.0093 14.6719 38.9625C14.3062 38.925 13.9125 38.7937 13.5563 38.5969C13.2563 38.4281 12.9 38.1656 12.7687 38.0156C12.6375 37.8656 12.4031 37.4625 12.2531 37.125C12 36.5812 11.9719 36.45 12.0188 35.8593C12.0469 35.4468 12.15 35.025 12.2906 34.7343C12.4125 34.4718 12.6844 34.0968 12.8906 33.8906C13.0969 33.6843 13.4719 33.4125 13.7344 33.2812C14.1187 33.0937 14.3531 33.0562 15 33.0562C15.6844 33.0562 15.8625 33.0937 16.2844 33.3093C16.5563 33.45 16.95 33.7406 17.1562 33.9562C17.3719 34.1812 17.5406 34.3875 17.5312 34.425C17.5312 34.4718 18.1594 34.5 20.3438 34.5L20.4 33.9562C20.4281 33.6656 20.5312 33.0375 20.6344 32.5781C20.7375 32.1187 20.9437 31.35 21.1031 30.8906C21.2625 30.4312 21.6094 29.6062 21.8813 29.0625C22.1531 28.5187 22.6125 27.7218 22.9031 27.2812C23.2031 26.8406 23.5406 26.3718 23.8594 25.9687L21.9844 24.1031L21.2344 24.1125C20.6063 24.1218 20.4 24.0843 19.9406 23.8781C19.65 23.7375 19.2188 23.4281 18.975 23.175C18.7219 22.9125 18.4781 22.5375 18.3656 22.2375C18.2625 21.9562 18.1875 21.5062 18.1875 21.1593C18.1875 20.8406 18.2531 20.3625 18.3469 20.1093C18.4594 19.7718 18.6656 19.4718 19.0688 19.0687C19.4719 18.6656 19.7719 18.4593 20.1094 18.3468C20.3625 18.2531 20.8406 18.1875 21.1594 18.1875C21.5062 18.1875 21.9562 18.2625 22.2375 18.3656C22.5375 18.4781 22.9125 18.7218 23.175 18.975C23.4281 19.2187 23.7375 19.65 23.8781 19.9406C24.0844 20.4 24.1219 20.6062 24.1031 21.9843L25.0312 22.9218C25.8937 23.8031 25.9688 23.85 26.1375 23.7187C26.2406 23.6437 26.7188 23.3062 27.1969 22.9781C27.6844 22.6406 28.5187 22.1531 29.0625 21.8812C29.6063 21.6093 30.4219 21.2625 30.8906 21.1031C31.35 20.9437 32.1094 20.7375 32.5781 20.6343C33.0375 20.5312 33.6656 20.4281 34.5 20.3437V18.9375C34.5 18.1593 34.4719 17.5312 34.425 17.5312C34.3875 17.5406 34.1812 17.3718 33.9562 17.1562C33.7406 16.95 33.45 16.5562 33.3094 16.2843C33.0938 15.8625 33.0563 15.6843 33.0563 15C33.0563 14.3531 33.0938 14.1187 33.2812 13.7343C33.4125 13.4718 33.6844 13.0968 33.8906 12.8906C34.0969 12.6843 34.5 12.4031 34.7812 12.2625C35.1844 12.0656 35.4375 12.0093 35.9719 12.0093H35.9813ZM31.9781 23.9062C31.6406 24.0093 30.9469 24.3093 30.4313 24.5625C29.9156 24.8062 29.1563 25.2562 28.7438 25.5468C28.3313 25.8468 27.7687 26.2875 27.4875 26.5218C27.2062 26.7562 26.6625 27.3375 26.2687 27.8062C25.875 28.2843 25.3594 28.9968 25.1156 29.4C24.8625 29.8125 24.4969 30.5343 24.2906 31.0031C24.0844 31.4812 23.8125 32.2687 23.6906 32.7375C23.5687 33.2156 23.4469 33.8062 23.4094 34.05L23.3531 34.5C24.3844 34.5375 24.6281 34.6031 24.8063 34.7343C24.9469 34.8375 25.1531 35.0437 25.2656 35.1843C25.4156 35.3906 25.4625 35.5875 25.4625 36C25.4625 36.4031 25.4156 36.6187 25.275 36.8062C25.1719 36.9375 24.9656 37.1437 24.825 37.2562C24.6281 37.3968 24.3937 37.4625 23.9531 37.4719C23.625 37.4906 23.3531 37.5375 23.3531 37.5937C23.3531 37.6406 23.4187 38.0156 23.4937 38.4094C23.5687 38.8125 23.7469 39.4781 23.8781 39.8906C24.0094 40.3031 24.2719 40.9781 24.4688 41.3906C24.6562 41.8031 25.0219 42.4593 25.2656 42.8437C25.5188 43.2281 25.9875 43.8656 26.3063 44.25C26.6344 44.6343 27.1406 45.1687 27.4406 45.4312C27.75 45.6937 28.3313 46.1531 28.7438 46.4531C29.1563 46.7437 29.9156 47.1937 30.4313 47.4375C30.9469 47.6906 31.7063 48 32.1188 48.1312C32.5313 48.2625 33.1969 48.4406 33.5906 48.5156C33.9938 48.5906 34.3594 48.6562 34.4156 48.6562C34.4719 48.6562 34.5188 48.3843 34.5281 48.0562C34.5469 47.6156 34.6125 47.3812 34.7531 47.1843C34.8656 47.0437 35.0719 46.8375 35.2031 46.7343C35.3906 46.5937 35.6063 46.5468 36.0094 46.5468C36.4125 46.5468 36.6281 46.5937 36.8156 46.7343C36.9469 46.8375 37.1531 47.0437 37.2656 47.1843C37.4062 47.3812 37.4719 47.6156 37.4812 48.0562C37.5 48.3843 37.5375 48.6562 37.575 48.6562C37.6219 48.6562 38.0063 48.5906 38.4469 48.5062C38.8875 48.4218 39.6656 48.2062 40.1813 48.0281C40.6969 47.85 41.3719 47.5687 41.6813 47.4187C41.9906 47.2593 42.5344 46.9406 42.9 46.7062C43.2656 46.4812 43.875 46.0218 44.2594 45.7031C44.6438 45.3843 45.2625 44.7656 45.6281 44.3343C45.9938 43.9031 46.4906 43.2562 46.7156 42.8906C46.95 42.525 47.2687 41.9812 47.4281 41.6718C47.5781 41.3625 47.8594 40.6875 48.0375 40.1718C48.2156 39.6562 48.4313 38.8781 48.5156 38.4375C48.6 37.9968 48.6656 37.6125 48.6656 37.5656C48.6656 37.5281 48.3938 37.4906 48.0656 37.4719C47.625 37.4625 47.3906 37.3968 47.1937 37.2562C47.0531 37.1437 46.8469 36.9375 46.7438 36.8062C46.6031 36.6187 46.5563 36.4031 46.5563 36C46.5563 35.5968 46.6031 35.3812 46.7438 35.1937C46.8469 35.0625 47.0531 34.8562 47.1937 34.7437C47.3906 34.6031 47.625 34.5375 48.0656 34.5187C48.3938 34.5093 48.6656 34.4531 48.6656 34.4062C48.6656 34.35 48.6 33.9843 48.525 33.5812C48.45 33.1875 48.2719 32.5218 48.1406 32.1093C48.0094 31.6968 47.7469 31.0218 47.55 30.6093C47.3625 30.1968 46.9969 29.5406 46.7531 29.1562C46.5 28.7718 46.0125 28.1156 45.675 27.7031C45.3281 27.2906 44.7094 26.6718 44.2969 26.3343C43.8937 25.9875 43.2375 25.5093 42.8531 25.2562C42.4688 25.0125 41.8125 24.6468 41.4 24.4593C40.9875 24.2625 40.3125 24 39.9 23.8687C39.4875 23.7375 38.8219 23.5593 38.4187 23.4843C38.025 23.4093 37.6594 23.3437 37.6031 23.3437C37.5469 23.3437 37.5 23.6156 37.4812 23.9437C37.4719 24.3843 37.4062 24.6187 37.2656 24.8156C37.1531 24.9562 36.9469 25.1625 36.8156 25.2656C36.6281 25.4062 36.4125 25.4531 36.0094 25.4531C35.6063 25.4531 35.3906 25.4062 35.2031 25.2656C35.0719 25.1625 34.8656 24.9562 34.7531 24.8156C34.6125 24.6187 34.5469 24.3843 34.5375 23.9437C34.5187 23.4375 34.4812 23.3437 34.35 23.3531C34.2562 23.3531 33.825 23.4375 33.3844 23.5312C32.9438 23.625 32.3156 23.7937 31.9781 23.9062ZM42.7125 29.2593C42.9188 29.25 43.2937 29.325 43.5469 29.4093C43.8594 29.5218 44.1406 29.7218 44.3906 30.0093C44.6062 30.2437 44.8312 30.6 44.8875 30.8062C44.9531 31.0031 45.0094 31.3218 45.0094 31.5C45.0094 31.6781 44.9531 31.9968 44.8875 32.1937C44.8312 32.4 44.6062 32.7562 44.3906 32.9906C44.1406 33.2781 43.8594 33.4781 43.5469 33.5906C43.2937 33.675 42.9375 33.75 42.7594 33.75C42.5813 33.75 42.2625 33.6937 42.0563 33.6375C41.8313 33.5625 41.4938 33.3375 41.2125 33.0468C40.9219 32.7656 40.6969 32.4281 40.6219 32.2031C40.5656 31.9968 40.5094 31.6781 40.5094 31.5C40.5094 31.3218 40.5656 31.0031 40.6219 30.7968C40.6969 30.5718 40.9219 30.2343 41.2125 29.9531C41.4656 29.6906 41.8313 29.4281 42.0094 29.3718C42.1875 29.3156 42.5063 29.2687 42.7125 29.2593ZM30.9938 30.0093C31.2 30 31.6031 30.0656 31.8844 30.15C32.2688 30.2718 32.5219 30.4312 32.8781 30.7875C33.2344 31.1437 33.3938 31.3968 33.5156 31.7812C33.6 32.0625 33.6656 32.4468 33.6656 32.625C33.6656 32.8031 33.6 33.1875 33.5156 33.4687C33.3938 33.8531 33.2344 34.1062 32.8781 34.4625C32.5219 34.8187 32.2688 34.9781 31.8844 35.1C31.6031 35.1843 31.2188 35.25 31.0406 35.25C30.8625 35.25 30.4781 35.1843 30.1969 35.1C29.8125 34.9781 29.5594 34.8187 29.2031 34.4625C28.8469 34.1062 28.6875 33.8531 28.5656 33.4687C28.4812 33.1875 28.4156 32.8031 28.4156 32.625C28.4156 32.4468 28.4812 32.0625 28.5656 31.7812C28.6875 31.3968 28.8469 31.1437 29.2031 30.7875C29.5406 30.45 29.8219 30.2625 30.15 30.1593C30.4031 30.075 30.7875 30.0093 30.9938 30.0093ZM37.6969 38.2875C38.0531 38.3156 38.4844 38.4093 38.7281 38.5218C38.9625 38.625 39.3 38.8406 39.4781 38.9812C39.6563 39.1312 39.9563 39.525 40.1344 39.8531C40.4344 40.4062 40.4625 40.5187 40.4625 41.25C40.4625 41.9812 40.4344 42.0937 40.1344 42.6468C39.9563 42.975 39.675 43.35 39.525 43.4812C39.375 43.6031 39.0281 43.8187 38.775 43.95C38.3813 44.1562 38.1844 44.1937 37.5094 44.1937C36.7781 44.2031 36.6656 44.175 36.1125 43.875C35.7844 43.6968 35.3906 43.3968 35.2406 43.2187C35.1 43.0406 34.8844 42.7031 34.7719 42.4687C34.6125 42.1406 34.5656 41.8687 34.5656 41.25C34.5562 40.5843 34.6031 40.3781 34.7906 39.9843C34.9125 39.7218 35.1938 39.3468 35.4 39.1406C35.6063 38.9343 35.9438 38.6812 36.15 38.5875C36.3563 38.4843 36.6563 38.3718 36.8063 38.3343C36.9563 38.2875 37.3594 38.2687 37.6969 38.2875Z" fill="white"/>
</g>
</g>
<defs>
<linearGradient id="paint0_linear_374_37" x1="71" y1="0" x2="0" y2="71" gradientUnits="userSpaceOnUse">
<stop stop-color="#46B600"/>
<stop offset="1" stop-color="#80C41C"/>
</linearGradient>
<clipPath id="clip0_374_37">
<rect width="71" height="71" rx="8" fill="white"/>
</clipPath>
<clipPath id="clip1_374_37">
<rect width="246" height="246" fill="white" transform="translate(-87 -87)"/>
</clipPath>
<clipPath id="clip2_374_37">
<rect width="48" height="48" fill="white" transform="translate(12 12)"/>
</clipPath>
</defs>
</svg>
