<svg width="71" height="71" viewBox="0 0 71 71" fill="none" xmlns="http://www.w3.org/2000/svg">
<g clip-path="url(#clip0_374_54)">
<rect width="71" height="71" rx="8" fill="url(#paint0_linear_374_54)"/>
<g opacity="0.2">
<path fill-rule="evenodd" clip-rule="evenodd" d="M-46.5361 -25.809C-62.7577 -29.9965 -79.2216 -32.0851 -96 -31.4095V-16.9699C-95.9493 -16.6691 -95.8903 -16.3695 -95.8314 -16.07C-95.7104 -15.4555 -95.5896 -14.8419 -95.5411 -14.2212C-94.252 2.21425 -91.1892 18.2732 -85.1461 33.6876C-79.0617 49.1999 -70.2033 62.6855 -56.1473 72.1796C-43.7723 80.5391 -30.2475 85.0051 -15.2428 82.4937C-11.3998 81.8507 -7.67415 80.5065 -3.82605 79.1181C-2.02568 78.4686 -0.198507 77.8093 1.68 77.2077C2.83739 78.3574 4.0549 79.5507 5.30858 80.7794C8.14333 83.5578 11.1631 86.5175 14.0911 89.5639C23.5786 99.4345 28.2656 111.285 28.2759 124.982V146.287C28.2759 150.559 31.7386 154.022 36.01 154.022V154.022C40.2817 154.022 43.7444 150.559 43.7442 146.287L43.7395 76.5682C43.7344 69.8951 44.6986 63.3817 46.8384 57.0644C48.937 50.8656 51.8709 45.1104 56.0217 39.9688L56.1992 40.0544C56.3033 40.1039 56.399 40.1482 56.4881 40.1894C56.7388 40.3054 56.9369 40.3971 57.12 40.5103C68.7319 47.7817 81.3853 49.3598 94.5441 46.7245C116.876 42.2482 133.505 29.4021 145.493 10.4088C158.043 -9.47673 163.488 -31.7448 166.443 -54.7606C166.845 -57.9007 167.185 -61.048 167.525 -64.196C167.681 -65.6442 167.838 -67.0924 168 -68.5401V-84.0164C165.68 -83.9137 163.358 -83.8365 161.036 -83.7593C155.89 -83.5883 150.745 -83.4172 145.622 -82.9695C126.198 -81.278 107.275 -77.2813 89.2795 -69.5354C71.145 -61.7277 55.9959 -50.3152 45.9619 -32.9515C37.8769 -18.9656 34.3242 -4.04122 37.5469 12.09C38.7689 18.2165 41.3625 23.7861 44.8584 28.9792C32.535 44.4297 27.4458 62.077 28.2914 81.3952C26.9726 80.1153 25.6686 78.8452 24.3738 77.5841C20.7075 74.0131 17.1152 70.5143 13.4723 67.069C12.24 65.8984 12.2142 65.0629 13.0702 63.6086C18.3398 54.6406 19.6908 44.8783 18.18 34.7499C15.5245 16.9272 6.3 2.92593 -7.74047 -7.98118C-19.2544 -16.9235 -32.542 -22.1991 -46.5361 -25.809ZM99.2105 -56.8749C116.077 -63.4398 133.67 -66.5701 152.294 -68.0657L152.289 -68.0605C152.083 -66.2829 151.896 -64.5404 151.711 -62.8231C151.321 -59.1995 150.943 -55.6876 150.433 -52.1924C148.097 -36.2365 144.24 -20.7087 137.099 -6.14528C129.55 9.24328 118.66 21.3468 102.655 28.185C92.1567 32.6665 81.3595 34.0898 70.3355 29.9281C69.577 29.6401 68.8496 29.2756 68.067 28.8834C67.7004 28.6997 67.3217 28.5099 66.922 28.3191C81.1911 14.0525 95.3386 -0.0966271 109.422 -14.1821C112.411 -17.1712 112.409 -22.0173 109.419 -25.005V-25.005C106.43 -27.9923 101.584 -27.99 98.5976 -24.9996C90.211 -16.6024 81.7953 -8.17369 73.3291 0.305592L73.0892 0.545838L72.9519 0.68331L56.0939 17.5667C53.4591 12.9512 52.2422 8.53161 51.9895 3.87998C51.1027 -12.4575 57.7336 -25.84 68.5978 -37.433C77.1159 -46.5196 87.7327 -52.409 99.2105 -56.8749ZM1.62328 31.1091C3.9075 38.7054 4.01578 46.2862 0.617815 54.1816L-19.5573 33.9909L-19.5743 33.9739C-24.7705 28.7739 -29.9279 23.6129 -35.0569 18.4796C-38.1022 15.4318 -43.0264 15.3811 -46.1338 18.3655V18.3655C-49.347 21.4516 -49.3794 26.5811 -46.2054 29.7075L-10.3856 64.9907C-16.0008 67.7807 -21.6778 68.2448 -27.4013 67.3475C-43.3908 64.8412 -55.0491 55.7957 -63.5414 42.4236C-71.4511 29.9694 -75.4059 16.0351 -77.917 1.65214C-78.5753 -2.12675 -79.0624 -5.93655 -79.5737 -9.93556C-79.8153 -11.8251 -80.0623 -13.7569 -80.3353 -15.7477C-78.9042 -15.5875 -77.5221 -15.4448 -76.1738 -15.3056C-73.4417 -15.0234 -70.8487 -14.7557 -68.2697 -14.3862C-53.1412 -12.2203 -38.4614 -8.51236 -25.0242 -0.936688C-12.1078 6.34503 -2.71313 16.6797 1.62328 31.1091Z" fill="white"/>
</g>
<path fill-rule="evenodd" clip-rule="evenodd" d="M20.9934 23.9438C18.0441 23.1824 15.0506 22.8027 12 22.9255V25.5509C12.0092 25.6056 12.0199 25.6601 12.0307 25.7145C12.0526 25.8263 12.0746 25.9378 12.0834 26.0507C12.3178 29.0389 12.8747 31.9588 13.9734 34.7614C15.0797 37.5818 16.6903 40.0337 19.2459 41.7599C21.4959 43.2798 23.955 44.0918 26.6831 43.6352C27.3818 43.5183 28.0592 43.2739 28.7589 43.0215C29.0862 42.9034 29.4185 42.7835 29.76 42.6741C29.9704 42.8832 30.1918 43.1001 30.4197 43.3235C30.9352 43.8287 31.4842 44.3668 32.0166 44.9207C33.7416 46.7154 34.5937 48.8701 34.5956 51.3604V55.2341C34.5956 56.0107 35.2252 56.6403 36.0018 56.6403V56.6403C36.7785 56.6403 37.4081 56.0107 37.408 55.234L37.4072 42.5579C37.4063 41.3446 37.5816 40.1603 37.9706 39.0117C38.3522 37.8847 38.8856 36.8382 39.6403 35.9034L39.6726 35.919C39.6915 35.928 39.7089 35.936 39.7251 35.9435C39.7707 35.9646 39.8067 35.9813 39.84 36.0019C41.9513 37.3239 44.2519 37.6109 46.6444 37.1317C50.7047 36.3179 53.7281 33.9822 55.9078 30.5289C58.1897 26.9133 59.1797 22.8646 59.7169 18.6799C59.7901 18.109 59.8518 17.5367 59.9136 16.9643C59.942 16.7011 59.9705 16.4377 60 16.1745V13.3607C59.5782 13.3793 59.1559 13.3934 58.7337 13.4074C57.7982 13.4385 56.8627 13.4696 55.9313 13.551C52.3997 13.8585 48.9591 14.5852 45.6872 15.9936C42.39 17.4131 39.6356 19.4881 37.8113 22.6452C36.3413 25.1881 35.6953 27.9016 36.2812 30.8345C36.5034 31.9484 36.975 32.9611 37.6106 33.9053C35.37 36.7145 34.4447 39.9231 34.5984 43.4355C34.3587 43.2028 34.1216 42.9718 33.8862 42.7426C33.2195 42.0933 32.5664 41.4571 31.9041 40.8307C31.68 40.6179 31.6753 40.466 31.8309 40.2016C32.7891 38.571 33.0347 36.7961 32.76 34.9545C32.2772 31.714 30.6 29.1683 28.0472 27.1852C25.9538 25.5594 23.5378 24.6002 20.9934 23.9438ZM47.4928 18.2955C50.5594 17.1018 53.7581 16.5327 57.1444 16.2608L57.1434 16.2617C57.1061 16.5849 57.072 16.9017 57.0384 17.214C56.9675 17.8728 56.8988 18.5113 56.8059 19.1468C56.3813 22.0479 55.68 24.8711 54.3816 27.519C53.0091 30.317 51.0291 32.5176 48.1191 33.7609C46.2103 34.5757 44.2472 34.8345 42.2428 34.0778C42.1049 34.0255 41.9727 33.9592 41.8304 33.8879C41.7637 33.8545 41.6949 33.82 41.6222 33.7853C44.2166 31.1914 46.7888 28.6188 49.3495 26.0578C49.8929 25.5143 49.8926 24.6332 49.349 24.09V24.09C48.8054 23.5469 47.9244 23.5473 47.3814 24.091C45.8565 25.6177 44.3264 27.1502 42.7871 28.6919L42.7435 28.7356L42.7185 28.7606L39.6534 31.8303C39.1744 30.9911 38.9531 30.1876 38.9072 29.3418C38.7459 26.3714 39.9516 23.9382 41.9269 21.8304C43.4756 20.1782 45.4059 19.1075 47.4928 18.2955ZM29.7497 34.2926C30.165 35.6737 30.1847 37.052 29.5669 38.4876L25.8987 34.8165L25.8956 34.8134C24.9508 33.868 24.0131 32.9296 23.0806 31.9963C22.5269 31.4421 21.6316 31.4329 21.0666 31.9755V31.9755C20.4824 32.5367 20.4765 33.4693 21.0536 34.0377L27.5662 40.4529C26.5453 40.9601 25.5131 41.0445 24.4725 40.8814C21.5653 40.4257 19.4456 38.781 17.9016 36.3497C16.4634 34.0853 15.7444 31.5518 15.2878 28.9367C15.1681 28.2497 15.0796 27.557 14.9866 26.8299C14.9427 26.4863 14.8978 26.1351 14.8481 25.7731C15.1083 25.8023 15.3596 25.8282 15.6048 25.8535C16.1015 25.9048 16.573 25.9535 17.0419 26.0207C19.7925 26.4145 22.4616 27.0887 24.9047 28.4661C27.2531 29.79 28.9612 31.669 29.7497 34.2926Z" fill="white"/>
</g>
<defs>
<linearGradient id="paint0_linear_374_54" x1="71" y1="0" x2="0" y2="71" gradientUnits="userSpaceOnUse">
<stop stop-color="#46B600"/>
<stop offset="1" stop-color="#80C41C"/>
</linearGradient>
<clipPath id="clip0_374_54">
<rect width="71" height="71" rx="8" fill="white"/>
</clipPath>
</defs>
</svg>
