<svg width="71" height="71" viewBox="0 0 71 71" fill="none" xmlns="http://www.w3.org/2000/svg">
<g clip-path="url(#clip0_374_47)">
<rect width="71" height="71" rx="8" fill="url(#paint0_linear_374_47)"/>
<g opacity="0.2">
<path d="M-71 33.4176C-69.3488 29.8331 -66.5111 28.5014 -62.6569 28.8333C-60.6987 29.0034 -58.7115 28.8623 -56.5002 28.8623C-63.1589 14.6405 -64.2293 0.273459 -59.1886 -14.3674C-55.2224 -25.8884 -47.9331 -34.9161 -38.0176 -41.9647C-19.8254 -54.8963 13.5137 -57.1034 35.1245 -32.8002C45.7826 -44.259 58.8303 -50.7974 74.5789 -51.4487C87.0458 -51.9632 98.4797 -48.6815 108.669 -41.4586C119.837 -33.5428 127.264 -22.9262 130.607 -9.62541C133.922 3.5634 132.437 16.3456 126.467 28.8623C129.267 28.8623 131.794 28.8457 134.316 28.8665C138.187 28.8997 140.954 31.4594 140.992 35.0066C141.029 38.6326 138.229 41.2629 134.242 41.2795C129.342 41.3044 124.442 41.2297 119.547 41.3334C118.643 41.3542 117.518 41.7815 116.888 42.4121C91.29 67.9434 65.7379 93.5203 40.1735 119.089C36.7134 122.549 33.3281 122.574 29.9261 119.172C4.31601 93.5535 -21.2858 67.9268 -46.9291 42.3416C-47.5182 41.7524 -48.5678 41.35 -49.4142 41.3334C-53.8284 41.2339 -58.251 41.1218 -62.6569 41.3334C-66.5111 41.5201 -69.3447 40.3128 -70.9917 36.7283V33.4176H-71ZM34.4773 42.6278C35.0539 41.6736 35.4481 41.043 35.8173 40.4C41.9865 29.6382 48.1473 18.8722 54.3206 8.11041C57.4031 2.7378 62.7467 2.5843 66.0491 7.77851C70.1937 14.292 74.3424 20.8014 78.4164 27.3605C79.1259 28.5014 79.8809 28.9038 81.2168 28.8955C90.8751 28.8333 100.533 28.8333 110.192 28.8955C111.54 28.9038 112.299 28.4807 113.004 27.3522C118.518 18.5528 120.696 9.04802 119.534 -1.29061C116.054 -32.2609 80.2419 -49.4822 54.0842 -32.4725C48.7821 -29.0249 44.4176 -24.1169 39.6839 -19.8147C36.6678 -17.0724 33.2202 -17.0018 30.3119 -19.8437C28.0426 -22.0591 25.8521 -24.3617 23.5661 -26.5605C13.4432 -36.3017 1.39945 -40.4048 -12.5569 -38.6872C-43.6765 -34.8621 -60.317 1.50563 -42.8965 27.5347C-42.2493 28.5014 -41.5814 28.8997 -40.399 28.8914C-33.844 28.8333 -27.289 28.8126 -20.7382 28.8997C-19.2571 28.9204 -18.5891 28.435 -18.029 27.0784C-13.1543 15.3084 -8.17996 3.57584 -3.27201 -8.18165C-2.18919 -10.7788 -0.380349 -12.4051 2.46983 -12.5088C5.32415 -12.6166 7.25746 -11.1189 8.51037 -8.60482C10.4146 -4.78384 12.3645 -0.979455 14.2979 2.82908C20.9607 15.9764 27.6277 29.1237 34.4731 42.6278H34.4773ZM34.9129 106.066C56.478 84.5051 78.068 62.9193 99.7036 41.2878C99.1725 41.2878 98.5129 41.2878 97.8532 41.2878C90.7465 41.2878 83.6356 41.267 76.5288 41.3002C73.8777 41.3127 71.8946 40.2506 70.4924 38.0103C67.9285 33.9196 65.3355 29.8497 62.7467 25.7757C62.0539 24.6846 61.3361 23.6101 60.523 22.3654C60.0044 23.2367 59.6061 23.8756 59.2327 24.5269C52.9267 35.5335 46.6289 46.5401 40.327 57.5466C40.2233 57.725 40.1071 57.8993 40.0117 58.0818C38.7297 60.5462 36.8006 62.0729 33.9338 61.9609C31.1666 61.8572 29.4532 60.2392 28.2376 57.8246C20.4504 42.383 12.6135 26.9622 4.78896 11.5373C4.32846 10.6328 3.85965 9.73671 3.25809 8.57506C2.85566 9.45044 2.5611 10.0603 2.29558 10.6826C-1.30551 19.258 -4.90246 27.8335 -8.50356 36.4089C-10.0718 40.1427 -11.7769 41.2836 -15.7721 41.2878C-19.9126 41.2961 -24.053 41.2878 -28.1934 41.2961C-28.7659 41.2961 -29.3343 41.3749 -29.7533 41.4039C-8.10528 63.052 13.4971 84.6544 34.9129 106.07V106.066Z" fill="white"/>
</g>
<path d="M11 34.6417C11.3739 33.8301 12.0164 33.5286 12.889 33.6037C13.3324 33.6423 13.7823 33.6103 14.283 33.6103C12.7753 30.3903 12.533 27.1374 13.6743 23.8225C14.5723 21.2139 16.2227 19.1699 18.4677 17.574C22.5867 14.6461 30.1352 14.1464 35.0282 19.649C37.4413 17.0546 40.3955 15.5742 43.9613 15.4267C46.784 15.3102 49.3728 16.0532 51.6798 17.6886C54.2085 19.4809 55.8899 21.8846 56.647 24.8961C57.3975 27.8823 57.0612 30.7764 55.7095 33.6103C56.3436 33.6103 56.9156 33.6066 57.4867 33.6113C58.3631 33.6188 58.9897 34.1983 58.9981 35.0015C59.0066 35.8225 58.3725 36.418 57.4698 36.4218C56.3605 36.4274 55.2511 36.4105 54.1427 36.434C53.9379 36.4387 53.6834 36.5354 53.5406 36.6782C47.7449 42.4589 41.9595 48.2499 36.1714 54.039C35.3879 54.8224 34.6215 54.828 33.8512 54.0578C28.0527 48.2574 22.256 42.4551 16.45 36.6622C16.3166 36.5288 16.079 36.4377 15.8874 36.434C14.8879 36.4114 13.8866 36.3861 12.889 36.434C12.0164 36.4762 11.3748 36.2029 11.0019 35.3913V34.6417H11ZM34.8816 36.727C35.0122 36.511 35.1014 36.3682 35.1851 36.2226C36.5818 33.786 37.9768 31.3484 39.3745 28.9118C40.0724 27.6953 41.2823 27.6606 42.03 28.8366C42.9684 30.3114 43.9077 31.7852 44.8301 33.2703C44.9908 33.5286 45.1617 33.6197 45.4642 33.6178C47.651 33.6037 49.8377 33.6037 52.0245 33.6178C52.3298 33.6197 52.5017 33.5239 52.6614 33.2684C53.9097 31.2761 54.4029 29.1241 54.1399 26.7832C53.3518 19.7711 45.2434 15.8719 39.3209 19.7232C38.1205 20.5038 37.1323 21.615 36.0605 22.5891C35.3776 23.21 34.597 23.226 33.9386 22.5825C33.4247 22.0809 32.9288 21.5596 32.4112 21.0618C30.1192 18.8562 27.3923 17.9272 24.2324 18.3161C17.1865 19.1821 13.4188 27.4164 17.3631 33.3097C17.5096 33.5286 17.6608 33.6188 17.9285 33.6169C19.4127 33.6037 20.8968 33.5991 22.38 33.6188C22.7154 33.6235 22.8666 33.5136 22.9934 33.2064C24.0971 30.5415 25.2234 27.8851 26.3346 25.223C26.5798 24.635 26.9894 24.2668 27.6347 24.2433C28.2809 24.2189 28.7187 24.558 29.0023 25.1272C29.4335 25.9923 29.875 26.8537 30.3127 27.716C31.8213 30.6928 33.3308 33.6695 34.8807 36.727H34.8816ZM34.9803 51.0904C39.8629 46.2087 44.7512 41.3213 49.6499 36.4236C49.5296 36.4236 49.3803 36.4236 49.2309 36.4236C47.6218 36.4236 46.0118 36.4189 44.4027 36.4264C43.8025 36.4293 43.3535 36.1888 43.036 35.6816C42.4555 34.7554 41.8684 33.8339 41.2823 32.9115C41.1254 32.6644 40.9629 32.4211 40.7788 32.1393C40.6614 32.3366 40.5712 32.4812 40.4867 32.6287C39.0589 35.1208 37.633 37.6128 36.2061 40.1049C36.1826 40.1453 36.1563 40.1847 36.1347 40.2261C35.8445 40.784 35.4077 41.1297 34.7586 41.1043C34.1321 41.0809 33.7441 40.7145 33.4689 40.1678C31.7058 36.6716 29.9314 33.1801 28.1598 29.6877C28.0555 29.4829 27.9494 29.28 27.8132 29.017C27.722 29.2152 27.6553 29.3533 27.5952 29.4942C26.7799 31.4358 25.9655 33.3774 25.1501 35.319C24.7951 36.1644 24.409 36.4227 23.5044 36.4236C22.567 36.4255 21.6295 36.4236 20.6921 36.4255C20.5624 36.4255 20.4337 36.4434 20.3389 36.4499C25.2403 41.3514 30.1314 46.2425 34.9803 51.0913V51.0904Z" fill="white"/>
</g>
<defs>
<linearGradient id="paint0_linear_374_47" x1="71" y1="0" x2="0" y2="71" gradientUnits="userSpaceOnUse">
<stop stop-color="#46B600"/>
<stop offset="1" stop-color="#80C41C"/>
</linearGradient>
<clipPath id="clip0_374_47">
<rect width="71" height="71" rx="8" fill="white"/>
</clipPath>
</defs>
</svg>
