<svg width="24" height="24" viewBox="0 0 24 24" fill="none" xmlns="http://www.w3.org/2000/svg">
<path d="M11.7 0.13125C11.6297 0.201562 11.4422 0.459375 11.2781 0.703125C11.1188 0.946875 10.5047 1.81406 9.90938 2.625C9.31876 3.43594 8.58751 4.44844 8.29219 4.875C7.99219 5.30156 7.53751 5.96719 7.27969 6.35156C7.02188 6.74062 6.57188 7.44375 6.27188 7.92188C5.97657 8.4 5.57813 9.06094 5.39063 9.39844C5.20313 9.73594 4.87501 10.3547 4.65938 10.7812C4.44844 11.2078 4.17188 11.7984 4.05001 12.0938C3.93282 12.3891 3.77813 12.7781 3.71719 12.9609C3.65626 13.1438 3.54376 13.5328 3.47344 13.8281C3.39844 14.1234 3.31407 14.5875 3.28126 14.8594C3.22969 15.2859 3.23438 15.4453 3.30001 16.0312C3.34688 16.4062 3.42657 16.9125 3.47813 17.1562C3.52969 17.4 3.64688 17.8125 3.73594 18.0703C3.82501 18.3281 3.99376 18.7406 4.10626 18.9844C4.22344 19.2281 4.42032 19.5984 4.54688 19.8047C4.66876 20.0109 4.90313 20.3484 5.05782 20.5547C5.21719 20.7609 5.53126 21.1172 5.75626 21.3469C5.98126 21.5766 6.31407 21.8813 6.49219 22.0312C6.67501 22.1766 6.97969 22.4062 7.17188 22.5328C7.36407 22.6641 7.68282 22.8562 7.87501 22.9594C8.06719 23.0625 8.45626 23.2453 8.74219 23.3625C9.02813 23.475 9.46876 23.625 9.72657 23.6953C9.98438 23.7609 10.3875 23.85 10.6172 23.8922C10.8609 23.9391 11.3906 23.9766 11.8594 23.9906C12.3797 24 12.8016 23.9859 13.0078 23.9531C13.1906 23.9203 13.5469 23.8547 13.8047 23.8031C14.0625 23.7516 14.4938 23.6391 14.7656 23.5453C15.0375 23.4562 15.45 23.2922 15.6797 23.1844C15.9094 23.0719 16.2703 22.8844 16.4766 22.7578C16.6828 22.6359 17.0438 22.3922 17.2734 22.2141C17.5031 22.0406 17.9109 21.6797 18.1734 21.4172C18.4406 21.15 18.7828 20.7609 18.9422 20.5547C19.0969 20.3484 19.3313 20.0109 19.4531 19.8047C19.5797 19.5984 19.7766 19.2281 19.8938 18.9844C20.0109 18.7406 20.1797 18.3094 20.2781 18.0234C20.3719 17.7375 20.4844 17.3297 20.5359 17.1094C20.5828 16.8891 20.6578 16.3969 20.7 16.0078C20.7656 15.4031 20.7703 15.2391 20.7188 14.8359C20.6859 14.5781 20.6016 14.1234 20.5266 13.8281C20.4563 13.5328 20.3156 13.0594 20.2125 12.7734C20.1094 12.4875 19.9406 12.0469 19.8281 11.7891C19.7203 11.5312 19.4859 11.025 19.3125 10.6641C19.1344 10.3031 18.8297 9.7125 18.6328 9.35156C18.4313 8.99063 18.0984 8.40938 17.8922 8.0625C17.6859 7.71562 17.2734 7.05 16.9781 6.58594C16.6828 6.12187 16.1672 5.34375 15.8297 4.85156C15.4922 4.35938 15.0281 3.69844 14.7938 3.375C14.5641 3.05156 14.0578 2.36719 13.6734 1.85156C13.2844 1.33594 12.8438 0.754687 12.6891 0.5625C12.5344 0.370313 12.3516 0.164062 12.2859 0.107812C12.2063 0.0375 12.1031 0 11.9953 0C11.8734 0 11.7891 0.0375 11.7 0.13125Z" fill="#FF7436"/>
</svg>
