<svg width="24" height="24" viewBox="0 0 24 24" fill="none" xmlns="http://www.w3.org/2000/svg">
<g clip-path="url(#clip0_3_1586)">
<path d="M23.9981 17.2936C23.8718 17.7882 23.6736 18.2451 23.3411 18.6425C22.7648 19.331 22.019 19.7753 21.2144 20.1332C21.1505 20.1619 21.0242 20.1036 20.9519 20.051C19.0525 18.6678 17.156 17.2795 15.2595 15.8926C14.1187 15.0585 12.9779 14.2248 11.8375 13.3907C11.7689 13.3404 11.7032 13.2873 11.5829 13.1943C12.0592 13.1046 12.4814 13.0093 12.9083 12.9468C14.9185 12.6519 16.9245 12.6688 18.9192 13.0746C20.1577 13.3263 21.3455 13.7199 22.4017 14.4413C23.2232 15.0026 23.8323 15.7122 23.9981 16.7309V17.2936Z" fill="#FF7436"/>
<path d="M14.6231 23.9968C14.1901 23.9499 13.7561 23.9099 13.3245 23.854C11.8366 23.661 10.3952 23.3069 9.08196 22.5488C8.33425 22.1172 7.67437 21.5851 7.31038 20.7721C7.21034 20.548 7.1305 20.2996 7.11359 20.0572C7.08259 19.6097 7.10466 19.1583 7.10466 18.7229C7.26717 19.6458 7.84627 20.3001 8.59163 20.8275C9.73621 21.6372 11.0428 22.0463 12.4011 22.3037C14.0459 22.6155 15.7047 22.6705 17.3688 22.4972C19.0032 22.3271 20.5879 21.9721 22.026 21.1347C22.7723 20.7002 23.4251 20.1592 23.7783 19.3401C23.8788 19.1071 23.9258 18.8516 23.9972 18.6064V20.0126C23.9258 20.2578 23.8788 20.5133 23.7783 20.7458C23.4256 21.5639 22.7728 22.1041 22.0283 22.5394C20.7203 23.3045 19.2813 23.6605 17.7943 23.8536C17.3631 23.9095 16.9296 23.9494 16.4971 23.9968H14.6222H14.6231Z" fill="#FF7436"/>
<path d="M13.9308 2.02039C9.96681 5.98579 6.01033 9.94415 2.05432 13.9016C-0.570646 10.9469 -0.802193 6.35072 2.06982 2.99589C5.17526 -0.631822 10.3656 -0.974679 13.9308 2.02039Z" fill="#FF7436"/>
<path d="M15.0035 3.08838C16.0147 4.31656 16.653 5.74811 16.8784 7.36564C17.056 8.64079 16.9367 9.88493 16.5544 11.1117C16.4896 11.3198 16.3999 11.3649 16.1955 11.3578C14.454 11.2972 12.7322 11.4475 11.0471 11.9069C9.6653 12.2831 8.36479 12.8359 7.26999 13.7921C6.49081 14.4726 5.92674 15.2842 5.74169 16.3241C5.73371 16.3696 5.71633 16.4133 5.69848 16.4748C4.72533 16.1376 3.86913 15.6168 3.10733 14.9789C7.07649 11.0112 11.0386 7.05096 15.0031 3.08838H15.0035Z" fill="#FF7436"/>
<path d="M19.4738 20.7241C18.1954 21.0449 16.948 21.1727 15.6888 21.1802C13.8256 21.1914 11.9972 20.9669 10.2458 20.292C9.34264 19.944 8.5071 19.4837 7.83782 18.7614C6.80455 17.6455 6.83931 16.1477 7.92001 15.0726C8.47093 14.5245 9.11438 14.1211 9.82264 13.8181C9.90154 13.7843 10.0471 13.8271 10.1251 13.8844C12.3725 15.5197 14.6147 17.1612 16.8583 18.8018C17.6525 19.3823 18.4467 19.9628 19.2404 20.5438C19.308 20.5931 19.3729 20.6462 19.4734 20.7246L19.4738 20.7241Z" fill="#FF7436"/>
</g>
<defs>
<clipPath id="clip0_3_1586">
<rect width="24" height="24" fill="white"/>
</clipPath>
</defs>
</svg>
