<svg width="135" height="135" viewBox="0 0 135 135" fill="none" xmlns="http://www.w3.org/2000/svg">
<g filter="url(#filter0_d_335_417)">
<g clip-path="url(#clip0_335_417)">
<rect x="16" y="24" width="71" height="71" rx="8" fill="url(#paint0_linear_335_417)"/>
<g opacity="0.2">
<path fill-rule="evenodd" clip-rule="evenodd" d="M-1.26796 -54.3902C2.37149 -54.4374 4.73477 -54.2011 7.19258 -53.5394C9.08321 -53.0195 11.8246 -52.1687 13.2426 -51.6488C14.6606 -51.1288 17.4965 -49.6163 19.4816 -48.2929C21.5141 -47.0167 24.35 -44.748 25.768 -43.33C27.1859 -41.912 29.4547 -39.0761 30.7309 -37.091C32.0543 -35.0585 33.5668 -32.2226 34.0867 -30.8046C34.6067 -29.3867 35.4102 -27.0234 35.8356 -25.6054C36.5445 -23.2894 36.6391 -18.3265 36.8754 64.4356L41.791 69.3985C44.5324 72.1872 47.841 76.1102 49.259 78.379C50.7242 80.6004 52.5676 83.7672 53.4184 85.4688C54.2691 87.1704 55.6399 90.668 56.4906 93.2676C57.3414 95.8672 58.3813 100.216 58.8066 102.957C59.232 105.698 59.5629 109.716 59.5629 111.938C59.5629 114.159 59.232 118.177 58.8066 120.918C58.4285 123.659 57.3414 128.102 56.4434 130.844C55.4981 133.585 53.7965 137.745 52.5676 140.061C51.3387 142.377 49.1645 145.922 47.7465 147.859C46.2813 149.797 43.6344 152.87 41.791 154.666C39.9949 156.509 36.9227 159.156 34.9848 160.621C33.0469 162.039 29.3129 164.308 26.7133 165.631C24.1137 166.955 20.2852 168.609 18.2055 169.318C16.1258 169.98 12.8172 170.878 10.8793 171.303C8.94141 171.729 4.54571 172.154 1.18985 172.296C-3.06406 172.438 -6.41991 172.296 -9.68124 171.823C-12.2809 171.398 -16.5348 170.405 -19.1344 169.602C-21.734 168.751 -25.9879 167.002 -28.5875 165.679C-31.1871 164.308 -34.9211 162.039 -36.859 160.621C-38.7969 159.156 -41.8691 156.509 -43.6652 154.666C-45.5086 152.87 -48.1555 149.797 -49.6207 147.859C-51.0387 145.922 -53.2129 142.377 -54.4418 140.061C-55.6234 137.745 -57.1832 134.2 -57.8922 132.262C-58.6012 130.324 -59.5465 126.921 -60.0664 124.699C-60.5391 122.478 -61.1062 118.035 -61.248 114.773C-61.4844 110.378 -61.3426 107.447 -60.7754 103.43C-60.3027 100.452 -59.2629 95.8672 -58.4121 93.2676C-57.5141 90.668 -56.0488 86.934 -55.0562 84.9962C-54.0637 83.0583 -52.2203 79.8442 -50.8969 77.9063C-49.5734 75.9684 -46.3121 72.1399 -38.7496 64.4356L-38.6078 20.7149C-38.5133 -18.3265 -38.4187 -23.2894 -37.7098 -25.6054C-37.2844 -27.0234 -36.4809 -29.3867 -35.9609 -30.8046C-35.441 -32.2226 -33.9285 -35.0585 -32.6051 -37.091C-31.3289 -39.0761 -29.0602 -41.912 -27.6422 -43.33C-26.2242 -44.748 -23.3883 -47.0167 -21.4031 -48.2929C-19.3707 -49.6163 -16.5348 -51.1288 -15.1168 -51.6488C-13.6988 -52.1687 -11.1465 -53.0195 -9.44492 -53.4921C-7.41249 -54.0593 -4.62382 -54.3429 -1.31523 -54.3902H-1.26796ZM-11.95 -36.3347C-13.4625 -35.4839 -15.8258 -33.6406 -17.1965 -32.2226C-18.5199 -30.8046 -20.2215 -28.4886 -20.8832 -27.1652C-21.5922 -25.7945 -22.4902 -23.4312 -22.8684 -21.966C-23.4828 -19.6027 -23.5773 -12.8437 -23.5773 25.2997C-23.5773 61.0798 -23.7191 70.1547 -24.1918 71.3837C-24.5226 72.2344 -25.8461 73.7942 -27.1223 74.834C-28.3984 75.8739 -30.7144 77.9063 -32.2269 79.3243C-33.7867 80.7422 -36.0082 83.2001 -37.1898 84.7598C-38.3715 86.3196 -40.3566 89.7227 -41.5855 92.3223C-42.8144 94.9219 -44.327 98.845 -44.8941 101.066C-45.7922 104.375 -45.9812 106.313 -45.9812 111.938C-45.934 117.751 -45.7449 119.5 -44.7523 123.281C-44.0906 125.739 -42.6727 129.568 -41.5383 131.789C-40.4512 134.011 -38.8914 136.752 -38.0879 137.934C-37.3316 139.115 -34.732 141.998 -32.3215 144.314C-29.9582 146.678 -26.5551 149.419 -24.7117 150.506C-22.9156 151.546 -19.5598 153.2 -17.1965 154.146C-14.8805 155.091 -10.9101 156.225 -8.45234 156.651C-5.19101 157.218 -2.49687 157.36 1.23712 157.171C4.12032 157.029 8.09063 156.462 10.2176 155.895C12.2973 155.375 15.275 154.335 16.8348 153.673C18.3945 152.964 21.1359 151.546 22.8848 150.459C24.6809 149.419 27.6586 147.15 29.502 145.449C31.3926 143.747 33.9449 141.006 35.2211 139.304C36.4973 137.65 38.577 134.152 39.8059 131.553C41.082 128.953 42.5473 124.888 43.1617 122.572C43.9652 119.216 44.2016 116.995 44.2016 111.938C44.2016 106.88 43.9652 104.659 43.1617 101.303C42.5473 98.9868 41.1766 95.111 40.0895 92.795C38.9551 90.479 37.3953 87.5958 36.5918 86.4141C35.8355 85.2325 34.0395 83.011 32.6215 81.4985C31.2035 79.986 28.5094 77.4337 26.5715 75.8266C24.4918 74.1251 22.7902 72.2817 22.4121 71.3837C21.9395 70.1547 21.7977 61.1743 21.7977 25.2997C21.7977 -12.8437 21.7031 -19.6027 21.0887 -21.966C20.7106 -23.4312 19.8125 -25.7945 19.1035 -27.1652C18.4418 -28.4886 16.7402 -30.8046 15.4168 -32.2226C14.0461 -33.6406 11.6828 -35.4839 10.1703 -36.3347C8.61055 -37.1382 6.10548 -38.1781 4.54571 -38.5562C2.98595 -38.9816 0.433605 -39.3124 -1.12616 -39.2652C-2.68593 -39.2652 -5.14374 -38.9343 -6.56171 -38.5562C-7.97968 -38.1781 -10.3902 -37.1382 -11.95 -36.3347ZM135.141 -1.49994C135.944 -1.49994 137.22 -1.26361 137.977 -0.980011C138.686 -0.743683 140.387 0.57975 141.758 1.95045C143.176 3.32116 145.539 5.8735 147.052 7.71686C148.517 9.51295 150.927 12.8215 152.345 15.043C153.811 17.2645 155.938 21.0458 157.166 23.409C158.348 25.8196 160.191 30.3098 161.184 33.3348C162.177 36.4071 163.358 40.6137 163.784 42.6934C164.209 44.7731 164.729 48.4126 165.013 50.7286C165.249 53.0446 165.485 56.7786 165.485 59.0001C165.485 61.2215 165.249 64.9555 165.013 67.2715C164.729 69.5876 164.209 73.227 163.784 75.3067C163.358 77.3864 162.177 81.593 161.184 84.618C160.191 87.6903 158.348 92.1805 157.166 94.5438C155.938 96.9544 153.811 100.736 152.345 102.957C150.927 105.179 148.517 108.44 147.052 110.283C145.539 112.127 143.081 114.773 141.569 116.239C139.489 118.224 138.307 119.027 136.889 119.264C135.85 119.453 134.243 119.453 133.345 119.264C132.399 119.075 130.981 118.177 129.989 117.184C128.823 116.05 128.13 114.852 127.909 113.592C127.72 112.552 127.72 110.992 127.862 110.141C128.051 109.149 129.28 107.4 131.548 104.942C133.392 102.957 136.039 99.8376 137.362 97.9942C138.733 96.1508 140.813 92.984 141.994 90.9044C143.176 88.8247 144.877 85.1852 145.775 82.8692C146.721 80.5059 147.902 76.8192 148.422 74.5977C148.942 72.3762 149.604 68.784 149.888 66.5626C150.124 64.3411 150.36 60.938 150.36 59.0001C150.36 57.0622 150.124 53.659 149.888 51.4376C149.604 49.2161 148.942 45.6239 148.422 43.4024C147.902 41.1809 146.721 37.4469 145.775 35.1309C144.877 32.7676 143.176 29.1755 141.994 27.0958C140.813 25.0161 138.733 21.802 137.362 20.0059C136.039 18.1626 133.392 15.043 131.548 13.0106C128.996 10.2692 128.051 8.94577 127.862 7.57507C127.72 6.62975 127.72 5.11725 127.862 4.26647C128.004 3.46295 128.665 2.09225 129.232 1.28873C129.847 0.43795 131.076 -0.507362 131.974 -0.838223C132.872 -1.16908 134.29 -1.45267 135.141 -1.49994ZM106.876 20.7149C107.774 20.7622 109.192 21.1403 110.043 21.5657C110.846 21.9911 112.879 23.5508 114.533 25.0161C116.187 26.4341 118.881 29.4118 120.536 31.6333C122.19 33.8075 124.364 37.3051 125.357 39.3848C126.349 41.4645 127.578 44.7731 128.145 46.711C128.665 48.6489 129.327 52.2883 129.611 54.7462C129.941 57.913 129.941 60.4653 129.563 63.4903C129.28 65.8063 128.618 69.3512 128.098 71.2891C127.578 73.227 126.349 76.5356 125.357 78.6153C124.364 80.695 122.237 84.0981 120.725 86.1778C119.165 88.2575 116.613 91.0934 115.1 92.4641C113.588 93.8821 111.508 95.3946 110.563 95.9145C109.57 96.3872 108.152 96.8125 107.348 96.8125C106.592 96.8125 105.221 96.529 104.418 96.1981C103.567 95.82 102.291 94.8747 101.582 94.0712C100.826 93.2204 100.117 91.7551 99.975 90.7626C99.8332 89.8172 99.8332 88.2575 100.022 87.3594C100.259 86.1305 101.44 84.618 104.465 81.6403C106.687 79.4188 109.334 76.2047 110.326 74.5504C111.319 72.8961 112.642 69.8239 113.351 67.7442C114.344 64.6247 114.58 63.0649 114.58 59.0001C114.58 54.9352 114.344 53.3755 113.351 50.2559C112.642 48.1762 111.319 45.104 110.326 43.4969C109.334 41.8426 107.49 39.3848 106.167 38.0614C104.891 36.6907 102.953 34.8473 101.96 33.9493C100.968 33.0512 99.9277 31.8223 99.7387 31.2079C99.5024 30.6407 99.3133 29.27 99.3133 28.1356C99.3133 27.0485 99.6914 25.3942 100.211 24.4962C100.731 23.5036 101.913 22.4165 103.142 21.7548C104.276 21.1876 105.93 20.7149 106.876 20.7149ZM83.5738 51.5321C85.6535 51.6266 86.8824 51.9575 87.8277 52.6665C88.5367 53.1864 89.6238 54.368 90.2383 55.2661C90.9473 56.3532 91.3254 57.5821 91.3254 59.0001C91.3254 60.418 90.9473 61.6469 90.2383 62.734C89.6238 63.6321 88.5367 64.8137 87.8277 65.3337C86.977 65.9481 85.5117 66.3735 84.0465 66.5153C82.6758 66.6098 80.8324 66.468 79.9344 66.1844C79.0363 65.9008 77.5711 64.9083 76.7676 64.0102C75.8223 63.0176 75.066 61.5997 74.9242 60.5126C74.7824 59.5673 74.7824 58.0547 74.9242 57.204C75.066 56.4005 75.7278 55.0297 76.2949 54.2262C76.9094 53.3755 78.1383 52.4301 79.0363 52.0993C79.9817 51.7212 81.8723 51.4848 83.5738 51.5321ZM-0.180851 -23.9984C1.14259 -23.9038 2.70235 -23.3839 3.3168 -22.9113C3.93125 -22.4386 4.87657 -21.446 6.43633 -19.4136L6.67266 83.1055L8.46875 83.6254C9.41406 83.909 11.7301 84.9489 13.5262 85.8942C15.6059 86.934 18.0637 88.8247 20.1906 90.9044C22.0813 92.795 24.2555 95.5364 25.248 97.2852C26.1461 98.9868 27.4223 101.823 28.0367 103.666C28.9348 106.36 29.1238 107.967 29.1238 112.41C29.1238 116.853 28.9348 118.46 28.0367 121.154C27.4223 122.998 26.1461 125.834 25.248 127.535C24.3027 129.237 22.034 132.073 20.1906 133.963C17.7328 136.421 15.7949 137.792 12.8172 139.257C10.5957 140.344 7.33438 141.573 5.49102 141.951C3.69493 142.329 0.811729 142.66 -0.889832 142.66C-2.5914 142.66 -5.42733 142.329 -7.27069 141.951C-9.06679 141.573 -12.0445 140.533 -13.8879 139.635C-15.684 138.737 -18.4254 137.036 -19.8906 135.854C-21.4031 134.672 -23.4828 132.545 -24.5699 131.222C-25.657 129.851 -27.2168 127.252 -28.1148 125.408C-28.9656 123.565 -30.0055 120.634 -30.4309 118.791C-30.809 116.948 -31.1398 114.112 -31.1398 112.41C-31.1398 110.709 -30.809 107.873 -30.4309 106.029C-30.0527 104.186 -28.8238 100.925 -27.7367 98.7032C-26.2715 95.7254 -24.8535 93.8348 -22.3957 91.3297C-20.5523 89.4864 -17.7164 87.2649 -16.0148 86.3196C-14.3133 85.3743 -11.9027 84.2399 -8.40507 82.8692L-8.45234 32.4368C-8.45234 -2.25618 -8.31054 -18.4683 -7.93242 -19.3191C-7.64882 -20.0753 -7.08163 -21.1624 -6.60898 -21.8242C-6.18359 -22.4386 -5.09647 -23.2421 -4.19843 -23.573C-3.25311 -23.9511 -1.50429 -24.0929 -0.180851 -23.9984ZM-10.9574 101.161C-12.2808 102.343 -13.7934 104.281 -14.5023 105.793C-15.5422 107.92 -15.7785 109.054 -15.7785 112.174C-15.7785 115.293 -15.5422 116.428 -14.5496 118.555C-13.8406 119.973 -12.4699 121.958 -11.4773 122.998C-10.4375 123.99 -8.45234 125.361 -7.03437 126.07C-4.95468 127.015 -3.72577 127.252 -0.889832 127.252C1.94611 127.252 3.17501 127.015 5.25469 126.07C6.67266 125.361 8.65781 123.99 9.69766 122.998C10.6902 121.958 12.0609 119.973 12.7699 118.555C13.7625 116.428 13.9988 115.293 13.9988 112.174C13.9988 109.054 13.7625 107.92 12.7227 105.793C12.0137 104.281 10.5012 102.343 9.17773 101.161C7.94883 100.027 5.77461 98.7032 4.45117 98.1833C2.89141 97.6161 0.811722 97.2852 -0.984371 97.3325C-2.68593 97.3325 -4.95468 97.7106 -6.32538 98.2305C-7.60155 98.7032 -9.72851 100.027 -10.9574 101.161Z" fill="white"/>
</g>
<path fill-rule="evenodd" clip-rule="evenodd" d="M41.4342 36.5095C42.1561 36.5001 42.6248 36.547 43.1123 36.6782C43.4873 36.7813 44.0311 36.9501 44.3123 37.0532C44.5936 37.1563 45.1561 37.4563 45.5498 37.7188C45.9529 37.972 46.5154 38.422 46.7967 38.7032C47.0779 38.9845 47.5279 39.547 47.7811 39.9407C48.0436 40.3438 48.3436 40.9063 48.4467 41.1876C48.5498 41.4688 48.7092 41.9376 48.7936 42.2188C48.9342 42.6782 48.9529 43.6626 48.9998 60.0782L49.9748 61.0626C50.5186 61.6157 51.1748 62.3938 51.4561 62.8438C51.7467 63.2845 52.1123 63.9126 52.2811 64.2501C52.4498 64.5876 52.7217 65.2813 52.8904 65.797C53.0592 66.3126 53.2654 67.1751 53.3498 67.7188C53.4342 68.2626 53.4998 69.0595 53.4998 69.5001C53.4998 69.9407 53.4342 70.7376 53.3498 71.2813C53.2748 71.8251 53.0592 72.7063 52.8811 73.2501C52.6936 73.7938 52.3561 74.6188 52.1123 75.0782C51.8686 75.5376 51.4373 76.2407 51.1561 76.6251C50.8654 77.0095 50.3404 77.6188 49.9748 77.9751C49.6186 78.3407 49.0092 78.8657 48.6248 79.1563C48.2404 79.4376 47.4998 79.8876 46.9842 80.1501C46.4686 80.4126 45.7092 80.7407 45.2967 80.8813C44.8842 81.0126 44.2279 81.1907 43.8436 81.2751C43.4592 81.3595 42.5873 81.4438 41.9217 81.472C41.0779 81.5001 40.4123 81.472 39.7654 81.3782C39.2498 81.2938 38.4061 81.097 37.8904 80.9376C37.3748 80.7688 36.5311 80.422 36.0154 80.1595C35.4998 79.8876 34.7592 79.4376 34.3748 79.1563C33.9904 78.8657 33.3811 78.3407 33.0248 77.9751C32.6592 77.6188 32.1342 77.0095 31.8436 76.6251C31.5623 76.2407 31.1311 75.5376 30.8873 75.0782C30.6529 74.6188 30.3436 73.9157 30.2029 73.5313C30.0623 73.147 29.8748 72.472 29.7717 72.0313C29.6779 71.5907 29.5654 70.7095 29.5373 70.0626C29.4904 69.1907 29.5186 68.6095 29.6311 67.8126C29.7248 67.222 29.9311 66.3126 30.0998 65.797C30.2779 65.2813 30.5686 64.5407 30.7654 64.1563C30.9623 63.772 31.3279 63.1345 31.5904 62.7501C31.8529 62.3657 32.4998 61.6063 33.9998 60.0782L34.0279 51.4063C34.0467 43.6626 34.0654 42.6782 34.2061 42.2188C34.2904 41.9376 34.4498 41.4688 34.5529 41.1876C34.6561 40.9063 34.9561 40.3438 35.2186 39.9407C35.4717 39.547 35.9217 38.9845 36.2029 38.7032C36.4842 38.422 37.0467 37.972 37.4404 37.7188C37.8436 37.4563 38.4061 37.1563 38.6873 37.0532C38.9686 36.9501 39.4748 36.7813 39.8123 36.6876C40.2154 36.5751 40.7686 36.5188 41.4248 36.5095H41.4342ZM39.3154 40.0907C39.0154 40.2595 38.5467 40.6251 38.2748 40.9063C38.0123 41.1876 37.6748 41.647 37.5436 41.9095C37.4029 42.1813 37.2248 42.6501 37.1498 42.9407C37.0279 43.4095 37.0092 44.7501 37.0092 52.3157C37.0092 59.4126 36.9811 61.2126 36.8873 61.4563C36.8217 61.6251 36.5592 61.9345 36.3061 62.1407C36.0529 62.347 35.5936 62.7501 35.2936 63.0313C34.9842 63.3126 34.5436 63.8001 34.3092 64.1095C34.0748 64.4188 33.6811 65.0938 33.4373 65.6095C33.1936 66.1251 32.8936 66.9032 32.7811 67.3438C32.6029 68.0001 32.5654 68.3845 32.5654 69.5001C32.5748 70.6532 32.6123 71.0001 32.8092 71.7501C32.9404 72.2376 33.2217 72.997 33.4467 73.4376C33.6623 73.8782 33.9717 74.422 34.1311 74.6563C34.2811 74.8907 34.7967 75.4626 35.2748 75.922C35.7436 76.3907 36.4186 76.9345 36.7842 77.1501C37.1404 77.3563 37.8061 77.6845 38.2748 77.872C38.7342 78.0595 39.5217 78.2845 40.0092 78.3688C40.6561 78.4813 41.1904 78.5095 41.9311 78.472C42.5029 78.4438 43.2904 78.3313 43.7123 78.2188C44.1248 78.1157 44.7154 77.9095 45.0248 77.7782C45.3342 77.6376 45.8779 77.3563 46.2248 77.1407C46.5811 76.9345 47.1717 76.4845 47.5373 76.147C47.9123 75.8095 48.4186 75.2657 48.6717 74.9282C48.9248 74.6001 49.3373 73.9063 49.5811 73.3907C49.8342 72.8751 50.1248 72.0688 50.2467 71.6095C50.4061 70.9438 50.4529 70.5032 50.4529 69.5001C50.4529 68.497 50.4061 68.0563 50.2467 67.3907C50.1248 66.9313 49.8529 66.1626 49.6373 65.7032C49.4123 65.2438 49.1029 64.672 48.9436 64.4376C48.7936 64.2032 48.4373 63.7626 48.1561 63.4626C47.8748 63.1626 47.3404 62.6563 46.9561 62.3376C46.5436 62.0001 46.2061 61.6345 46.1311 61.4563C46.0373 61.2126 46.0092 59.4313 46.0092 52.3157C46.0092 44.7501 45.9904 43.4095 45.8686 42.9407C45.7936 42.6501 45.6154 42.1813 45.4748 41.9095C45.3436 41.647 45.0061 41.1876 44.7436 40.9063C44.4717 40.6251 44.0029 40.2595 43.7029 40.0907C43.3936 39.9313 42.8967 39.7251 42.5873 39.6501C42.2779 39.5657 41.7717 39.5001 41.4623 39.5095C41.1529 39.5095 40.6654 39.5751 40.3842 39.6501C40.1029 39.7251 39.6248 39.9313 39.3154 40.0907ZM68.4904 47.0001C68.6498 47.0001 68.9029 47.047 69.0529 47.1032C69.1936 47.1501 69.5311 47.4126 69.8029 47.6845C70.0842 47.9563 70.5529 48.4626 70.853 48.8282C71.1436 49.1845 71.6217 49.8407 71.9029 50.2813C72.1936 50.722 72.6154 51.472 72.8592 51.9407C73.0936 52.4188 73.4592 53.3095 73.6561 53.9095C73.853 54.5188 74.0873 55.3532 74.1717 55.7657C74.2561 56.1782 74.3592 56.9001 74.4155 57.3595C74.4623 57.8188 74.5092 58.5595 74.5092 59.0001C74.5092 59.4407 74.4623 60.1813 74.4155 60.6407C74.3592 61.1001 74.2561 61.822 74.1717 62.2345C74.0873 62.647 73.853 63.4813 73.6561 64.0813C73.4592 64.6907 73.0936 65.5813 72.8592 66.0501C72.6154 66.5282 72.1936 67.2782 71.9029 67.7188C71.6217 68.1595 71.1436 68.8063 70.853 69.172C70.5529 69.5376 70.0654 70.0626 69.7654 70.3532C69.3529 70.747 69.1186 70.9063 68.8373 70.9532C68.6311 70.9907 68.3123 70.9907 68.1342 70.9532C67.9467 70.9157 67.6654 70.7376 67.4686 70.5407C67.2373 70.3157 67.0998 70.0782 67.0561 69.8282C67.0186 69.622 67.0186 69.3126 67.0467 69.1438C67.0842 68.947 67.3279 68.6001 67.7779 68.1126C68.1436 67.7188 68.6686 67.1001 68.9311 66.7345C69.2029 66.3688 69.6154 65.7407 69.8498 65.3282C70.0842 64.9157 70.4217 64.1938 70.5998 63.7345C70.7873 63.2657 71.0217 62.5345 71.1248 62.0938C71.2279 61.6532 71.3592 60.9407 71.4155 60.5001C71.4623 60.0595 71.5092 59.3845 71.5092 59.0001C71.5092 58.6157 71.4623 57.9407 71.4155 57.5001C71.3592 57.0595 71.2279 56.347 71.1248 55.9063C71.0217 55.4657 70.7873 54.7251 70.5998 54.2657C70.4217 53.797 70.0842 53.0845 69.8498 52.672C69.6154 52.2595 69.2029 51.622 68.9311 51.2657C68.6686 50.9001 68.1436 50.2813 67.7779 49.8782C67.2717 49.3345 67.0842 49.072 67.0467 48.8001C67.0186 48.6126 67.0186 48.3126 67.0467 48.1438C67.0748 47.9845 67.2061 47.7126 67.3186 47.5532C67.4404 47.3845 67.6842 47.197 67.8623 47.1313C68.0405 47.0657 68.3217 47.0095 68.4904 47.0001ZM62.8842 51.4063C63.0623 51.4157 63.3436 51.4907 63.5123 51.5751C63.6717 51.6595 64.0748 51.9688 64.4029 52.2595C64.7311 52.5407 65.2654 53.1313 65.5936 53.572C65.9217 54.0032 66.353 54.697 66.5498 55.1095C66.7467 55.522 66.9904 56.1782 67.103 56.5626C67.2061 56.947 67.3373 57.6688 67.3936 58.1563C67.4592 58.7845 67.4592 59.2907 67.3842 59.8907C67.3279 60.3501 67.1967 61.0532 67.0936 61.4376C66.9904 61.822 66.7467 62.4782 66.5498 62.8907C66.353 63.3032 65.9311 63.9782 65.6311 64.3907C65.3217 64.8032 64.8154 65.3657 64.5154 65.6376C64.2155 65.9188 63.8029 66.2188 63.6154 66.322C63.4186 66.4157 63.1373 66.5001 62.9779 66.5001C62.8279 66.5001 62.5561 66.4438 62.3967 66.3782C62.2279 66.3032 61.9748 66.1157 61.8342 65.9563C61.6842 65.7876 61.5436 65.497 61.5154 65.3001C61.4873 65.1126 61.4873 64.8032 61.5248 64.6251C61.5717 64.3813 61.8061 64.0813 62.4061 63.4907C62.8467 63.0501 63.3717 62.4126 63.5686 62.0845C63.7654 61.7563 64.0279 61.147 64.1686 60.7345C64.3654 60.1157 64.4123 59.8063 64.4123 59.0001C64.4123 58.1938 64.3654 57.8845 64.1686 57.2657C64.0279 56.8532 63.7654 56.2438 63.5686 55.9251C63.3717 55.597 63.0061 55.1095 62.7436 54.847C62.4904 54.5751 62.1061 54.2095 61.9092 54.0313C61.7123 53.8532 61.5061 53.6095 61.4686 53.4876C61.4217 53.3751 61.3842 53.1032 61.3842 52.8782C61.3842 52.6626 61.4592 52.3345 61.5623 52.1563C61.6654 51.9595 61.8998 51.7438 62.1436 51.6126C62.3686 51.5001 62.6967 51.4063 62.8842 51.4063ZM58.2623 57.5188C58.6748 57.5376 58.9186 57.6032 59.1061 57.7438C59.2467 57.847 59.4623 58.0813 59.5842 58.2595C59.7248 58.4751 59.7998 58.7188 59.7998 59.0001C59.7998 59.2813 59.7248 59.5251 59.5842 59.7407C59.4623 59.9188 59.2467 60.1532 59.1061 60.2563C58.9373 60.3782 58.6467 60.4626 58.3561 60.4907C58.0842 60.5095 57.7186 60.4813 57.5404 60.4251C57.3623 60.3688 57.0717 60.172 56.9123 59.9938C56.7248 59.797 56.5748 59.5157 56.5467 59.3001C56.5186 59.1126 56.5186 58.8126 56.5467 58.6438C56.5748 58.4845 56.7061 58.2126 56.8186 58.0532C56.9404 57.8845 57.1842 57.697 57.3623 57.6313C57.5498 57.5563 57.9248 57.5095 58.2623 57.5188ZM41.6498 42.5376C41.9123 42.5563 42.2217 42.6595 42.3436 42.7532C42.4654 42.847 42.6529 43.0438 42.9623 43.447L43.0092 63.7813L43.3654 63.8845C43.5529 63.9407 44.0123 64.147 44.3686 64.3345C44.7811 64.5407 45.2686 64.9157 45.6904 65.3282C46.0654 65.7032 46.4967 66.247 46.6936 66.5938C46.8717 66.9313 47.1248 67.4938 47.2467 67.8595C47.4248 68.3938 47.4623 68.7126 47.4623 69.5938C47.4623 70.4751 47.4248 70.7938 47.2467 71.3282C47.1248 71.6938 46.8717 72.2563 46.6936 72.5938C46.5061 72.9313 46.0561 73.4938 45.6904 73.8688C45.2029 74.3563 44.8186 74.6282 44.2279 74.9188C43.7873 75.1345 43.1404 75.3782 42.7748 75.4532C42.4186 75.5282 41.8467 75.5938 41.5092 75.5938C41.1717 75.5938 40.6092 75.5282 40.2436 75.4532C39.8873 75.3782 39.2967 75.172 38.9311 74.9938C38.5748 74.8157 38.0311 74.4782 37.7404 74.2438C37.4404 74.0095 37.0279 73.5876 36.8123 73.3251C36.5967 73.0532 36.2873 72.5376 36.1092 72.172C35.9404 71.8063 35.7342 71.2251 35.6498 70.8595C35.5748 70.4938 35.5092 69.9313 35.5092 69.5938C35.5092 69.2563 35.5748 68.6938 35.6498 68.3282C35.7248 67.9626 35.9686 67.3157 36.1842 66.8751C36.4748 66.2845 36.7561 65.9095 37.2436 65.4126C37.6092 65.047 38.1717 64.6063 38.5092 64.4188C38.8467 64.2313 39.3248 64.0063 40.0186 63.7345L40.0092 53.7313C40.0092 46.8501 40.0373 43.6345 40.1123 43.4657C40.1686 43.3157 40.2811 43.1001 40.3748 42.9688C40.4592 42.847 40.6748 42.6876 40.8529 42.622C41.0404 42.547 41.3873 42.5188 41.6498 42.5376ZM39.5123 67.3626C39.2498 67.597 38.9498 67.9813 38.8092 68.2813C38.6029 68.7032 38.5561 68.9282 38.5561 69.547C38.5561 70.1657 38.6029 70.3907 38.7998 70.8126C38.9404 71.0938 39.2123 71.4876 39.4092 71.6938C39.6154 71.8907 40.0092 72.1626 40.2904 72.3032C40.7029 72.4907 40.9467 72.5376 41.5092 72.5376C42.0717 72.5376 42.3154 72.4907 42.7279 72.3032C43.0092 72.1626 43.4029 71.8907 43.6092 71.6938C43.8061 71.4876 44.0779 71.0938 44.2186 70.8126C44.4154 70.3907 44.4623 70.1657 44.4623 69.547C44.4623 68.9282 44.4154 68.7032 44.2092 68.2813C44.0686 67.9813 43.7686 67.597 43.5061 67.3626C43.2623 67.1376 42.8311 66.8751 42.5686 66.772C42.2592 66.6595 41.8467 66.5938 41.4904 66.6032C41.1529 66.6032 40.7029 66.6782 40.4311 66.7813C40.1779 66.8751 39.7561 67.1376 39.5123 67.3626Z" fill="white"/>
</g>
</g>
<defs>
<filter id="filter0_d_335_417" x="0" y="0" width="135" height="135" filterUnits="userSpaceOnUse" color-interpolation-filters="sRGB">
<feFlood flood-opacity="0" result="BackgroundImageFix"/>
<feColorMatrix in="SourceAlpha" type="matrix" values="0 0 0 0 0 0 0 0 0 0 0 0 0 0 0 0 0 0 127 0" result="hardAlpha"/>
<feOffset dx="16" dy="8"/>
<feGaussianBlur stdDeviation="16"/>
<feComposite in2="hardAlpha" operator="out"/>
<feColorMatrix type="matrix" values="0 0 0 0 0.27451 0 0 0 0 0.713726 0 0 0 0 0 0 0 0 0.25 0"/>
<feBlend mode="normal" in2="BackgroundImageFix" result="effect1_dropShadow_335_417"/>
<feBlend mode="normal" in="SourceGraphic" in2="effect1_dropShadow_335_417" result="shape"/>
</filter>
<linearGradient id="paint0_linear_335_417" x1="87" y1="24" x2="16" y2="95" gradientUnits="userSpaceOnUse">
<stop stop-color="#46B600"/>
<stop offset="1" stop-color="#80C41C"/>
</linearGradient>
<clipPath id="clip0_335_417">
<rect x="16" y="24" width="71" height="71" rx="8" fill="white"/>
</clipPath>
</defs>
</svg>
