<?xml version="1.0" encoding="utf-8"?>
<!-- Generator: Adobe Illustrator 22.1.0, SVG Export Plug-In . SVG Version: 6.00 Build 0)  -->
<svg version="1.1" id="Слой_1" xmlns="http://www.w3.org/2000/svg" xmlns:xlink="http://www.w3.org/1999/xlink" x="0px" y="0px"
	 viewBox="0 0 71 71" style="enable-background:new 0 0 71 71;" xml:space="preserve">
<style type="text/css">
	.st0{clip-path:url(#SVGID_2_);}
	.st1{fill:url(#SVGID_3_);}
	.st2{opacity:0.2;}
	.st3{fill:#FFFFFF;}
</style>
<g>
	<g>
		<defs>
			<path id="SVGID_1_" d="M8,0h55c4.4,0,8,3.6,8,8v55c0,4.4-3.6,8-8,8H8c-4.4,0-8-3.6-8-8V8C0,3.6,3.6,0,8,0z"/>
		</defs>
		<clipPath id="SVGID_2_">
			<use xlink:href="#SVGID_1_"  style="overflow:visible;"/>
		</clipPath>
		<g class="st0">
			
				<linearGradient id="SVGID_3_" gradientUnits="userSpaceOnUse" x1="71" y1="88" x2="-3.455613e-07" y2="17" gradientTransform="matrix(1 0 0 -1 0 88)">
				<stop  offset="0" style="stop-color:#46B600"/>
				<stop  offset="1" style="stop-color:#80C41C"/>
			</linearGradient>
			<path class="st1" d="M8,0h55c4.4,0,8,3.6,8,8v55c0,4.4-3.6,8-8,8H8c-4.4,0-8-3.6-8-8V8C0,3.6,3.6,0,8,0z"/>
			<g class="st2">
				<path class="st3" d="M-17.3-78.4c3.6,0,6,0.2,8.5,0.9c1.9,0.5,4.6,1.4,6.1,1.9c1.4,0.5,4.3,2,6.2,3.4c2,1.3,4.9,3.5,6.3,5
					c1.4,1.4,3.7,4.3,5,6.2c1.3,2,2.8,4.9,3.4,6.3c0.5,1.4,1.3,3.8,1.7,5.2c0.7,2.3,0.8,7.3,1,90l4.9,5c2.7,2.8,6,6.7,7.5,9
					c1.5,2.2,3.3,5.4,4.2,7.1c0.9,1.7,2.2,5.2,3.1,7.8c0.9,2.6,1.9,6.9,2.3,9.7c0.4,2.7,0.8,6.8,0.8,9c0,2.2-0.3,6.2-0.8,9
					c-0.4,2.7-1.5,7.2-2.4,9.9c-0.9,2.7-2.6,6.9-3.9,9.2c-1.2,2.3-3.4,5.9-4.8,7.8c-1.5,1.9-4.1,5-6,6.8c-1.8,1.8-4.9,4.5-6.8,6
					c-1.9,1.4-5.7,3.7-8.3,5c-2.6,1.3-6.4,3-8.5,3.7c-2.1,0.7-5.4,1.6-7.3,2c-1.9,0.4-6.3,0.9-9.7,1c-4.3,0.1-7.6,0-10.9-0.5
					c-2.6-0.4-6.9-1.4-9.5-2.2c-2.6-0.9-6.9-2.6-9.5-3.9c-2.6-1.4-6.3-3.6-8.3-5.1c-1.9-1.5-5-4.1-6.8-6c-1.8-1.8-4.5-4.9-6-6.8
					c-1.4-1.9-3.6-5.5-4.8-7.8c-1.2-2.3-2.7-5.9-3.5-7.8c-0.7-1.9-1.7-5.3-2.2-7.6c-0.5-2.2-1-6.7-1.2-9.9
					c-0.2-4.4-0.1-7.3,0.5-11.3c0.5-3,1.5-7.6,2.4-10.2c0.9-2.6,2.4-6.3,3.4-8.3c1-1.9,2.8-5.2,4.2-7.1c1.3-1.9,4.6-5.8,12.1-13.5
					l0.1-43.7c0.1-39,0.2-44,0.9-46.3c0.4-1.4,1.2-3.8,1.7-5.2c0.5-1.4,2-4.3,3.4-6.3c1.3-2,3.5-4.8,5-6.2c1.4-1.4,4.3-3.7,6.2-5
					c2-1.3,4.9-2.8,6.3-3.4c1.4-0.5,4-1.4,5.7-1.8C-23.4-78.1-20.6-78.3-17.3-78.4L-17.3-78.4z M-28-60.3c-1.5,0.9-3.9,2.7-5.2,4.1
					c-1.3,1.4-3,3.7-3.7,5.1c-0.7,1.4-1.6,3.7-2,5.2c-0.6,2.4-0.7,9.1-0.7,47.3c0,35.8-0.1,44.9-0.6,46.1c-0.3,0.9-1.7,2.4-2.9,3.5
					c-1.3,1-3.6,3.1-5.1,4.5c-1.6,1.4-3.8,3.9-5,5.4c-1.2,1.6-3.2,5-4.4,7.6c-1.2,2.6-2.7,6.5-3.3,8.7c-0.9,3.3-1.1,5.2-1.1,10.9
					c0,5.8,0.2,7.6,1.2,11.3c0.7,2.5,2.1,6.3,3.2,8.5c1.1,2.2,2.6,5,3.5,6.1c0.8,1.2,3.4,4.1,5.8,6.4c2.4,2.4,5.8,5.1,7.6,6.2
					c1.8,1,5.2,2.7,7.5,3.6c2.3,0.9,6.3,2.1,8.7,2.5c3.3,0.6,6,0.7,9.7,0.5c2.9-0.1,6.9-0.7,9-1.3c2.1-0.5,5.1-1.6,6.6-2.2
					c1.6-0.7,4.3-2.1,6-3.2c1.8-1,4.8-3.3,6.6-5c1.9-1.7,4.4-4.4,5.7-6.1c1.3-1.7,3.4-5.2,4.6-7.8c1.3-2.6,2.7-6.7,3.4-9
					c0.8-3.4,1-5.6,1-10.6c0-5.1-0.2-7.3-1-10.6c-0.6-2.3-2-6.2-3.1-8.5c-1.1-2.3-2.7-5.2-3.5-6.4c-0.8-1.2-2.6-3.4-4-4.9
					c-1.4-1.5-4.1-4.1-6-5.7c-2.1-1.7-3.8-3.5-4.2-4.4C5.9,46.2,5.8,37.2,5.8,1.3c0-38.1-0.1-44.9-0.7-47.3c-0.4-1.5-1.3-3.8-2-5.2
					c-0.7-1.3-2.4-3.6-3.7-5.1c-1.4-1.4-3.7-3.3-5.2-4.1c-1.6-0.8-4.1-1.8-5.6-2.2c-1.6-0.4-4.1-0.8-5.7-0.7c-1.6,0-4,0.3-5.4,0.7
					C-24-62.2-26.4-61.1-28-60.3z M119.1-25.5c0.8,0,2.1,0.2,2.8,0.5c0.7,0.2,2.4,1.6,3.8,2.9c1.4,1.4,3.8,3.9,5.3,5.8
					c1.5,1.8,3.9,5.1,5.3,7.3c1.5,2.2,3.6,6,4.8,8.4c1.2,2.4,3,6.9,4,9.9c1,3.1,2.2,7.3,2.6,9.4c0.4,2.1,0.9,5.7,1.2,8
					c0.2,2.3,0.5,6,0.5,8.3c0,2.2-0.2,6-0.5,8.3c-0.3,2.3-0.8,6-1.2,8c-0.4,2.1-1.6,6.3-2.6,9.3c-1,3.1-2.8,7.6-4,9.9
					c-1.2,2.4-3.4,6.2-4.8,8.4c-1.4,2.2-3.8,5.5-5.3,7.3c-1.5,1.8-4,4.5-5.5,6c-2.1,2-3.3,2.8-4.7,3c-1,0.2-2.6,0.2-3.5,0
					c-0.9-0.2-2.4-1.1-3.4-2.1c-1.2-1.1-1.9-2.3-2.1-3.6c-0.2-1-0.2-2.6,0-3.5c0.2-1,1.4-2.7,3.7-5.2c1.8-2,4.5-5.1,5.8-6.9
					c1.4-1.8,3.5-5,4.6-7.1c1.2-2.1,2.9-5.7,3.8-8c0.9-2.4,2.1-6.1,2.6-8.3c0.5-2.2,1.2-5.8,1.5-8c0.2-2.2,0.5-5.6,0.5-7.6
					s-0.2-5.3-0.5-7.6c-0.3-2.2-0.9-5.8-1.5-8s-1.7-6-2.6-8.3c-0.9-2.4-2.6-6-3.8-8c-1.2-2.1-3.3-5.3-4.6-7.1c-1.3-1.8-4-5-5.8-7
					c-2.6-2.7-3.5-4.1-3.7-5.4c-0.1-0.9-0.1-2.5,0-3.3c0.1-0.8,0.8-2.2,1.4-3c0.6-0.9,1.8-1.8,2.7-2.1
					C116.9-25.2,118.3-25.5,119.1-25.5z M90.9-3.3c0.9,0,2.3,0.4,3.2,0.9c0.8,0.4,2.8,2,4.5,3.5c1.7,1.4,4.3,4.4,6,6.6
					c1.7,2.2,3.8,5.7,4.8,7.8c1,2.1,2.2,5.4,2.8,7.3c0.5,1.9,1.2,5.6,1.5,8c0.3,3.2,0.3,5.7,0,8.7c-0.3,2.3-0.9,5.9-1.5,7.8
					c-0.5,1.9-1.7,5.2-2.7,7.3c-1,2.1-3.1,5.5-4.6,7.6c-1.6,2.1-4.1,4.9-5.6,6.3c-1.5,1.4-3.6,2.9-4.5,3.5c-1,0.5-2.4,0.9-3.2,0.9
					c-0.8,0-2.1-0.3-2.9-0.6c-0.9-0.4-2.1-1.3-2.8-2.1c-0.8-0.9-1.5-2.3-1.6-3.3c-0.1-0.9-0.1-2.5,0-3.4c0.2-1.2,1.4-2.7,4.4-5.7
					c2.2-2.2,4.9-5.4,5.9-7.1c1-1.7,2.3-4.7,3-6.8c1-3.1,1.2-4.7,1.2-8.7c0-4.1-0.2-5.6-1.2-8.7c-0.7-2.1-2-5.2-3-6.8
					c-1-1.7-2.8-4.1-4.2-5.4c-1.3-1.4-3.2-3.2-4.2-4.1c-1-0.9-2-2.1-2.2-2.7c-0.2-0.6-0.4-1.9-0.4-3.1c0-1.1,0.4-2.7,0.9-3.6
					c0.5-1,1.7-2.1,2.9-2.7C88.3-2.8,89.9-3.3,90.9-3.3z M67.6,27.5c2.1,0.1,3.3,0.4,4.3,1.1c0.7,0.5,1.8,1.7,2.4,2.6
					c0.7,1.1,1.1,2.3,1.1,3.7c0,1.4-0.4,2.6-1.1,3.7c-0.6,0.9-1.7,2.1-2.4,2.6c-0.9,0.6-2.3,1-3.8,1.2c-1.4,0.1-3.2,0-4.1-0.3
					c-0.9-0.3-2.4-1.3-3.2-2.2c-0.9-1-1.7-2.4-1.8-3.5c-0.1-0.9-0.1-2.5,0-3.3c0.1-0.8,0.8-2.2,1.4-3c0.6-0.9,1.8-1.8,2.7-2.1
					C64,27.7,65.9,27.5,67.6,27.5z M-16.2-48c1.3,0.1,2.9,0.6,3.5,1.1c0.6,0.5,1.6,1.5,3.1,3.5l0.2,102.5l1.8,0.5
					c0.9,0.3,3.3,1.3,5.1,2.3c2.1,1,4.5,2.9,6.7,5c1.9,1.9,4.1,4.6,5.1,6.4c0.9,1.7,2.2,4.5,2.8,6.4c0.9,2.7,1.1,4.3,1.1,8.7
					c0,4.4-0.2,6-1.1,8.7c-0.6,1.8-1.9,4.7-2.8,6.4c-0.9,1.7-3.2,4.5-5.1,6.4c-2.5,2.5-4.4,3.8-7.4,5.3c-2.2,1.1-5.5,2.3-7.3,2.7
					c-1.8,0.4-4.7,0.7-6.4,0.7c-1.7,0-4.5-0.3-6.4-0.7c-1.8-0.4-4.8-1.4-6.6-2.3c-1.8-0.9-4.5-2.6-6-3.8c-1.5-1.2-3.6-3.3-4.7-4.6
					c-1.1-1.4-2.6-4-3.5-5.8c-0.9-1.8-1.9-4.8-2.3-6.6c-0.4-1.8-0.7-4.7-0.7-6.4c0-1.7,0.3-4.5,0.7-6.4c0.4-1.8,1.6-5.1,2.7-7.3
					c1.5-3,2.9-4.9,5.3-7.4c1.8-1.8,4.7-4.1,6.4-5c1.7-0.9,4.1-2.1,7.6-3.5l0-50.4c0-34.7,0.1-50.9,0.5-51.8
					c0.3-0.8,0.9-1.8,1.3-2.5c0.4-0.6,1.5-1.4,2.4-1.7C-19.3-48-17.5-48.1-16.2-48z M-27,77.2c-1.3,1.2-2.8,3.1-3.5,4.6
					c-1,2.1-1.3,3.3-1.3,6.4c0,3.1,0.2,4.3,1.2,6.4c0.7,1.4,2.1,3.4,3.1,4.4c1,1,3,2.4,4.4,3.1c2.1,0.9,3.3,1.2,6.1,1.2
					c2.8,0,4.1-0.2,6.1-1.2c1.4-0.7,3.4-2.1,4.4-3.1c1-1,2.4-3,3.1-4.4c1-2.1,1.2-3.3,1.2-6.4c0-3.1-0.2-4.3-1.3-6.4
					c-0.7-1.5-2.2-3.4-3.5-4.6c-1.2-1.1-3.4-2.5-4.7-3c-1.6-0.6-3.6-0.9-5.4-0.9c-1.7,0-4,0.4-5.3,0.9C-23.6,74.7-25.7,76-27,77.2z"
					/>
			</g>
			<path class="st3" d="M25.4,12.5c0.7,0,1.2,0,1.7,0.2c0.4,0.1,0.9,0.3,1.2,0.4c0.3,0.1,0.8,0.4,1.2,0.7c0.4,0.3,1,0.7,1.2,1
				c0.3,0.3,0.7,0.8,1,1.2c0.3,0.4,0.6,1,0.7,1.2c0.1,0.3,0.3,0.8,0.3,1c0.1,0.5,0.2,1.4,0.2,17.9l1,1c0.5,0.6,1.2,1.3,1.5,1.8
				c0.3,0.4,0.7,1.1,0.8,1.4c0.2,0.3,0.4,1,0.6,1.5c0.2,0.5,0.4,1.4,0.5,1.9c0.1,0.5,0.2,1.3,0.2,1.8s-0.1,1.2-0.2,1.8
				c-0.1,0.5-0.3,1.4-0.5,2c-0.2,0.5-0.5,1.4-0.8,1.8c-0.2,0.5-0.7,1.2-1,1.5c-0.3,0.4-0.8,1-1.2,1.3c-0.4,0.4-1,0.9-1.3,1.2
				c-0.4,0.3-1.1,0.7-1.6,1c-0.5,0.3-1.3,0.6-1.7,0.7c-0.4,0.1-1.1,0.3-1.5,0.4c-0.4,0.1-1.3,0.2-1.9,0.2c-0.8,0-1.5,0-2.2-0.1
				c-0.5-0.1-1.4-0.3-1.9-0.4c-0.5-0.2-1.4-0.5-1.9-0.8c-0.5-0.3-1.3-0.7-1.6-1c-0.4-0.3-1-0.8-1.4-1.2c-0.4-0.4-0.9-1-1.2-1.3
				c-0.3-0.4-0.7-1.1-1-1.5c-0.2-0.5-0.5-1.2-0.7-1.5c-0.1-0.4-0.3-1.1-0.4-1.5c-0.1-0.4-0.2-1.3-0.2-2c0-0.9,0-1.5,0.1-2.3
				c0.1-0.6,0.3-1.5,0.5-2c0.2-0.5,0.5-1.3,0.7-1.6c0.2-0.4,0.6-1,0.8-1.4c0.3-0.4,0.9-1.1,2.4-2.7l0-8.7c0-7.7,0-8.7,0.2-9.2
				c0.1-0.3,0.2-0.8,0.3-1c0.1-0.3,0.4-0.8,0.7-1.2c0.3-0.4,0.7-1,1-1.2c0.3-0.3,0.8-0.7,1.2-1c0.4-0.3,1-0.6,1.2-0.7
				c0.3-0.1,0.8-0.3,1.1-0.4C24.2,12.6,24.8,12.5,25.4,12.5L25.4,12.5z M23.3,16.1c-0.3,0.2-0.8,0.5-1,0.8c-0.3,0.3-0.6,0.7-0.7,1
				c-0.1,0.3-0.3,0.7-0.4,1C21,19.4,21,20.8,21,28.3c0,7.1,0,8.9-0.1,9.1c-0.1,0.2-0.3,0.5-0.6,0.7c-0.3,0.2-0.7,0.6-1,0.9
				c-0.3,0.3-0.8,0.8-1,1.1c-0.2,0.3-0.6,1-0.9,1.5c-0.2,0.5-0.5,1.3-0.7,1.7c-0.2,0.7-0.2,1-0.2,2.2c0,1.2,0,1.5,0.2,2.3
				c0.1,0.5,0.4,1.2,0.6,1.7c0.2,0.4,0.5,1,0.7,1.2c0.2,0.2,0.7,0.8,1.1,1.3c0.5,0.5,1.1,1,1.5,1.2c0.4,0.2,1,0.5,1.5,0.7
				c0.5,0.2,1.2,0.4,1.7,0.5c0.6,0.1,1.2,0.1,1.9,0.1c0.6,0,1.4-0.1,1.8-0.3c0.4-0.1,1-0.3,1.3-0.4c0.3-0.1,0.9-0.4,1.2-0.6
				c0.4-0.2,0.9-0.7,1.3-1c0.4-0.3,0.9-0.9,1.1-1.2c0.3-0.3,0.7-1,0.9-1.5c0.3-0.5,0.5-1.3,0.7-1.8c0.2-0.7,0.2-1.1,0.2-2.1
				s0-1.4-0.2-2.1c-0.1-0.5-0.4-1.2-0.6-1.7c-0.2-0.5-0.5-1-0.7-1.3c-0.2-0.2-0.5-0.7-0.8-1c-0.3-0.3-0.8-0.8-1.2-1.1
				c-0.4-0.3-0.8-0.7-0.8-0.9c-0.1-0.2-0.1-2-0.1-9.1c0-7.6,0-8.9-0.1-9.4c-0.1-0.3-0.3-0.8-0.4-1c-0.1-0.3-0.5-0.7-0.7-1
				c-0.3-0.3-0.7-0.6-1-0.8c-0.3-0.2-0.8-0.4-1.1-0.4c-0.3-0.1-0.8-0.2-1.1-0.1c-0.3,0-0.8,0.1-1.1,0.1
				C24.1,15.7,23.6,15.9,23.3,16.1z M52.5,23c0.2,0,0.4,0,0.6,0.1c0.1,0,0.5,0.3,0.8,0.6c0.3,0.3,0.8,0.8,1.1,1.1
				c0.3,0.4,0.8,1,1,1.5c0.3,0.4,0.7,1.2,1,1.7c0.2,0.5,0.6,1.4,0.8,2c0.2,0.6,0.4,1.4,0.5,1.9c0.1,0.4,0.2,1.1,0.2,1.6
				c0,0.5,0.1,1.2,0.1,1.6c0,0.4,0,1.2-0.1,1.6c-0.1,0.5-0.2,1.2-0.2,1.6c-0.1,0.4-0.3,1.2-0.5,1.8c-0.2,0.6-0.6,1.5-0.8,2
				c-0.2,0.5-0.7,1.2-1,1.7c-0.3,0.4-0.8,1.1-1,1.5c-0.3,0.4-0.8,0.9-1.1,1.2c-0.4,0.4-0.6,0.6-0.9,0.6c-0.2,0-0.5,0-0.7,0
				c-0.2,0-0.5-0.2-0.7-0.4c-0.2-0.2-0.4-0.5-0.4-0.7c0-0.2,0-0.5,0-0.7c0-0.2,0.3-0.5,0.7-1c0.4-0.4,0.9-1,1.2-1.4
				c0.3-0.4,0.7-1,0.9-1.4s0.6-1.1,0.8-1.6c0.2-0.5,0.4-1.2,0.5-1.6c0.1-0.4,0.2-1.2,0.3-1.6c0-0.4,0.1-1.1,0.1-1.5s0-1.1-0.1-1.5
				c-0.1-0.4-0.2-1.2-0.3-1.6c-0.1-0.4-0.3-1.2-0.5-1.6c-0.2-0.5-0.5-1.2-0.8-1.6c-0.2-0.4-0.6-1-0.9-1.4c-0.3-0.4-0.8-1-1.2-1.4
				c-0.5-0.5-0.7-0.8-0.7-1.1c0-0.2,0-0.5,0-0.7c0-0.2,0.2-0.4,0.3-0.6c0.1-0.2,0.4-0.4,0.5-0.4C52,23.1,52.3,23,52.5,23z
				 M46.9,27.4c0.2,0,0.5,0.1,0.6,0.2c0.2,0.1,0.6,0.4,0.9,0.7c0.3,0.3,0.9,0.9,1.2,1.3c0.3,0.4,0.8,1.1,1,1.5
				c0.2,0.4,0.4,1.1,0.6,1.5c0.1,0.4,0.2,1.1,0.3,1.6c0.1,0.6,0.1,1.1,0,1.7c-0.1,0.5-0.2,1.2-0.3,1.5c-0.1,0.4-0.3,1-0.5,1.5
				c-0.2,0.4-0.6,1.1-0.9,1.5c-0.3,0.4-0.8,1-1.1,1.2c-0.3,0.3-0.7,0.6-0.9,0.7c-0.2,0.1-0.5,0.2-0.6,0.2c-0.2,0-0.4-0.1-0.6-0.1
				c-0.2-0.1-0.4-0.3-0.6-0.4c-0.2-0.2-0.3-0.5-0.3-0.7c0-0.2,0-0.5,0-0.7c0-0.2,0.3-0.5,0.9-1.1c0.4-0.4,1-1.1,1.2-1.4
				c0.2-0.3,0.5-0.9,0.6-1.3c0.2-0.6,0.2-0.9,0.2-1.7c0-0.8,0-1.1-0.2-1.7c-0.1-0.4-0.4-1-0.6-1.3c-0.2-0.3-0.6-0.8-0.8-1.1
				c-0.3-0.3-0.6-0.6-0.8-0.8c-0.2-0.2-0.4-0.4-0.4-0.5c0-0.1-0.1-0.4-0.1-0.6c0-0.2,0.1-0.5,0.2-0.7c0.1-0.2,0.3-0.4,0.6-0.5
				C46.4,27.5,46.7,27.4,46.9,27.4z M42.3,33.5c0.4,0,0.7,0.1,0.8,0.2c0.1,0.1,0.4,0.3,0.5,0.5c0.1,0.2,0.2,0.5,0.2,0.7
				c0,0.3-0.1,0.5-0.2,0.7c-0.1,0.2-0.3,0.4-0.5,0.5c-0.2,0.1-0.5,0.2-0.8,0.2c-0.3,0-0.6,0-0.8-0.1c-0.2-0.1-0.5-0.3-0.6-0.4
				c-0.2-0.2-0.3-0.5-0.4-0.7c0-0.2,0-0.5,0-0.7c0-0.2,0.2-0.4,0.3-0.6c0.1-0.2,0.4-0.4,0.5-0.4C41.5,33.6,41.9,33.5,42.3,33.5z
				 M25.6,18.5c0.3,0,0.6,0.1,0.7,0.2c0.1,0.1,0.3,0.3,0.6,0.7l0,20.3l0.4,0.1c0.2,0.1,0.6,0.3,1,0.5c0.4,0.2,0.9,0.6,1.3,1
				c0.4,0.4,0.8,0.9,1,1.3c0.2,0.3,0.4,0.9,0.6,1.3c0.2,0.5,0.2,0.9,0.2,1.7c0,0.9,0,1.2-0.2,1.7c-0.1,0.4-0.4,0.9-0.6,1.3
				c-0.2,0.3-0.6,0.9-1,1.3c-0.5,0.5-0.9,0.8-1.5,1.1c-0.4,0.2-1.1,0.5-1.5,0.5c-0.4,0.1-0.9,0.1-1.3,0.1c-0.3,0-0.9-0.1-1.3-0.1
				c-0.4-0.1-0.9-0.3-1.3-0.5c-0.4-0.2-0.9-0.5-1.2-0.8c-0.3-0.2-0.7-0.7-0.9-0.9c-0.2-0.3-0.5-0.8-0.7-1.2
				c-0.2-0.4-0.4-0.9-0.5-1.3c-0.1-0.4-0.1-0.9-0.1-1.3c0-0.3,0.1-0.9,0.1-1.3s0.3-1,0.5-1.5c0.3-0.6,0.6-1,1.1-1.5
				c0.4-0.4,0.9-0.8,1.3-1c0.3-0.2,0.8-0.4,1.5-0.7l0-10c0-6.9,0-10.1,0.1-10.3c0.1-0.1,0.2-0.4,0.3-0.5c0.1-0.1,0.3-0.3,0.5-0.3
				C25,18.5,25.4,18.5,25.6,18.5z M23.5,43.4c-0.3,0.2-0.6,0.6-0.7,0.9c-0.2,0.4-0.3,0.6-0.3,1.3c0,0.6,0,0.8,0.2,1.3
				c0.1,0.3,0.4,0.7,0.6,0.9c0.2,0.2,0.6,0.5,0.9,0.6c0.4,0.2,0.7,0.2,1.2,0.2s0.8,0,1.2-0.2c0.3-0.1,0.7-0.4,0.9-0.6
				c0.2-0.2,0.5-0.6,0.6-0.9c0.2-0.4,0.2-0.6,0.2-1.3c0-0.6,0-0.8-0.3-1.3c-0.1-0.3-0.4-0.7-0.7-0.9c-0.2-0.2-0.7-0.5-0.9-0.6
				c-0.3-0.1-0.7-0.2-1.1-0.2c-0.3,0-0.8,0.1-1.1,0.2C24.2,42.9,23.8,43.1,23.5,43.4z"/>
		</g>
	</g>
</g>
</svg>
