<svg width="135" height="135" viewBox="0 0 135 135" fill="none" xmlns="http://www.w3.org/2000/svg">
<g filter="url(#filter0_d_335_428)">
<g clip-path="url(#clip0_335_428)">
<rect x="16" y="24" width="71" height="71" rx="8" fill="url(#paint0_linear_335_428)"/>
<g opacity="0.2" clip-path="url(#clip1_335_428)">
<path fill-rule="evenodd" clip-rule="evenodd" d="M51.8859 -85.943C55.3078 -86 56.5055 -85.7148 59.243 -84.3461C61.068 -83.4336 63.3492 -82.0648 64.2617 -81.3234C65.1742 -80.525 66.7711 -78.3578 67.7977 -76.5328C68.9953 -74.3656 69.7937 -71.9703 70.0219 -69.7461C70.307 -67.3508 70.1359 -65.4117 69.5086 -63.1875C68.9953 -61.4766 67.7406 -58.7961 66.7141 -57.2562C65.6875 -55.7164 63.9766 -53.8914 61.125 -52.0664V-35.5273L66.0867 -34.7859C68.8813 -34.3297 73.4438 -33.4172 76.2383 -32.6758C79.0328 -31.9344 83.4242 -30.5656 85.9336 -29.5961C88.443 -28.6265 92.8344 -26.6875 95.6289 -25.2617C98.4234 -23.7789 102.815 -21.2125 105.324 -19.5015C107.834 -17.7906 110.571 -15.7945 113.023 -13.8555L124.373 -25.2617L124.316 -29.8242C124.259 -33.6453 124.487 -34.9 125.741 -37.6945C126.597 -39.4625 128.479 -42.0859 129.962 -43.5687C131.673 -45.1656 133.897 -46.5914 135.836 -47.3328C138.231 -48.1883 139.999 -48.4164 143.25 -48.2453C146.159 -48.1312 148.383 -47.675 150.094 -46.8195C151.52 -46.1351 153.744 -44.4812 155.112 -43.1125C156.424 -41.7437 158.135 -39.5195 158.82 -38.0937C159.675 -36.3258 160.131 -34.1586 160.245 -31.25C160.416 -27.9992 160.188 -26.2312 159.333 -23.8359C158.591 -21.8969 157.166 -19.6726 155.569 -17.9617C154.086 -16.4789 151.463 -14.5969 149.638 -13.7414C146.9 -12.4867 145.645 -12.2586 137.262 -12.3726L131.559 -6.72655C126.198 -1.47968 125.913 -1.02342 126.711 0.00313568C127.167 0.630478 129.22 3.53908 131.216 6.44767C133.27 9.4133 136.235 14.4891 137.889 17.7969C139.543 21.1047 141.653 26.1235 142.623 28.918C143.592 31.7125 144.847 36.3891 145.474 39.1836C146.102 41.9781 146.729 45.7992 147.242 50.875H155.797C160.473 50.875 164.352 50.7039 164.352 50.4188C164.295 50.1906 165.321 48.9359 166.633 47.5672C167.888 46.2555 170.283 44.4875 171.88 43.632C174.446 42.3203 175.587 42.0922 179.75 42.0922C184.198 42.0352 184.883 42.2063 188.248 44.0313C190.244 45.1149 192.525 46.7688 193.323 47.7383C194.122 48.7078 195.548 51.1031 196.46 53.1563C198 56.4641 198.171 57.3195 197.886 60.8555C197.715 63.9922 197.202 65.6461 195.662 68.4977C194.578 70.4938 192.924 72.775 192.012 73.5734C191.099 74.3148 188.989 75.6266 187.449 76.425C185.054 77.6797 183.856 77.9078 179.75 77.9078C175.587 77.9078 174.446 77.6797 171.88 76.368C170.283 75.5125 167.888 73.7446 166.633 72.3758C165.321 71.0641 164.295 69.8094 164.352 69.5242C164.352 69.2961 160.473 69.125 147.242 69.125L146.9 72.3758C146.729 74.2008 146.102 78.0219 145.474 80.8164C144.847 83.6109 143.592 88.2875 142.623 91.082C141.653 93.8766 139.429 99.0094 137.718 102.488C136.007 105.967 133.27 110.701 131.616 113.039C130.019 115.377 128.023 118.172 125.855 121.023L137.262 132.373L141.824 132.316C145.645 132.259 146.9 132.487 149.638 133.741C151.463 134.597 154.086 136.479 155.569 137.962C157.166 139.673 158.591 141.897 159.333 143.836C160.188 146.231 160.416 147.999 160.245 151.25C160.131 154.159 159.675 156.326 158.82 158.094C158.135 159.52 156.424 161.744 155.112 163.113C153.744 164.481 151.52 166.135 150.094 166.82C148.383 167.675 146.159 168.131 143.25 168.245C139.999 168.416 138.231 168.188 135.836 167.333C133.897 166.591 131.673 165.166 129.962 163.569C128.479 162.086 126.597 159.463 125.741 157.638C124.487 154.9 124.259 153.645 124.373 145.262L113.023 133.855L111.484 135.11C110.571 135.795 107.72 137.848 105.039 139.673C102.359 141.441 97.5109 144.235 94.2031 145.889C90.8953 147.543 85.8766 149.653 83.082 150.623C80.2305 151.592 75.6109 152.847 72.8164 153.474C69.9648 154.102 66.2008 154.729 61.125 155.242L61.068 172.066L62.6078 172.922C63.4633 173.378 64.832 174.69 65.6875 175.773C66.543 176.857 67.8547 178.91 68.5961 180.336C69.6797 182.446 69.9078 183.815 69.9078 187.75C69.9648 192.198 69.7937 192.883 67.9688 196.248C66.8852 198.244 65.1742 200.525 64.2617 201.323C63.3492 202.065 61.068 203.434 59.243 204.346C56.6195 205.715 55.2508 206 52 206C48.7492 206 47.3805 205.715 44.7 204.346C42.932 203.434 40.6508 202.065 39.7383 201.323C38.7688 200.525 37.1148 198.244 36.0312 196.248C34.2063 192.883 34.0352 192.198 34.0922 187.75C34.0922 183.587 34.3203 182.446 35.632 179.88C36.4875 178.283 38.2555 175.888 39.5672 174.633C40.9359 173.321 42.1906 172.295 42.4187 172.352C42.7039 172.352 42.875 168.473 42.875 155.242L39.5672 154.9C37.7992 154.729 33.9781 154.102 31.1836 153.474C28.332 152.847 23.7125 151.535 20.918 150.566C18.0664 149.653 13.1047 147.486 9.79688 145.889C6.48906 144.235 1.41328 141.27 -1.55234 139.216C-4.46094 137.22 -7.36953 135.167 -7.99687 134.711C-9.02344 133.913 -9.47968 134.198 -20.3727 145.262L-20.3156 149.824C-20.2586 153.645 -20.4867 154.9 -21.7414 157.638C-22.5969 159.463 -24.4789 162.086 -26.0188 163.569C-27.6156 165.109 -29.8969 166.591 -31.7219 167.276C-33.4328 167.903 -36.1703 168.359 -38.2805 168.359C-40.2195 168.359 -43.1281 167.96 -44.668 167.39C-46.7211 166.705 -48.5461 165.451 -50.9984 162.998C-53.4508 160.546 -54.7055 158.721 -55.3898 156.668C-55.9602 155.071 -56.3594 152.22 -56.3594 150.223C-56.3594 148.17 -55.9031 145.433 -55.2758 143.665C-54.5914 141.897 -53.1086 139.616 -51.5687 137.962C-50.0859 136.479 -47.4625 134.597 -45.6945 133.741C-42.9 132.487 -41.6453 132.259 -33.2617 132.373L-27.5586 126.727C-22.1977 121.48 -21.9125 121.023 -22.7109 119.997C-23.1672 119.37 -25.2203 116.461 -27.2164 113.552C-29.2695 110.587 -32.2352 105.511 -33.8891 102.203C-35.543 98.8953 -37.6531 93.8766 -38.6227 91.082C-39.5922 88.2875 -40.8469 83.6109 -41.4742 80.8164C-42.1016 78.0219 -42.7289 74.2008 -43.2422 69.125H-60.0664L-61.4922 71.1781C-62.2906 72.3188 -64.0586 73.9727 -65.4844 74.9422C-66.9102 75.8547 -69.4766 76.9953 -71.1875 77.5086C-73.4117 78.136 -75.3508 78.3071 -77.7461 78.0219C-79.9703 77.7938 -82.3656 76.9953 -84.5328 75.7977C-86.3578 74.7711 -88.525 73.1742 -89.3234 72.2617C-90.1219 71.3492 -91.5477 68.8969 -92.4602 66.8438C-94 63.5359 -94.1711 62.7375 -93.8859 59.1445C-93.7148 56.6352 -93.0875 54.0688 -92.232 52.3008C-91.4906 50.7039 -89.8367 48.4227 -88.582 47.168C-87.3273 45.9133 -85.0461 44.2594 -83.4492 43.461C-81.1109 42.3203 -79.6852 42.0922 -75.75 42.0922C-71.5867 42.0922 -70.5031 42.3203 -67.9367 43.632C-66.2828 44.4875 -63.8875 46.2555 -62.6328 47.5672C-61.3211 48.9359 -60.2945 50.1906 -60.3516 50.4188C-60.3516 50.7039 -56.5305 50.875 -43.2422 50.875L-42.9 47.5672C-42.7289 45.7992 -42.1016 41.9781 -41.4742 39.1836C-40.8469 36.3891 -39.5922 31.7125 -38.6227 28.918C-37.6531 26.1235 -35.543 21.1047 -33.8891 17.7969C-32.2352 14.4891 -29.4406 9.64142 -27.6727 6.96095C-25.8477 4.28048 -23.7945 1.42892 -21.8555 -1.02343L-33.2617 -12.3726L-37.8242 -12.3156C-41.6453 -12.2586 -42.9 -12.4867 -45.6945 -13.7414C-47.4625 -14.5969 -50.0859 -16.4789 -51.5687 -18.0187C-53.1086 -19.6156 -54.5914 -21.8969 -55.2758 -23.7219C-55.9031 -25.4328 -56.3594 -28.1703 -56.3594 -30.2805C-56.3594 -32.2195 -55.9602 -35.1281 -55.3898 -36.668C-54.7055 -38.7211 -53.4508 -40.5461 -50.9984 -42.9984C-48.5461 -45.4508 -46.7211 -46.7055 -44.668 -47.3898C-43.1281 -47.9601 -40.2195 -48.3594 -38.2805 -48.3594C-36.1703 -48.3594 -33.4328 -47.9031 -31.7219 -47.2758C-29.8969 -46.5914 -27.6156 -45.1086 -26.0188 -43.5687C-24.4789 -42.0859 -22.5969 -39.4625 -21.7414 -37.6945C-20.4867 -34.9 -20.2586 -33.6453 -20.3727 -25.2617L-14.7266 -19.5586C-9.47969 -14.1976 -9.02344 -13.9125 -7.99687 -14.7109C-7.36953 -15.1672 -4.46094 -17.2203 -1.55234 -19.2164C1.41328 -21.2695 6.48906 -24.2351 9.79688 -25.889C13.1047 -27.543 18.0664 -29.6531 20.918 -30.6226C23.7125 -31.5922 28.332 -32.8469 31.1836 -33.4742C33.9781 -34.1016 37.7992 -34.7289 42.875 -35.2422V-43.7969C42.875 -48.5305 42.7039 -52.3516 42.4187 -52.3516C42.1906 -52.2945 40.9359 -53.3211 39.5672 -54.6328C38.2555 -55.8875 36.4875 -58.2828 35.632 -59.9367C34.3203 -62.5031 34.0922 -63.5867 34.0922 -67.75C34.0922 -71.6851 34.3203 -73.1109 35.4609 -75.4492C36.2594 -77.0461 37.9133 -79.3273 39.168 -80.582C40.4227 -81.8367 42.875 -83.5476 44.5859 -84.4031C47.0383 -85.6008 48.5781 -85.943 51.8289 -85.943H51.8859ZM27.5336 -13.5703C25.4805 -12.943 21.2602 -11.118 18.1234 -9.57812C14.9867 -8.0953 10.3672 -5.3578 7.85782 -3.58984C5.34844 -1.76483 1.92656 0.915634 0.215622 2.34142C-1.49532 3.7672 -4.80312 7.30314 -7.19844 10.1547C-9.59375 13.0633 -12.7305 17.3977 -14.2133 19.85C-15.7531 22.3594 -17.9773 26.7508 -19.232 29.6024C-20.4867 32.5109 -22.1406 37.3016 -22.882 40.1531C-23.6234 43.0617 -24.3648 46.6547 -24.593 48.1375L-24.9352 50.875C-18.6617 51.1031 -17.1789 51.5023 -16.0953 52.3008C-15.2398 52.9281 -13.9852 54.1828 -13.3008 55.0383C-12.3883 56.293 -12.1031 57.4906 -12.1031 60C-12.1031 62.4524 -12.3883 63.7641 -13.2437 64.9047C-13.8711 65.7031 -15.1258 66.9578 -15.9812 67.6422C-17.1789 68.4977 -18.6047 68.8969 -21.2852 68.9539C-23.2812 69.068 -24.9352 69.3531 -24.9352 69.6953C-24.9352 69.9805 -24.5359 72.2617 -24.0797 74.657C-23.6234 77.1094 -22.5398 81.1586 -21.7414 83.668C-20.943 86.1774 -19.3461 90.2836 -18.1484 92.793C-17.0078 95.3024 -14.7836 99.2945 -13.3008 101.633C-11.7609 103.971 -8.90937 107.849 -6.97031 110.188C-4.97421 112.526 -1.89453 115.777 -0.0695343 117.373C1.8125 118.97 5.34844 121.765 7.85782 123.59C10.3672 125.358 14.9867 128.095 18.1234 129.578C21.2602 131.118 25.8797 133 28.3891 133.798C30.8984 134.597 34.9477 135.68 37.343 136.137C39.7953 136.593 42.0195 136.992 42.3617 136.992C42.7039 136.992 42.9891 135.338 43.0461 133.342C43.1602 130.662 43.5594 129.236 44.4148 128.038C45.0992 127.183 46.3539 125.928 47.1523 125.301C48.293 124.445 49.6047 124.16 52.057 124.16C54.5094 124.16 55.8211 124.445 56.9617 125.301C57.7602 125.928 59.0148 127.183 59.6992 128.038C60.5547 129.236 60.9539 130.662 61.0109 133.342C61.125 135.338 61.3531 136.992 61.5812 136.992C61.8664 136.992 64.2047 136.593 66.8852 136.08C69.5656 135.566 74.2992 134.255 77.4359 133.171C80.5727 132.088 84.6789 130.377 86.5609 129.464C88.443 128.495 91.7508 126.555 93.975 125.13C96.1992 123.761 99.9062 120.966 102.245 119.027C104.583 117.088 108.347 113.324 110.571 110.701C112.795 108.077 115.818 104.142 117.187 101.918C118.612 99.6938 120.552 96.386 121.521 94.5039C122.434 92.6219 124.145 88.5156 125.228 85.3789C126.312 82.2422 127.623 77.5086 128.137 74.8281C128.65 72.1477 129.049 69.8094 129.049 69.5242C129.049 69.2961 127.395 69.068 125.399 68.9539C122.719 68.8969 121.293 68.4977 120.095 67.6422C119.24 66.9578 117.985 65.7031 117.358 64.9047C116.502 63.7641 116.217 62.4524 116.217 60C116.217 57.5477 116.502 56.2359 117.358 55.0953C117.985 54.2969 119.24 53.0422 120.095 52.3578C121.293 51.5024 122.719 51.1031 125.399 50.9891C127.395 50.932 129.049 50.5899 129.049 50.3047C129.049 49.9625 128.65 47.7383 128.194 45.2859C127.738 42.8906 126.654 38.8414 125.855 36.332C125.057 33.8227 123.46 29.7164 122.263 27.207C121.122 24.6977 118.898 20.7055 117.415 18.3672C115.875 16.0289 112.909 12.0367 110.856 9.52735C108.746 7.01798 104.982 3.25391 102.473 1.20079C100.02 -0.90937 96.0281 -3.81796 93.6898 -5.3578C91.3516 -6.84061 87.3594 -9.06483 84.85 -10.2055C82.3406 -11.4031 78.2344 -13 75.725 -13.7984C73.2156 -14.5969 69.1664 -15.6805 66.7141 -16.1367C64.3187 -16.593 62.0945 -16.9922 61.7523 -16.9922C61.4102 -16.9922 61.125 -15.3383 61.0109 -13.3422C60.9539 -10.6617 60.5547 -9.23593 59.6992 -8.03827C59.0148 -7.1828 57.7602 -5.92812 56.9617 -5.30077C55.8211 -4.4453 54.5094 -4.16015 52.057 -4.16015C49.6047 -4.16015 48.293 -4.4453 47.1523 -5.30077C46.3539 -5.92812 45.0992 -7.1828 44.4148 -8.03827C43.5594 -9.23593 43.1602 -10.6617 43.1031 -13.3422C42.9891 -16.4219 42.7609 -16.9922 41.9625 -16.9351C41.3922 -16.9351 38.7688 -16.4219 36.0883 -15.8516C33.4078 -15.2812 29.5867 -14.2547 27.5336 -13.5703ZM92.8344 18.9945C94.0891 18.9375 96.3703 19.3938 97.9102 19.907C99.8112 20.5914 101.522 21.8081 103.043 23.557C104.355 24.9828 105.723 27.15 106.066 28.4047C106.465 29.6024 106.807 31.5414 106.807 32.625C106.807 33.7086 106.465 35.6477 106.066 36.8453C105.723 38.1 104.355 40.2672 103.043 41.693C101.522 43.4419 99.8112 44.6586 97.9102 45.343C96.3703 45.8563 94.2031 46.3125 93.1195 46.3125C92.0359 46.3125 90.0969 45.9703 88.8422 45.6281C87.4734 45.1719 85.4203 43.8031 83.7094 42.0352C81.9414 40.3242 80.5726 38.2711 80.1164 36.9024C79.7742 35.6477 79.432 33.7086 79.432 32.625C79.432 31.5414 79.7742 29.6024 80.1164 28.3477C80.5726 26.9789 81.9414 24.9258 83.7094 23.2149C85.2492 21.618 87.4734 20.0211 88.557 19.6789C89.6406 19.3367 91.5797 19.0516 92.8344 18.9945ZM21.5453 23.557C22.8 23.5 25.2523 23.8992 26.9633 24.4125C29.3016 25.1539 30.8414 26.1234 33.0086 28.2906C35.1758 30.4578 36.1453 31.9977 36.8867 34.3359C37.4 36.0469 37.7992 38.3852 37.7992 39.4688C37.7992 40.5524 37.4 42.8906 36.8867 44.6016C36.1453 46.9398 35.1758 48.4797 33.0086 50.6469C30.8414 52.8141 29.3016 53.7836 26.9633 54.525C25.2523 55.0383 22.9141 55.4375 21.8305 55.4375C20.7469 55.4375 18.4086 55.0383 16.6977 54.525C14.3594 53.7836 12.8195 52.8141 10.6523 50.6469C8.48515 48.4797 7.51562 46.9398 6.77422 44.6016C6.26093 42.8906 5.86172 40.5524 5.86172 39.4688C5.86172 38.3852 6.26093 36.0469 6.77422 34.3359C7.51562 31.9977 8.48515 30.4578 10.6523 28.2906C12.7055 26.2375 14.4164 25.0969 16.4125 24.4695C17.9523 23.9563 20.2906 23.557 21.5453 23.557ZM62.3227 73.9156C64.4899 74.0867 67.1133 74.657 68.5961 75.3414C70.0219 75.9688 72.075 77.2805 73.1586 78.1359C74.2422 79.0484 76.0672 81.4438 77.1508 83.4399C78.9758 86.8047 79.1469 87.4891 79.1469 91.9375C79.1469 96.386 78.9758 97.0703 77.1508 100.435C76.0672 102.431 74.3562 104.713 73.4438 105.511C72.5312 106.252 70.4211 107.564 68.8813 108.363C66.4859 109.617 65.2883 109.845 61.182 109.845C56.7336 109.902 56.0492 109.731 52.6844 107.906C50.6883 106.823 48.293 104.998 47.3805 103.914C46.525 102.83 45.2133 100.777 44.5289 99.3516C43.5594 97.3555 43.2742 95.7016 43.2742 91.9375C43.2172 87.8883 43.5023 86.6336 44.643 84.2383C45.3844 82.6414 47.0953 80.3602 48.35 79.1055C49.6047 77.8508 51.6578 76.311 52.9125 75.7406C54.1672 75.1133 55.9922 74.4289 56.9047 74.2008C57.8172 73.9156 60.2695 73.8016 62.3227 73.9156Z" fill="white"/>
</g>
<g clip-path="url(#clip2_335_428)">
<path fill-rule="evenodd" clip-rule="evenodd" d="M51.9813 36.0094C52.5438 36 52.7406 36.0469 53.1906 36.2719C53.4906 36.4219 53.8656 36.6469 54.0156 36.7688C54.1656 36.9 54.4281 37.2563 54.5969 37.5563C54.7938 37.9125 54.925 38.3063 54.9625 38.6719C55.0094 39.0657 54.9813 39.3844 54.8781 39.75C54.7938 40.0313 54.5875 40.4719 54.4187 40.725C54.25 40.9782 53.9688 41.2782 53.5 41.5782V44.2969L54.3156 44.4188C54.775 44.4938 55.525 44.6438 55.9844 44.7657C56.4438 44.8875 57.1656 45.1125 57.5781 45.2719C57.9906 45.4313 58.7125 45.75 59.1719 45.9844C59.6313 46.2282 60.3531 46.65 60.7656 46.9313C61.1781 47.2125 61.6281 47.5407 62.0312 47.8594L63.8969 45.9844L63.8875 45.2344C63.8781 44.6063 63.9156 44.4 64.1219 43.9407C64.2625 43.65 64.5719 43.2188 64.8156 42.975C65.0969 42.7125 65.4625 42.4782 65.7812 42.3563C66.175 42.2157 66.4656 42.1782 67 42.2063C67.4781 42.225 67.8438 42.3 68.125 42.4407C68.3594 42.5532 68.725 42.825 68.95 43.05C69.1656 43.275 69.4469 43.6407 69.5594 43.875C69.7 44.1657 69.775 44.5219 69.7937 45C69.8219 45.5344 69.7844 45.825 69.6438 46.2188C69.5219 46.5375 69.2875 46.9032 69.025 47.1844C68.7812 47.4282 68.35 47.7375 68.05 47.8782C67.6 48.0844 67.3937 48.1219 66.0156 48.1032L65.0781 49.0313C64.1969 49.8938 64.15 49.9688 64.2812 50.1375C64.3563 50.2407 64.6937 50.7188 65.0219 51.1969C65.3594 51.6844 65.8469 52.5188 66.1188 53.0625C66.3906 53.6063 66.7375 54.4313 66.8969 54.8907C67.0562 55.35 67.2625 56.1188 67.3656 56.5782C67.4688 57.0375 67.5719 57.6657 67.6562 58.5H69.0625C69.8312 58.5 70.4688 58.4719 70.4688 58.425C70.4594 58.3875 70.6281 58.1813 70.8438 57.9563C71.05 57.7407 71.4438 57.45 71.7063 57.3094C72.1281 57.0938 72.3156 57.0563 73 57.0563C73.7313 57.0469 73.8438 57.075 74.3969 57.375C74.725 57.5532 75.1 57.825 75.2312 57.9844C75.3625 58.1438 75.5969 58.5375 75.7469 58.875C76 59.4188 76.0281 59.5594 75.9812 60.1407C75.9531 60.6563 75.8687 60.9282 75.6156 61.3969C75.4375 61.725 75.1656 62.1 75.0156 62.2313C74.8656 62.3532 74.5187 62.5688 74.2656 62.7C73.8719 62.9063 73.675 62.9438 73 62.9438C72.3156 62.9438 72.1281 62.9063 71.7063 62.6907C71.4438 62.55 71.05 62.2594 70.8438 62.0344C70.6281 61.8188 70.4594 61.6125 70.4688 61.5657C70.4688 61.5282 69.8312 61.5 67.6562 61.5L67.6 62.0344C67.5719 62.3344 67.4688 62.9625 67.3656 63.4219C67.2625 63.8813 67.0562 64.65 66.8969 65.1094C66.7375 65.5688 66.3719 66.4125 66.0906 66.9844C65.8094 67.5563 65.3594 68.3344 65.0875 68.7188C64.825 69.1032 64.4969 69.5625 64.1406 70.0313L66.0156 71.8969L66.7656 71.8875C67.3937 71.8782 67.6 71.9157 68.05 72.1219C68.35 72.2625 68.7812 72.5719 69.025 72.8157C69.2875 73.0969 69.5219 73.4625 69.6438 73.7813C69.7844 74.175 69.8219 74.4657 69.7937 75C69.775 75.4782 69.7 75.8344 69.5594 76.125C69.4469 76.3594 69.1656 76.725 68.95 76.95C68.725 77.175 68.3594 77.4469 68.125 77.5594C67.8438 77.7 67.4781 77.775 67 77.7938C66.4656 77.8219 66.175 77.7844 65.7812 77.6438C65.4625 77.5219 65.0969 77.2875 64.8156 77.025C64.5719 76.7813 64.2625 76.35 64.1219 76.05C63.9156 75.6 63.8781 75.3938 63.8969 74.0157L62.0312 72.1407L61.7781 72.3469C61.6281 72.4594 61.1594 72.7969 60.7188 73.0969C60.2781 73.3875 59.4813 73.8469 58.9375 74.1188C58.3937 74.3907 57.5688 74.7375 57.1094 74.8969C56.6406 75.0563 55.8813 75.2625 55.4219 75.3657C54.9531 75.4688 54.3344 75.5719 53.5 75.6563L53.4906 78.4219L53.7438 78.5625C53.8844 78.6375 54.1094 78.8532 54.25 79.0313C54.3906 79.2094 54.6063 79.5469 54.7281 79.7813C54.9062 80.1282 54.9437 80.3532 54.9437 81C54.9531 81.7313 54.925 81.8438 54.625 82.3969C54.4469 82.725 54.1656 83.1 54.0156 83.2313C53.8656 83.3532 53.4906 83.5782 53.1906 83.7282C52.7594 83.9532 52.5344 84 52 84C51.4656 84 51.2406 83.9532 50.8 83.7282C50.5094 83.5782 50.1344 83.3532 49.9844 83.2313C49.825 83.1 49.5531 82.725 49.375 82.3969C49.075 81.8438 49.0469 81.7313 49.0563 81C49.0563 80.3157 49.0938 80.1282 49.3094 79.7063C49.45 79.4438 49.7406 79.05 49.9562 78.8438C50.1812 78.6282 50.3875 78.4594 50.425 78.4688C50.4719 78.4688 50.5 77.8313 50.5 75.6563L49.9562 75.6C49.6656 75.5719 49.0375 75.4688 48.5781 75.3657C48.1094 75.2625 47.35 75.0469 46.8906 74.8875C46.4219 74.7375 45.6063 74.3813 45.0625 74.1188C44.5187 73.8469 43.6844 73.3594 43.1969 73.0219C42.7188 72.6938 42.2406 72.3563 42.1375 72.2813C41.9688 72.15 41.8938 72.1969 40.1031 74.0157L40.1125 74.7657C40.1219 75.3938 40.0844 75.6 39.8781 76.05C39.7375 76.35 39.4281 76.7813 39.175 77.025C38.9125 77.2782 38.5375 77.5219 38.2375 77.6344C37.9562 77.7375 37.5062 77.8125 37.1594 77.8125C36.8406 77.8125 36.3625 77.7469 36.1094 77.6532C35.7719 77.5407 35.4719 77.3344 35.0688 76.9313C34.6656 76.5282 34.4594 76.2282 34.3469 75.8907C34.2531 75.6282 34.1875 75.1594 34.1875 74.8313C34.1875 74.4938 34.2625 74.0438 34.3656 73.7532C34.4781 73.4625 34.7219 73.0875 34.975 72.8157C35.2188 72.5719 35.65 72.2625 35.9406 72.1219C36.4 71.9157 36.6062 71.8782 37.9844 71.8969L38.9219 70.9688C39.8031 70.1063 39.85 70.0313 39.7188 69.8625C39.6438 69.7594 39.3062 69.2813 38.9781 68.8032C38.6406 68.3157 38.1531 67.4813 37.8813 66.9375C37.6094 66.3938 37.2625 65.5688 37.1031 65.1094C36.9437 64.65 36.7375 63.8813 36.6344 63.4219C36.5312 62.9625 36.4281 62.3344 36.3438 61.5H33.5781L33.3438 61.8375C33.2125 62.025 32.9219 62.2969 32.6875 62.4563C32.4531 62.6063 32.0312 62.7938 31.75 62.8782C31.3844 62.9813 31.0656 63.0094 30.6719 62.9625C30.3063 62.925 29.9125 62.7938 29.5563 62.5969C29.2563 62.4282 28.9 62.1657 28.7687 62.0157C28.6375 61.8657 28.4031 61.4625 28.2531 61.125C28 60.5813 27.9719 60.45 28.0188 59.8594C28.0469 59.4469 28.15 59.025 28.2906 58.7344C28.4125 58.4719 28.6844 58.0969 28.8906 57.8907C29.0969 57.6844 29.4719 57.4125 29.7344 57.2813C30.1188 57.0938 30.3531 57.0563 31 57.0563C31.6844 57.0563 31.8625 57.0938 32.2844 57.3094C32.5563 57.45 32.95 57.7407 33.1562 57.9563C33.3719 58.1813 33.5406 58.3875 33.5312 58.425C33.5312 58.4719 34.1594 58.5 36.3438 58.5L36.4 57.9563C36.4281 57.6657 36.5312 57.0375 36.6344 56.5782C36.7375 56.1188 36.9437 55.35 37.1031 54.8907C37.2625 54.4313 37.6094 53.6063 37.8813 53.0625C38.1531 52.5188 38.6125 51.7219 38.9031 51.2813C39.2031 50.8407 39.5406 50.3719 39.8594 49.9688L37.9844 48.1032L37.2344 48.1125C36.6062 48.1219 36.4 48.0844 35.9406 47.8782C35.65 47.7375 35.2188 47.4282 34.975 47.175C34.7219 46.9125 34.4781 46.5375 34.3656 46.2375C34.2625 45.9563 34.1875 45.5063 34.1875 45.1594C34.1875 44.8407 34.2531 44.3625 34.3469 44.1094C34.4594 43.7719 34.6656 43.4719 35.0688 43.0688C35.4719 42.6657 35.7719 42.4594 36.1094 42.3469C36.3625 42.2532 36.8406 42.1875 37.1594 42.1875C37.5062 42.1875 37.9562 42.2625 38.2375 42.3657C38.5375 42.4782 38.9125 42.7219 39.175 42.975C39.4281 43.2188 39.7375 43.65 39.8781 43.9407C40.0844 44.4 40.1219 44.6063 40.1031 45.9844L41.0312 46.9219C41.8938 47.8032 41.9688 47.85 42.1375 47.7188C42.2406 47.6438 42.7188 47.3063 43.1969 46.9782C43.6844 46.6407 44.5187 46.1532 45.0625 45.8813C45.6063 45.6094 46.4219 45.2625 46.8906 45.1032C47.35 44.9438 48.1094 44.7375 48.5781 44.6344C49.0375 44.5313 49.6656 44.4282 50.5 44.3438V42.9375C50.5 42.1594 50.4719 41.5313 50.425 41.5313C50.3875 41.5407 50.1812 41.3719 49.9562 41.1563C49.7406 40.95 49.45 40.5563 49.3094 40.2844C49.0938 39.8625 49.0563 39.6844 49.0563 39C49.0563 38.3532 49.0938 38.1188 49.2812 37.7344C49.4125 37.4719 49.6844 37.0969 49.8906 36.8907C50.0969 36.6844 50.5 36.4032 50.7812 36.2625C51.1844 36.0657 51.4375 36.0094 51.9719 36.0094H51.9813ZM47.9781 47.9063C47.6406 48.0094 46.9469 48.3094 46.4313 48.5625C45.9156 48.8063 45.1562 49.2563 44.7438 49.5469C44.3313 49.8469 43.7687 50.2875 43.4875 50.5219C43.2062 50.7563 42.6625 51.3375 42.2687 51.8063C41.875 52.2844 41.3594 52.9969 41.1156 53.4C40.8625 53.8125 40.4969 54.5344 40.2906 55.0032C40.0844 55.4813 39.8125 56.2688 39.6906 56.7375C39.5687 57.2157 39.4469 57.8063 39.4094 58.05L39.3531 58.5C40.3844 58.5375 40.6281 58.6032 40.8063 58.7344C40.9469 58.8375 41.1531 59.0438 41.2656 59.1844C41.4156 59.3907 41.4625 59.5875 41.4625 60C41.4625 60.4032 41.4156 60.6188 41.275 60.8063C41.1719 60.9375 40.9656 61.1438 40.825 61.2563C40.6281 61.3969 40.3938 61.4625 39.9531 61.4719C39.625 61.4907 39.3531 61.5375 39.3531 61.5938C39.3531 61.6407 39.4187 62.0157 39.4937 62.4094C39.5687 62.8125 39.7469 63.4782 39.8781 63.8907C40.0094 64.3032 40.2719 64.9782 40.4688 65.3907C40.6562 65.8032 41.0219 66.4594 41.2656 66.8438C41.5188 67.2282 41.9875 67.8657 42.3063 68.25C42.6344 68.6344 43.1406 69.1688 43.4406 69.4313C43.75 69.6938 44.3313 70.1532 44.7438 70.4532C45.1562 70.7438 45.9156 71.1938 46.4313 71.4375C46.9469 71.6907 47.7063 72 48.1188 72.1313C48.5312 72.2625 49.1969 72.4407 49.5906 72.5157C49.9937 72.5907 50.3594 72.6563 50.4156 72.6563C50.4719 72.6563 50.5188 72.3844 50.5281 72.0563C50.5469 71.6157 50.6125 71.3813 50.7531 71.1844C50.8656 71.0438 51.0719 70.8375 51.2031 70.7344C51.3906 70.5938 51.6063 70.5469 52.0094 70.5469C52.4125 70.5469 52.6281 70.5938 52.8156 70.7344C52.9469 70.8375 53.1531 71.0438 53.2656 71.1844C53.4062 71.3813 53.4719 71.6157 53.4812 72.0563C53.5 72.3844 53.5375 72.6563 53.575 72.6563C53.6219 72.6563 54.0063 72.5907 54.4469 72.5063C54.8875 72.4219 55.6656 72.2063 56.1813 72.0282C56.6969 71.85 57.3719 71.5688 57.6813 71.4188C57.9906 71.2594 58.5344 70.9407 58.9 70.7063C59.2656 70.4813 59.875 70.0219 60.2594 69.7032C60.6437 69.3844 61.2625 68.7657 61.6281 68.3344C61.9938 67.9032 62.4906 67.2563 62.7156 66.8907C62.95 66.525 63.2687 65.9813 63.4281 65.6719C63.5781 65.3625 63.8594 64.6875 64.0375 64.1719C64.2156 63.6563 64.4313 62.8782 64.5156 62.4375C64.6 61.9969 64.6656 61.6125 64.6656 61.5657C64.6656 61.5282 64.3938 61.4907 64.0656 61.4719C63.625 61.4625 63.3906 61.3969 63.1937 61.2563C63.0531 61.1438 62.8469 60.9375 62.7438 60.8063C62.6031 60.6188 62.5563 60.4032 62.5563 60C62.5563 59.5969 62.6031 59.3813 62.7438 59.1938C62.8469 59.0625 63.0531 58.8563 63.1937 58.7438C63.3906 58.6032 63.625 58.5375 64.0656 58.5188C64.3938 58.5094 64.6656 58.4532 64.6656 58.4063C64.6656 58.35 64.6 57.9844 64.525 57.5813C64.45 57.1875 64.2719 56.5219 64.1406 56.1094C64.0094 55.6969 63.7469 55.0219 63.55 54.6094C63.3625 54.1969 62.9969 53.5407 62.7531 53.1563C62.5 52.7719 62.0125 52.1157 61.675 51.7032C61.3281 51.2907 60.7094 50.6719 60.2969 50.3344C59.8937 49.9875 59.2375 49.5094 58.8531 49.2563C58.4688 49.0125 57.8125 48.6469 57.4 48.4594C56.9875 48.2625 56.3125 48 55.9 47.8688C55.4875 47.7375 54.8219 47.5594 54.4187 47.4844C54.025 47.4094 53.6594 47.3438 53.6031 47.3438C53.5469 47.3438 53.5 47.6157 53.4812 47.9438C53.4719 48.3844 53.4062 48.6188 53.2656 48.8157C53.1531 48.9563 52.9469 49.1625 52.8156 49.2657C52.6281 49.4063 52.4125 49.4532 52.0094 49.4532C51.6063 49.4532 51.3906 49.4063 51.2031 49.2657C51.0719 49.1625 50.8656 48.9563 50.7531 48.8157C50.6125 48.6188 50.5469 48.3844 50.5375 47.9438C50.5187 47.4375 50.4812 47.3438 50.35 47.3532C50.2562 47.3532 49.825 47.4375 49.3844 47.5313C48.9438 47.625 48.3156 47.7938 47.9781 47.9063ZM58.7125 53.2594C58.9188 53.25 59.2938 53.325 59.5469 53.4094C59.8594 53.5219 60.1406 53.7219 60.3906 54.0094C60.6063 54.2438 60.8312 54.6 60.8875 54.8063C60.9531 55.0032 61.0094 55.3219 61.0094 55.5C61.0094 55.6782 60.9531 55.9969 60.8875 56.1938C60.8312 56.4 60.6063 56.7563 60.3906 56.9907C60.1406 57.2782 59.8594 57.4782 59.5469 57.5907C59.2938 57.675 58.9375 57.75 58.7594 57.75C58.5813 57.75 58.2625 57.6938 58.0563 57.6375C57.8313 57.5625 57.4938 57.3375 57.2125 57.0469C56.9219 56.7657 56.6969 56.4282 56.6219 56.2032C56.5656 55.9969 56.5094 55.6782 56.5094 55.5C56.5094 55.3219 56.5656 55.0032 56.6219 54.7969C56.6969 54.5719 56.9219 54.2344 57.2125 53.9532C57.4656 53.6907 57.8313 53.4282 58.0094 53.3719C58.1875 53.3157 58.5063 53.2688 58.7125 53.2594ZM46.9938 54.0094C47.2 54 47.6031 54.0657 47.8844 54.15C48.2688 54.2719 48.5219 54.4313 48.8781 54.7875C49.2344 55.1438 49.3937 55.3969 49.5156 55.7813C49.6 56.0625 49.6656 56.4469 49.6656 56.625C49.6656 56.8032 49.6 57.1875 49.5156 57.4688C49.3937 57.8532 49.2344 58.1063 48.8781 58.4625C48.5219 58.8188 48.2688 58.9782 47.8844 59.1C47.6031 59.1844 47.2188 59.25 47.0406 59.25C46.8625 59.25 46.4781 59.1844 46.1969 59.1C45.8125 58.9782 45.5594 58.8188 45.2031 58.4625C44.8469 58.1063 44.6875 57.8532 44.5656 57.4688C44.4812 57.1875 44.4156 56.8032 44.4156 56.625C44.4156 56.4469 44.4812 56.0625 44.5656 55.7813C44.6875 55.3969 44.8469 55.1438 45.2031 54.7875C45.5406 54.45 45.8219 54.2625 46.15 54.1594C46.4031 54.075 46.7875 54.0094 46.9938 54.0094ZM53.6969 62.2875C54.0531 62.3157 54.4844 62.4094 54.7281 62.5219C54.9625 62.625 55.3 62.8407 55.4781 62.9813C55.6562 63.1313 55.9563 63.525 56.1344 63.8532C56.4344 64.4063 56.4625 64.5188 56.4625 65.25C56.4625 65.9813 56.4344 66.0938 56.1344 66.6469C55.9563 66.975 55.675 67.35 55.525 67.4813C55.375 67.6032 55.0281 67.8188 54.775 67.95C54.3813 68.1563 54.1844 68.1938 53.5094 68.1938C52.7781 68.2032 52.6656 68.175 52.1125 67.875C51.7844 67.6969 51.3906 67.3969 51.2406 67.2188C51.1 67.0407 50.8844 66.7032 50.7719 66.4688C50.6125 66.1407 50.5656 65.8688 50.5656 65.25C50.5562 64.5844 50.6031 64.3782 50.7906 63.9844C50.9125 63.7219 51.1938 63.3469 51.4 63.1407C51.6063 62.9344 51.9438 62.6813 52.15 62.5875C52.3563 62.4844 52.6562 62.3719 52.8063 62.3344C52.9563 62.2875 53.3594 62.2688 53.6969 62.2875Z" fill="white"/>
</g>
</g>
</g>
<defs>
<filter id="filter0_d_335_428" x="0" y="0" width="135" height="135" filterUnits="userSpaceOnUse" color-interpolation-filters="sRGB">
<feFlood flood-opacity="0" result="BackgroundImageFix"/>
<feColorMatrix in="SourceAlpha" type="matrix" values="0 0 0 0 0 0 0 0 0 0 0 0 0 0 0 0 0 0 127 0" result="hardAlpha"/>
<feOffset dx="16" dy="8"/>
<feGaussianBlur stdDeviation="16"/>
<feComposite in2="hardAlpha" operator="out"/>
<feColorMatrix type="matrix" values="0 0 0 0 0.27451 0 0 0 0 0.713726 0 0 0 0 0 0 0 0 0.25 0"/>
<feBlend mode="normal" in2="BackgroundImageFix" result="effect1_dropShadow_335_428"/>
<feBlend mode="normal" in="SourceGraphic" in2="effect1_dropShadow_335_428" result="shape"/>
</filter>
<linearGradient id="paint0_linear_335_428" x1="87" y1="24" x2="16" y2="95" gradientUnits="userSpaceOnUse">
<stop stop-color="#46B600"/>
<stop offset="1" stop-color="#80C41C"/>
</linearGradient>
<clipPath id="clip0_335_428">
<rect x="16" y="24" width="71" height="71" rx="8" fill="white"/>
</clipPath>
<clipPath id="clip1_335_428">
<rect width="292" height="292" fill="white" transform="translate(-94 -86)"/>
</clipPath>
<clipPath id="clip2_335_428">
<rect width="48" height="48" fill="white" transform="translate(28 36)"/>
</clipPath>
</defs>
</svg>
