<?xml version="1.0" encoding="utf-8"?>
<!-- Generator: Adobe Illustrator 22.1.0, SVG Export Plug-In . SVG Version: 6.00 Build 0)  -->
<svg version="1.1" id="Слой_1" xmlns="http://www.w3.org/2000/svg" xmlns:xlink="http://www.w3.org/1999/xlink" x="0px" y="0px"
	 viewBox="0 0 71 71" style="enable-background:new 0 0 71 71;" xml:space="preserve">
<style type="text/css">
	.st0{clip-path:url(#SVGID_2_);}
	.st1{fill:url(#SVGID_3_);}
	.st2{opacity:0.2;}
	.st3{fill:#FFFFFF;}
</style>
<g>
	<g>
		<defs>
			<path id="SVGID_1_" d="M8,0h55c4.4,0,8,3.6,8,8v55c0,4.4-3.6,8-8,8H8c-4.4,0-8-3.6-8-8V8C0,3.6,3.6,0,8,0z"/>
		</defs>
		<clipPath id="SVGID_2_">
			<use xlink:href="#SVGID_1_"  style="overflow:visible;"/>
		</clipPath>
		<g class="st0">
			
				<linearGradient id="SVGID_3_" gradientUnits="userSpaceOnUse" x1="71" y1="88" x2="-3.455594e-07" y2="17" gradientTransform="matrix(1 0 0 -1 0 88)">
				<stop  offset="0" style="stop-color:#46B600"/>
				<stop  offset="1" style="stop-color:#80C41C"/>
			</linearGradient>
			<path class="st1" d="M8,0h55c4.4,0,8,3.6,8,8v55c0,4.4-3.6,8-8,8H8c-4.4,0-8-3.6-8-8V8C0,3.6,3.6,0,8,0z"/>
			<g class="st2">
				<path class="st3" d="M-46.5-25.8C-62.8-30-79.2-32.1-96-31.4V-17c0.1,0.3,0.1,0.6,0.2,0.9c0.1,0.6,0.2,1.2,0.3,1.8
					c1.3,16.4,4.4,32.5,10.4,47.9c6.1,15.5,14.9,29,29,38.5c12.4,8.4,25.9,12.8,40.9,10.3c3.8-0.6,7.6-2,11.4-3.4
					c1.8-0.6,3.6-1.3,5.5-1.9c1.2,1.1,2.4,2.3,3.6,3.6c2.8,2.8,5.9,5.7,8.8,8.8c9.5,9.9,14.2,21.7,14.2,35.4v21.3
					c0,4.3,3.5,7.7,7.7,7.7c4.3,0,7.7-3.5,7.7-7.7l0-69.7c0-6.7,1-13.2,3.1-19.5c2.1-6.2,5-12,9.2-17.1l0.2,0.1
					c0.1,0,0.2,0.1,0.3,0.1c0.3,0.1,0.4,0.2,0.6,0.3c11.6,7.3,24.3,8.8,37.4,6.2c22.3-4.5,39-17.3,50.9-36.3
					c12.6-19.9,18-42.2,20.9-65.2c0.4-3.1,0.7-6.3,1.1-9.4c0.2-1.4,0.3-2.9,0.5-4.3V-84c-2.3,0.1-4.6,0.2-7,0.3
					c-5.1,0.2-10.3,0.3-15.4,0.8c-19.4,1.7-38.3,5.7-56.3,13.4C71.1-61.7,56-50.3,46-33c-8.1,14-11.6,28.9-8.4,45
					c1.2,6.1,3.8,11.7,7.3,16.9C32.5,44.4,27.4,62.1,28.3,81.4c-1.3-1.3-2.6-2.5-3.9-3.8c-3.7-3.6-7.3-7.1-10.9-10.5
					c-1.2-1.2-1.3-2-0.4-3.5c5.3-9,6.6-18.7,5.1-28.9C15.5,16.9,6.3,2.9-7.7-8C-19.3-16.9-32.5-22.2-46.5-25.8z M99.2-56.9
					c16.9-6.6,34.5-9.7,53.1-11.2l0,0c-0.2,1.8-0.4,3.5-0.6,5.2c-0.4,3.6-0.8,7.1-1.3,10.6c-2.3,16-6.2,31.5-13.3,46
					c-7.5,15.4-18.4,27.5-34.4,34.3c-10.5,4.5-21.3,5.9-32.3,1.7c-0.8-0.3-1.5-0.7-2.3-1c-0.4-0.2-0.7-0.4-1.1-0.6
					c14.3-14.3,28.4-28.4,42.5-42.5c3-3,3-7.8,0-10.8c-3-3-7.8-3-10.8,0C90.2-16.6,81.8-8.2,73.3,0.3l-0.2,0.2L73,0.7L56.1,17.6
					c-2.6-4.6-3.9-9-4.1-13.7c-0.9-16.3,5.7-29.7,16.6-41.3C77.1-46.5,87.7-52.4,99.2-56.9z M1.6,31.1c2.3,7.6,2.4,15.2-1,23.1
					L-19.6,34l0,0c-5.2-5.2-10.4-10.4-15.5-15.5c-3-3-8-3.1-11.1-0.1c-3.2,3.1-3.2,8.2-0.1,11.3L-10.4,65c-5.6,2.8-11.3,3.3-17,2.4
					c-16-2.5-27.6-11.6-36.1-24.9C-71.5,30-75.4,16-77.9,1.7c-0.7-3.8-1.1-7.6-1.7-11.6c-0.2-1.9-0.5-3.8-0.8-5.8
					c1.4,0.2,2.8,0.3,4.2,0.4c2.7,0.3,5.3,0.5,7.9,0.9C-53.1-12.2-38.5-8.5-25-0.9C-12.1,6.3-2.7,16.7,1.6,31.1z"/>
			</g>
			<path class="st3" d="M21,23.9c-2.9-0.8-5.9-1.1-9-1v2.6c0,0.1,0,0.1,0,0.2c0,0.1,0,0.2,0.1,0.3c0.2,3,0.8,5.9,1.9,8.7
				c1.1,2.8,2.7,5.3,5.3,7c2.3,1.5,4.7,2.3,7.4,1.9c0.7-0.1,1.4-0.4,2.1-0.6c0.3-0.1,0.7-0.2,1-0.3c0.2,0.2,0.4,0.4,0.7,0.6
				c0.5,0.5,1.1,1,1.6,1.6c1.7,1.8,2.6,3.9,2.6,6.4v3.9c0,0.8,0.6,1.4,1.4,1.4c0.8,0,1.4-0.6,1.4-1.4l0-12.7c0-1.2,0.2-2.4,0.6-3.5
				c0.4-1.1,0.9-2.2,1.7-3.1l0,0c0,0,0,0,0.1,0c0,0,0.1,0,0.1,0.1c2.1,1.3,4.4,1.6,6.8,1.1c4.1-0.8,7.1-3.1,9.3-6.6
				c2.3-3.6,3.3-7.7,3.8-11.8c0.1-0.6,0.1-1.1,0.2-1.7c0-0.3,0.1-0.5,0.1-0.8v-2.8c-0.4,0-0.8,0-1.3,0c-0.9,0-1.9,0.1-2.8,0.1
				c-3.5,0.3-7,1-10.2,2.4c-3.3,1.4-6.1,3.5-7.9,6.7c-1.5,2.5-2.1,5.3-1.5,8.2c0.2,1.1,0.7,2.1,1.3,3.1c-2.2,2.8-3.2,6-3,9.5
				c-0.2-0.2-0.5-0.5-0.7-0.7c-0.7-0.6-1.3-1.3-2-1.9c-0.2-0.2-0.2-0.4-0.1-0.6c1-1.6,1.2-3.4,0.9-5.2c-0.5-3.2-2.2-5.8-4.7-7.8
				C26,25.6,23.5,24.6,21,23.9z M47.5,18.3c3.1-1.2,6.3-1.8,9.7-2l0,0c0,0.3-0.1,0.6-0.1,1c-0.1,0.7-0.1,1.3-0.2,1.9
				c-0.4,2.9-1.1,5.7-2.4,8.4c-1.4,2.8-3.4,5-6.3,6.2c-1.9,0.8-3.9,1.1-5.9,0.3C42.1,34,42,34,41.8,33.9c-0.1,0-0.1-0.1-0.2-0.1
				c2.6-2.6,5.2-5.2,7.7-7.7c0.5-0.5,0.5-1.4,0-2c-0.5-0.5-1.4-0.5-2,0c-1.5,1.5-3.1,3.1-4.6,4.6l0,0l0,0l-3.1,3.1
				c-0.5-0.8-0.7-1.6-0.7-2.5c-0.2-3,1-5.4,3-7.5C43.5,20.2,45.4,19.1,47.5,18.3z M29.7,34.3c0.4,1.4,0.4,2.8-0.2,4.2l-3.7-3.7l0,0
				C25,33.9,24,32.9,23.1,32c-0.6-0.6-1.4-0.6-2,0c-0.6,0.6-0.6,1.5,0,2.1l6.5,6.4c-1,0.5-2.1,0.6-3.1,0.4c-2.9-0.5-5-2.1-6.6-4.5
				c-1.4-2.3-2.2-4.8-2.6-7.4c-0.1-0.7-0.2-1.4-0.3-2.1c0-0.3-0.1-0.7-0.1-1.1c0.3,0,0.5,0.1,0.8,0.1c0.5,0.1,1,0.1,1.4,0.2
				c2.8,0.4,5.4,1.1,7.9,2.4C27.3,29.8,29,31.7,29.7,34.3z"/>
		</g>
	</g>
</g>
</svg>
