<svg width="135" height="135" viewBox="0 0 135 135" fill="none" xmlns="http://www.w3.org/2000/svg">
<g filter="url(#filter0_d_64_90)">
<g clip-path="url(#clip0_64_90)">
<rect x="16" y="24" width="71" height="71" rx="8" fill="url(#paint0_linear_64_90)"/>
<g opacity="0.2">
<path fill-rule="evenodd" clip-rule="evenodd" d="M-30.5361 -1.80902C-46.7577 -5.99652 -63.2216 -8.08512 -80 -7.40955V7.03012C-79.9493 7.33087 -79.8903 7.63051 -79.8314 7.92995C-79.7104 8.54447 -79.5896 9.15815 -79.5411 9.77882C-78.252 26.2143 -75.1892 42.2732 -69.1461 57.6876C-63.0617 73.1999 -54.2033 86.6855 -40.1473 96.1796C-27.7723 104.539 -14.2475 109.005 0.757187 106.494C4.60015 105.851 8.32585 104.507 12.174 103.118C13.9743 102.469 15.8015 101.809 17.68 101.208C18.8374 102.357 20.0549 103.551 21.3086 104.779C24.1433 107.558 27.1631 110.517 30.0911 113.564C39.5786 123.434 44.2656 135.285 44.2759 148.982V170.287C44.2759 174.559 47.7386 178.022 52.0101 178.022C56.2817 178.022 59.7444 174.559 59.7442 170.287L59.7395 100.568C59.7344 93.8951 60.6986 87.3817 62.8384 81.0644C64.937 74.8656 67.8709 69.1104 72.0217 63.9688L72.1992 64.0544C72.3033 64.1039 72.399 64.1482 72.4881 64.1894C72.7388 64.3054 72.9369 64.3971 73.12 64.5103C84.7319 71.7817 97.3853 73.3598 110.544 70.7245C132.876 66.2482 149.505 53.4021 161.493 34.4088C174.043 14.5233 179.488 -7.74475 182.443 -30.7606C182.845 -33.9007 183.185 -37.048 183.525 -40.196C183.681 -41.6442 183.838 -43.0924 184 -44.5401V-60.0164C181.68 -59.9137 179.358 -59.8365 177.036 -59.7593C171.89 -59.5883 166.745 -59.4172 161.622 -58.9695C142.198 -57.278 123.275 -53.2813 105.28 -45.5354C87.145 -37.7277 71.9959 -26.3152 61.9619 -8.9515C53.8769 5.03436 50.3242 19.9588 53.5469 36.09C54.7689 42.2165 57.3625 47.7861 60.8584 52.9792C48.535 68.4297 43.4458 86.077 44.2914 105.395C42.9726 104.115 41.6686 102.845 40.3738 101.584C36.7075 98.0131 33.1152 94.5143 29.4723 91.069C28.24 89.8984 28.2142 89.0629 29.0702 87.6086C34.3398 78.6406 35.6908 68.8783 34.18 58.7499C31.5245 40.9272 22.3 26.9259 8.25954 16.0188C-3.25437 7.07654 -16.542 1.8009 -30.5361 -1.80902ZM115.21 -32.8749C132.077 -39.4398 149.67 -42.5701 168.294 -44.0657L168.289 -44.0605C168.083 -42.2829 167.896 -40.5404 167.711 -38.8231C167.321 -35.1995 166.943 -31.6876 166.433 -28.1924C164.097 -12.2365 160.24 3.29128 153.099 17.8547C145.55 33.2433 134.66 45.3468 118.655 52.185C108.157 56.6665 97.3595 58.0898 86.3355 53.9281C85.577 53.6401 84.8496 53.2756 84.067 52.8834C83.7004 52.6997 83.3217 52.5099 82.922 52.3191C97.1911 38.0525 111.339 23.9034 125.422 9.81789C128.411 6.8288 128.409 1.9827 125.419 -1.00496C122.43 -3.99228 117.584 -3.98999 114.598 -0.999584C106.211 7.39761 97.7953 15.8263 89.3291 24.3056L89.0892 24.5458L88.9519 24.6833L72.0939 41.5667C69.4591 36.9512 68.2422 32.5316 67.9895 27.88C67.1027 11.5425 73.7336 -1.83996 84.5978 -13.4329C93.1159 -22.5196 103.733 -28.409 115.21 -32.8749ZM17.6233 55.1091C19.9075 62.7054 20.0158 70.2862 16.6178 78.1816L-3.55727 57.9909L-3.57431 57.9739C-8.77055 52.7739 -13.9279 47.6129 -19.0569 42.4796C-22.1022 39.4318 -27.0264 39.3811 -30.1338 42.3655C-33.347 45.4516 -33.3794 50.5811 -30.2054 53.7075L5.61437 88.9907C-0.000785828 91.7807 -5.67781 92.2448 -11.4013 91.3475C-27.3908 88.8412 -39.0491 79.7957 -47.5414 66.4236C-55.4511 53.9694 -59.4059 40.0351 -61.917 25.6521C-62.5753 21.8733 -63.0624 18.0634 -63.5737 14.0644C-63.8153 12.1749 -64.0623 10.2431 -64.3353 8.25233C-62.9042 8.41251 -61.5221 8.55522 -60.1738 8.69444C-57.4417 8.97656 -54.8487 9.24431 -52.2697 9.61378C-37.1413 11.7797 -22.4614 15.4876 -9.02422 23.0633C3.89218 30.345 13.2869 40.6797 17.6233 55.1091Z" fill="white"/>
</g>
<path fill-rule="evenodd" clip-rule="evenodd" d="M36.9934 47.9439C34.0441 47.1825 31.0506 46.8028 28 46.9256V49.551C28.0092 49.6057 28.0199 49.6601 28.0307 49.7146C28.0526 49.8263 28.0746 49.9379 28.0834 50.0507C28.3178 53.039 28.8747 55.9588 29.9734 58.7614C31.0797 61.5819 32.6903 64.0338 35.2459 65.76C37.4959 67.2799 39.955 68.0919 42.6831 67.6353C43.3818 67.5184 44.0592 67.274 44.7589 67.0215C45.0862 66.9034 45.4185 66.7836 45.76 66.6742C45.9704 66.8832 46.1918 67.1002 46.4197 67.3236C46.9352 67.8287 47.4842 68.3669 48.0166 68.9208C49.7416 70.7154 50.5938 72.8701 50.5956 75.3605V79.2341C50.5956 80.0108 51.2252 80.6403 52.0018 80.6403C52.7785 80.6403 53.4081 80.0107 53.408 79.2341L53.4072 66.5579C53.4062 65.3446 53.5816 64.1604 53.9706 63.0118C54.3522 61.8847 54.8856 60.8383 55.6403 59.9035L55.6726 59.919C55.6915 59.928 55.7089 59.9361 55.7251 59.9436C55.7707 59.9647 55.8067 59.9813 55.84 60.0019C57.9513 61.324 60.2519 61.6109 62.6444 61.1318C66.7047 60.3179 69.7281 57.9823 71.9078 54.5289C74.1897 50.9134 75.1797 46.8646 75.7169 42.68C75.7901 42.109 75.8518 41.5368 75.9136 40.9644C75.942 40.7011 75.9705 40.4378 76 40.1746V37.3607C75.5782 37.3794 75.1559 37.3934 74.7337 37.4075C73.7982 37.4386 72.8627 37.4697 71.9313 37.5511C68.3997 37.8586 64.9591 38.5853 61.6872 39.9936C58.39 41.4132 55.6356 43.4882 53.8113 46.6452C52.3413 49.1881 51.6953 51.9017 52.2812 54.8346C52.5034 55.9485 52.975 56.9612 53.6106 57.9054C51.37 60.7145 50.4447 63.9231 50.5984 67.4355C50.3587 67.2028 50.1216 66.9719 49.8862 66.7426C49.2195 66.0933 48.5664 65.4572 47.9041 64.8308C47.68 64.6179 47.6753 64.466 47.8309 64.2016C48.7891 62.5711 49.0347 60.7961 48.76 58.9546C48.2772 55.7141 46.6 53.1684 44.0472 51.1853C41.9538 49.5594 39.5378 48.6002 36.9934 47.9439ZM63.4928 42.2955C66.5594 41.1019 69.7581 40.5328 73.1444 40.2608L73.1434 40.2618C73.1061 40.585 73.072 40.9018 73.0384 41.214C72.9675 41.8729 72.8988 42.5114 72.8059 43.1469C72.3813 46.048 71.68 48.8712 70.3816 51.5191C69.0091 54.317 67.0291 56.5177 64.1191 57.761C62.2103 58.5758 60.2472 58.8346 58.2428 58.0779C58.1049 58.0255 57.9727 57.9593 57.8304 57.888C57.7637 57.8546 57.6949 57.82 57.6222 57.7853C60.2166 55.1914 62.7888 52.6189 65.3495 50.0579C65.8929 49.5144 65.8926 48.6333 65.349 48.0901C64.8054 47.5469 63.9244 47.5473 63.3814 48.091C61.8565 49.6178 60.3264 51.1503 58.7871 52.692L58.7435 52.7357L58.7185 52.7607L55.6534 55.8304C55.1744 54.9912 54.9531 54.1876 54.9072 53.3419C54.7459 50.3714 55.9516 47.9382 57.9269 45.8304C59.4756 44.1783 61.4059 43.1075 63.4928 42.2955ZM45.7497 58.2926C46.165 59.6738 46.1847 61.0521 45.5669 62.4876L41.8987 58.8166L41.8956 58.8135C40.9508 57.868 40.0131 56.9297 39.0806 55.9964C38.5269 55.4422 37.6316 55.433 37.0666 55.9756C36.4824 56.5367 36.4765 57.4693 37.0536 58.0378L43.5662 64.4529C42.5453 64.9602 41.5131 65.0446 40.4725 64.8814C37.5653 64.4257 35.4456 62.7811 33.9016 60.3498C32.4634 58.0854 31.7444 55.5519 31.2878 52.9368C31.1681 52.2497 31.0796 51.557 30.9866 50.83C30.9427 50.4864 30.8978 50.1352 30.8481 49.7732C31.1083 49.8023 31.3596 49.8283 31.6048 49.8536C32.1015 49.9049 32.573 49.9536 33.0419 50.0207C35.7925 50.4146 38.4616 51.0887 40.9047 52.4661C43.2531 53.7901 44.9613 55.6691 45.7497 58.2926Z" fill="white"/>
</g>
</g>
<defs>
<filter id="filter0_d_64_90" x="0" y="0" width="135" height="135" filterUnits="userSpaceOnUse" color-interpolation-filters="sRGB">
<feFlood flood-opacity="0" result="BackgroundImageFix"/>
<feColorMatrix in="SourceAlpha" type="matrix" values="0 0 0 0 0 0 0 0 0 0 0 0 0 0 0 0 0 0 127 0" result="hardAlpha"/>
<feOffset dx="16" dy="8"/>
<feGaussianBlur stdDeviation="16"/>
<feComposite in2="hardAlpha" operator="out"/>
<feColorMatrix type="matrix" values="0 0 0 0 0.27451 0 0 0 0 0.713726 0 0 0 0 0 0 0 0 0.25 0"/>
<feBlend mode="normal" in2="BackgroundImageFix" result="effect1_dropShadow_64_90"/>
<feBlend mode="normal" in="SourceGraphic" in2="effect1_dropShadow_64_90" result="shape"/>
</filter>
<linearGradient id="paint0_linear_64_90" x1="87" y1="24" x2="16" y2="95" gradientUnits="userSpaceOnUse">
<stop stop-color="#46B600"/>
<stop offset="1" stop-color="#80C41C"/>
</linearGradient>
<clipPath id="clip0_64_90">
<rect x="16" y="24" width="71" height="71" rx="8" fill="white"/>
</clipPath>
</defs>
</svg>
