<svg width="134" height="44" viewBox="0 0 134 44" fill="none" xmlns="http://www.w3.org/2000/svg">
<path d="M37.8253 1.7C37.8253 0.399997 37.7253 0.299999 36.8253 0.299999V0H42.0254C42.0254 0.2 42.1254 1.1 42.1254 1.7H41.8253C41.7253 1.1 41.6253 0.799998 41.4253 0.599998C41.2253 0.399998 40.8254 0.299999 40.1254 0.299999H39.3253C38.9253 0.299999 38.8253 0.299997 38.8253 0.699997V3.1H40.1254C42.0254 3.1 42.8253 4 42.8253 5.2C42.8253 6.2 42.4253 6.7 41.8253 7.1C41.2253 7.5 40.4254 7.6 39.5254 7.6H36.8253V7.3C37.8253 7.2 37.9253 7.1 37.9253 5.9V1.7H37.8253ZM41.7253 5.4C41.7253 4.1 40.9254 3.6 39.6254 3.6H38.8253V6C38.8253 7.1 39.0253 7.3 39.9253 7.3C40.8253 7.3 41.7253 6.8 41.7253 5.4Z" fill="white"/>
<path d="M49.3253 2.5V2.8C48.5253 2.9 48.5254 2.9 48.5254 3.6V6.6C48.5254 7.3 48.6253 7.3 49.3253 7.4V7.7H46.7253V7.4C47.5253 7.3 47.6254 7.3 47.6254 6.6V3.4C47.6254 3 47.6253 2.9 47.2253 2.9H46.7253C46.2253 2.9 46.2253 3 46.2253 3.4C46.1253 5.8 45.6254 7 45.1254 7.5C44.9254 7.7 44.7254 7.8 44.6254 7.8C44.4254 7.8 44.2254 7.7 44.0254 7.7V7.5C44.6254 7.2 45.0253 6.7 45.3253 6.2C45.5253 5.8 45.8253 4.9 45.8253 3.6C45.8253 3.1 45.8254 3 45.0254 2.9V2.6H49.3253V2.5Z" fill="white"/>
<path d="M55.4253 6.5999C55.4253 7.2999 55.5253 7.2999 56.3253 7.3999V7.6999H53.8253V7.3999C54.5253 7.2999 54.5254 7.2999 54.5254 6.5999V3.9999L52.3253 6.4999C52.2253 6.5999 52.1254 6.6999 52.1254 6.7999V7.0999C52.1254 7.1999 52.2253 7.2999 52.4253 7.2999H52.6254V7.5999H50.3253V7.2999C51.1253 7.1999 51.2253 7.1999 51.2253 6.4999V3.4999C51.2253 2.7999 51.1253 2.7999 50.3253 2.6999V2.3999H52.8253V2.6999C52.1253 2.7999 52.1254 2.7999 52.1254 3.4999V6.0999L54.3253 3.4999C54.4253 3.3999 54.4253 3.2999 54.4253 3.1999V3.0999C54.4253 2.9999 54.3253 2.8999 54.2253 2.8999L54.0254 2.7999V2.4999H56.3253V2.7999C55.5253 2.8999 55.4253 2.8999 55.4253 3.5999V6.5999Z" fill="white"/>
<path d="M62.7253 2.49981V2.7998C62.0253 2.8998 61.9253 2.8998 61.9253 3.5998V4.7998C62.3253 4.7998 62.5253 4.6998 62.8253 4.3998C63.1253 4.1998 63.5253 3.5998 63.7253 3.1998C63.9253 2.8998 64.3253 2.2998 64.8253 2.2998C65.1253 2.2998 65.3253 2.3998 65.3253 2.6998C65.3253 2.8998 65.2253 3.0998 64.9253 3.0998H64.6254C64.1254 3.0998 63.9254 3.49981 63.5254 3.99981C63.3254 4.19981 63.1253 4.4998 62.8253 4.6998C63.1253 4.6998 63.4254 4.8998 63.6254 5.2998C63.8254 5.5998 64.0253 5.7998 64.3253 6.3998C64.7253 7.0998 64.9253 7.1998 65.4253 7.2998V7.5998H64.7253C64.2253 7.5998 63.8254 7.4998 63.5254 6.8998C63.2254 6.3998 62.9253 5.8998 62.8253 5.5998C62.5253 5.0998 62.2253 4.99981 61.8253 4.99981V6.49981C61.8253 7.19981 61.9254 7.1998 62.6254 7.2998V7.5998H60.0254V7.2998C60.8254 7.1998 60.9253 7.19981 60.9253 6.49981V5.0998C60.5253 5.0998 60.1253 5.1998 59.8253 5.6998C59.7253 5.9998 59.4254 6.49981 59.1254 6.99981C58.8254 7.59981 58.4253 7.6998 57.9253 7.6998H57.2253V7.3998C57.7253 7.3998 57.9253 7.19981 58.3253 6.49981C58.7253 5.89981 58.9254 5.6998 59.0254 5.3998C59.2254 4.9998 59.6253 4.8998 59.8253 4.7998C59.5253 4.5998 59.3254 4.3998 59.1254 4.0998C58.7254 3.5998 58.5254 3.1998 58.1254 3.1998H57.8253C57.5253 3.1998 57.4253 2.9998 57.4253 2.7998C57.4253 2.5998 57.6253 2.3998 57.9253 2.3998C58.4253 2.3998 58.8254 2.9998 59.0254 3.2998C59.2254 3.5998 59.6253 4.29981 59.9253 4.49981C60.2253 4.69981 60.4253 4.8998 60.8253 4.8998V3.6998C60.8253 2.9998 60.7254 2.9998 60.0254 2.8998V2.5998H62.7253V2.49981Z" fill="white"/>
<path d="M71.3253 6.5999C71.3253 7.2999 71.4254 7.2999 72.1254 7.3999V7.6999H69.4253V7.3999C70.3253 7.2999 70.3253 7.2999 70.3253 6.5999V5.2999C69.9253 5.3999 69.5254 5.4999 69.1254 5.4999C68.5254 5.4999 68.0253 5.3999 67.7253 5.0999C67.4253 4.7999 67.3253 4.4999 67.3253 3.9999V3.4999C67.3253 2.7999 67.2254 2.7999 66.5254 2.6999V2.3999H68.9253V2.6999C68.2253 2.7999 68.2253 2.7999 68.2253 3.4999V4.0999C68.2253 4.7999 68.6253 5.0999 69.3253 5.0999C69.6253 5.0999 70.0253 5.0999 70.3253 4.9999V3.5999C70.3253 2.8999 70.2254 2.8999 69.6254 2.7999V2.4999H72.1254V2.7999C71.3254 2.8999 71.3253 2.8999 71.3253 3.5999V6.5999Z" fill="white"/>
<path d="M77.6254 6.7C77.0254 7.6 76.1253 7.9 75.8253 7.9C74.3253 7.9 73.4253 6.8 73.4253 5.4C73.4253 3.8 74.5253 2.5 75.9253 2.5C76.8253 2.5 77.6254 3.4 77.6254 4.1C77.6254 4.5 77.6253 4.5 77.4253 4.5C77.2253 4.5 75.8253 4.6 74.3253 4.7C74.3253 6.5 75.4253 7.1 76.2253 7.1C76.6253 7.1 76.9253 7 77.4253 6.5L77.6254 6.7ZM76.4253 4.2C76.6253 4.2 76.6254 4.1 76.6254 3.8C76.6254 3.3 76.2254 2.8 75.6254 2.8C75.0254 2.8 74.4253 3.4 74.3253 4.3L76.4253 4.2Z" fill="white"/>
<path d="M83.2253 7.7C82.7253 7.7 82.6253 7.9 82.4253 8.6L82.3253 9.2H82.0254V7.7C82.0254 7.5 82.1253 7.4 82.2253 7.4H82.5254C82.6254 7.4 82.6253 7.4 82.7253 7.2C82.8253 7 83.0254 6.6 83.1254 6C83.3254 5.3 83.4253 4 83.4253 3.5C83.4253 3.1 83.3253 3 82.8253 2.9L82.4253 2.8V2.5H87.1254V2.8C86.4254 2.9 86.3253 2.9 86.3253 3.6V6.5C86.3253 7.2 86.4253 7.3 86.7253 7.3H86.9253C87.1253 7.3 87.1254 7.3 87.1254 7.6V9.1H86.8253L86.7253 8.5C86.5253 7.8 86.5253 7.6 85.9253 7.6H83.2253V7.7ZM84.9253 7.3C85.5253 7.3 85.5254 7.3 85.5254 6.6V3.4C85.5254 2.9 85.5253 2.9 84.9253 2.9H84.5254C83.9254 2.9 83.9253 3 83.9253 3.5C83.8253 5.1 83.6253 6.4 83.3253 7.1C83.2253 7.3 83.2253 7.4 83.4253 7.4H84.9253V7.3Z" fill="white"/>
<path d="M88.5254 5.3C88.5254 3.3 90.0254 2.5 91.1254 2.5C92.6254 2.5 93.7253 3.6 93.7253 5.1C93.7253 6.9 92.3254 7.9 91.1254 7.9C89.4254 7.8 88.5254 6.5 88.5254 5.3ZM92.6254 5.3C92.6254 4 92.0254 2.8 91.0254 2.8C90.2254 2.8 89.6254 3.6 89.6254 4.9C89.6254 6.4 90.2253 7.5 91.3253 7.5C91.9253 7.5 92.6254 6.9 92.6254 5.3Z" fill="white"/>
<path d="M103.425 2.5V2.8C102.625 2.9 102.525 2.9 102.525 3.6V6.6C102.525 7.3 102.625 7.3 103.425 7.4V7.7H100.825V7.4C101.625 7.3 101.725 7.3 101.725 6.6V3.4C101.725 3 101.725 2.9 101.325 2.9H100.825C100.325 2.9 100.325 3 100.325 3.4C100.225 5.8 99.7253 7 99.2253 7.5C99.0253 7.7 98.8253 7.8 98.7253 7.8C98.5253 7.8 98.3254 7.7 98.1254 7.7V7.5C98.7254 7.2 99.1253 6.7 99.3253 6.2C99.5253 5.8 99.8253 4.9 99.8253 3.6C99.8253 3.1 99.8254 3 99.0254 2.9V2.6H103.425V2.5Z" fill="white"/>
<path d="M104.525 2.4999H107.125V2.7999C106.325 2.8999 106.325 2.8999 106.325 3.5999V4.8999H107.425C107.625 3.1999 109.025 2.3999 110.025 2.3999C111.525 2.3999 112.625 3.4999 112.625 4.9999C112.625 6.7999 111.225 7.7999 110.025 7.7999C108.325 7.7999 107.425 6.4999 107.425 5.1999H106.325V6.5999C106.325 7.2999 106.425 7.2999 107.225 7.3999V7.6999H104.625V7.3999C105.425 7.2999 105.425 7.2999 105.425 6.5999V3.5999C105.425 2.8999 105.325 2.8999 104.525 2.7999V2.4999ZM111.425 5.2999C111.425 3.9999 110.825 2.7999 109.825 2.7999C109.025 2.7999 108.425 3.5999 108.425 4.8999C108.425 6.3999 109.025 7.4999 110.125 7.4999C110.825 7.4999 111.425 6.8999 111.425 5.2999Z" fill="white"/>
<path d="M114.625 7.6999C114.125 7.6999 114.025 7.8999 113.825 8.5999L113.725 9.0999H113.425V7.5999C113.425 7.3999 113.525 7.2999 113.725 7.2999H114.025C114.125 7.2999 114.125 7.2999 114.225 7.0999C114.325 6.8999 114.525 6.4999 114.625 5.8999C114.825 5.1999 114.925 3.8999 114.925 3.3999C114.925 2.9999 114.825 2.8999 114.325 2.7999L113.925 2.6999V2.3999H118.625V2.6999C117.925 2.7999 117.825 2.7999 117.825 3.4999V6.3999C117.825 7.0999 117.925 7.1999 118.225 7.1999H118.425C118.625 7.1999 118.625 7.1999 118.725 7.4999V9.0999H118.425L118.325 8.4999C118.125 7.7999 118.125 7.5999 117.525 7.5999H114.625V7.6999ZM116.325 7.2999C116.925 7.2999 116.925 7.2999 116.925 6.5999V3.3999C116.925 2.8999 116.925 2.8999 116.325 2.8999H115.925C115.325 2.8999 115.325 2.9999 115.325 3.4999C115.225 5.0999 115.025 6.3999 114.725 7.0999C114.625 7.2999 114.625 7.3999 114.825 7.3999H116.325V7.2999Z" fill="white"/>
<path d="M124.025 6.7C123.425 7.6 122.525 7.9 122.225 7.9C120.725 7.9 119.825 6.8 119.825 5.4C119.825 3.8 120.925 2.5 122.325 2.5C123.225 2.5 124.025 3.4 124.025 4.1C124.025 4.5 124.025 4.5 123.725 4.5C123.525 4.5 122.125 4.6 120.625 4.7C120.625 6.5 121.725 7.1 122.525 7.1C122.925 7.1 123.225 7 123.725 6.5L124.025 6.7ZM122.925 4.2C123.125 4.2 123.125 4.1 123.125 3.8C123.125 3.3 122.725 2.8 122.125 2.8C121.525 2.8 120.925 3.4 120.825 4.3L122.925 4.2Z" fill="white"/>
<path d="M130.325 6.6002C130.325 7.3002 130.425 7.3002 131.225 7.4002V7.7002H128.725V7.4002C129.425 7.3002 129.425 7.3002 129.425 6.6002V4.0002L127.225 6.5002C127.125 6.6002 127.025 6.7002 127.025 6.8002V7.1002C127.025 7.2002 127.125 7.3002 127.325 7.3002H127.525V7.6002H125.225V7.3002C126.025 7.2002 126.125 7.2002 126.125 6.5002V3.5002C126.125 2.8002 126.025 2.8002 125.225 2.7002V2.4002H127.725V2.7002C127.025 2.8002 127.025 2.8002 127.025 3.5002V6.1002L129.225 3.5002C129.325 3.4002 129.325 3.3002 129.325 3.2002V3.1002C129.325 3.0002 129.225 2.9002 129.125 2.9002L128.925 2.8002V2.5002H131.225V2.8002C130.325 2.9002 130.325 2.9002 130.325 3.6002V6.6002ZM128.825 1.3002C128.825 1.2002 128.825 1.1002 128.725 1.1002C128.625 0.900197 128.725 0.700195 129.025 0.700195C129.325 0.700195 129.425 0.900195 129.425 1.2002C129.425 1.7002 128.925 2.0002 128.125 2.0002C127.325 2.0002 126.825 1.6002 126.825 1.2002C126.825 1.0002 127.025 0.700195 127.225 0.700195C127.525 0.700195 127.625 1.0002 127.525 1.1002C127.525 1.2002 127.525 1.3002 127.425 1.3002C127.425 1.5002 127.625 1.6002 128.025 1.6002C128.625 1.6002 128.825 1.5002 128.825 1.3002Z" fill="white"/>
<path d="M68.9253 27.0002C68.9253 24.5002 68.7253 24.4002 66.9253 24.2002V23.7002H76.8253C76.8253 24.1002 76.9254 25.7002 77.0254 27.0002L76.4253 27.1002C76.2253 26.0002 75.9254 25.4002 75.6254 25.0002C75.2254 24.6002 74.5254 24.5002 73.1254 24.5002H71.4253C70.8253 24.5002 70.7253 24.5002 70.7253 25.2002V30.5002H73.0254C74.9254 30.5002 75.0253 30.4002 75.2253 28.7002H75.8253V33.1002H75.2253C75.1253 32.3002 75.0253 31.8002 74.7253 31.6002C74.4253 31.4002 73.9253 31.3002 72.9253 31.3002H70.6254V35.3002C70.6254 36.6002 70.7253 37.3002 71.2253 37.5002C71.6253 37.8002 72.4254 37.8002 73.5254 37.8002C74.8254 37.8002 75.8253 37.7002 76.3253 37.1002C76.7253 36.7002 77.0253 35.9002 77.4253 34.9002L78.0254 35.0002C77.9254 35.6002 77.4253 37.9002 77.2253 38.5002H66.7253V38.0002C68.7253 37.9002 68.9253 37.7002 68.9253 35.3002V27.0002Z" fill="white"/>
<path d="M95.1254 35.1002C95.1254 37.5002 95.3254 37.7002 97.1254 37.8002V38.3002H91.2253V37.8002C93.0253 37.7002 93.2253 37.5002 93.2253 35.1002V27.0002C93.2253 24.5002 93.0253 24.4002 91.2253 24.2002V23.7002H97.1254V24.2002C95.3254 24.3002 95.1254 24.5002 95.1254 27.0002V35.1002Z" fill="white"/>
<path d="M104.525 23.7998V24.2998C102.725 24.3998 102.525 24.5998 102.525 27.0998V31.7998C102.525 33.6998 102.725 35.1998 103.425 36.1998C104.125 37.1998 105.125 37.7998 106.625 37.7998C108.025 37.7998 109.225 37.1998 109.925 36.0998C110.625 34.9998 110.925 32.9998 110.925 31.0998V29.8998C110.925 27.4998 110.825 26.2998 110.725 25.5998C110.625 24.7998 110.025 24.4998 108.525 24.3998V23.8998H113.925V24.3998C112.725 24.3998 112.125 24.7998 112.025 25.5998C111.925 26.2998 111.825 27.4998 111.825 29.8998V31.3998C111.825 33.9998 111.425 35.8998 110.125 37.2998C109.125 38.2998 107.525 38.8998 105.925 38.8998C104.725 38.8998 103.225 38.5998 102.225 37.6998C101.025 36.6998 100.525 35.1998 100.525 32.5998V27.0998C100.525 24.5998 100.325 24.4998 98.4253 24.2998V23.7998H104.525Z" fill="white"/>
<path d="M119.025 23.7998L124.425 35.3998L129.825 23.7998H133.525V24.2998C131.525 24.4998 131.425 24.5998 131.525 27.0998L131.725 35.1998C131.825 37.6998 131.825 37.7998 133.825 37.8998V38.3998H127.925V37.8998C129.825 37.6998 129.925 37.6998 129.825 35.1998L129.725 26.0998H129.625L124.125 38.1998H123.525L118.325 26.3998L118.125 32.6998C118.025 34.7998 118.025 36.0998 118.125 36.7998C118.225 37.5998 118.825 37.8998 120.225 37.9998V38.4998H114.925V37.9998C116.225 37.8998 116.625 37.6998 116.825 36.7998C116.925 36.0998 117.125 34.7998 117.225 32.4998L117.425 27.7998C117.625 24.7998 117.425 24.4998 115.325 24.3998V23.8998H119.025V23.7998Z" fill="white"/>
<path d="M53.8253 23.7998C53.7253 24.7998 53.6254 25.9998 53.6254 27.1998H54.2253C54.5253 26.1998 54.7254 25.5998 55.0254 25.2998C55.3254 24.8998 55.9253 24.5998 57.9253 24.5998H59.0254V35.0998C59.0254 37.4998 58.8253 37.6998 56.7253 37.7998V38.2998H63.3253V37.7998C61.1253 37.6998 60.9253 37.4998 60.9253 35.0998V24.4998H62.4253C63.8253 24.4998 64.5253 24.6998 64.9253 25.0998C65.2253 25.4998 65.5253 26.0998 65.7253 27.1998H66.3253C66.2253 26.0998 66.1254 24.6998 66.1254 23.7998H53.8253Z" fill="white"/>
<path d="M53.0254 37.0998C52.4254 36.3998 51.9254 35.7998 51.1254 34.5998C50.4254 33.5998 49.5254 32.0998 49.1254 31.3998C50.9254 30.6998 52.1254 29.2998 52.1254 27.4998C52.1254 26.1998 51.5254 25.1998 50.6254 24.5998C49.8254 23.9998 48.5254 23.7998 47.0254 23.7998H43.3253V24.4998H45.4253C45.7253 24.4998 46.2253 24.4998 46.7253 24.4998C48.4253 24.4998 50.1254 25.2998 50.1254 27.6998C50.1254 28.7998 49.8253 29.8998 48.8253 30.6998C48.2253 31.1998 47.5254 31.1998 46.5254 31.1998H43.3253V31.8998H46.4253C47.1253 31.8998 47.5253 32.0998 47.8253 32.6998C48.4253 33.7998 49.4254 35.3998 50.1254 36.3998C51.0254 37.5998 51.7253 38.3998 54.3253 38.4998H54.6254V38.0998C53.8254 37.9998 53.4254 37.5998 53.0254 37.0998Z" fill="white"/>
<path d="M88.9253 37.0998C88.3253 36.3998 87.8254 35.7998 87.0254 34.5998C86.3254 33.5998 85.4254 32.0998 85.0254 31.3998C86.8254 30.6998 88.0254 29.2998 88.0254 27.4998C88.0254 26.1998 87.4254 25.1998 86.5254 24.5998C85.7254 23.9998 84.4253 23.7998 82.9253 23.7998H79.2253V24.4998H81.3253C81.6253 24.4998 82.1254 24.4998 82.6254 24.4998C84.3254 24.4998 86.0254 25.2998 86.0254 27.6998C86.0254 28.7998 85.7253 29.8998 84.7253 30.6998C84.1253 31.1998 83.4253 31.1998 82.4253 31.1998H79.2253V31.8998H82.3253C83.0253 31.8998 83.4253 32.0998 83.7253 32.6998C84.3253 33.7998 85.3254 35.3998 86.0254 36.3998C86.9254 37.5998 87.6253 38.3998 90.2253 38.4998H90.5254V38.0998C89.8254 37.9998 89.4253 37.5998 88.9253 37.0998Z" fill="white"/>
<path d="M38.8253 37.9L39.5254 37.8C40.3254 37.7 40.4253 37.5 40.2253 36.8C40.0253 36.3 39.4253 34.5 38.8253 32.9H34.2253C34.0253 33.5 33.4254 35.2 33.1254 36.2C32.7254 37.5 32.9253 37.8 33.9253 37.9L34.6254 38V38.5H29.8253V38C30.0253 38 30.2253 38 30.3253 37.9C31.3253 37.7 31.5253 37.4 32.2253 35.7L36.8253 23.7L37.3253 23.5L38.9253 27.8C40.0253 30.7 40.9253 33.5 41.8253 35.8C42.5253 37.7 42.8253 37.8 44.2253 38V38.5H38.8253V37.9ZM34.5254 32H38.5254L36.5254 26.5L34.5254 32Z" fill="white"/>
<path d="M12.3254 18.7002C13.1254 18.8002 13.6254 18.9002 14.3254 19.1002C18.0254 20.4002 20.2253 26.6002 13.4253 30.1002C13.4253 30.1002 13.1254 30.3002 13.0254 30.3002C12.8254 30.4002 12.5254 30.5002 12.3254 30.6002C8.02536 32.4002 5.52536 33.0002 4.32536 35.8002C2.92536 39.6002 5.92533 43.5002 12.4253 43.6002C11.6253 43.5002 11.1253 43.4002 10.4253 43.2002C6.72533 41.9002 4.52536 35.7002 11.3254 32.2002L11.7254 32.0002C11.9254 31.9002 12.2253 31.8002 12.4253 31.7002C16.7253 29.9002 19.2253 29.3002 20.4253 26.5002C21.8253 22.7002 18.9254 18.8002 12.3254 18.7002Z" fill="white"/>
<path d="M12.1253 19.9002C10.5253 19.1002 8.72531 19.1002 7.22531 19.8002C6.72531 20.0002 4.22526 21.2002 2.42526 23.7002C0.925263 25.7002 0.125361 28.0002 0.0253606 30.2002C-0.174639 33.4002 0.825263 36.2002 2.42526 38.4002C1.22526 36.7002 1.52534 34.0002 3.62534 32.6002C6.12534 30.9002 9.52526 30.5002 11.4253 29.8002C12.6253 29.4002 13.8253 28.5002 14.4253 27.2002C15.8253 24.6002 14.8253 21.3002 12.1253 19.9002Z" fill="white"/>
<path d="M22.4253 23.7998C23.6253 25.4998 23.3254 28.1998 21.2254 29.5998C18.7254 31.2998 15.3253 31.6998 13.4253 32.3998C12.1253 32.7998 11.0253 33.6998 10.4253 34.9998C9.02532 37.6998 10.0254 40.9998 12.6254 42.3998C14.2254 43.2998 16.0254 43.1998 17.5254 42.4998C18.0254 42.2998 20.5253 41.0998 22.3253 38.5998C23.8253 36.5998 24.6254 34.3998 24.7254 32.0998C25.0254 28.7998 24.0253 25.9998 22.4253 23.7998Z" fill="white"/>
</svg>
