<svg width="25" height="24" viewBox="0 0 25 24" fill="none" xmlns="http://www.w3.org/2000/svg">
<g clip-path="url(#clip0_335_325)">
<path d="M17.5 18C16.4 18 15.51 18.9 15.51 20C15.51 21.1 16.4 22 17.5 22C18.6 22 19.5 21.1 19.5 20C19.5 18.9 18.6 18 17.5 18ZM7.5 18C6.4 18 5.51 18.9 5.51 20C5.51 21.1 6.4 22 7.5 22C8.6 22 9.5 21.1 9.5 20C9.5 18.9 8.6 18 7.5 18ZM7.5 15L8.6 13H16.05C16.8 13 17.46 12.59 17.8 11.97L22.2 4H5.71L4.77 2H1.5V4H3.5L7.1 11.59L4.12 17H19.5V15H7.5Z" fill="white"/>
</g>
<defs>
<clipPath id="clip0_335_325">
<rect width="24" height="24" fill="white" transform="translate(0.5)"/>
</clipPath>
</defs>
</svg>
