<svg width="32" height="32" viewBox="0 0 32 32" fill="none" xmlns="http://www.w3.org/2000/svg">
<path d="M15.9997 6.66683C15.6219 6.66683 15.3055 6.53883 15.0503 6.28283C14.7943 6.02772 14.6663 5.71127 14.6663 5.3335V2.66683C14.6663 2.28905 14.7943 1.97216 15.0503 1.71616C15.3055 1.46105 15.6219 1.3335 15.9997 1.3335C16.3775 1.3335 16.6943 1.46105 16.9503 1.71616C17.2055 1.97216 17.333 2.28905 17.333 2.66683V5.3335C17.333 5.71127 17.2055 6.02772 16.9503 6.28283C16.6943 6.53883 16.3775 6.66683 15.9997 6.66683ZM22.5997 9.40016C22.3552 9.15572 22.233 8.84994 22.233 8.48283C22.233 8.11661 22.3552 7.80016 22.5997 7.5335L24.4663 5.6335C24.733 5.36683 25.0495 5.2335 25.4157 5.2335C25.7828 5.2335 26.0997 5.36683 26.3663 5.6335C26.6108 5.87794 26.733 6.18905 26.733 6.56683C26.733 6.94461 26.6108 7.25572 26.3663 7.50016L24.4663 9.40016C24.2219 9.64461 23.9108 9.76683 23.533 9.76683C23.1552 9.76683 22.8441 9.64461 22.5997 9.40016ZM26.6663 17.3335C26.2886 17.3335 25.9721 17.2055 25.717 16.9495C25.461 16.6944 25.333 16.3779 25.333 16.0002C25.333 15.6224 25.461 15.3055 25.717 15.0495C25.9721 14.7944 26.2886 14.6668 26.6663 14.6668H29.333C29.7108 14.6668 30.0272 14.7944 30.2823 15.0495C30.5383 15.3055 30.6663 15.6224 30.6663 16.0002C30.6663 16.3779 30.5383 16.6944 30.2823 16.9495C30.0272 17.2055 29.7108 17.3335 29.333 17.3335H26.6663ZM15.9997 30.6668C15.6219 30.6668 15.3055 30.5388 15.0503 30.2828C14.7943 30.0277 14.6663 29.7113 14.6663 29.3335V26.6668C14.6663 26.2891 14.7943 25.9726 15.0503 25.7175C15.3055 25.4615 15.6219 25.3335 15.9997 25.3335C16.3775 25.3335 16.6943 25.4615 16.9503 25.7175C17.2055 25.9726 17.333 26.2891 17.333 26.6668V29.3335C17.333 29.7113 17.2055 30.0277 16.9503 30.2828C16.6943 30.5388 16.3775 30.6668 15.9997 30.6668ZM7.53301 9.40016L5.63301 7.5335C5.36634 7.26683 5.23301 6.94461 5.23301 6.56683C5.23301 6.18905 5.36634 5.87794 5.63301 5.6335C5.87745 5.38905 6.18856 5.26683 6.56634 5.26683C6.94412 5.26683 7.25523 5.38905 7.49967 5.6335L9.39968 7.5335C9.64412 7.77794 9.76634 8.08905 9.76634 8.46683C9.76634 8.84461 9.64412 9.15572 9.39968 9.40016C9.13301 9.64461 8.8219 9.76683 8.46634 9.76683C8.11079 9.76683 7.79967 9.64461 7.53301 9.40016ZM24.4663 26.3668L22.5997 24.4668C22.3552 24.2002 22.233 23.8837 22.233 23.5175C22.233 23.1504 22.3552 22.8446 22.5997 22.6002C22.8441 22.3557 23.1499 22.2335 23.517 22.2335C23.8832 22.2335 24.1997 22.3557 24.4663 22.6002L26.3663 24.4668C26.633 24.7113 26.7606 25.0224 26.749 25.4002C26.7383 25.7779 26.6108 26.1002 26.3663 26.3668C26.0997 26.6335 25.7775 26.7668 25.3997 26.7668C25.0219 26.7668 24.7108 26.6335 24.4663 26.3668ZM2.66634 17.3335C2.28856 17.3335 1.97212 17.2055 1.71701 16.9495C1.46101 16.6944 1.33301 16.3779 1.33301 16.0002C1.33301 15.6224 1.46101 15.3055 1.71701 15.0495C1.97212 14.7944 2.28856 14.6668 2.66634 14.6668H5.33301C5.71079 14.6668 6.02767 14.7944 6.28367 15.0495C6.53879 15.3055 6.66634 15.6224 6.66634 16.0002C6.66634 16.3779 6.53879 16.6944 6.28367 16.9495C6.02767 17.2055 5.71079 17.3335 5.33301 17.3335H2.66634ZM5.63301 26.3668C5.38856 26.1224 5.26634 25.8113 5.26634 25.4335C5.26634 25.0557 5.38856 24.7446 5.63301 24.5002L7.53301 22.6002C7.77745 22.3557 8.08323 22.2335 8.45034 22.2335C8.81656 22.2335 9.13301 22.3557 9.39968 22.6002C9.66634 22.8668 9.79967 23.1837 9.79967 23.5508C9.79967 23.9171 9.66634 24.2335 9.39968 24.5002L7.53301 26.3668C7.26634 26.6335 6.94412 26.7668 6.56634 26.7668C6.18856 26.7668 5.87745 26.6335 5.63301 26.3668ZM15.9997 24.0002C13.7775 24.0002 11.8886 23.2224 10.333 21.6668C8.77745 20.1113 7.99967 18.2224 7.99967 16.0002C7.99967 13.7779 8.77745 11.8891 10.333 10.3335C11.8886 8.77794 13.7775 8.00016 15.9997 8.00016C18.2219 8.00016 20.1108 8.77794 21.6663 10.3335C23.2219 11.8891 23.9997 13.7779 23.9997 16.0002C23.9997 18.2224 23.2219 20.1113 21.6663 21.6668C20.1108 23.2224 18.2219 24.0002 15.9997 24.0002ZM15.9997 21.3335C17.4663 21.3335 18.7219 20.8113 19.7663 19.7668C20.8108 18.7224 21.333 17.4668 21.333 16.0002C21.333 14.5335 20.8108 13.2779 19.7663 12.2335C18.7219 11.1891 17.4663 10.6668 15.9997 10.6668C14.533 10.6668 13.2775 11.1891 12.233 12.2335C11.1886 13.2779 10.6663 14.5335 10.6663 16.0002C10.6663 17.4668 11.1886 18.7224 12.233 19.7668C13.2775 20.8113 14.533 21.3335 15.9997 21.3335Z" fill="#647362"/>
</svg>
