<svg width="32" height="32" viewBox="0 0 32 32" fill="none" xmlns="http://www.w3.org/2000/svg">
<path d="M9.33301 17.7668C8.95523 17.7668 8.63834 17.6388 8.38234 17.3828C8.12723 17.1277 7.99967 16.8113 7.99967 16.4335V16.0002C7.99967 13.7779 8.77745 11.8891 10.333 10.3335C11.8886 8.77794 13.7775 8.00016 15.9997 8.00016C18.2219 8.00016 20.1108 8.77794 21.6663 10.3335C23.2219 11.8891 23.9997 13.7779 23.9997 16.0002V16.4335C23.9997 16.8113 23.8717 17.1277 23.6157 17.3828C23.3606 17.6388 23.0441 17.7668 22.6663 17.7668C22.2886 17.7668 21.9721 17.6388 21.717 17.3828C21.461 17.1277 21.333 16.8113 21.333 16.4335V16.0002C21.333 14.5335 20.8108 13.2779 19.7663 12.2335C18.7219 11.1891 17.4663 10.6668 15.9997 10.6668C14.533 10.6668 13.2775 11.1891 12.233 12.2335C11.1886 13.2779 10.6663 14.5335 10.6663 16.0002V16.4335C10.6663 16.8113 10.5388 17.1277 10.2837 17.3828C10.0277 17.6388 9.71079 17.7668 9.33301 17.7668ZM7.99967 25.3335C7.6219 25.3335 7.30501 25.2055 7.04901 24.9495C6.7939 24.6944 6.66634 24.3779 6.66634 24.0002C6.66634 23.6224 6.7939 23.3059 7.04901 23.0508C7.30501 22.7948 7.6219 22.6668 7.99967 22.6668C8.37745 22.6668 8.69434 22.7948 8.95034 23.0508C9.20545 23.3059 9.33301 23.6224 9.33301 24.0002C9.33301 24.3779 9.20545 24.6944 8.95034 24.9495C8.69434 25.2055 8.37745 25.3335 7.99967 25.3335ZM23.9997 25.3335C23.6219 25.3335 23.3055 25.2055 23.0503 24.9495C22.7943 24.6944 22.6663 24.3779 22.6663 24.0002C22.6663 23.6224 22.7943 23.3059 23.0503 23.0508C23.3055 22.7948 23.6219 22.6668 23.9997 22.6668C24.3775 22.6668 24.6939 22.7948 24.949 23.0508C25.205 23.3059 25.333 23.6224 25.333 24.0002C25.333 24.3779 25.205 24.6944 24.949 24.9495C24.6939 25.2055 24.3775 25.3335 23.9997 25.3335ZM11.9997 30.6668C11.6219 30.6668 11.3055 30.5388 11.0503 30.2828C10.7943 30.0277 10.6663 29.7113 10.6663 29.3335C10.6663 28.9557 10.7943 28.6393 11.0503 28.3842C11.3055 28.1282 11.6219 28.0002 11.9997 28.0002C12.3775 28.0002 12.6943 28.1282 12.9503 28.3842C13.2055 28.6393 13.333 28.9557 13.333 29.3335C13.333 29.7113 13.2055 30.0277 12.9503 30.2828C12.6943 30.5388 12.3775 30.6668 11.9997 30.6668ZM15.9997 25.3335C15.6219 25.3335 15.3055 25.2055 15.0503 24.9495C14.7943 24.6944 14.6663 24.3779 14.6663 24.0002C14.6663 23.6224 14.7943 23.3059 15.0503 23.0508C15.3055 22.7948 15.6219 22.6668 15.9997 22.6668C16.3775 22.6668 16.6943 22.7948 16.9503 23.0508C17.2055 23.3059 17.333 23.6224 17.333 24.0002C17.333 24.3779 17.2055 24.6944 16.9503 24.9495C16.6943 25.2055 16.3775 25.3335 15.9997 25.3335ZM19.9997 30.6668C19.6219 30.6668 19.3055 30.5388 19.0503 30.2828C18.7943 30.0277 18.6663 29.7113 18.6663 29.3335C18.6663 28.9557 18.7943 28.6393 19.0503 28.3842C19.3055 28.1282 19.6219 28.0002 19.9997 28.0002C20.3775 28.0002 20.6943 28.1282 20.9503 28.3842C21.2055 28.6393 21.333 28.9557 21.333 29.3335C21.333 29.7113 21.2055 30.0277 20.9503 30.2828C20.6943 30.5388 20.3775 30.6668 19.9997 30.6668ZM15.9997 6.66683C15.6219 6.66683 15.3055 6.53883 15.0503 6.28283C14.7943 6.02772 14.6663 5.71127 14.6663 5.3335V2.66683C14.6663 2.28905 14.7943 1.97216 15.0503 1.71616C15.3055 1.46105 15.6219 1.3335 15.9997 1.3335C16.3775 1.3335 16.6943 1.46105 16.9503 1.71616C17.2055 1.97216 17.333 2.28905 17.333 2.66683V5.3335C17.333 5.71127 17.2055 6.02772 16.9503 6.28283C16.6943 6.53883 16.3775 6.66683 15.9997 6.66683ZM22.5997 9.40016C22.3552 9.15572 22.233 8.84994 22.233 8.48283C22.233 8.11661 22.3552 7.80016 22.5997 7.5335L24.4663 5.6335C24.733 5.36683 25.0495 5.2335 25.4157 5.2335C25.7828 5.2335 26.0997 5.36683 26.3663 5.6335C26.6108 5.87794 26.733 6.18905 26.733 6.56683C26.733 6.94461 26.6108 7.25572 26.3663 7.50016L24.4663 9.40016C24.2219 9.64461 23.9108 9.76683 23.533 9.76683C23.1552 9.76683 22.8441 9.64461 22.5997 9.40016ZM26.6663 17.3335C26.2886 17.3335 25.9721 17.2055 25.717 16.9495C25.461 16.6944 25.333 16.3779 25.333 16.0002C25.333 15.6224 25.461 15.3055 25.717 15.0495C25.9721 14.7944 26.2886 14.6668 26.6663 14.6668H29.333C29.7108 14.6668 30.0272 14.7944 30.2823 15.0495C30.5383 15.3055 30.6663 15.6224 30.6663 16.0002C30.6663 16.3779 30.5383 16.6944 30.2823 16.9495C30.0272 17.2055 29.7108 17.3335 29.333 17.3335H26.6663ZM7.53301 9.40016L5.63301 7.5335C5.36634 7.26683 5.23301 6.94461 5.23301 6.56683C5.23301 6.18905 5.36634 5.87794 5.63301 5.6335C5.87745 5.38905 6.18856 5.26683 6.56634 5.26683C6.94412 5.26683 7.25523 5.38905 7.49967 5.6335L9.39968 7.5335C9.64412 7.77794 9.76634 8.08905 9.76634 8.46683C9.76634 8.84461 9.64412 9.15572 9.39968 9.40016C9.13301 9.64461 8.8219 9.76683 8.46634 9.76683C8.11079 9.76683 7.79967 9.64461 7.53301 9.40016ZM2.66634 17.3335C2.28856 17.3335 1.97212 17.2055 1.71701 16.9495C1.46101 16.6944 1.33301 16.3779 1.33301 16.0002C1.33301 15.6224 1.46101 15.3055 1.71701 15.0495C1.97212 14.7944 2.28856 14.6668 2.66634 14.6668H5.33301C5.71079 14.6668 6.02767 14.7944 6.28367 15.0495C6.53879 15.3055 6.66634 15.6224 6.66634 16.0002C6.66634 16.3779 6.53879 16.6944 6.28367 16.9495C6.02767 17.2055 5.71079 17.3335 5.33301 17.3335H2.66634Z" fill="#647362"/>
</svg>
