<svg width="1182" height="53" viewBox="0 0 1182 53" fill="none" xmlns="http://www.w3.org/2000/svg">
<path d="M17.719 38.3624V43.5284C16.375 44.3264 14.842 44.7254 13.12 44.7254C4.636 44.7254 0.394 37.7744 0.394 23.8724C0.394 9.00444 4.594 1.57044 12.994 1.57044C14.632 1.57044 16.207 1.99044 17.719 2.83045V7.93344C16.417 7.21945 15.199 6.86245 14.065 6.86245C12.847 6.86245 11.776 7.13545 10.852 7.68144C9.928 8.22744 9.193 9.02545 8.647 10.0754C8.143 11.1254 7.723 12.1544 7.387 13.1624C7.051 14.1704 6.82 15.4304 6.694 16.9424C6.568 18.4124 6.484 19.5674 6.442 20.4074C6.4 21.2474 6.379 22.2974 6.379 23.5574C6.379 33.9734 9.046 39.1814 14.38 39.1814C15.514 39.1814 16.627 38.9084 17.719 38.3624ZM40.5826 44.1584H34.9756L33.4006 35.9684H25.0846L23.5096 44.1584H18.0286L27.1636 2.13744H31.6366L40.5826 44.1584ZM25.9036 31.6214H32.5816C30.9016 22.2554 29.8096 15.1574 29.3056 10.3274C28.8856 14.6534 27.7516 21.7514 25.9036 31.6214ZM69.7737 44.1584H64.2927C63.6627 34.5824 63.3057 28.7654 63.2217 26.7074C63.2217 26.0774 63.1797 25.1534 63.0957 23.9354C63.0117 22.6754 62.9697 21.7304 62.9697 21.1004C62.9277 20.3864 62.9067 19.7354 62.9067 19.1474C62.9487 18.5594 62.9487 17.9084 62.9067 17.1944C62.9067 16.4804 62.8647 15.8294 62.7807 15.2414C62.4027 17.7194 60.6177 27.3584 57.4257 44.1584H53.6457C53.3937 42.8984 52.8897 40.5884 52.1337 37.2284C51.4197 33.8264 50.8737 31.2644 50.4957 29.5424C50.1597 27.7784 49.7397 25.5314 49.2357 22.8014C48.7737 20.0294 48.3957 17.5094 48.1017 15.2414L46.4637 44.1584H41.1717L44.6367 2.13744H49.4877L53.1417 19.2734C53.1837 19.6094 53.2887 20.1134 53.4567 20.7854C53.6667 21.4574 53.7927 21.9614 53.8347 22.2974C54.3807 25.3214 54.9057 28.7234 55.4097 32.5034C55.4097 32.4194 55.7247 30.4454 56.3547 26.5814C56.4387 26.0774 56.5437 25.3214 56.6697 24.3134C56.8377 23.2634 56.9637 22.4864 57.0477 21.9824C57.1317 21.6464 57.2367 21.1634 57.3627 20.5334C57.5307 19.8614 57.6357 19.3574 57.6777 19.0214L60.9537 2.13744H65.8677L69.7737 44.1584ZM94.1488 23.1794C94.1488 25.9514 94.0858 28.3034 93.9598 30.2354C93.8338 32.1254 93.4348 34.2884 92.7628 36.7244C92.1328 39.1184 91.2088 40.9244 89.9908 42.1424C88.2688 43.8644 86.0218 44.7254 83.2498 44.7254C80.4358 44.7254 78.1678 43.8644 76.4458 42.1424C73.6738 39.3284 72.2878 33.0494 72.2878 23.3054C72.2878 21.2474 72.3088 19.5044 72.3508 18.0764C72.4348 16.6064 72.6028 14.9054 72.8548 12.9734C73.1068 11.0414 73.5268 9.34045 74.1148 7.87045C74.7448 6.35844 75.5218 5.14045 76.4458 4.21645C78.1678 2.49445 80.4358 1.63345 83.2498 1.63345C86.0218 1.63345 88.2688 2.49445 89.9908 4.21645C91.7128 5.93844 92.8258 8.43744 93.3298 11.7134C93.8758 14.9894 94.1488 18.8114 94.1488 23.1794ZM78.2098 24.1874C78.2098 32.1674 78.9868 36.9344 80.5408 38.4884C81.2128 39.1604 82.1158 39.4964 83.2498 39.4964C84.3418 39.4964 85.2238 39.1604 85.8958 38.4884C87.4498 36.9344 88.2268 32.1674 88.2268 24.1874V21.0374C88.2268 13.6454 87.4498 9.21445 85.8958 7.74445C85.2238 7.07245 84.3418 6.73644 83.2498 6.73644C82.1158 6.73644 81.2128 7.07245 80.5408 7.74445C78.9868 9.21445 78.2098 13.6454 78.2098 21.0374V24.1874ZM101.573 2.13744H119.717V44.1584H114.047V6.92545H106.928V28.3454C106.928 32.2094 106.802 34.8554 106.55 36.2834C106.046 39.1814 105.185 41.2604 103.967 42.5204C102.623 43.9064 100.88 44.5994 98.7385 44.5994C97.4785 44.5994 96.4075 44.4104 95.5255 44.0324V38.2994C96.1135 38.9294 96.8905 39.2444 97.8565 39.2444C98.6965 39.2444 99.3895 38.9714 99.9355 38.4254C100.649 37.7114 101.09 36.6194 101.258 35.1494C101.468 33.6794 101.573 31.6004 101.573 28.9124V2.13744ZM130.582 44.1584H124.912V2.13744H130.582V44.1584ZM155.742 44.1584H149.379L141.504 23.5574V44.1584H135.834V2.13744H141.504V21.4154L149.379 2.13744H155.112L146.607 22.4864L155.742 44.1584ZM155.305 2.13744H161.227L163.81 12.0284C165.028 16.8584 165.868 20.5334 166.33 23.0534C167.128 18.7694 167.926 15.0524 168.724 11.9024L171.244 2.13744H176.914L165.385 44.1584H159.841L163.684 30.7394L155.305 2.13744ZM179.395 2.13744H187.081C193.087 2.13744 196.09 5.87544 196.09 13.3514C196.09 16.3334 195.565 18.6224 194.515 20.2184C193.801 21.3524 192.562 22.2134 190.798 22.8014C192.52 23.4314 193.759 24.1664 194.515 25.0064C195.985 26.5604 196.72 29.1014 196.72 32.6294C196.72 40.3154 193.423 44.1584 186.829 44.1584H179.395V2.13744ZM184.75 20.6594H185.128C187.354 20.6594 188.824 20.0504 189.538 18.8324C190.252 17.5724 190.609 15.7454 190.609 13.3514C190.609 8.94145 188.971 6.73644 185.695 6.73644H184.75V20.6594ZM184.75 25.1324V39.3074C186.388 39.3074 187.564 39.1394 188.278 38.8034C190 38.0054 190.861 35.8844 190.861 32.4404C190.861 29.9204 190.441 28.0724 189.601 26.8964C188.803 25.7204 187.186 25.1324 184.75 25.1324ZM220.487 44.1584H214.88L213.305 35.9684H204.989L203.414 44.1584H197.933L207.068 2.13744H211.541L220.487 44.1584ZM205.808 31.6214H212.486C210.806 22.2554 209.714 15.1574 209.21 10.3274C208.79 14.6534 207.656 21.7514 205.808 31.6214ZM242.181 44.1584H236.511V23.3684H228.195V44.1584H222.525V2.13744H228.195V18.5804H236.511V2.13744H242.181V44.1584ZM267.007 44.1584H261.337V23.3684H253.021V44.1584H247.351V2.13744H253.021V18.5804H261.337V2.13744H267.007V44.1584ZM270.224 44.1584L277.091 24.6914C275.453 24.4394 274.067 23.7464 272.933 22.6124C271.169 20.8904 270.287 18.0554 270.287 14.1074C270.287 9.44545 271.379 6.12745 273.563 4.15344C274.235 3.52344 275.033 3.06145 275.957 2.76745C276.881 2.43145 277.637 2.24245 278.225 2.20045C278.813 2.15844 279.632 2.13744 280.682 2.13744H288.179V44.1584H282.509V25.0064L276.02 44.1584H270.224ZM282.509 6.79944H280.997C279.527 6.79944 278.393 7.13544 277.595 7.80745C276.377 8.89945 275.768 10.9574 275.768 13.9814C275.768 17.0054 276.419 18.9794 277.721 19.9034C278.561 20.5754 279.863 20.9114 281.627 20.9114H282.509V6.79944ZM333.97 44.1584H328.489C327.859 34.5824 327.502 28.7654 327.418 26.7074C327.418 26.0774 327.376 25.1534 327.292 23.9354C327.208 22.6754 327.166 21.7304 327.166 21.1004C327.124 20.3864 327.103 19.7354 327.103 19.1474C327.145 18.5594 327.145 17.9084 327.103 17.1944C327.103 16.4804 327.061 15.8294 326.977 15.2414C326.599 17.7194 324.814 27.3584 321.622 44.1584H317.842C317.59 42.8984 317.086 40.5884 316.33 37.2284C315.616 33.8264 315.07 31.2644 314.692 29.5424C314.356 27.7784 313.936 25.5314 313.432 22.8014C312.97 20.0294 312.592 17.5094 312.298 15.2414L310.66 44.1584H305.368L308.833 2.13744H313.684L317.338 19.2734C317.38 19.6094 317.485 20.1134 317.653 20.7854C317.863 21.4574 317.989 21.9614 318.031 22.2974C318.577 25.3214 319.102 28.7234 319.606 32.5034C319.606 32.4194 319.921 30.4454 320.551 26.5814C320.635 26.0774 320.74 25.3214 320.866 24.3134C321.034 23.2634 321.16 22.4864 321.244 21.9824C321.328 21.6464 321.433 21.1634 321.559 20.5334C321.727 19.8614 321.832 19.3574 321.874 19.0214L325.15 2.13744H330.064L333.97 44.1584ZM358.345 23.1794C358.345 25.9514 358.282 28.3034 358.156 30.2354C358.03 32.1254 357.631 34.2884 356.959 36.7244C356.329 39.1184 355.405 40.9244 354.187 42.1424C352.465 43.8644 350.218 44.7254 347.446 44.7254C344.632 44.7254 342.364 43.8644 340.642 42.1424C337.87 39.3284 336.484 33.0494 336.484 23.3054C336.484 21.2474 336.505 19.5044 336.547 18.0764C336.631 16.6064 336.799 14.9054 337.051 12.9734C337.303 11.0414 337.723 9.34045 338.311 7.87045C338.941 6.35844 339.718 5.14045 340.642 4.21645C342.364 2.49445 344.632 1.63345 347.446 1.63345C350.218 1.63345 352.465 2.49445 354.187 4.21645C355.909 5.93844 357.022 8.43744 357.526 11.7134C358.072 14.9894 358.345 18.8114 358.345 23.1794ZM342.406 24.1874C342.406 32.1674 343.183 36.9344 344.737 38.4884C345.409 39.1604 346.312 39.4964 347.446 39.4964C348.538 39.4964 349.42 39.1604 350.092 38.4884C351.646 36.9344 352.423 32.1674 352.423 24.1874V21.0374C352.423 13.6454 351.646 9.21445 350.092 7.74445C349.42 7.07245 348.538 6.73644 347.446 6.73644C346.312 6.73644 345.409 7.07245 344.737 7.74445C343.183 9.21445 342.406 13.6454 342.406 21.0374V24.1874ZM390.74 44.1584H384.881L377.573 23.4314V44.1584H372.029V23.4314L364.721 44.1584H358.862L367.178 22.4864L359.24 2.13744H364.721L372.029 21.5414V2.13744H377.573V21.5414L384.881 2.13744H390.362L382.424 22.4864L390.74 44.1584ZM408.041 44.1584H392.984V2.13744H408.041V6.92545H398.654V20.2814H406.97V25.0694H398.654V39.3704H408.041V44.1584ZM425.41 2.13744H440.845V6.92545H431.08V20.1554H432.025C435.721 20.1554 438.472 21.0794 440.278 22.9274C442.168 24.8594 443.113 28.0304 443.113 32.4404C443.113 36.7664 442.189 39.8534 440.341 41.7014C438.703 43.3394 436.33 44.1584 433.222 44.1584H425.41V2.13744ZM431.08 24.9434V39.3704H431.458C433.474 39.3704 434.902 38.9714 435.742 38.1734C436.75 37.2074 437.254 35.2754 437.254 32.3774C437.254 29.3114 436.687 27.2534 435.553 26.2034C434.587 25.3634 433.201 24.9434 431.395 24.9434H431.08ZM442.359 2.13744H448.281L450.864 12.0284C452.082 16.8584 452.922 20.5334 453.384 23.0534C454.182 18.7694 454.98 15.0524 455.778 11.9024L458.298 2.13744H463.968L452.439 44.1584H446.895L450.738 30.7394L442.359 2.13744ZM483.474 7.11445H477.048V44.1584H471.504V7.11445H465.078V2.13744H483.474V7.11445ZM485.306 44.1584V2.13744H490.85V19.3364C490.85 24.2084 490.451 29.1434 489.653 34.1414C490.115 32.6294 490.703 30.5924 491.417 28.0304C492.131 25.4264 492.782 23.2424 493.37 21.4784L499.67 2.13744H504.71V44.1584H499.166V25.4474C499.166 22.7594 499.544 18.2024 500.3 11.7764C498.242 19.1684 497.171 22.9694 497.087 23.1794L490.346 44.1584H485.306ZM523.33 2.13744H528.874V39.3704H536.56V2.13744H542.104V39.3704H549.79V2.13744H555.334V44.1584H523.33V2.13744ZM580.431 44.1584H574.068L566.193 23.5574V44.1584H560.523V2.13744H566.193V21.4154L574.068 2.13744H579.801L571.296 22.4864L580.431 44.1584ZM588.373 44.1584H582.703V2.13744H588.373V44.1584ZM596.334 2.13744H614.352V39.3704H617.691V52.3484H612.525V44.1584H595.83V52.3484H590.664V39.3704C592.218 38.5724 593.436 37.4804 594.318 36.0944C595.662 33.9944 596.334 30.1304 596.334 24.5024V2.13744ZM601.626 6.92545V22.6124C601.626 28.1144 601.29 31.9784 600.618 34.2044C599.988 36.2624 598.875 37.9844 597.279 39.3704H608.682V6.92545H601.626ZM625.414 2.13744H643.558V44.1584H637.888V6.92545H630.769V28.3454C630.769 32.2094 630.643 34.8554 630.391 36.2834C629.887 39.1814 629.026 41.2604 627.808 42.5204C626.464 43.9064 624.721 44.5994 622.579 44.5994C621.319 44.5994 620.248 44.4104 619.366 44.0324V38.2994C619.954 38.9294 620.731 39.2444 621.697 39.2444C622.537 39.2444 623.23 38.9714 623.776 38.4254C624.49 37.7114 624.931 36.6194 625.099 35.1494C625.309 33.6794 625.414 31.6004 625.414 28.9124V2.13744ZM648.752 44.1584V2.13744H654.296V19.3364C654.296 24.2084 653.897 29.1434 653.099 34.1414C653.561 32.6294 654.149 30.5924 654.863 28.0304C655.577 25.4264 656.228 23.2424 656.816 21.4784L663.116 2.13744H668.156V44.1584H662.612V25.4474C662.612 22.7594 662.99 18.2024 663.746 11.7764C661.688 19.1684 660.617 22.9694 660.533 23.1794L653.792 44.1584H648.752ZM673.332 2.13744H681.018C687.024 2.13744 690.027 5.87544 690.027 13.3514C690.027 16.3334 689.502 18.6224 688.452 20.2184C687.738 21.3524 686.499 22.2134 684.735 22.8014C686.457 23.4314 687.696 24.1664 688.452 25.0064C689.922 26.5604 690.657 29.1014 690.657 32.6294C690.657 40.3154 687.36 44.1584 680.766 44.1584H673.332V2.13744ZM678.687 20.6594H679.065C681.291 20.6594 682.761 20.0504 683.475 18.8324C684.189 17.5724 684.546 15.7454 684.546 13.3514C684.546 8.94145 682.908 6.73644 679.632 6.73644H678.687V20.6594ZM678.687 25.1324V39.3074C680.325 39.3074 681.501 39.1394 682.215 38.8034C683.937 38.0054 684.798 35.8844 684.798 32.4404C684.798 29.9204 684.378 28.0724 683.538 26.8964C682.74 25.7204 681.123 25.1324 678.687 25.1324ZM695.02 44.1584V2.13744H700.564V19.3364C700.564 24.2084 700.165 29.1434 699.367 34.1414C699.829 32.6294 700.417 30.5924 701.131 28.0304C701.845 25.4264 702.496 23.2424 703.084 21.4784L709.384 2.13744H714.424V44.1584H708.88V25.4474C708.88 22.7594 709.258 18.2024 710.014 11.7764C707.956 19.1684 706.885 22.9694 706.801 23.1794L700.06 44.1584H695.02ZM746.753 44.1584H741.272C740.642 34.5824 740.285 28.7654 740.201 26.7074C740.201 26.0774 740.159 25.1534 740.075 23.9354C739.991 22.6754 739.949 21.7304 739.949 21.1004C739.907 20.3864 739.886 19.7354 739.886 19.1474C739.928 18.5594 739.928 17.9084 739.886 17.1944C739.886 16.4804 739.844 15.8294 739.76 15.2414C739.382 17.7194 737.597 27.3584 734.405 44.1584H730.625C730.373 42.8984 729.869 40.5884 729.113 37.2284C728.399 33.8264 727.853 31.2644 727.475 29.5424C727.139 27.7784 726.719 25.5314 726.215 22.8014C725.753 20.0294 725.375 17.5094 725.081 15.2414L723.443 44.1584H718.151L721.616 2.13744H726.467L730.121 19.2734C730.163 19.6094 730.268 20.1134 730.436 20.7854C730.646 21.4574 730.772 21.9614 730.814 22.2974C731.36 25.3214 731.885 28.7234 732.389 32.5034C732.389 32.4194 732.704 30.4454 733.334 26.5814C733.418 26.0774 733.523 25.3214 733.649 24.3134C733.817 23.2634 733.943 22.4864 734.027 21.9824C734.111 21.6464 734.216 21.1634 734.342 20.5334C734.51 19.8614 734.615 19.3574 734.657 19.0214L737.933 2.13744H742.847L746.753 44.1584ZM766.239 2.13744H784.257V39.3704H787.596V52.3484H782.43V44.1584H765.735V52.3484H760.569V39.3704C762.123 38.5724 763.341 37.4804 764.223 36.0944C765.567 33.9944 766.239 30.1304 766.239 24.5024V2.13744ZM771.531 6.92545V22.6124C771.531 28.1144 771.195 31.9784 770.523 34.2044C769.893 36.2624 768.78 37.9844 767.184 39.3704H778.587V6.92545H771.531ZM795.319 2.13744H813.463V44.1584H807.793V6.92545H800.674V28.3454C800.674 32.2094 800.548 34.8554 800.296 36.2834C799.792 39.1814 798.931 41.2604 797.713 42.5204C796.369 43.9064 794.626 44.5994 792.484 44.5994C791.224 44.5994 790.153 44.4104 789.271 44.0324V38.2994C789.859 38.9294 790.636 39.2444 791.602 39.2444C792.442 39.2444 793.135 38.9714 793.681 38.4254C794.395 37.7114 794.836 36.6194 795.004 35.1494C795.214 33.6794 795.319 31.6004 795.319 28.9124V2.13744ZM816.705 44.1584L823.572 24.6914C821.934 24.4394 820.548 23.7464 819.414 22.6124C817.65 20.8904 816.768 18.0554 816.768 14.1074C816.768 9.44545 817.86 6.12745 820.044 4.15344C820.716 3.52344 821.514 3.06145 822.438 2.76745C823.362 2.43145 824.118 2.24245 824.706 2.20045C825.294 2.15844 826.113 2.13744 827.163 2.13744H834.66V44.1584H828.99V25.0064L822.501 44.1584H816.705ZM828.99 6.79944H827.478C826.008 6.79944 824.874 7.13544 824.076 7.80745C822.858 8.89945 822.249 10.9574 822.249 13.9814C822.249 17.0054 822.9 18.9794 824.202 19.9034C825.042 20.5754 826.344 20.9114 828.108 20.9114H828.99V6.79944ZM853.298 2.13744H860.984C866.99 2.13744 869.993 5.87544 869.993 13.3514C869.993 16.3334 869.468 18.6224 868.418 20.2184C867.704 21.3524 866.465 22.2134 864.701 22.8014C866.423 23.4314 867.662 24.1664 868.418 25.0064C869.888 26.5604 870.623 29.1014 870.623 32.6294C870.623 40.3154 867.326 44.1584 860.732 44.1584H853.298V2.13744ZM858.653 20.6594H859.031C861.257 20.6594 862.727 20.0504 863.441 18.8324C864.155 17.5724 864.512 15.7454 864.512 13.3514C864.512 8.94145 862.874 6.73644 859.598 6.73644H858.653V20.6594ZM858.653 25.1324V39.3074C860.291 39.3074 861.467 39.1394 862.181 38.8034C863.903 38.0054 864.764 35.8844 864.764 32.4404C864.764 29.9204 864.344 28.0724 863.504 26.8964C862.706 25.7204 861.089 25.1324 858.653 25.1324ZM894.39 44.1584H888.783L887.208 35.9684H878.892L877.317 44.1584H871.836L880.971 2.13744H885.444L894.39 44.1584ZM879.711 31.6214H886.389C884.709 22.2554 883.617 15.1574 883.113 10.3274C882.693 14.6534 881.559 21.7514 879.711 31.6214ZM896.428 2.13744H901.972V39.3704H909.658V2.13744H915.202V39.3704H922.888V2.13744H928.432V44.1584H896.428V2.13744ZM954.662 23.1794C954.662 25.9514 954.599 28.3034 954.473 30.2354C954.347 32.1254 953.948 34.2884 953.276 36.7244C952.646 39.1184 951.722 40.9244 950.504 42.1424C948.782 43.8644 946.535 44.7254 943.763 44.7254C940.949 44.7254 938.681 43.8644 936.959 42.1424C934.187 39.3284 932.801 33.0494 932.801 23.3054C932.801 21.2474 932.822 19.5044 932.864 18.0764C932.948 16.6064 933.116 14.9054 933.368 12.9734C933.62 11.0414 934.04 9.34045 934.628 7.87045C935.258 6.35844 936.035 5.14045 936.959 4.21645C938.681 2.49445 940.949 1.63345 943.763 1.63345C946.535 1.63345 948.782 2.49445 950.504 4.21645C952.226 5.93844 953.339 8.43744 953.843 11.7134C954.389 14.9894 954.662 18.8114 954.662 23.1794ZM938.723 24.1874C938.723 32.1674 939.5 36.9344 941.054 38.4884C941.726 39.1604 942.629 39.4964 943.763 39.4964C944.855 39.4964 945.737 39.1604 946.409 38.4884C947.963 36.9344 948.74 32.1674 948.74 24.1874V21.0374C948.74 13.6454 947.963 9.21445 946.409 7.74445C945.737 7.07245 944.855 6.73644 943.763 6.73644C942.629 6.73644 941.726 7.07245 941.054 7.74445C939.5 9.21445 938.723 13.6454 938.723 21.0374V24.1874ZM974.12 6.92545H964.67V44.1584H959V2.13744H974.12V6.92545ZM995.639 23.1794C995.639 25.9514 995.576 28.3034 995.45 30.2354C995.324 32.1254 994.925 34.2884 994.253 36.7244C993.623 39.1184 992.699 40.9244 991.481 42.1424C989.759 43.8644 987.512 44.7254 984.74 44.7254C981.926 44.7254 979.658 43.8644 977.936 42.1424C975.164 39.3284 973.778 33.0494 973.778 23.3054C973.778 21.2474 973.799 19.5044 973.841 18.0764C973.925 16.6064 974.093 14.9054 974.345 12.9734C974.597 11.0414 975.017 9.34045 975.605 7.87045C976.235 6.35844 977.012 5.14045 977.936 4.21645C979.658 2.49445 981.926 1.63345 984.74 1.63345C987.512 1.63345 989.759 2.49445 991.481 4.21645C993.203 5.93844 994.316 8.43744 994.82 11.7134C995.366 14.9894 995.639 18.8114 995.639 23.1794ZM979.7 24.1874C979.7 32.1674 980.477 36.9344 982.031 38.4884C982.703 39.1604 983.606 39.4964 984.74 39.4964C985.832 39.4964 986.714 39.1604 987.386 38.4884C988.94 36.9344 989.717 32.1674 989.717 24.1874V21.0374C989.717 13.6454 988.94 9.21445 987.386 7.74445C986.714 7.07245 985.832 6.73644 984.74 6.73644C983.606 6.73644 982.703 7.07245 982.031 7.74445C980.477 9.21445 979.7 13.6454 979.7 21.0374V24.1874ZM1016.26 20.0294H1016.89C1019.03 20.0294 1020.65 19.5464 1021.74 18.5804C1022.91 17.5724 1023.5 15.9344 1023.5 13.6664C1023.5 11.3144 1022.98 9.55045 1021.93 8.37445C1021 7.36645 1019.76 6.86245 1018.21 6.86245C1016.15 6.86245 1014.37 7.80745 1012.85 9.69744V3.83844C1014.7 2.36845 1016.87 1.63345 1019.34 1.63345C1022.2 1.63345 1024.45 2.41045 1026.08 3.96445C1028.14 5.93845 1029.17 8.92045 1029.17 12.9104C1029.17 16.1444 1028.42 18.5594 1026.9 20.1554C1026.02 21.0794 1025.03 21.6674 1023.94 21.9194C1025.29 22.1294 1026.53 22.7384 1027.66 23.7464C1029.51 25.5104 1030.43 28.1984 1030.43 31.8104C1030.43 36.2204 1029.21 39.6014 1026.78 41.9534C1024.89 43.8014 1022.37 44.7254 1019.22 44.7254C1016.53 44.7254 1014.32 43.9904 1012.6 42.5204V36.5984C1014.37 38.4044 1016.34 39.3074 1018.52 39.3074C1020.2 39.3074 1021.57 38.8244 1022.62 37.8584C1023.92 36.6404 1024.57 34.6664 1024.57 31.9364C1024.57 29.2904 1023.94 27.4004 1022.68 26.2664C1021.63 25.3004 1019.93 24.8174 1017.58 24.8174H1016.26V20.0294ZM1037.26 2.13744H1055.28V39.3704H1058.62V52.3484H1053.46V44.1584H1036.76V52.3484H1031.59V39.3704C1033.15 38.5724 1034.37 37.4804 1035.25 36.0944C1036.59 33.9944 1037.26 30.1304 1037.26 24.5024V2.13744ZM1042.56 6.92545V22.6124C1042.56 28.1144 1042.22 31.9784 1041.55 34.2044C1040.92 36.2624 1039.81 37.9844 1038.21 39.3704H1049.61V6.92545H1042.56ZM1082.27 23.1794C1082.27 25.9514 1082.21 28.3034 1082.08 30.2354C1081.95 32.1254 1081.56 34.2884 1080.88 36.7244C1080.25 39.1184 1079.33 40.9244 1078.11 42.1424C1076.39 43.8644 1074.14 44.7254 1071.37 44.7254C1068.56 44.7254 1066.29 43.8644 1064.57 42.1424C1061.79 39.3284 1060.41 33.0494 1060.41 23.3054C1060.41 21.2474 1060.43 19.5044 1060.47 18.0764C1060.56 16.6064 1060.72 14.9054 1060.98 12.9734C1061.23 11.0414 1061.65 9.34045 1062.24 7.87045C1062.87 6.35844 1063.64 5.14045 1064.57 4.21645C1066.29 2.49445 1068.56 1.63345 1071.37 1.63345C1074.14 1.63345 1076.39 2.49445 1078.11 4.21645C1079.83 5.93844 1080.95 8.43744 1081.45 11.7134C1082 14.9894 1082.27 18.8114 1082.27 23.1794ZM1066.33 24.1874C1066.33 32.1674 1067.11 36.9344 1068.66 38.4884C1069.33 39.1604 1070.24 39.4964 1071.37 39.4964C1072.46 39.4964 1073.34 39.1604 1074.02 38.4884C1075.57 36.9344 1076.35 32.1674 1076.35 24.1874V21.0374C1076.35 13.6454 1075.57 9.21445 1074.02 7.74445C1073.34 7.07245 1072.46 6.73644 1071.37 6.73644C1070.24 6.73644 1069.33 7.07245 1068.66 7.74445C1067.11 9.21445 1066.33 13.6454 1066.33 21.0374V24.1874ZM1086.61 2.13744H1094.04C1096.69 2.13744 1098.75 2.57844 1100.22 3.46045C1102.99 5.14045 1104.37 8.60545 1104.37 13.8554C1104.37 18.4754 1103.16 21.7304 1100.72 23.6204C1099.08 24.8804 1096.27 25.5104 1092.28 25.5104V44.1584H1086.61V2.13744ZM1092.28 20.6594H1092.78C1094.97 20.6594 1096.46 20.1134 1097.25 19.0214C1098.05 17.9294 1098.45 16.2494 1098.45 13.9814C1098.45 9.27745 1096.65 6.92545 1093.03 6.92545H1092.28V20.6594ZM1128.48 23.1794C1128.48 25.9514 1128.41 28.3034 1128.29 30.2354C1128.16 32.1254 1127.76 34.2884 1127.09 36.7244C1126.46 39.1184 1125.54 40.9244 1124.32 42.1424C1122.6 43.8644 1120.35 44.7254 1117.58 44.7254C1114.76 44.7254 1112.49 43.8644 1110.77 42.1424C1108 39.3284 1106.61 33.0494 1106.61 23.3054C1106.61 21.2474 1106.64 19.5044 1106.68 18.0764C1106.76 16.6064 1106.93 14.9054 1107.18 12.9734C1107.43 11.0414 1107.85 9.34045 1108.44 7.87045C1109.07 6.35844 1109.85 5.14045 1110.77 4.21645C1112.49 2.49445 1114.76 1.63345 1117.58 1.63345C1120.35 1.63345 1122.6 2.49445 1124.32 4.21645C1126.04 5.93844 1127.15 8.43744 1127.66 11.7134C1128.2 14.9894 1128.48 18.8114 1128.48 23.1794ZM1112.54 24.1874C1112.54 32.1674 1113.31 36.9344 1114.87 38.4884C1115.54 39.1604 1116.44 39.4964 1117.58 39.4964C1118.67 39.4964 1119.55 39.1604 1120.22 38.4884C1121.78 36.9344 1122.55 32.1674 1122.55 24.1874V21.0374C1122.55 13.6454 1121.78 9.21445 1120.22 7.74445C1119.55 7.07245 1118.67 6.73644 1117.58 6.73644C1116.44 6.73644 1115.54 7.07245 1114.87 7.74445C1113.31 9.21445 1112.54 13.6454 1112.54 21.0374V24.1874ZM1132.81 2.13744H1140.5C1146.51 2.13744 1149.51 5.87544 1149.51 13.3514C1149.51 16.3334 1148.98 18.6224 1147.93 20.2184C1147.22 21.3524 1145.98 22.2134 1144.22 22.8014C1145.94 23.4314 1147.18 24.1664 1147.93 25.0064C1149.4 26.5604 1150.14 29.1014 1150.14 32.6294C1150.14 40.3154 1146.84 44.1584 1140.25 44.1584H1132.81V2.13744ZM1138.17 20.6594H1138.55C1140.77 20.6594 1142.24 20.0504 1142.96 18.8324C1143.67 17.5724 1144.03 15.7454 1144.03 13.3514C1144.03 8.94145 1142.39 6.73644 1139.11 6.73644H1138.17V20.6594ZM1138.17 25.1324V39.3074C1139.81 39.3074 1140.98 39.1394 1141.7 38.8034C1143.42 38.0054 1144.28 35.8844 1144.28 32.4404C1144.28 29.9204 1143.86 28.0724 1143.02 26.8964C1142.22 25.7204 1140.6 25.1324 1138.17 25.1324ZM1161.62 2.13744L1156.71 15.6824L1153.81 14.8634L1157.08 0.814446L1161.62 2.13744ZM1163.72 44.1584L1170.58 24.6914C1168.95 24.4394 1167.56 23.7464 1166.43 22.6124C1164.66 20.8904 1163.78 18.0554 1163.78 14.1074C1163.78 9.44545 1164.87 6.12745 1167.06 4.15344C1167.73 3.52344 1168.53 3.06145 1169.45 2.76745C1170.37 2.43145 1171.13 2.24245 1171.72 2.20045C1172.31 2.15844 1173.12 2.13744 1174.17 2.13744H1181.67V44.1584H1176V25.0064L1169.51 44.1584H1163.72ZM1176 6.79944H1174.49C1173.02 6.79944 1171.89 7.13544 1171.09 7.80745C1169.87 8.89945 1169.26 10.9574 1169.26 13.9814C1169.26 17.0054 1169.91 18.9794 1171.21 19.9034C1172.05 20.5754 1173.36 20.9114 1175.12 20.9114H1176V6.79944Z" fill="white"/>
</svg>
